<svg xmlns="http://www.w3.org/2000/svg" width="59" height="83.114" viewBox="0 0 59 83.114">
  <g id="Group_15" data-name="Group 15" transform="translate(-1263 -328.198)">
    <text id="Office_365" data-name="Office 365" transform="translate(1263 408.312)" fill="#95989a" font-size="13" font-family="SegoeUI, Segoe UI"><tspan x="0" y="0">Office 365</tspan></text>
    <g id="Group_5" data-name="Group 5" transform="translate(1266 328.198)">
      <path id="path14" d="M95.908-234.259c.093-.584.116-42.786.028-43.707l-21.521,5.127v29.749q-5.552,2.17-11.077,4.327a.675.675,0,0,1-.063-.034c-.016-.012-.037-.03-.038-.046a3.211,3.211,0,0,1-.026-.336q0-18.031,0-36.033a1.067,1.067,0,0,1,.564-.3q15.807-5.92,31.618-11.835a1.622,1.622,0,0,1,1.1-.085q8.674,2.518,17.358,5c.084.026.168.055.287.094v50.665c-1.662.462-3.309.924-4.957,1.378q-6.294,1.736-12.588,3.471a1.8,1.8,0,0,1-1.173-.043q-15.548-5.746-31.1-11.47a1.406,1.406,0,0,1-.577-.343l32.169,4.414Z" transform="translate(-63.21 287.49)" fill="#fff" opacity="0.45"/>
    </g>
  </g>
</svg>
