<svg xmlns="http://www.w3.org/2000/svg" width="3238.491" height="2517.469" viewBox="0 0 3238.491 2517.469">
  <path id="Path_10" data-name="Path 10" d="M132.175,1572.423Q1.84,1442.088,1.84,1292.586q0-145.668,130.335-276L1163.354-10.763q126.5-126.5,279.836-126.5,80.5,0,151.418,32.584a438.574,438.574,0,0,1,214.669,214.669q32.583,70.918,32.584,151.418,0,161-118.835,279.837L971.685,1292.586l751.342,755.176Q1841.861,2166.6,1841.862,2327.6q0,80.5-32.584,151.418a433.607,433.607,0,0,1-88.168,126.5,404.719,404.719,0,0,1-126.5,86.251q-70.918,30.667-151.418,30.667-161,0-279.836-118.835Z" transform="matrix(-0.259, 0.966, -0.966, -0.259, 3106.381, 702.841)" fill="#dd3b30"/>
</svg>
