<svg xmlns="http://www.w3.org/2000/svg" width="369.922" height="67.309" viewBox="0 0 369.922 67.309">
  <g id="Group_396" data-name="Group 396" transform="translate(0 -24.1)">
    <path id="Path_1468" data-name="Path 1468" d="M36.514,24.1V89.184h-.556C27.057,68.046,17.6,46.351,8.7,24.1Z" transform="translate(39.696 0)" fill="#aaa"/>
    <path id="Path_1469" data-name="Path 1469" d="M0,89.184V24.1H27.814C18.357,45.795,9.457,67.489,0,89.184Z" fill="#aaa"/>
    <path id="Path_1470" data-name="Path 1470" d="M4.6,56.97c3.894-9.457,7.788-18.913,12.238-28.37,6.119,13.907,11.682,27.814,17.8,42.277H24.07q-.834,0-1.669-1.669A74.291,74.291,0,0,1,18.507,59.2c-.556-1.669-1.113-2.225-3.338-2.225Z" transform="translate(20.989 20.532)" fill="#aaa"/>
    <line id="Line_19" data-name="Line 19" y2="65.084" transform="translate(86.222 24.1)" fill="none" stroke="#aaa" stroke-miterlimit="10" stroke-width="0.25"/>
    <g id="Group_393" data-name="Group 393" transform="translate(97.904 45.238)">
      <path id="Path_1471" data-name="Path 1471" d="M23.163,45.9,22.05,50.907H17.6L22.606,28.1h5.563l4.45,22.807h-4.45L27.057,45.9H23.163Zm3.894-3.894L26.5,37c0-1.669-.556-3.894-.556-5.006h0c0,1.669-.556,3.894-.556,5.006l-1.113,5.006Z" transform="translate(-17.6 -26.987)" fill="#aaa"/>
      <path id="Path_1472" data-name="Path 1472" d="M32.938,28V51.364H29.044V49.695h0a4.574,4.574,0,0,1-3.338,2.225c-3.338,0-5.006-3.894-5.006-8.344,0-5.563,2.781-8.344,5.563-8.344A2.57,2.57,0,0,1,29.044,36.9h0V28Zm-4.45,13.351V40.238a1.475,1.475,0,0,0-1.669-1.669c-1.669,0-2.225,2.225-2.225,5.006,0,3.338,1.113,5.006,2.225,5.006q.834,0,1.669-1.669V41.351Z" transform="translate(-3.456 -27.444)" fill="#aaa"/>
      <path id="Path_1473" data-name="Path 1473" d="M36.651,37.544c0,6.675-3.894,8.344-6.675,8.344-3.894,0-6.675-3.338-6.675-8.344,0-6.119,3.338-8.344,6.675-8.344C33.869,29.2,36.651,32.538,36.651,37.544Zm-8.344,0c0,2.781.556,5.006,2.225,5.006S32.2,39.769,32.2,37.544s-.556-5.006-1.669-5.006C28.306,32.538,28.306,35.319,28.306,37.544Z" transform="translate(8.408 -21.968)" fill="#aaa"/>
      <path id="Path_1474" data-name="Path 1474" d="M26.1,51.364V28h5.006v8.344h0q.834-1.669,3.338-1.669c3.338,0,5.006,3.894,5.006,8.344,0,5.563-2.225,8.9-5.563,8.9-1.669,0-2.225-.556-3.338-2.225h0V51.92H26.1Zm5.006-6.119v1.113q.834,1.669,1.669,1.669c1.669,0,2.225-1.669,2.225-5.006,0-2.781-.556-4.45-2.225-4.45q-.834,0-1.669,1.669v5.006Z" transform="translate(21.183 -27.444)" fill="#aaa"/>
      <path id="Path_1475" data-name="Path 1475" d="M33.25,39.669c0,2.781,1.669,3.338,3.338,3.338a7.055,7.055,0,0,0,3.338-.556l.556,3.338a10.844,10.844,0,0,1-4.45.556c-4.45,0-7.232-2.781-7.232-8.344s2.781-8.9,6.675-8.9c3.338,0,5.563,2.781,5.563,7.788v2.225H33.25Zm3.894-3.338c0-2.225-.556-3.894-1.669-3.894-1.669,0-2.225,2.225-2.225,3.894Z" transform="translate(33.503 -22.425)" fill="#aaa"/>
      <path id="Path_1476" data-name="Path 1476" d="M44.638,50.351c-.556.556-1.669.556-3.338.556-6.119,0-8.9-5.006-8.9-11.125,0-8.344,5.006-11.682,9.457-11.682a19.669,19.669,0,0,1,3.338.556l-.556,3.894c-.556,0-1.113-.556-2.225-.556-2.781,0-5.006,2.225-5.006,7.788s2.225,7.788,5.006,7.788a3.345,3.345,0,0,0,2.225-.556Z" transform="translate(49.929 -26.987)" fill="#aaa"/>
      <path id="Path_1477" data-name="Path 1477" d="M39.35,39.669c0,2.781,1.669,3.338,3.338,3.338a7.055,7.055,0,0,0,3.338-.556l.556,3.338a10.844,10.844,0,0,1-4.45.556c-4.45,0-7.232-2.781-7.232-8.344s2.781-8.9,6.675-8.9c3.338,0,5.563,2.781,5.563,7.788v2.225H39.35Zm3.894-3.338c0-2.225-.556-3.894-1.669-3.894-1.669,0-2.225,2.225-2.225,3.894Z" transform="translate(61.335 -22.425)" fill="#aaa"/>
      <path id="Path_1478" data-name="Path 1478" d="M37.6,34.663V29.656h3.894v2.225h0A4.108,4.108,0,0,1,44.832,29.1h1.113v5.006H44.832a2.839,2.839,0,0,0-2.781,2.225V46.344H37.6Z" transform="translate(73.655 -22.425)" fill="#aaa"/>
      <path id="Path_1479" data-name="Path 1479" d="M46.432,28.4v4.45h3.338v3.338H46.432v7.788c0,1.669.556,2.225,1.669,2.225h1.113v3.338a24.092,24.092,0,0,1-2.781.556,7.906,7.906,0,0,1-3.338-1.113c-1.113-1.113-1.669-2.225-1.669-5.006V36.188H39.2V32.85h2.225V29.513Z" transform="translate(80.955 -25.619)" fill="#aaa"/>
      <path id="Path_1480" data-name="Path 1480" d="M45.95,30.225a2.038,2.038,0,0,1-2.225,2.225A2.393,2.393,0,0,1,41.5,30.225,2.038,2.038,0,0,1,43.725,28,2.393,2.393,0,0,1,45.95,30.225ZM41.5,51.364V34.675h4.45V51.364Z" transform="translate(91.449 -27.444)" fill="#aaa"/>
      <path id="Path_1481" data-name="Path 1481" d="M44.825,51.82V38.469H42.6V35.132h2.225V34.019c0-2.225,1.113-6.119,7.232-6.119a8.248,8.248,0,0,1,3.894.556V32.35c-.556-.556-1.669-.556-3.338-.556-2.225,0-3.338,1.113-3.338,2.781v.556h8.344V51.82h-4.45V38.469H49.275V51.82Z" transform="translate(96.468 -27.9)" fill="#aaa"/>
      <path id="Path_1482" data-name="Path 1482" d="M50.25,39.669c0,2.781,1.669,3.338,3.338,3.338a7.055,7.055,0,0,0,3.338-.556l.556,3.338a10.844,10.844,0,0,1-4.45.556c-4.45,0-7.232-2.781-7.232-8.344s2.781-8.9,6.675-8.9c3.338,0,5.563,2.781,5.563,7.788v2.225H50.25Zm3.894-3.338c0-2.225-.556-3.894-1.669-3.894-1.669,0-2.225,2.225-2.225,3.894Z" transform="translate(111.069 -22.425)" fill="#aaa"/>
      <path id="Path_1483" data-name="Path 1483" d="M60.738,28V51.364H56.844V49.695h0a4.574,4.574,0,0,1-3.338,2.225c-3.338,0-5.007-3.894-5.007-8.344,0-5.563,2.781-8.344,5.563-8.344A2.57,2.57,0,0,1,56.844,36.9h0V28Zm-4.45,13.351V40.238a1.475,1.475,0,0,0-1.669-1.669c-1.669,0-2.225,2.225-2.225,5.006,0,3.338,1.113,5.006,2.225,5.006q.834,0,1.669-1.669V41.351Z" transform="translate(123.389 -27.444)" fill="#aaa"/>
      <path id="Path_1484" data-name="Path 1484" d="M52.856,28.556c1.113,0,2.781-.556,4.45-.556,2.781,0,5.006.556,6.119,1.669a8.285,8.285,0,0,1,2.225,5.006c0,2.225-.556,4.45-2.225,5.563a7.969,7.969,0,0,1-5.563,2.225H56.75v8.344H52.3V28.556Zm4.45,10.569h.556c2.225,0,3.338-1.669,3.338-3.894s-.556-3.338-2.781-3.338H57.306v7.232Z" transform="translate(140.727 -27.444)" fill="#aaa"/>
      <path id="Path_1485" data-name="Path 1485" d="M63.244,45.888V44.219h0a5.05,5.05,0,0,1-3.894,1.669c-2.781,0-4.45-2.225-4.45-5.006,0-4.45,3.894-6.119,7.788-6.119v-.556a2.038,2.038,0,0,0-2.225-2.225,7.906,7.906,0,0,0-3.338,1.113l-.556-2.781A11.108,11.108,0,0,1,61.575,29.2c5.006,0,6.119,3.338,6.119,6.675V45.888Zm-.556-8.344c-1.669,0-3.338.556-3.338,2.781,0,1.669,1.113,2.225,1.669,2.225a1.776,1.776,0,0,0,1.669-1.669V37.544Z" transform="translate(152.59 -21.968)" fill="#aaa"/>
      <path id="Path_1486" data-name="Path 1486" d="M64.532,28.4v4.45h3.338v3.338H64.532v7.788c0,1.669.556,2.225,1.669,2.225h1.113v3.338a24.091,24.091,0,0,1-2.781.556,7.906,7.906,0,0,1-3.338-1.113c-1.113-1.113-1.669-2.225-1.669-5.006V36.188H57.3V32.85h2.225V29.513Z" transform="translate(163.541 -25.619)" fill="#aaa"/>
      <path id="Path_1487" data-name="Path 1487" d="M59.6,34.663V29.656h3.894v1.669h0c1.113-1.113,2.225-2.225,3.894-2.225,3.338,0,4.45,2.781,4.45,6.119V45.788h-4.45V35.219c0-1.669-.556-2.781-1.669-2.781q-.834,0-1.669,1.669V45.788H59.6V34.663Z" transform="translate(174.035 -22.425)" fill="#aaa"/>
      <path id="Path_1488" data-name="Path 1488" d="M66.75,39.669c0,2.781,1.669,3.338,3.338,3.338a7.055,7.055,0,0,0,3.338-.556l.556,3.338a10.844,10.844,0,0,1-4.45.556c-4.45,0-7.232-2.781-7.232-8.344s2.781-8.9,6.675-8.9c3.338,0,5.563,2.781,5.563,7.788v2.225H66.75Zm3.894-3.338c0-2.225-.556-3.894-1.669-3.894-1.669,0-2.225,2.225-2.225,3.894Z" transform="translate(186.354 -22.425)" fill="#aaa"/>
      <path id="Path_1489" data-name="Path 1489" d="M65,34.663V29.656h3.894v2.225h0A4.108,4.108,0,0,1,72.232,29.1h1.113v5.006H72.232a2.839,2.839,0,0,0-2.781,2.225V46.344H65Z" transform="translate(198.674 -22.425)" fill="#aaa"/>
    </g>
  </g>
</svg>
