<svg xmlns="http://www.w3.org/2000/svg" width="3560.096" height="4873.399" viewBox="0 0 3560.096 4873.399">
  <g id="Group_773" data-name="Group 773" transform="translate(1102.753 192.291)">
    <path id="Path_2552" data-name="Path 2552" d="M1808.487,2667.284c27.337,74.743-57.006,148.092-122.005,174.786-64.3,26.4-116.089,11.233-158.586-53.758q-368.565-563.637-743.7-1122.972c-36.03-53.949-35.168-98.692-.182-153.005,241.361-374.661,480.169-750.969,720.72-1126.152,56.536-88.183,117.11-99.229,206.528-42.6,87.029,55.118,103.243,117.967,49.1,203.281-205.407,323.686-410.508,647.583-618.709,969.478-32.95,50.946-35.819,86.305-.464,138.732,212.521,315.145,420.888,633.093,630.415,950.255C1789.414,2632.279,1805.6,2658.14,1808.487,2667.284Z" transform="matrix(0.819, -0.574, 0.574, 0.819, -665.629, 595.17)" fill="#dd3b30"/>
    <path id="Path_2553" data-name="Path 2553" d="M1808.487,2667.284c27.337,74.743-57.006,148.092-122.005,174.786-64.3,26.4-116.089,11.233-158.586-53.758q-368.565-563.637-743.7-1122.972c-36.03-53.949-35.168-98.692-.182-153.005,241.361-374.661,480.169-750.969,720.72-1126.152,56.536-88.183,117.11-99.229,206.528-42.6,87.029,55.118,103.243,117.967,49.1,203.281-205.407,323.686-410.508,647.583-618.709,969.478-32.95,50.946-35.819,86.305-.464,138.732,212.521,315.145,420.888,633.093,630.415,950.255C1789.414,2632.279,1805.6,2658.14,1808.487,2667.284Z" transform="translate(2276.113 3264.685) rotate(120)" fill="#0b4ba2"/>
  </g>
</svg>
