<svg xmlns="http://www.w3.org/2000/svg" xmlns:xlink="http://www.w3.org/1999/xlink" width="150.726" height="55.812" viewBox="0 0 150.726 55.812">
  <defs>
    <clipPath id="clip-path">
      <rect id="Rectangle_16" data-name="Rectangle 16" width="150.726" height="55.811" fill="none"/>
    </clipPath>
  </defs>
  <g id="Capa_1" data-name="Capa 1" transform="translate(-414 194)" opacity="0.31">
    <g id="Group_61" data-name="Group 61" transform="translate(414 -194)" clip-path="url(#clip-path)">
      <path id="Path_190" data-name="Path 190" d="M150.732,22.294c0-9.54-3.8-11.53-10.433-11.53-6.224,0-10.764,1.939-10.764,11.657s3.571,11.708,10.509,11.708,10.764-2.551,10.764-11.836m-5.918.23c0,5.79-1.53,6.836-4.77,6.836s-4.719-1.3-4.719-6.964,1.5-6.785,4.744-6.785c3.622,0,4.668,1.377,4.668,6.913m1.632-20.661a1.709,1.709,0,0,0,.485-1.02c0-.485-.332-.842-1.1-.842h-3.393a2.041,2.041,0,0,0-1.735.969l-4,5.1a1.53,1.53,0,0,0-.408.995c0,.485.357.791,1.071.791h2.168a2.551,2.551,0,0,0,1.811-.791ZM132.953,46.986h-6.2a.306.306,0,0,0-.332.332v1.735c0,.255,0,.306.306.306h.663a.306.306,0,0,0,.332-.306v-.587h1.25v5.943h-.485c-.255,0-.332,0-.332.306v.714c0,.2,0,.332.332.332h2.551c.2,0,.332,0,.332-.306V54.74c0-.255-.128-.332-.357-.332h-.459V48.465h1.25v.689a.281.281,0,0,0,.306.306h.663c.179,0,.306,0,.306-.306V47.419c0-.255,0-.332-.332-.332M126.168,32.6V30.048c0-.842-.408-1.2-1.25-1.2h-1.5V2.041c0-.969-.255-1.5-1.275-1.5h-5.79c-.918,0-1.25.434-1.25,1.1V4.183a1.071,1.071,0,0,0,1.2,1.2h1.428V28.7h-1.377c-.918,0-1.25.434-1.25,1.148V32.4a1.046,1.046,0,0,0,1.2,1.173h8.877c.791,0,1.2-.179,1.2-1.046M115.046,51.271c0-3.8-1.2-4.438-3.673-4.438s-3.775.765-3.775,4.438,1.2,4.54,3.673,4.54,3.775-.944,3.775-4.54m-1.76,0c0,2.678-.74,3.137-1.99,3.137s-1.964-.485-1.964-3.163.714-3.061,1.99-3.061,1.964.485,1.964,3.086m-1.4-28.824c0-7.015-.791-11.708-9.361-11.708-7.321.026-10.688,3.342-10.688,11.81,0,7.958,2.551,11.581,10.535,11.581a21.962,21.962,0,0,0,8.316-1.454,1.224,1.224,0,0,0,.74-1.148,9.234,9.234,0,0,0-.561-2.551c-.179-.434-.306-.765-.944-.765a4.923,4.923,0,0,0-1.275.281,19.233,19.233,0,0,1-5.612.791c-3.214,0-5.1-.893-5.1-5.1h12.448a1.582,1.582,0,0,0,1.02-.255c.383-.23.485-.74.485-1.454m-5.561-3.086a3.5,3.5,0,0,1,0,.714H98.007c0-3.137,1.2-5.1,4.438-5.1s3.877,1.5,3.877,4.285m-9.846,27.7H90.992c-.255,0-.332,0-.332.332v.714a.306.306,0,0,0,.332.332h.434v5.943h-.434c-.255,0-.332,0-.332.306v.714c0,.2,0,.332.332.332H96.63c.23,0,.332,0,.332-.306V53.567c0-.23-.128-.306-.332-.306h-.663c-.255,0-.332.128-.332.306v.74H93.084V51.756h2.551c.23,0,.332,0,.332-.281v-.791c0-.23,0-.306-.332-.306H93.084V48.465h2.27v.689a.306.306,0,0,0,.332.306h.663c.2,0,.332,0,.332-.306v-1.76c0-.255,0-.306-.306-.306M77.244,22.574h0c0-3.979.893-6.811,4.464-6.862a19.692,19.692,0,0,1,2.551,0l.128,2.551c0,.663.255,1.1,1.1,1.1h2.423c.714,0,1.148,0,1.148-1.02V12.754a1.25,1.25,0,0,0-.867-1.377,24.794,24.794,0,0,0-6.224-.663c-7.984.051-10.535,3.852-10.535,12.244,0,8.7,3.342,11.3,9.846,11.3a19.9,19.9,0,0,0,7.652-1.25,1.173,1.173,0,0,0,.765-1.1,10.2,10.2,0,0,0-.638-2.551.842.842,0,0,0-.918-.714,6.606,6.606,0,0,0-1.4.332,19.463,19.463,0,0,1-4.591.561c-3.775,0-4.744-2.219-4.744-6.887M72.933,47.266a9.055,9.055,0,0,0-2.194-.23c-2.3,0-2.882.867-2.882,2.372a1.709,1.709,0,0,0,1.428,1.811A1.964,1.964,0,0,0,67.5,53.414c0,1.633.689,2.551,3.546,2.551,2.27,0,3.444-.638,3.444-2.7a2.015,2.015,0,0,0-.153-.714,8.367,8.367,0,0,0,1.25-.255.315.315,0,0,0,.306-.332,5.1,5.1,0,0,0-.153-.867.281.281,0,0,0-.281-.23,1.352,1.352,0,0,0-.408,0,10.969,10.969,0,0,1-3.163.357c-.2,0-.357,0-.357.408v.638c0,.281.128.357.434.357h.893a1.505,1.505,0,0,1,.128.561c0,1.1-.561,1.3-1.913,1.3s-1.811-.332-1.811-1.275.306-1.2,1.428-1.224a.341.341,0,0,0,.383-.357v-.714c0-.23,0-.357-.383-.383a.969.969,0,0,1-1.1-1.071c0-.689.23-1.1,1.5-1.1a3.7,3.7,0,0,1,.816,0v.587c0,.179,0,.281.306.281h.612c.179,0,.332,0,.332-.281V47.47a.357.357,0,0,0-.281-.383M69.591,15.3a26.452,26.452,0,0,0,.255-3.112,1.046,1.046,0,0,0-.791-1.148,7.448,7.448,0,0,0-1.99-.179,5.714,5.714,0,0,0-5.1,2.551v-.893c0-.791-.306-1.224-1.275-1.224H54.822c-.969,0-1.275.434-1.275,1.148V15c0,.689.306,1.1,1.173,1.1h1.4V28.543H54.746c-.918,0-1.224.434-1.224,1.148v2.551a1.046,1.046,0,0,0,1.173,1.173h9.642c.74,0,1.148-.179,1.148-1.046V29.819a1.046,1.046,0,0,0-1.2-1.2H62.041v-10.2a3.8,3.8,0,0,1,.153-1.122,2.194,2.194,0,0,1,.714-.74,6.683,6.683,0,0,1,3.137-.612c.714,0,2.041.179,2.551.179a1.046,1.046,0,0,0,.995-.816M53.037,55.327v-1.76c0-.23,0-.281-.306-.281h-.689a.281.281,0,0,0-.306.306v.74H49.185V48.465h.536c.23,0,.332,0,.332-.306v-.74c0-.255,0-.332-.332-.332H47.068c-.255,0-.332,0-.332.306v.74a.306.306,0,0,0,.332.332H47.5v5.943h-.434c-.255,0-.332,0-.332.306v.714c0,.2,0,.332.332.332h5.637a.306.306,0,0,0,.332-.332M50.486,32.472V29.921c0-.842-.357-1.2-1.2-1.2H47.655V18.06a7.4,7.4,0,0,0-1.479-5.51c-1.2-1.25-3.137-1.786-7.423-1.786a27.192,27.192,0,0,0-7.244.944,1.173,1.173,0,0,0-.918,1.275,15.713,15.713,0,0,0,.357,2.551,1.02,1.02,0,0,0,.969.893,12.371,12.371,0,0,0,1.633-.23,24.028,24.028,0,0,1,4.285-.357c2.551,0,3.444.485,3.75,1.275a5.893,5.893,0,0,1,.255,1.913V20.1a31.17,31.17,0,0,0-3.877-.179,12.754,12.754,0,0,0-6.76,1.4,5.816,5.816,0,0,0-2.551,5.484c0,3.7,1.53,7.168,7.652,7.168A7.321,7.321,0,0,0,42.2,31.655v1.02c0,.612.51.867,1.173.867h6.045c.791,0,1.148-.179,1.148-1.046m-8.647-6.045a4.719,4.719,0,0,1-.179,1.454,1.964,1.964,0,0,1-.561.74,5.561,5.561,0,0,1-3.418.893c-2.729,0-3.469-1.2-3.469-2.882a2.245,2.245,0,0,1,.816-1.99,6.556,6.556,0,0,1,3.724-.791,17.615,17.615,0,0,1,3.086.179ZM27.376,51.271c0-3.8-1.2-4.438-3.648-4.438s-3.8.765-3.8,4.438,1.2,4.54,3.673,4.54,3.775-.944,3.775-4.54m-1.735,0c0,2.678-.74,3.137-1.99,3.137s-1.964-.485-1.964-3.163.714-3.061,1.99-3.061,1.964.485,1.964,3.086M19.468,17.218A6.454,6.454,0,0,0,24.111,10.2c0-4.591-2.4-6.913-7.5-7.448a34.044,34.044,0,0,0-4.744-.383H1.23C.312,2.372.006,2.831.006,3.52V6.071A1.046,1.046,0,0,0,1.2,7.244H2.786V28.62H1.23c-.918,0-1.224.459-1.224,1.148v2.551a1.046,1.046,0,0,0,1.2,1.173H11.612a28.671,28.671,0,0,0,8.979-.995,7.652,7.652,0,0,0,4.489-7.984,6.607,6.607,0,0,0-5.612-7.3m-1.479-5.994a3.444,3.444,0,0,1-2.168,3.469,9.846,9.846,0,0,1-3.622.357H8.882V7.27h2.959a12.754,12.754,0,0,1,3.469.383,3.188,3.188,0,0,1,2.551,3.622m.816,12.754c0,2.347-.842,3.6-2.245,4.107a15.3,15.3,0,0,1-4.515.485H8.882V20h3.571a11.81,11.81,0,0,1,4.03.408,3.469,3.469,0,0,1,2.321,3.622M9.546,47.317v.714a.306.306,0,0,0,.332.332h.332v5.943H9.9c-.281,0-.357,0-.357.306v.714c0,.2,0,.332.332.332h2.551c.2,0,.306,0,.306-.306v-.714c0-.255,0-.332-.332-.332H12.02V51.756h3.112v2.551h-.408c-.255,0-.357,0-.357.306v.714a.306.306,0,0,0,.332.332h2.551c.2,0,.306,0,.306-.306v-.714c0-.255,0-.332-.332-.332h-.383V48.465H17.3c.2,0,.306,0,.306-.306v-.74c0-.255,0-.332-.332-.332H14.724c-.255,0-.357,0-.357.332v.714a.306.306,0,0,0,.332.332h.434v2.117H12.02V48.465h.459c.2,0,.306,0,.306-.306v-.74c0-.255,0-.332-.332-.332H9.9c-.281,0-.357,0-.357.332m19.667,0v1.735c0,.255.128.306.332.306h.638a.306.306,0,0,0,.332-.306v-.689h1.25v5.943H31.3c-.281,0-.357,0-.357.306v.714c0,.2,0,.332.332.332h2.678c.23,0,.332,0,.332-.306V54.74c0-.255,0-.332-.332-.332h-.485V48.465h1.25v.689a.281.281,0,0,0,.306.306h.689c.2,0,.306,0,.306-.306V47.419c0-.255,0-.332-.332-.332H29.544a.306.306,0,0,0-.332.332m8.877,0v.714a.306.306,0,0,0,.332.332h.434v5.943h-.434c-.255,0-.332,0-.332.306v.714c0,.2,0,.332.332.332h5.637c.23,0,.332,0,.332-.306V53.669c0-.23-.128-.306-.332-.306h-.689a.281.281,0,0,0-.332.306v.74H40.487V51.858h2.551c.23,0,.332,0,.332-.281v-.791c0-.23,0-.306-.332-.306H40.487V48.465h2.3v.689a.306.306,0,0,0,.332.306H43.8c.179,0,.306,0,.306-.306v-1.76c0-.255,0-.306-.306-.306H38.421c-.255,0-.332,0-.332.332M54.9,53.567v1.607a.434.434,0,0,0,.306.408,7.5,7.5,0,0,0,2.551.357c2.551,0,3.265-1.071,3.265-2.7s-.51-2.066-2.092-2.551l-1.071-.255c-.918-.23-1.046-.638-1.046-1.1s.23-1.046,1.275-1.046a8.165,8.165,0,0,1,1.25,0v.74a.306.306,0,0,0,.332.332h.689c.2,0,.306,0,.306-.306V47.419a.383.383,0,0,0-.281-.408,9.26,9.26,0,0,0-2.219-.255c-2.347,0-3.137,1.046-3.137,2.551a2.245,2.245,0,0,0,1.964,2.551l1.046.23c1.046.255,1.173.587,1.173,1.148s-.153,1.071-1.454,1.071a5.739,5.739,0,0,1-1.53-.179l-.1-.561c0-.2,0-.332-.332-.332h-.663a.306.306,0,0,0-.332.332m26.834-6.249v.714a.306.306,0,0,0,.332.332H82.4v5.943h-.434c-.255,0-.332,0-.332.306v.714c0,.2,0,.332.332.332h2.7c.2,0,.306,0,.306-.306v-.714c0-.255,0-.332-.332-.332h-.536V52.189h1.275L86.733,55.1a.842.842,0,0,0,.944.561h1.148c.2,0,.306,0,.306-.306v-.714c0-.255,0-.332-.306-.332h-.332c-.281,0-.332,0-.408-.281l-1.148-2.168a2.245,2.245,0,0,0,1.428-2.321,2.117,2.117,0,0,0-1.224-2.245,6.351,6.351,0,0,0-2.372-.306H81.835c-.255,0-.332,0-.332.332m2.551,1.046h.765a3.8,3.8,0,0,1,1.224.128c.383.153.587.459.587,1.122a1.046,1.046,0,0,1-.612,1.1,3.52,3.52,0,0,1-1.173.153h-.791Zm15.075,5.1v1.607a.383.383,0,0,0,.306.408,7.4,7.4,0,0,0,2.551.357c2.551,0,3.265-1.071,3.265-2.7s-.536-2.066-2.117-2.551l-1.046-.255c-.944-.23-1.071-.638-1.071-1.1s.255-1.046,1.3-1.046a8.161,8.161,0,0,1,1.25,0v.74a.306.306,0,0,0,.332.332h.689c.179,0,.306,0,.306-.306V47.317a.408.408,0,0,0-.306-.408,9.055,9.055,0,0,0-2.194-.255c-2.372,0-3.163,1.046-3.163,2.551a2.27,2.27,0,0,0,1.99,2.551l1.046.23c1.046.255,1.173.587,1.173,1.148s-.179,1.071-1.454,1.071a6.046,6.046,0,0,1-1.556-.179v-.791c0-.2,0-.332-.332-.332h-.612c-.2,0-.306,0-.306.332m18.162-5.918v.714a.306.306,0,0,0,.332.332h.434v5.943h-.434c-.255,0-.332,0-.332.306v.714c0,.2,0,.332.332.332h2.7c.2,0,.306,0,.306-.306v-.714c0-.255,0-.332-.332-.332h-.459V52.189h1.3l1.25,2.908a.867.867,0,0,0,.969.561h1.122c.2,0,.306,0,.306-.306v-.714c0-.255,0-.332-.306-.332h-.306c-.281,0-.332,0-.434-.281l-1.122-2.168a2.245,2.245,0,0,0,1.428-2.321,2.117,2.117,0,0,0-1.25-2.245,6.249,6.249,0,0,0-2.372-.306h-2.755c-.255,0-.332,0-.332.332m2.5,1.148h.765a3.6,3.6,0,0,1,1.224.128c.383.153.612.459.612,1.122a1.071,1.071,0,0,1-.638,1.1,3.316,3.316,0,0,1-1.173.153h-.791Zm15.3,5.1v1.607a.434.434,0,0,0,.306.408,7.652,7.652,0,0,0,2.551.357c2.551,0,3.24-1.071,3.24-2.7s-.51-2.066-2.092-2.551l-1.071-.255c-.918-.23-1.046-.638-1.046-1.1s.255-1.046,1.3-1.046a7.855,7.855,0,0,1,1.224,0v.74c0,.2,0,.332.357.332h.663c.2,0,.306,0,.306-.306V47.419a.383.383,0,0,0-.281-.408,9.26,9.26,0,0,0-2.219-.255c-2.347,0-3.137,1.046-3.137,2.551a2.27,2.27,0,0,0,1.964,2.551l1.071.23c1.02.255,1.148.587,1.148,1.148s-.153,1.071-1.454,1.071a5.739,5.739,0,0,1-1.53-.179v-.791c0-.2,0-.332-.332-.332H135.5a.306.306,0,0,0-.332.332" transform="translate(-0.006 0)" fill="#fff"/>
    </g>
  </g>
</svg>
