<svg xmlns="http://www.w3.org/2000/svg" width="57.813" height="86.112" viewBox="0 0 57.813 86.112">
  <g id="Group_14" data-name="Group 14" transform="translate(-1015 -327.631)">
    <text id="Power_Bi" data-name="Power Bi" transform="translate(1019 410.743)" fill="#95989a" font-size="13" font-family="SegoeUI, Segoe UI"><tspan x="0" y="0">Power Bi</tspan></text>
    <g id="Group_3" data-name="Group 3" transform="translate(1015 327.631)">
      <path id="Path_2" data-name="Path 2" d="M14.417,36.068a3.781,3.781,0,0,1-3.759,3.759A3.67,3.67,0,0,1,6.9,36.068V19.959A3.781,3.781,0,0,1,10.659,16.2a3.67,3.67,0,0,1,3.759,3.759Z" transform="translate(4.018 12.544)" fill="#fff" opacity="0.45"/>
      <path id="Path_3" data-name="Path 3" d="M20.338,42.18a3.781,3.781,0,0,1-3.759,3.759A3.527,3.527,0,0,1,13,42.18V17.659A3.781,3.781,0,0,1,16.759,13.9a3.67,3.67,0,0,1,3.759,3.759V42.18Z" transform="translate(8.836 10.728)" fill="#fff" opacity="0.45"/>
      <path id="Path_4" data-name="Path 4" d="M8.317,30.829a3.781,3.781,0,0,1-3.759,3.759A3.67,3.67,0,0,1,.8,30.829v-8.77a3.759,3.759,0,1,1,7.517,0Z" transform="translate(-0.8 14.203)" fill="#fff" opacity="0.45"/>
      <path id="Path_5" data-name="Path 5" d="M26.338,47.934a3.67,3.67,0,1,1-7.338,0V15.359a3.759,3.759,0,0,1,7.517,0V47.934Z" transform="translate(13.576 8.911)" fill="#fff" opacity="0.45"/>
      <path id="Path_6" data-name="Path 6" d="M51.658,55.375a7.612,7.612,0,0,1-1.969-.358l-4.475-1.432A1.415,1.415,0,0,1,46.11,50.9l4.654,1.432a2.873,2.873,0,0,0,2.864-.537,2.9,2.9,0,0,0,1.253-2.506V19.4a3.12,3.12,0,0,0-2.148-3.043L8.88,3.111a3.291,3.291,0,0,0-2.864.358A3.807,3.807,0,0,0,4.764,6.154V26.737a1.412,1.412,0,0,1-1.432,1.432A1.412,1.412,0,0,1,1.9,26.737V6.154A5.708,5.708,0,0,1,4.406,1.321,5.838,5.838,0,0,1,9.775.426L53.448,13.671a6.18,6.18,0,0,1,4.3,5.907V49.468a6.272,6.272,0,0,1-2.506,5.012,11.686,11.686,0,0,1-3.58.895" transform="translate(0.069 -0.141)" fill="#fff" opacity="0.45"/>
    </g>
  </g>
</svg>
