<svg xmlns="http://www.w3.org/2000/svg" width="184.76" height="186.979" viewBox="0 0 184.76 186.979">
  <g id="big-formesx-logo" transform="translate(-400 -2349.001)">
    <path id="Path_2536" data-name="Path 2536" d="M96.3,70.873,183.568,39h.555c5.369,0,9.257,3.3,9.257,7.82V57.679H212.89a8.545,8.545,0,0,1,8.516,8.525V143.33l21.77,15.6v58.521a8.537,8.537,0,0,1-8.478,8.525H98.71v-.037a7.951,7.951,0,0,1-4.925-1.63,7.851,7.851,0,0,1-3.11-6.338V78.508A7.894,7.894,0,0,1,96.3,70.873ZM234.7,219.716a2.245,2.245,0,0,0,2.258-2.261V162.12l-21.77-15.565V66.2a2.277,2.277,0,0,0-2.3-2.261H193.379V186.286a8.057,8.057,0,0,1-.112,1.334,7.818,7.818,0,0,1-5.517,6.3l-70.307,25.8ZM96.9,217.974a1.764,1.764,0,0,0,1.963,1.779l87-31.763a1.715,1.715,0,0,0,1.3-1.7V46.82c0-1.186-1.7-1.482-2.555-1.557L98.192,76.8a1.715,1.715,0,0,0-1.3,1.7Z" transform="translate(309.324 2310.001)" fill="#fff"/>
    <path id="Path_2537" data-name="Path 2537" d="M114.374,216.855H231.627a2.245,2.245,0,0,0,2.258-2.261V159.26l-21.77-15.565V63.343a2.277,2.277,0,0,0-2.3-2.261H190.309V183.425a8.054,8.054,0,0,1-.112,1.334,7.818,7.818,0,0,1-5.517,6.3Z" transform="translate(312.395 2312.861)" fill="#0d4b84"/>
    <path id="Path_2538" data-name="Path 2538" d="M96.182,77.79V217.256a1.764,1.764,0,0,0,1.963,1.779l87-31.763a1.715,1.715,0,0,0,1.3-1.7V46.1c0-1.186-1.7-1.482-2.555-1.557L97.479,76.085A1.715,1.715,0,0,0,96.182,77.79Z" transform="translate(310.038 2310.719)" fill="#fff"/>
    <g id="Group_750" data-name="Group 750" transform="translate(500.564 2393.475)">
      <g id="Path_2539" data-name="Path 2539" transform="translate(-177.502 -78.374)" fill="#0d4b84" stroke-miterlimit="10">
        <path d="M 218.3339996337891 132.2049407958984 C 215.2128753662109 132.2049407958984 212.1875305175781 131.4628753662109 209.3419647216797 129.9993438720703 C 206.6138153076172 128.5962219238281 204.1681060791016 126.5929489135742 202.0727691650391 124.0451965332031 C 199.9923706054688 121.5156021118164 198.3605041503906 118.5743179321289 197.2225189208984 115.3030395507812 C 196.0487213134766 111.928840637207 195.4535522460938 108.3471069335938 195.4535522460938 104.6573257446289 C 195.4535522460938 100.5275497436523 195.7171936035156 97.10525512695312 196.2595367431641 94.19490814208984 C 196.9198913574219 90.65135192871094 197.9969177246094 87.76844787597656 199.5521850585938 85.3814697265625 C 201.2971343994141 82.703369140625 203.6849822998047 80.65389251708984 206.6493835449219 79.28993988037109 C 209.7952423095703 77.84252166748047 213.7265167236328 77.10861206054688 218.3339996337891 77.10861206054688 C 222.9415130615234 77.10861206054688 226.8728637695312 77.84250640869141 230.0188293457031 79.28993225097656 C 232.9833526611328 80.65387725830078 235.3713226318359 82.70334625244141 237.1164093017578 85.38141632080078 C 238.6718292236328 87.76842498779297 239.7489929199219 90.65133666992188 240.4094390869141 94.19486999511719 C 240.951904296875 97.1053466796875 241.2156066894531 100.5276489257812 241.2156066894531 104.6573257446289 C 241.2156066894531 108.3471298217773 240.6204223632812 111.9288711547852 239.4466247558594 115.3030471801758 C 238.3086090087891 118.5743408203125 236.6767120361328 121.515625 234.5962524414062 124.0452117919922 C 232.5008392333984 126.5929718017578 230.0550079345703 128.5962371826172 227.3267059326172 129.9993743896484 C 224.4809722900391 131.4628753662109 221.4553833007812 132.2049407958984 218.3339996337891 132.2049407958984 Z" stroke="none"/>
        <path d="M 218.3339996337891 130.9395446777344 C 230.2722320556641 130.9395446777344 239.9502105712891 119.1719589233398 239.9502105712891 104.6573333740234 C 239.9502105712891 90.14157104492188 236.7716827392578 78.37399291992188 218.3339996337891 78.37399291992188 C 199.8964385986328 78.37399291992188 196.7189483642578 90.14157104492188 196.7189483642578 104.6573333740234 C 196.7189483642578 119.1719589233398 206.3969879150391 130.9395446777344 218.3339996337891 130.9395446777344 M 218.3339996337891 133.4703369140625 C 215.0096130371094 133.4703369140625 211.7895355224609 132.6811218261719 208.7632141113281 131.1246337890625 C 205.8807983398438 129.6421508789062 203.3009796142578 127.5307159423828 201.095458984375 124.8489685058594 C 198.9197845458984 122.2035598754883 197.2146606445312 119.131721496582 196.0273742675781 115.7188034057617 C 194.8069610595703 112.2106094360352 194.1881713867188 108.4889907836914 194.1881713867188 104.6573333740234 C 194.1881713867188 100.4488830566406 194.4588165283203 96.95076751708984 195.0155639648438 93.96309661865234 C 195.7069854736328 90.25279235839844 196.8441314697266 87.21977233886719 198.4919891357422 84.69068145751953 C 200.3692626953125 81.80949401855469 202.9358520507812 79.60565948486328 206.1204833984375 78.14039611816406 C 209.4800415039062 76.59461975097656 213.4751281738281 75.84320831298828 218.3339996337891 75.84320831298828 C 223.1929016113281 75.84320831298828 227.1880493164062 76.59461975097656 230.5477294921875 78.14036560058594 C 233.7324523925781 79.60562896728516 236.2991638183594 81.80944061279297 238.1765899658203 84.69059753417969 C 239.8246002197266 87.21970367431641 240.9618988037109 90.25274658203125 241.6534118652344 93.96302032470703 C 242.2102966308594 96.95082855224609 242.4810028076172 100.4489669799805 242.4810028076172 104.6573333740234 C 242.4810028076172 108.4890213012695 241.8621978759766 112.2106323242188 240.6417846679688 115.7188034057617 C 239.4544830322266 119.1317596435547 237.7492980957031 122.2035903930664 235.5735626220703 124.849006652832 C 233.3679351806641 127.5307540893555 230.7880096435547 129.6421966552734 227.9054107666016 131.1246643066406 C 224.8789367675781 132.6811370849609 221.6586608886719 133.4703369140625 218.3339996337891 133.4703369140625 Z" stroke="none" fill="#fff"/>
      </g>
      <g id="Path_2540" data-name="Path 2540" transform="translate(-170.341 -67.795)" fill="#ed6f55" stroke-miterlimit="10">
        <path d="M 253.2647705078125 160.5312347412109 L 250.7346343994141 160.4864196777344 C 250.7352905273438 160.3137969970703 250.7359924316406 160.1979370117188 250.7366333007812 160.125244140625 C 250.7369995117188 160.0846405029297 250.7373504638672 160.0560913085938 250.7376708984375 160.0376892089844 C 250.7513427734375 159.2445983886719 251.3920745849609 158.7706756591797 252.0036315917969 158.7706756591797 L 252.5395355224609 158.7706756591797 L 252.9124450683594 159.1555786132812 C 253.2957916259766 159.5512542724609 253.283447265625 159.9411163330078 253.2647705078125 160.5312347412109 Z" stroke="none"/>
        <path d="M 252.0000152587891 160.4912109375 C 252.0048980712891 160.3371734619141 252.0050201416016 160.0360717773438 252.0036315917969 160.0360717773438 C 252.0027618408203 160.0360717773438 252.0012969970703 160.152099609375 252.0000152587891 160.4912109375 M 254.529541015625 160.5711822509766 L 249.4692535400391 160.4816589355469 C 249.4699096679688 160.3059387207031 249.4706420898438 160.1880187988281 249.4712982177734 160.114013671875 C 249.4716949462891 160.0684814453125 249.4721221923828 160.0364685058594 249.4724731445312 160.0158386230469 C 249.4967651367188 158.6080474853516 250.6085815429688 157.5052947998047 252.0036315917969 157.5052947998047 L 253.0754241943359 157.5052947998047 L 253.8212280273438 158.2750549316406 C 254.5774536132812 159.0555725097656 254.5508880615234 159.8959350585938 254.529541015625 160.5711822509766 Z" stroke="none" fill="#fff"/>
      </g>
      <g id="Path_2541" data-name="Path 2541" transform="translate(-179.706 -67.756)" fill="#ed6f55" stroke-miterlimit="10">
        <path d="M 178.4490509033203 161.2073211669922 C 178.4473419189453 161.1742401123047 178.4421539306641 161.0735626220703 178.4408874511719 160.6873931884766 C 178.4405822753906 160.5932312011719 178.4406127929688 160.5040130615234 178.4408874511719 160.4381713867188 C 178.4417724609375 160.2263946533203 178.4434051513672 159.8321533203125 178.7901306152344 159.4670715332031 L 179.1643218994141 159.0731048583984 L 179.7076721191406 159.0731048583984 C 180.3124237060547 159.0731048583984 180.9618072509766 159.5244293212891 180.9740753173828 160.3608551025391 C 180.9745330810547 160.3911895751953 180.9750061035156 160.4383392333984 180.9754943847656 160.5056304931641 C 180.9763946533203 160.6324310302734 180.9773101806641 160.8351440429688 180.9781494140625 161.1387329101562 L 178.4490509033203 161.2073211669922 Z" stroke="none"/>
        <path d="M 179.7127532958984 161.1421661376953 C 179.7111358642578 160.5402984619141 179.7090606689453 160.3385009765625 179.7076721191406 160.3385009765625 C 179.7051544189453 160.3385009765625 179.7047576904297 160.9870147705078 179.7127532958984 161.1421661376953 M 177.1853332519531 161.2724914550781 C 177.1828002929688 161.2233428955078 177.1768646240234 161.1082458496094 177.1755065917969 160.6915130615234 C 177.1751861572266 160.5938110351562 177.1752319335938 160.5012512207031 177.1755218505859 160.4329528808594 C 177.1766510009766 160.1588745117188 177.1800994873047 159.3248138427734 177.8726196289062 158.5956573486328 L 178.6209716796875 157.8077239990234 L 179.7076721191406 157.8077239990234 C 181.1064453125 157.8077239990234 182.2184906005859 158.9210510253906 182.2393341064453 160.3423156738281 C 182.2398071289062 160.3746337890625 182.2403411865234 160.4249114990234 182.2408447265625 160.4966430664062 C 182.2417602539062 160.6245422363281 182.2426910400391 160.8290405273438 182.2435302734375 161.1353149414062 L 177.1853332519531 161.2724914550781 Z" stroke="none" fill="#fff"/>
      </g>
      <g id="Path_2542" data-name="Path 2542" transform="translate(-179.705 -72.114)" fill="#0d4b84" stroke-miterlimit="10">
        <path d="M 220.537109375 180.8600769042969 C 185.3439788818359 180.8600769042969 178.8389282226562 168.5515899658203 178.5792388916016 168.0276336669922 L 178.4476318359375 167.7620697021484 L 178.4476318359375 167.4656982421875 C 178.4476318359375 166.5994110107422 178.4644622802734 165.5046539306641 178.4877777099609 163.9894409179688 L 178.4917755126953 163.7289886474609 C 178.6071319580078 156.4553680419922 178.9542694091797 151.6656341552734 179.6525573730469 147.7127227783203 C 180.4784393310547 143.0375061035156 181.8249053955078 139.5398101806641 183.8899383544922 136.7052612304688 C 184.9794464111328 135.2097778320312 186.2548828125 133.9158172607422 187.7891693115234 132.7494354248047 C 189.3004150390625 131.6005706787109 191.0286560058594 130.6020355224609 193.0726623535156 129.6968078613281 C 196.8792114257812 128.0109558105469 201.7739562988281 126.661750793457 208.4767150878906 125.4507598876953 L 209.2374877929688 125.3133163452148 L 209.6952362060547 125.9122619628906 C 209.7461547851562 125.9740982055664 210.5767669677734 126.9640655517578 212.2702484130859 127.9386749267578 C 214.6047821044922 129.2822265625 217.3861541748047 129.9634552001953 220.537109375 129.9634552001953 C 222.7414093017578 129.9634552001953 225.9850769042969 129.6006317138672 228.9199066162109 127.8720932006836 C 230.5912017822266 126.8877410888672 231.3716888427734 125.9245834350586 231.3790893554688 125.9151382446289 L 231.8495635986328 125.3152084350586 L 232.5998077392578 125.4507598876953 C 239.2299194335938 126.6487197875977 244.0825805664062 127.9794921875 247.8714141845703 129.6388244628906 C 249.9046020507812 130.5292663574219 251.6266326904297 131.5096893310547 253.1359710693359 132.6361694335938 C 254.6695251464844 133.7807006835938 255.9474487304688 135.0485076904297 257.0427551269531 136.5119934082031 C 261.3594055175781 142.2797546386719 262.3377380371094 150.5564117431641 262.56884765625 162.9035339355469 C 262.6049194335938 164.847412109375 262.6266479492188 166.0205841064453 262.6266479492188 167.4656982421875 L 262.6266479492188 167.7619781494141 L 262.4951171875 168.0274505615234 C 262.2355346679688 168.5514221191406 255.732666015625 180.8600769042969 220.537109375 180.8600769042969 Z" stroke="none"/>
        <path d="M 220.537109375 179.5946960449219 C 255.3520965576172 179.5946960449219 261.3612670898438 167.4657135009766 261.3612670898438 167.4657135009766 C 261.3612670898438 166.0560607910156 261.3409729003906 164.9377746582031 261.3036804199219 162.9272308349609 C 260.8428039550781 138.305419921875 257.3434448242188 131.2074127197266 232.3748168945312 126.6959915161133 C 232.3748168945312 126.6959915161133 228.8201141357422 131.2288513183594 220.537109375 131.2288513183594 C 212.2552795410156 131.2288513183594 208.7016906738281 126.6959915161133 208.7016906738281 126.6959915161133 C 183.4562683105469 131.257080078125 180.1580200195312 138.4624328613281 179.7570190429688 163.7484130859375 C 179.732177734375 165.3659057617188 179.7130126953125 166.5598297119141 179.7130126953125 167.4657135009766 C 179.7130126953125 167.4657135009766 185.7244567871094 179.5946960449219 220.537109375 179.5946960449219 M 220.537109375 182.1254730224609 C 212.4234619140625 182.1254730224609 205.1623992919922 181.4699554443359 198.9556884765625 180.1771392822266 C 193.9004058837891 179.1241607666016 189.5099792480469 177.6438903808594 185.9063720703125 175.7774353027344 C 179.5011596679688 172.4599456787109 177.6369323730469 168.9759063720703 177.4454498291016 168.5895690917969 L 177.1822204589844 168.0584564208984 L 177.1822204589844 167.4657135009766 C 177.1822204589844 166.5889892578125 177.1991577148438 165.4889221191406 177.2225952148438 163.9663696289062 L 177.2265472412109 163.7095184326172 C 177.343017578125 156.3646392822266 177.6958923339844 151.5150909423828 178.4064788818359 147.4925994873047 C 179.2671051025391 142.6206665039062 180.6845245361328 138.9561614990234 182.8671875 135.9601593017578 C 185.1306762695312 132.8532257080078 188.3012847900391 130.4259948730469 192.5602416992188 128.539794921875 C 196.4612579345703 126.812126159668 201.4473419189453 125.4348754882812 208.2517395019531 124.2055206298828 L 209.7960357666016 123.9265213012695 L 210.6841735839844 125.1221618652344 C 210.7805633544922 125.2335739135742 211.5373382568359 126.0776519775391 213.0155639648438 126.9067916870117 C 215.1346740722656 128.0954132080078 217.665283203125 128.6980743408203 220.537109375 128.6980743408203 C 223.4095001220703 128.6980743408203 225.9407196044922 128.0953521728516 228.0604400634766 126.9066390991211 C 229.5402679443359 126.076789855957 230.2973327636719 125.2319564819336 230.3928070068359 125.1215896606445 L 231.3198699951172 123.875358581543 L 232.8248138427734 124.2055435180664 C 239.5547790527344 125.4215240478516 244.4972381591797 126.7796936035156 248.3790435791016 128.4797210693359 C 252.6159973144531 130.3353118896484 255.7813110351562 132.7146759033203 258.0558166503906 135.7537994384766 C 262.5769348144531 141.7947387695312 263.5980834960938 150.2743835449219 263.8340148925781 162.8798522949219 C 263.8702087402344 164.8313598632812 263.8920593261719 166.0090026855469 263.8920593261719 167.4657135009766 L 263.8920593261719 168.0582580566406 L 263.6289978027344 168.5892181396484 C 263.4375610351562 168.9755859375 261.5738830566406 172.4598236083984 255.1687927246094 175.7774200439453 C 251.5653228759766 177.6438751220703 247.1749267578125 179.1241607666016 242.1195068359375 180.1771392822266 C 235.9126586914062 181.4699554443359 228.6512908935547 182.1254730224609 220.537109375 182.1254730224609 Z" stroke="none" fill="#fff"/>
      </g>
    </g>
  </g>
</svg>
