<svg id="logo-svg" xmlns="http://www.w3.org/2000/svg" width="82.466" height="77.073" viewBox="0 0 82.466 77.073">
  <path id="Path_1936" data-name="Path 1936" d="M.168,72.972V63.179c1.089,0,2.175-.261,3.264-.261H27.914c5.984,0,8.433-2.449,8.433-8.433v-5.72A6.376,6.376,0,0,0,29.82,41.42a91.974,91.974,0,0,0-12.24-.261,22.083,22.083,0,0,1-11.7-2.992A11.984,11.984,0,0,1-.093,27.274V15.034A13.548,13.548,0,0,1,11.332,1.16,23.333,23.333,0,0,1,17.588.617H43.435c2.175,0,3.264.543,3.264,2.992,0,7.344,0,7.344-7.344,7.344H17.588c-5.713,0-7.616,1.632-7.616,7.344v6.788a6.368,6.368,0,0,0,7.073,6.788,99.245,99.245,0,0,1,12.793.261A36.876,36.876,0,0,1,40.446,35.4a10.425,10.425,0,0,1,5.713,10.336V58.247a15.381,15.381,0,0,1-14.417,14.96c-10.065.261-20.13,0-30.192,0a2.452,2.452,0,0,1-1.381-.235Z" transform="translate(0.104 1.015)" fill="#fff"/>
  <path id="Path_1939" data-name="Path 1939" d="M147.524,0c1.9,1.089,3.809,1.9,4.352,3.264a5.7,5.7,0,0,1-.543,4.624c-5.984,9.519-11.968,19.041-18.224,28.56a4.076,4.076,0,0,0,0,4.9c6.266,9.248,12.511,18.77,18.77,28.289,1.9,2.992,1.632,4.9-1.089,6.527-2.175,1.36-4.081,1.36-5.441-1.089L123.316,41.617a4.081,4.081,0,0,1,0-4.9c7.073-11.154,14.417-22.3,21.49-33.458A10.269,10.269,0,0,1,147.524,0Z" transform="translate(-70.64)" fill="#fff"/>
</svg>
