<svg xmlns="http://www.w3.org/2000/svg" width="116.201" height="91.263" viewBox="0 0 116.201 91.263">
  <g id="bot_1_" data-name="bot (1)" transform="translate(0 0)">
    <path id="Path_1401" data-name="Path 1401" d="M116.2,10.6A10.6,10.6,0,1,0,103.91,21.061v20.7a19.338,19.338,0,0,0-5.522-1.311v-1.8A10.166,10.166,0,0,0,88.234,28.5H69.689V21.752a4.519,4.519,0,0,0-4.513-4.513H50.767V10.659a1.692,1.692,0,1,0-3.384,0V17.24H33.211A4.519,4.519,0,0,0,28.7,21.752V28.5H10.153A10.166,10.166,0,0,0,0,38.655V81.109A10.166,10.166,0,0,0,10.153,91.263H88.234A10.166,10.166,0,0,0,98.388,81.109v-1.8a19.493,19.493,0,0,0,8.906-35.788V21.061A10.614,10.614,0,0,0,116.2,10.6ZM32.083,21.752a1.13,1.13,0,0,1,1.128-1.128H65.177A1.128,1.128,0,0,1,66.3,21.752V28.5H32.083ZM95,81.109a6.777,6.777,0,0,1-6.769,6.769H10.153a6.776,6.776,0,0,1-6.769-6.769V38.655a6.776,6.776,0,0,1,6.769-6.769H88.234A6.777,6.777,0,0,1,95,38.655Zm17.813-21.228A16.143,16.143,0,0,1,98.388,75.915V43.849A16.144,16.144,0,0,1,112.816,59.882ZM98.388,10.6a7.214,7.214,0,1,1,7.214,7.214A7.214,7.214,0,0,1,98.388,10.6Zm0,0" transform="translate(0 0)" fill="#fff"/>
    <path id="Path_1402" data-name="Path 1402" d="M65.087,176.316a7.342,7.342,0,0,0-7.333,7.333v4.7a1.692,1.692,0,0,0,1.692,1.692H70.728a1.692,1.692,0,0,0,1.692-1.692v-4.7A7.342,7.342,0,0,0,65.087,176.316Zm3.949,10.342h-7.9v-3.009a3.949,3.949,0,1,1,7.9,0Zm0,0" transform="translate(-41.465 -126.588)" fill="#fff"/>
    <path id="Path_1403" data-name="Path 1403" d="M246.423,176.316a7.342,7.342,0,0,0-7.333,7.333v4.7a1.691,1.691,0,0,0,1.692,1.692h11.282a1.692,1.692,0,0,0,1.692-1.692v-4.7A7.343,7.343,0,0,0,246.423,176.316Zm3.949,10.342h-7.9v-3.009a3.949,3.949,0,0,1,7.9,0Zm0,0" transform="translate(-171.657 -126.588)" fill="#fff"/>
    <path id="Path_1404" data-name="Path 1404" d="M152.677,244.914H130.114a1.692,1.692,0,0,0-1.692,1.692,12.974,12.974,0,1,0,25.948,0A1.693,1.693,0,0,0,152.677,244.914ZM141.4,256.2a9.606,9.606,0,0,1-9.441-7.9h18.88A9.6,9.6,0,0,1,141.4,256.2Zm0,0" transform="translate(-92.202 -175.839)" fill="#fff"/>
  </g>
</svg>
