<svg xmlns="http://www.w3.org/2000/svg" width="181" height="67.862" viewBox="0 0 181 67.862">
  <g id="Group_113" data-name="Group 113" transform="translate(-1299 -3588.456)" opacity="0.31">
    <path id="Path_195" data-name="Path 195" d="M488.76,484.413h-1.847c-1.966,0-3.933-.023-5.9.015a1.331,1.331,0,0,1-1.376-.8c-2.06-3.769-5.082-6.391-9.373-7.2-5.1-.956-9.293.753-12.776,4.582-5.923,6.511-4.79,19.644,6.146,23.632a13.106,13.106,0,0,0,14.505-4.487c.614-.818,1.105-1.727,1.7-2.562a1.222,1.222,0,0,1,.771-.534c2.582-.039,5.164-.024,7.747-.019a2.157,2.157,0,0,1,.4.09,15.8,15.8,0,0,1-1.873,5.017c-2.773,5.09-6.743,8.874-12.335,10.657-9.118,2.907-17.691.228-23.828-7.4a22.055,22.055,0,0,1-4.86-13.224,22.992,22.992,0,0,1,2.7-12.825c3.063-5.309,7.214-9.463,13.306-11.057,9.064-2.372,17.486.565,23.165,8.094a23.034,23.034,0,0,1,3.431,6.706C488.587,483.48,488.641,483.881,488.76,484.413Z" transform="translate(853.173 3142.154)" fill="#fff"/>
    <path id="Path_196" data-name="Path 196" d="M814.663,553.289a31.193,31.193,0,0,1-3.638,2.053c-3.883,1.542-7.857,2.2-11.906.589a8.046,8.046,0,0,1-4.9-5.31,13.709,13.709,0,0,1,.285-8.994A9.1,9.1,0,0,1,801,535.914c2.847-.778,5.784-1.229,8.684-1.809.747-.149,1.509-.223,2.257-.365a3.11,3.11,0,0,0,2.374-2.226c.312-1.617-.158-3.2-1.354-3.811a8.528,8.528,0,0,0-7.795-.188,4.386,4.386,0,0,0-2.215,3.238,1.094,1.094,0,0,1-1.32,1c-1.935-.07-3.873-.03-5.81-.043-.436,0-.872-.04-1.551-.073.279-1.357.46-2.65.815-3.894a10.484,10.484,0,0,1,8.371-7.777,23.414,23.414,0,0,1,13.5.839c3.992,1.494,5.837,4.456,6.068,8.528.136,2.4.05,4.811.051,7.218,0,6.4-.02,12.8.024,19.193.006.919-.277,1.148-1.14,1.125-2.141-.056-4.285-.05-6.426-.02-.7.01-.925-.242-.882-.925C814.7,555.089,814.663,554.25,814.663,553.289Zm-.392-14.7c-.4.155-.654.26-.915.358-.871.326-1.726.716-2.62.958-1.638.443-3.32.726-4.947,1.2a5.061,5.061,0,0,0-3.488,6.966,3.615,3.615,0,0,0,2.217,2.228c2.779,1.047,7.7-.511,8.984-3.7C814.533,544.039,814.3,541.39,814.272,538.591Z" transform="translate(566.653 3099.437)" fill="#fff"/>
    <path id="Path_197" data-name="Path 197" d="M1129.956,557.944c-8.154-.02-14.7-5.133-17.077-13.337a19.516,19.516,0,0,1,8.05-21.472,17.675,17.675,0,0,1,21.052,2.3c8.491,8.2,8.035,24.056-4.08,30.73A12.484,12.484,0,0,1,1129.956,557.944Zm-.014-28.605A7.842,7.842,0,0,0,1125,530.7a10.032,10.032,0,0,0-4.43,10.3c.849,5.524,6.089,9.919,12.391,7.951,3.617-1.129,6.4-5.06,6.583-9.246C1139.786,534.15,1135.479,529.051,1129.942,529.339Z" transform="translate(304.202 3098.346)" fill="#fff"/>
    <path id="Path_198" data-name="Path 198" d="M1002.962,526.8c1.416-1.286,2.609-2.55,3.981-3.573a13.816,13.816,0,0,1,6.67-2.277c.677-.089.926.154.927.861,0,2.289.069,4.578.1,6.867,0,.316-.026.632-.042.979-1.02,0-1.981-.058-2.932.01a8.928,8.928,0,0,0-8.244,8.306c-.192,5.98-.159,11.968-.222,17.952a9.752,9.752,0,0,1-.032,1.58c-.043.241-.375.612-.581.615-2.318.042-4.637.017-6.956.025-.526,0-.726-.219-.715-.744.022-1.027,0-2.054,0-3.082q.007-15.322.018-30.644c0-1.282.009-1.3,1.3-1.275,2,.036,3.99.114,5.985.137.587.007.764.244.752.8C1002.944,524.465,1002.962,525.6,1002.962,526.8Z" transform="translate(400.791 3098.131)" fill="#fff"/>
    <path id="Path_199" data-name="Path 199" d="M716.906,490.972q0-11.048,0-22.1c0-1.135,0-1.14,1.168-1.142,2.025,0,4.051.051,6.073-.023.981-.036,1.08.41,1.079,1.206q-.026,17.342-.014,34.685c0,3.228-.022,6.456.006,9.683.006.739-.182,1.045-.984,1.026q-3.168-.073-6.337,0c-.841.021-1.01-.3-1.008-1.07C716.917,505.82,716.906,498.4,716.906,490.972Z" transform="translate(629.85 3141.982)" fill="#fff"/>
    <path id="Path_200" data-name="Path 200" d="M1315.105,373.393l5.216,5.451-20.451,21.391c-1.118-1.088-2.19-2.117-3.245-3.163-.541-.536-1.025-1.133-1.584-1.648-.488-.449-.432-.763.013-1.219,2.275-2.326,4.522-4.68,6.775-7.027q6.366-6.631,12.73-13.264C1314.7,373.768,1314.853,373.634,1315.105,373.393Z" transform="translate(153.81 3219.686)" fill="#fff"/>
    <path id="Path_201" data-name="Path 201" d="M1367.962,586.99h-22.554c0-.615,0-1.189,0-1.764,0-1.7.013-3.4-.007-5.1-.007-.558.185-.782.764-.781,7.036.012,14.072,0,21.108.027.23,0,.657.284.66.442C1367.975,582.18,1367.962,584.547,1367.962,586.99Z" transform="translate(112.036 3050.008)" fill="#fff"/>
    <path id="Path_202" data-name="Path 202" d="M1198.248,347.148c2.263,0,4.515-.012,6.767.024.172,0,.454.327.485.532a10.1,10.1,0,0,1,.028,1.493q0,9.774,0,19.548c0,1.655.018,1.392-1.445,1.4-1.732.012-3.463-.008-5.2.007-.485,0-.771-.091-.769-.668q.026-10.963.03-21.926A2.145,2.145,0,0,1,1198.248,347.148Z" transform="translate(233.38 3241.31)" fill="#fff"/>
  </g>
</svg>
