<svg xmlns="http://www.w3.org/2000/svg" width="92" height="69.62" viewBox="0 0 92 69.62">
  <g id="Group_59" data-name="Group 59" transform="translate(-449.637 -141.121)" opacity="0.31">
    <path id="Path_171" data-name="Path 171" d="M1244.978,529.513l-3.773-12.33-.075.013v12.112l-4.563-.2c-.073-.251-.09-28.291-.018-28.692.433-.022.873-.046,1.313-.067q3.237-.154,6.474-.307a4.338,4.338,0,0,1,3.476,1.354,3.565,3.565,0,0,1,1.049,2.375q.012.249.012.5c0,2.714.006,5.427-.005,8.141a4.982,4.982,0,0,1-.135,1.282,4.2,4.2,0,0,1-2.817,2.9c-.1.038-.208.066-.336.107l4.013,13.088Zm-.756-16.861c.067-.4.052-8.141-.018-8.406-1.014.063-2.037.052-3.049.123-.075.735-.043,8.059.028,8.283Zm-7.4-11.927v27.588c0,.1-.005.2,0,.3a.945.945,0,0,0,.061.186c.155-.084.116-.206.117-.3,0-.631,0-1.263,0-1.894q0-12.612,0-25.224c0-.151.01-.3.016-.474.207-.014.382-.028.557-.036.852-.037,1.7-.066,2.557-.109,1.439-.072,2.876-.161,4.315-.223a7.683,7.683,0,0,1,1.192.068,5.853,5.853,0,0,1,.731.175,1.883,1.883,0,0,0-.505-.243,5.325,5.325,0,0,0-1.974-.177c-1.106.062-2.212.123-3.319.176-1.129.055-2.258.1-3.387.151C1237.076,500.689,1236.967,500.708,1236.818,500.725Z" transform="translate(-721.001 -328.868)" fill="#fff"/>
    <path id="Path_172" data-name="Path 172" d="M1397.193,510.676v4.387l3.865.233v-8.945c-.135-.007-.255-.017-.375-.018-1.2-.014-2.394-.02-3.59-.041a4.57,4.57,0,0,1-2.755-.927,4.1,4.1,0,0,1-1.735-3.45c.012-2.78,0-5.561,0-8.341a4.787,4.787,0,0,1,3.468-4.62,8.5,8.5,0,0,1,1.705-.251c1.081-.1,2.164-.173,3.246-.269a4.164,4.164,0,0,1,3.564,1.345,3.827,3.827,0,0,1,1.061,2.413c.015.2.019.4.019.6q0,2.01,0,4.021v.408c-1.534.074-3.041.132-4.591.106v-4.466l-3.862.223v8.785h.353c1.152-.009,2.3-.015,3.457-.03a4.5,4.5,0,0,1,3.852,1.987,4.011,4.011,0,0,1,.775,2.193c.01.177.016.354.016.531,0,2.958.006,5.915-.005,8.873a6.362,6.362,0,0,1-.128,1.284,4.067,4.067,0,0,1-3.925,3.086c-.73-.018-1.458-.1-2.187-.151-.751-.057-1.5-.113-2.252-.182a4.955,4.955,0,0,1-4.112-2.657,3.518,3.518,0,0,1-.446-1.687c-.013-1.473-.006-2.946-.007-4.42a1.224,1.224,0,0,1,.022-.144C1394.138,510.563,1395.646,510.628,1397.193,510.676Zm-3.9-7.036a10.4,10.4,0,0,1-.167-1.3q-.022-4.368,0-8.737a3.994,3.994,0,0,1,.129-.983,4.794,4.794,0,0,1,4.1-3.346c1.236-.1,2.471-.21,3.707-.313a5.31,5.31,0,0,1,1.686.064c.077.018.155.031.275.055-.054-.052-.068-.072-.086-.08-.05-.023-.1-.042-.154-.061a4.364,4.364,0,0,0-1.9-.166c-1.225.1-2.448.237-3.674.3a4.622,4.622,0,0,0-4.289,4.559c.094,2.71.021,5.425.022,8.138,0,.221,0,.444.02.664A2.975,2.975,0,0,0,1393.3,503.64Z" transform="translate(-864.036 -318.223)" fill="#fff"/>
    <path id="Path_173" data-name="Path 173" d="M792.969,534.367l-4.591.137V506c.087-.006.172-.02.256-.018,2.581.067,5.162.115,7.741.21a4.688,4.688,0,0,1,3.746,2.1,3.207,3.207,0,0,1,.593,1.906q.01,4.054,0,8.107a3.445,3.445,0,0,1-1.014,2.454,4.763,4.763,0,0,1-3.474,1.495c-.953.016-1.906,0-2.859.005h-.4Zm.013-24.2V518.2c1.045-.006,2.067.011,3.089-.011v-8.022Zm-4.221,23.987.072-.019q0-2.3,0-4.6V506.457c.144,0,.241,0,.337,0l7.077.192a3.659,3.659,0,0,1,.431.029c.413.06.824.129,1.237.2a3.25,3.25,0,0,0-.564-.222,7.981,7.981,0,0,0-2.01-.2q-3.206-.084-6.412-.176c-.083,0-.167.013-.278.022v.385q0,13.54,0,27.081a1.827,1.827,0,0,0,.012.3C788.668,534.1,788.726,534.124,788.761,534.155Z" transform="translate(-310.387 -334.316)" fill="#fff"/>
    <path id="Path_174" data-name="Path 174" d="M951.927,525.093v11.946h-4.584V509.157c.092-.007.187-.02.282-.02h7.513a4.762,4.762,0,0,1,3.546,1.48,3.367,3.367,0,0,1,1,2.425q.006,4.038,0,8.075a3.428,3.428,0,0,1-.926,2.389,4.66,4.66,0,0,1-3.432,1.58c-1,.024-1.995.007-2.992.008Zm3.148-4v-7.94h-3.082c-.063.42-.045,7.7.018,7.94Zm-7.392,15.679.094-.01c.008-.147.022-.295.022-.442q0-13.044,0-26.087c0-.111,0-.222,0-.332,0-.085.021-.169.037-.284h.378c2.338,0,4.676-.01,7.014,0,.462,0,.923.089,1.384.138.067.007.134.018.237.032a.611.611,0,0,0-.083-.069,1.063,1.063,0,0,0-.124-.047,5.3,5.3,0,0,0-1.64-.213q-3.524.008-7.048,0h-.339q0,13.614,0,27.169C947.622,536.683,947.661,536.728,947.683,536.774Z" transform="translate(-456.046 -337.21)" fill="#fff"/>
    <path id="Path_175" data-name="Path 175" d="M1116.54,529.306v4.079l-10.043-.27v-28.1l10.01-.273c.063.229.084,3.549.019,4.078l-5.408.136v8.064h3.859a34.866,34.866,0,0,1,.037,4.051,8.687,8.687,0,0,1-.94,0c-.332,0-.665,0-1,0h-1.917c-.078.261-.11,7.328-.039,8.091Zm-.345-24.194c-.118,0-.246,0-.374,0l-5.382.157q-1.661.048-3.322.1c-.1,0-.21.019-.329.031q0,13.646,0,27.214a1.072,1.072,0,0,0,.021.163.043.043,0,0,0,.017.026.233.233,0,0,0,.055.012c.162-.062.083-.22.084-.33.006-1.805,0-3.61,0-5.416q0-10.515,0-21.031c0-.151.006-.3.01-.474.359-.011.679-.023,1-.031q3.239-.082,6.479-.164c.52-.014,1.041-.038,1.561-.06C1116.114,505.3,1116.239,505.326,1116.2,505.112Z" transform="translate(-601.878 -333.186)" fill="#fff"/>
    <path id="Path_176" data-name="Path 176" d="M454.25,515.413l6.145-.333v4.327c-.2.021-.408.047-.615.062-1.325.1-2.651.195-3.977.294-.618.046-1.236.113-1.855.146a4.017,4.017,0,0,1-4.3-3.785c-.014-.2-.012-.4-.012-.6q0-11.314,0-22.627a5.359,5.359,0,0,1,.135-1.35,4.092,4.092,0,0,1,3.674-3.021,17.958,17.958,0,0,1,1.989.087c1.337.094,2.673.2,4.009.307l.95.073v4.327c-2.043-.077-4.08-.229-6.144-.318Zm5.814-25.988.01-.088c-.1-.015-.2-.035-.307-.043-.729-.057-1.458-.109-2.187-.167q-1.54-.121-3.08-.246a4.955,4.955,0,0,0-1.974.142,3.807,3.807,0,0,0-2.59,3.685q-.008,11.515,0,23.031a4.388,4.388,0,0,0,.2,1.308c.033.107.083.208.127.319-.05-.522-.14-1.025-.141-1.529q-.013-11.333,0-22.665c0-.254.021-.509.044-.762a3.84,3.84,0,0,1,3.652-3.372c.453,0,.907.037,1.359.07,1.381.1,2.761.213,4.142.314C459.563,489.44,459.814,489.424,460.063,489.424Z" transform="translate(0 -318.321)" fill="#fff"/>
    <path id="Path_177" data-name="Path 177" d="M858.145,155.246a14.178,14.178,0,1,1-14.175-14.125A14.167,14.167,0,0,1,858.145,155.246Zm-4.775-8.807a12.644,12.644,0,0,0-8.79-4.059v3.64a8.607,8.607,0,0,1-1.234-.006v-1.822c0-.31,0-.62,0-.93a6.585,6.585,0,0,0-.021-.877c-3.124.048-7.183,1.934-8.758,4.057a14.066,14.066,0,0,1,3.064,8.8,13.892,13.892,0,0,1-3.067,8.813,12.521,12.521,0,0,0,4.85,3.259,12.326,12.326,0,0,0,3.938.8v-3.658h1.237v3.673a12.916,12.916,0,0,0,8.8-4.049,14.082,14.082,0,0,1-3.085-8.82A13.882,13.882,0,0,1,853.37,146.438Zm3.48,9.45c-.343-.063-5.048-.052-5.312.02a12.815,12.815,0,0,0,2.651,7.147C855.592,161.636,857.107,157.523,856.85,155.888Zm-25.779-.022c-.077,2.1,1.451,6.175,2.686,7.173a12.771,12.771,0,0,0,2.641-7.173Zm2.636-8.465a12.766,12.766,0,0,0-2.243,4.505,11.148,11.148,0,0,0-.406,2.7c1.8,0,3.561.009,5.324-.009A12.609,12.609,0,0,0,833.706,147.4Zm23.182,7.178a12.88,12.88,0,0,0-2.663-7.182c-1.454,1.612-2.943,5.7-2.635,7.182Z" transform="translate(-348.332)" fill="#fff"/>
    <path id="Path_178" data-name="Path 178" d="M589.752,495.362l4.514.285v25.433c1.831-.034,3.626-.141,5.417-.182a38.287,38.287,0,0,1,.036,4.114l-9.967.592a.291.291,0,0,1-.024-.02c-.008-.008-.019-.017-.019-.026-.006-.088-.015-.176-.015-.264q0-14.919.009-29.838C589.7,495.436,589.722,495.417,589.752,495.362Zm.22.342v.441q0,14.37,0,28.741a1.631,1.631,0,0,0,.006.265c.008.049.055.091.084.136l.07-.013c.008-.147.022-.294.022-.442q0-14.2,0-28.408c0-.111,0-.222,0-.332a1.816,1.816,0,0,1,.045-.227c.274.017.528.032.78.049s.486.038.729.054.509.029.763.044.486.038.73.04a1.794,1.794,0,0,0,.769-.006c-.065-.053-.094-.1-.125-.1C592.57,495.863,591.292,495.785,589.972,495.7Z" transform="translate(-128.333 -324.589)" fill="#fff"/>
    <path id="Path_179" data-name="Path 179" d="M725.333,531.734l-4.614.2c-.079-.257-.109-28.343-.035-28.983l4.621.2C725.377,503.4,725.406,531.072,725.333,531.734Zm-4.179-28.284c.694.029,1.324.065,1.954.078a12.273,12.273,0,0,0,1.9.022.259.259,0,0,0-.149-.1c-.322-.058-3.718-.16-3.893-.113V531.13a2.9,2.9,0,0,0,0,.3.846.846,0,0,0,.067.183c.17-.143.109-.308.109-.449q0-13.6,0-27.207Z" transform="translate(-248.321 -331.544)" fill="#fff"/>
    <path id="Path_180" data-name="Path 180" d="M541.93,875.545v1.507a374.654,374.654,0,0,0-91.894,0c0-.257-.011-.494-.013-.731s0-.485,0-.774c10.175-1.191,20.362-1.95,30.576-2.346q15.366-.6,30.734,0C521.549,873.6,531.74,874.357,541.93,875.545Z" transform="translate(-0.352 -670.53)" fill="#fff"/>
    <path id="Path_181" data-name="Path 181" d="M582.778,909.562V908.1a142.758,142.758,0,0,1,69.722,0v1.46A139.019,139.019,0,0,0,582.778,909.562Z" transform="translate(-121.997 -698.82)" fill="#fff"/>
    <path id="Path_182" data-name="Path 182" d="M1123.186,423.72v1.471c-.312.043-.6.09-.9.123-.692.077-1.385.147-2.078.221-.747.08-1.495.163-2.242.241-.517.054-1.034.1-1.552.154-.627.062-1.254.125-1.882.183-.572.053-1.146.1-1.718.15-.683.06-1.366.123-2.049.18-.628.053-1.257.1-1.885.15q-1.207.095-2.415.187c-.364.028-.728.052-1.092.077-.96.065-1.921.131-2.881.192-.475.03-.951.05-1.426.077-1.083.061-2.165.125-3.248.186-.486.027-.973.053-1.459.073-.741.03-1.483.051-2.224.08-1.5.059-3.009.135-4.514.18-1.694.05-3.389.073-5.083.106a1.252,1.252,0,0,1-.173-.029c.1-.069.159-.111.22-.15.534-.336,1.071-.667,1.6-1.011a.79.79,0,0,1,.429-.145c.4-.009.8-.031,1.195-.044,1.516-.05,3.032-.1,4.548-.15.94-.034,1.88-.08,2.82-.127q1.89-.1,3.779-.2,1.541-.089,3.081-.2c1.07-.075,2.139-.166,3.209-.246.706-.053,1.413-.092,2.119-.15.915-.076,1.828-.165,2.742-.246.551-.049,1.1-.092,1.653-.143.87-.081,1.739-.168,2.608-.253.737-.072,1.475-.141,2.212-.218s1.451-.158,2.176-.239c.67-.074,1.34-.148,2.01-.225s1.339-.161,2.009-.239C1122.9,423.726,1123.031,423.728,1123.186,423.72Z" transform="translate(-581.598 -258.944)" fill="#fff"/>
    <path id="Path_183" data-name="Path 183" d="M450.162,425.177v-1.451a2.1,2.1,0,0,1,.323-.011c1,.121,2,.251,3,.369.681.081,1.363.148,2.045.223.725.08,1.45.163,2.176.241.517.055,1.034.1,1.552.154.836.082,1.672.167,2.509.245.595.056,1.19.1,1.785.155.672.059,1.344.121,2.016.177.65.054,1.3.1,1.952.153l2.416.183c.353.026.706.053,1.06.074.895.052,1.79.1,2.685.152,1.359.079,2.717.163,4.076.241q.746.043,1.493.07c.852.032,1.7.057,2.557.087q2.473.087,4.947.179a.742.742,0,0,1,.341.094c.645.387,1.283.786,1.923,1.182.015.009.021.033.041.064l-3.292-.077c-.133,0-.266-.011-.4-.014-1.152-.028-2.3-.045-3.455-.087-1.306-.047-2.61-.118-3.916-.175-.73-.032-1.461-.051-2.191-.088-.984-.051-1.967-.114-2.95-.172-.409-.024-.818-.051-1.226-.074-.884-.051-1.769-.095-2.652-.153-.762-.05-1.522-.118-2.284-.174-.739-.054-1.479-.1-2.219-.156-.673-.052-1.344-.115-2.017-.173-.606-.052-1.213-.1-1.819-.154-.65-.058-1.3-.12-1.949-.179-.573-.052-1.146-.1-1.718-.157-.55-.053-1.1-.113-1.65-.169-.517-.053-1.034-.105-1.551-.16-.725-.078-1.451-.158-2.176-.238-.3-.032-.594-.062-.89-.1C450.527,425.237,450.355,425.206,450.162,425.177Z" transform="translate(-0.481 -258.936)" fill="#fff"/>
    <path id="Path_184" data-name="Path 184" d="M606.549,377.961a142.161,142.161,0,0,1-23.868-3.9V372.61l1.5.37c2.749.674,5.512,1.282,8.3,1.771,1.677.294,3.355.58,5.038.837,1.257.192,2.521.343,3.784.491s2.531.266,3.8.406a.528.528,0,0,1,.313.148C605.787,377.053,606.146,377.487,606.549,377.961Z" transform="translate(-121.908 -212.112)" fill="#fff"/>
    <path id="Path_185" data-name="Path 185" d="M1130.377,378.109c.272-.309.536-.564.744-.857a1.384,1.384,0,0,1,1.193-.672c.738-.014,1.475-.138,2.212-.22.825-.092,1.65-.179,2.472-.288,1.031-.136,2.06-.281,3.087-.442,1.311-.205,2.622-.408,3.926-.652,1.814-.34,3.626-.695,5.43-1.084,1.545-.333,3.077-.723,4.615-1.087.052-.012.106-.023.157-.034a4.045,4.045,0,0,1,.046,1.381c-.534.314-8.558,2-11.82,2.51C1138.453,377.289,1134.454,377.8,1130.377,378.109Z" transform="translate(-623.759 -212.262)" fill="#fff"/>
    <path id="Path_187" data-name="Path 187" d="M937.846,230.615h6.869l.2,0a.18.18,0,0,0,.208-.2c0-.089,0-.177,0-.266q0-1.761,0-3.522c0-.119.01-.237.016-.378h1.59c.007.129.018.237.018.345q0,2.209,0,4.419c0,.078,0,.155,0,.232a.714.714,0,0,1-.7.742,3.114,3.114,0,0,1-.462.039q-4.1,0-8.209,0a4.041,4.041,0,0,1-.495-.045.648.648,0,0,1-.61-.56,2.31,2.31,0,0,1-.05-.426q0-6.777,0-13.555c0-.044,0-.089,0-.133.027-.631.3-.909.935-.91q4.337-.006,8.675,0a1.543,1.543,0,0,1,.264.023.716.716,0,0,1,.631.633,1.8,1.8,0,0,1,.023.3q0,2.259,0,4.518c0,.1-.012.194-.02.316h-1.6v-.4q0-1.744,0-3.488c0-.1,0-.2-.007-.3a.16.16,0,0,0-.168-.167c-.089,0-.177-.006-.266-.006h-6.837c-.017.163-.043.291-.043.419q0,5.98,0,11.96C937.8,230.324,937.829,230.453,937.846,230.615Z" transform="translate(-445.854 -68.971)" fill="#fff"/>
    <path id="Path_188" data-name="Path 188" d="M990.371,249.214V246.22h-.845a5.958,5.958,0,0,0-.037.985c-.008.332-.005.665-.006,1s0,.661,0,1.015h-1.561V239.6h4.054v9.617Zm-.016-4.6a29.918,29.918,0,0,0-.024-3.44h-.769a29.164,29.164,0,0,0,.026,3.44Z" transform="translate(-493.227 -90.233)" fill="#fff"/>
    <path id="Path_189" data-name="Path 189" d="M967.839,251.3h-6.192c-.072-.229-.1-11.225-.022-11.7h1.583c.008.128.024.266.025.4q0,3.838,0,7.675c0,.554,0,1.107,0,1.661,0,.119.014.238.024.395h4.581Z" transform="translate(-469.091 -90.236)" fill="#fff"/>
  </g>
</svg>
