<svg xmlns="http://www.w3.org/2000/svg" width="196.909" height="189.016" viewBox="0 0 196.909 189.016">
  <g id="Group_40" data-name="Group 40" transform="translate(-310 -1740.227)">
    <path id="XMLID_389_" d="M196.529,113.865A77.624,77.624,0,0,0,136.167,45.8V36.027a13.076,13.076,0,0,0-3.156-25.765H105.32a13.076,13.076,0,0,0-3.156,25.765v9.8A77.223,77.223,0,0,0,64.291,66.659a78.059,78.059,0,0,0-6.53,7.411c-.1-.007-.193-.015-.292-.015H30.062a3.846,3.846,0,0,0,0,7.692H52.527A77.1,77.1,0,0,0,45.7,96.529H3.846a3.846,3.846,0,0,0,0,7.692H43.53A78.2,78.2,0,0,0,41.621,119H24.614a3.846,3.846,0,0,0,0,7.692h17.13a78.082,78.082,0,0,0,2.4,14.783H19.23a3.846,3.846,0,0,0,0,7.692H46.6A77.677,77.677,0,0,0,111.545,198.9q3.811.376,7.622.375a77.874,77.874,0,0,0,42.4-12.53,3.846,3.846,0,1,0-4.2-6.446,70,70,0,1,1,20.616-20.642,3.846,3.846,0,1,0,6.451,4.189A77.935,77.935,0,0,0,196.529,113.865ZM99.936,23.339a5.39,5.39,0,0,1,5.384-5.384h27.691a5.384,5.384,0,1,1,0,10.769H105.32A5.39,5.39,0,0,1,99.936,23.339Zm9.92,21.165V36.415h18.619V44.49A78.363,78.363,0,0,0,109.856,44.5Z" transform="translate(310 1729.965)" fill="#fff"/>
    <path id="XMLID_391_" d="M439.616,425.5a3.847,3.847,0,1,0,2.719,1.127A3.867,3.867,0,0,0,439.616,425.5Z" transform="translate(41.824 1474.425)" fill="#fff"/>
    <path id="XMLID_394_" d="M214.534,144.609A59.662,59.662,0,1,0,274.2,204.271,59.729,59.729,0,0,0,214.534,144.609Zm0,111.631a51.97,51.97,0,1,1,51.97-51.97A52.028,52.028,0,0,1,214.534,256.24Z" transform="translate(214.69 1647.287)" fill="#fff"/>
    <path id="XMLID_397_" d="M301.734,220.538l-19.049,19.048a11.92,11.92,0,0,0-10.558,0l-8.525-8.525a3.846,3.846,0,0,0-5.439,5.439l8.525,8.525a11.951,11.951,0,1,0,21.436,0l18.49-18.49h0l.559-.559a3.846,3.846,0,1,0-5.439-5.439Zm-24.328,34.026a4.259,4.259,0,1,1,4.259-4.259A4.264,4.264,0,0,1,277.406,254.563Z" transform="translate(151.818 1601.253)" fill="#fff"/>
    <path id="XMLID_398_" d="M405.064,289.86H401.5a3.846,3.846,0,0,0,0,7.692h3.563a3.846,3.846,0,0,0,0-7.692Z" transform="translate(65.28 1557.898)" fill="#fff"/>
    <path id="XMLID_399_" d="M200.491,289.616h-3.563a3.846,3.846,0,1,0,0,7.692h3.563a3.846,3.846,0,0,0,0-7.692Z" transform="translate(191.176 1558.049)" fill="#fff"/>
    <path id="XMLID_400_" d="M303.969,194.074a3.846,3.846,0,0,0,3.846-3.846v-3.563a3.846,3.846,0,1,0-7.692,0v3.563A3.846,3.846,0,0,0,303.969,194.074Z" transform="translate(125.302 1623.772)" fill="#fff"/>
    <path id="XMLID_424_" d="M303.725,387.393a3.846,3.846,0,0,0-3.846,3.846V394.8a3.846,3.846,0,0,0,7.692,0v-3.563A3.846,3.846,0,0,0,303.725,387.393Z" transform="translate(125.452 1497.876)" fill="#fff"/>
  </g>
</svg>
