<svg xmlns="http://www.w3.org/2000/svg" xmlns:xlink="http://www.w3.org/1999/xlink" width="634.967" height="511.176" viewBox="0 0 634.967 511.176">
  <defs>
    <radialGradient id="radial-gradient" cx="-0.095" cy="0.312" r="0.861" gradientTransform="translate(-0.366) scale(1.732 1)" gradientUnits="objectBoundingBox">
      <stop offset="0" stop-color="#274f89"/>
      <stop offset="1" stop-color="#173d7a"/>
    </radialGradient>
    <linearGradient id="linear-gradient" y1="0.5" x2="1.319" y2="0.5" gradientUnits="objectBoundingBox">
      <stop offset="0" stop-color="#d4ecff"/>
      <stop offset="0.239" stop-color="#d0e9fd"/>
      <stop offset="0.46" stop-color="#c5e2f9"/>
      <stop offset="0.675" stop-color="#b2d5f1"/>
      <stop offset="0.884" stop-color="#98c4e7"/>
      <stop offset="1" stop-color="#86b8e0"/>
    </linearGradient>
    <radialGradient id="radial-gradient-2" cx="-1.237" cy="-0.578" r="1.555" gradientTransform="translate(-0.366) scale(1.732 1)" gradientUnits="objectBoundingBox">
      <stop offset="0" stop-color="#699dd1"/>
      <stop offset="0.266" stop-color="#6296cb"/>
      <stop offset="0.641" stop-color="#5084bd"/>
      <stop offset="1" stop-color="#396caa"/>
    </radialGradient>
    <radialGradient id="radial-gradient-3" cx="-0.095" cy="0.312" r="0.861" xlink:href="#radial-gradient"/>
    <radialGradient id="radial-gradient-4" cx="-1.237" cy="-0.578" r="1.555" xlink:href="#radial-gradient-2"/>
    <radialGradient id="radial-gradient-5" cx="-0.095" cy="0.312" r="0.861" xlink:href="#radial-gradient"/>
    <radialGradient id="radial-gradient-6" cx="-1.237" cy="-0.578" r="1.555" xlink:href="#radial-gradient-2"/>
    <radialGradient id="radial-gradient-7" cx="-0.095" cy="0.312" r="0.861" xlink:href="#radial-gradient"/>
    <radialGradient id="radial-gradient-8" cx="-1.237" cy="-0.578" r="1.555" xlink:href="#radial-gradient-2"/>
    <radialGradient id="radial-gradient-9" cx="0.234" cy="0.38" r="0.644" gradientTransform="translate(-0.287) scale(1.574 1)" gradientUnits="objectBoundingBox">
      <stop offset="0" stop-color="#396caa"/>
      <stop offset="1" stop-color="#274f89"/>
    </radialGradient>
    <linearGradient id="linear-gradient-5" x1="0.029" y1="0.235" x2="0.883" y2="0.916" xlink:href="#linear-gradient"/>
    <linearGradient id="linear-gradient-6" x1="-5.118" y1="7.146" x2="-3.992" y2="7.058" gradientUnits="objectBoundingBox">
      <stop offset="0" stop-color="#3919bb"/>
      <stop offset="1" stop-color="#6507fa"/>
    </linearGradient>
    <radialGradient id="radial-gradient-10" cx="0.055" cy="0.064" r="1.056" gradientTransform="translate(-0.02) scale(1.039 1)" xlink:href="#radial-gradient-2"/>
    <linearGradient id="linear-gradient-8" x1="0.131" y1="0.119" x2="0.99" y2="1.006" gradientUnits="objectBoundingBox">
      <stop offset="0" stop-color="#d4ecff"/>
      <stop offset="0.201" stop-color="#d0e9fd"/>
      <stop offset="0.387" stop-color="#c5e2f9"/>
      <stop offset="0.568" stop-color="#b2d5f1"/>
      <stop offset="0.744" stop-color="#98c4e7"/>
      <stop offset="0.842" stop-color="#86b8e0"/>
    </linearGradient>
    <radialGradient id="radial-gradient-11" cx="0.055" cy="0.064" r="1.056" gradientTransform="translate(-0.02) scale(1.039 1)" xlink:href="#radial-gradient-2"/>
  </defs>
  <g id="Group_1001" data-name="Group 1001" transform="translate(-169.251 -46.426)" opacity="0.777">
    <path id="Path_2757" data-name="Path 2757" d="M233.85,249.024a17.115,17.115,0,0,0-2.756,2.019c-.382-12.4-9.34-17.334-20.363-10.97-8.978,5.184-16.585,16.282-19.311,27.159a12.178,12.178,0,0,0-7.617,1.893c-8.037,4.639-14.552,15.924-14.552,25.2s6.514,13.04,14.552,8.4l50.047-28.9c5.933-3.425,10.743-11.757,10.743-18.608S239.782,245.6,233.85,249.024Z" transform="translate(0 119.072)" fill="#fff"/>
    <g id="Group_963" data-name="Group 963" transform="translate(616.107 414.38)">
      <path id="Path_2758" data-name="Path 2758" d="M452.992,292.84a10.427,10.427,0,0,1-4.719,8.171c-2.606,1.5-4.719.286-4.719-2.724a10.433,10.433,0,0,1,4.719-8.173C450.879,288.611,452.992,289.83,452.992,292.84Z" transform="translate(-443.555 -262.979)" fill="#fff"/>
      <path id="Path_2759" data-name="Path 2759" d="M462.453,287.377a10.428,10.428,0,0,1-4.719,8.173c-2.606,1.5-4.719.284-4.719-2.724a10.427,10.427,0,0,1,4.719-8.173C460.342,283.148,462.453,284.367,462.453,287.377Z" transform="translate(-437.722 -266.346)" fill="#fff"/>
      <path id="Path_2760" data-name="Path 2760" d="M471.915,281.914a10.43,10.43,0,0,1-4.719,8.173c-2.606,1.5-4.719.284-4.719-2.724a10.43,10.43,0,0,1,4.719-8.173C469.8,277.685,471.915,278.905,471.915,281.914Z" transform="translate(-431.889 -269.714)" fill="#fff"/>
      <path id="Path_2761" data-name="Path 2761" d="M481.377,276.451a10.43,10.43,0,0,1-4.719,8.173c-2.606,1.505-4.719.286-4.719-2.724a10.432,10.432,0,0,1,4.719-8.173C479.264,272.222,481.377,273.442,481.377,276.451Z" transform="translate(-426.055 -273.082)" fill="#fff"/>
    </g>
    <g id="Group_964" data-name="Group 964" transform="translate(394.009 503.118)">
      <path id="Path_2762" data-name="Path 2762" d="M316.714,345.018A10.427,10.427,0,0,1,312,353.191c-2.606,1.5-4.719.286-4.719-2.724A10.432,10.432,0,0,1,312,342.294C314.6,340.789,316.714,342.009,316.714,345.018Z" transform="translate(-307.277 -319.104)" fill="#fff"/>
      <path id="Path_2763" data-name="Path 2763" d="M324.767,340.369a10.43,10.43,0,0,1-4.719,8.173c-2.606,1.5-4.719.284-4.719-2.724a10.43,10.43,0,0,1,4.719-8.173C322.654,336.14,324.767,337.36,324.767,340.369Z" transform="translate(-302.312 -321.97)" fill="#fff"/>
      <path id="Path_2764" data-name="Path 2764" d="M316.714,335.72A10.427,10.427,0,0,1,312,343.893c-2.606,1.5-4.719.286-4.719-2.724A10.433,10.433,0,0,1,312,333C314.6,331.491,316.714,332.711,316.714,335.72Z" transform="translate(-307.277 -324.836)" fill="#fff"/>
      <path id="Path_2765" data-name="Path 2765" d="M324.767,331.071a10.43,10.43,0,0,1-4.719,8.173c-2.606,1.505-4.719.285-4.719-2.724a10.43,10.43,0,0,1,4.719-8.173C322.654,326.842,324.767,328.062,324.767,331.071Z" transform="translate(-302.312 -327.702)" fill="#fff"/>
    </g>
    <g id="Group_965" data-name="Group 965" transform="translate(349.97 132.184)">
      <path id="Path_2766" data-name="Path 2766" d="M289.67,114.886l-9.437,5.449v-10.9l9.437-5.449Z" transform="translate(-280.232 -96.332)" fill="#fff"/>
      <path id="Path_2767" data-name="Path 2767" d="M297.772,110.149l-9.437,5.449V104.7l9.437-5.449Z" transform="translate(-275.237 -99.252)" fill="#fff"/>
      <path id="Path_2768" data-name="Path 2768" d="M289.72,123.632l-9.437,5.449v-10.9l9.437-5.449Z" transform="translate(-280.201 -90.94)" fill="#fff"/>
      <path id="Path_2769" data-name="Path 2769" d="M297.772,118.982l-9.437,5.449v-10.9l9.437-5.449Z" transform="translate(-275.237 -93.807)" fill="#fff"/>
    </g>
    <path id="Path_2770" data-name="Path 2770" d="M276.24,278.026a2.282,2.282,0,0,1-2.282-2.282V246.506a2.281,2.281,0,0,1,1.141-1.977l25.321-14.618a2.283,2.283,0,0,1,3.424,1.975v29.239A2.284,2.284,0,0,1,302.7,263.1L277.382,277.72A2.284,2.284,0,0,1,276.24,278.026Zm2.283-30.2v23.966l20.756-11.983v-23.97Zm23.038,13.3h0Z" transform="translate(65.811 114.221)" fill="#fff"/>
    <g id="Group_967" data-name="Group 967" transform="translate(285.039 419.048)">
      <g id="Group_966" data-name="Group 966">
        <path id="Path_2771" data-name="Path 2771" d="M278.54,363.93l-36.518-21.084,36.517-21.083,36.518,21.084Z" transform="translate(-239.246 -247.293)" fill="#0b1829"/>
        <path id="Path_2772" data-name="Path 2772" d="M279.6,357.971a2.771,2.771,0,0,1-1.387-.372l-36.518-21.084a2.776,2.776,0,0,1,0-4.809l36.517-21.082a2.77,2.77,0,0,1,2.774,0L317.5,331.706a2.775,2.775,0,0,1,0,4.809L280.986,357.6A2.771,2.771,0,0,1,279.6,357.971ZM248.633,334.11,279.6,351.989l30.964-17.879L279.6,316.235Z" transform="translate(-240.305 -254.39)" fill="#1a375d"/>
        <path id="Path_2773" data-name="Path 2773" d="M301.13,330.9l-36.517,21.083V309.82l36.517-21.083Z" transform="translate(-225.319 -267.654)" fill="url(#radial-gradient)"/>
        <path id="Path_2774" data-name="Path 2774" d="M278.54,317.86l-36.517-21.083,36.516-21.082,36.517,21.083Z" transform="translate(-239.246 -275.695)" fill="url(#linear-gradient)"/>
        <path id="Path_2775" data-name="Path 2775" d="M278.54,351.985,242.023,330.9V288.737L278.54,309.82Z" transform="translate(-239.246 -267.654)" fill="url(#radial-gradient-2)"/>
      </g>
      <path id="Path_2776" data-name="Path 2776" d="M260.372,320.518l-10.214-5.9V302.828l10.214,5.9Z" transform="translate(-234.23 -258.967)" fill="#fff"/>
    </g>
    <g id="Group_969" data-name="Group 969" transform="translate(697.456 190.661)">
      <g id="Group_968" data-name="Group 968">
        <path id="Path_2777" data-name="Path 2777" d="M531.482,223.433,494.964,202.35l36.517-21.083L568,202.351Z" transform="translate(-492.187 -106.797)" fill="#0b1829"/>
        <path id="Path_2778" data-name="Path 2778" d="M532.542,217.474a2.782,2.782,0,0,1-1.389-.372L494.635,196.02a2.776,2.776,0,0,1,0-4.809l36.517-21.083a2.774,2.774,0,0,1,2.776,0l36.519,21.083a2.776,2.776,0,0,1,0,4.809L533.929,217.1A2.781,2.781,0,0,1,532.542,217.474Zm-30.966-23.86,30.966,17.877L563.5,193.614,532.54,175.739Z" transform="translate(-493.246 -113.893)" fill="#1a375d"/>
        <path id="Path_2779" data-name="Path 2779" d="M554.071,190.405l-36.517,21.083V169.323l36.517-21.083Z" transform="translate(-478.26 -127.158)" fill="url(#radial-gradient-3)"/>
        <path id="Path_2780" data-name="Path 2780" d="M531.482,177.364l-36.517-21.083L531.48,135.2,568,156.281Z" transform="translate(-492.186 -135.198)" fill="url(#linear-gradient)"/>
        <path id="Path_2781" data-name="Path 2781" d="M531.482,211.488l-36.517-21.083V148.24l36.517,21.083Z" transform="translate(-492.186 -127.158)" fill="url(#radial-gradient-4)"/>
      </g>
      <path id="Path_2782" data-name="Path 2782" d="M513.314,180.022l-10.213-5.9V162.332l10.213,5.9Z" transform="translate(-487.171 -118.47)" fill="#fff"/>
      <path id="Path_2783" data-name="Path 2783" d="M511.237,150.612l10.142-6.019,10.283,5.774-10.142,6.019Z" transform="translate(-482.154 -129.406)" fill="#fff"/>
    </g>
    <g id="Group_971" data-name="Group 971" transform="translate(697.456 419.048)">
      <g id="Group_970" data-name="Group 970">
        <path id="Path_2784" data-name="Path 2784" d="M531.482,363.93l-36.518-21.084,36.517-21.083L568,342.847Z" transform="translate(-492.187 -247.293)" fill="#0b1829"/>
        <path id="Path_2785" data-name="Path 2785" d="M532.542,357.971a2.782,2.782,0,0,1-1.389-.372l-36.518-21.084a2.776,2.776,0,0,1,0-4.809l36.517-21.082a2.773,2.773,0,0,1,2.776,0l36.519,21.082a2.776,2.776,0,0,1,0,4.809L533.929,357.6A2.781,2.781,0,0,1,532.542,357.971ZM501.574,334.11l30.967,17.879,30.964-17.879L532.54,316.235Z" transform="translate(-493.246 -254.39)" fill="#1a375d"/>
        <path id="Path_2786" data-name="Path 2786" d="M554.071,330.9l-36.517,21.083V309.82l36.517-21.083Z" transform="translate(-478.26 -267.654)" fill="url(#radial-gradient-5)"/>
        <path id="Path_2787" data-name="Path 2787" d="M531.481,317.86l-36.517-21.083,36.516-21.082L568,296.778Z" transform="translate(-492.187 -275.695)" fill="url(#linear-gradient)"/>
        <path id="Path_2788" data-name="Path 2788" d="M531.481,351.985,494.964,330.9V288.737l36.517,21.083Z" transform="translate(-492.187 -267.654)" fill="url(#radial-gradient-6)"/>
      </g>
      <path id="Path_2789" data-name="Path 2789" d="M513.314,320.518l-10.214-5.9V302.828l10.214,5.9Z" transform="translate(-487.171 -258.967)" fill="#fff"/>
    </g>
    <g id="Group_973" data-name="Group 973" transform="translate(285.039 190.661)">
      <g id="Group_972" data-name="Group 972">
        <path id="Path_2790" data-name="Path 2790" d="M278.54,223.433,242.022,202.35l36.517-21.083,36.518,21.084Z" transform="translate(-239.246 -106.797)" fill="#0b1829"/>
        <path id="Path_2791" data-name="Path 2791" d="M279.6,217.474a2.771,2.771,0,0,1-1.387-.372L241.694,196.02a2.776,2.776,0,0,1,0-4.809l36.517-21.083a2.771,2.771,0,0,1,2.774,0L317.5,191.21a2.775,2.775,0,0,1,0,4.809L280.986,217.1A2.771,2.771,0,0,1,279.6,217.474Zm-30.964-23.86L279.6,211.491l30.963-17.877L279.6,175.739Z" transform="translate(-240.305 -113.893)" fill="#1a375d"/>
        <path id="Path_2792" data-name="Path 2792" d="M301.13,190.405l-36.517,21.083V169.323L301.13,148.24Z" transform="translate(-225.319 -127.158)" fill="url(#radial-gradient-7)"/>
        <path id="Path_2793" data-name="Path 2793" d="M278.54,177.364l-36.517-21.083L278.539,135.2l36.517,21.083Z" transform="translate(-239.246 -135.198)" fill="url(#linear-gradient)"/>
        <path id="Path_2794" data-name="Path 2794" d="M278.54,211.488l-36.517-21.083V148.24l36.517,21.083Z" transform="translate(-239.246 -127.158)" fill="url(#radial-gradient-8)"/>
      </g>
      <path id="Path_2795" data-name="Path 2795" d="M260.372,180.022l-10.214-5.9V162.332l10.214,5.9Z" transform="translate(-234.23 -118.47)" fill="#fff"/>
    </g>
    <rect id="Rectangle_234" data-name="Rectangle 234" width="122.625" height="5.552" transform="matrix(0.866, -0.5, 0.5, 0.866, 610.381, 302.993)" fill="#1a375d"/>
    <g id="Group_991" data-name="Group 991" transform="translate(421.55 46.426)">
      <path id="Path_2796" data-name="Path 2796" d="M422.354,345.68,328.7,291.61c-3.432-1.982-3-5.443.962-7.73l99.263-57.459c3.964-2.289,9.959-2.536,13.391-.556l93.654,54.072c3.432,1.982,3,5.443-.962,7.73l-99.263,57.459C431.781,347.413,425.787,347.662,422.354,345.68Z" transform="translate(-321.968 63.375)" fill="#0b1829"/>
      <path id="Path_2797" data-name="Path 2797" d="M429.241,337.309a14.662,14.662,0,0,1-7.216-1.7l-93.654-54.071a6.736,6.736,0,0,1-3.705-5.763c0-2.594,1.7-5.065,4.664-6.778l99.263-57.456c4.8-2.776,11.9-3.02,16.168-.558l93.654,54.072a6.727,6.727,0,0,1,3.705,5.761c0,2.6-1.7,5.066-4.665,6.776l-99.262,57.457A18.293,18.293,0,0,1,429.241,337.309Zm-4.441-6.5c2.572,1.484,7.531,1.224,10.614-.556l99.262-57.457c1.388-.8,1.893-1.618,1.893-1.971,0-.208-.288-.582-.928-.954L441.986,215.8c-2.572-1.486-7.531-1.225-10.614.556L332.11,273.808c-1.389.8-1.893,1.618-1.893,1.97,0,.207.288.584.931.954Z" transform="translate(-323.027 53.981)" fill="#1a375d"/>
      <g id="Group_990" data-name="Group 990">
        <g id="Group_989" data-name="Group 989">
          <g id="Group_984" data-name="Group 984">
            <g id="Group_976" data-name="Group 976">
              <g id="Group_975" data-name="Group 975">
                <g id="Group_974" data-name="Group 974">
                  <path id="Path_2798" data-name="Path 2798" d="M421.354,147.4s-51.418,4.9-82.385,7.278l82.138,233.93,108.647-62.664.052-.031L530,325.8l0-.008c1.359-.857,2.219-2.725,2.219-5.364V91.786a16.57,16.57,0,0,0-1.887-7.3Z" transform="translate(-314.209 -22.961)" fill="url(#radial-gradient-9)"/>
                  <path id="Path_2799" data-name="Path 2799" d="M534.056,102.394,438.507,47.229a4.319,4.319,0,0,0-4.352-.375v0L325.072,109.785l5.139,19.02,27.351,77.9,5.149,2.971L538.9,107.949A13.467,13.467,0,0,0,534.056,102.394Z" transform="translate(-322.777 -46.426)" fill="url(#linear-gradient-5)"/>
                  <path id="Path_2800" data-name="Path 2800" d="M425.927,387.883,330.38,332.718c-3.716-2.145-6.728-7.9-6.728-12.854V91.215c0-4.953,3.012-7.231,6.728-5.086l95.547,55.165c3.716,2.145,6.728,7.9,6.728,12.854V382.8C432.655,387.751,429.643,390.028,425.927,387.883Z" transform="translate(-323.652 -22.446)" fill="#5793ce"/>
                  <path id="Path_2801" data-name="Path 2801" d="M426.646,140.583,331.1,85.418c-2.152-1.241-4.062-.994-5.292.39a4.975,4.975,0,0,1,3.244.76L424.6,141.732c3.716,2.145,6.728,7.9,6.728,12.855V383.233a6.982,6.982,0,0,1-1.435,4.7c2.077-.328,3.484-2.46,3.484-5.845V153.437C433.374,148.482,430.363,142.728,426.646,140.583Z" transform="translate(-322.323 -22.883)" fill="#fff"/>
                  <path id="Path_2802" data-name="Path 2802" d="M417.3,369.606l-83.526-48.224c-3.248-1.877-5.881-6.907-5.881-11.238V97.8c0-4.331,2.633-6.322,5.881-4.447L417.3,141.572c3.248,1.877,5.881,6.907,5.881,11.238V365.159C423.182,369.49,420.549,371.481,417.3,369.606Z" transform="translate(-321.037 -17.933)" fill="url(#linear-gradient-6)"/>
                  <path id="Path_2803" data-name="Path 2803" d="M417.3,369.606l-83.526-48.224c-3.248-1.877-5.881-6.907-5.881-11.238V97.8c0-4.331,2.633-6.322,5.881-4.447L417.3,141.572c3.248,1.877,5.881,6.907,5.881,11.238V365.159C423.182,369.49,420.549,371.481,417.3,369.606Z" transform="translate(-321.037 -17.933)" fill="url(#linear-gradient-6)"/>
                  <path id="Path_2804" data-name="Path 2804" d="M417.3,369.606l-83.526-48.224c-3.248-1.877-5.881-6.907-5.881-11.238V97.8c0-4.331,2.633-6.322,5.881-4.447L417.3,141.572c3.248,1.877,5.881,6.907,5.881,11.238V365.159C423.182,369.49,420.549,371.481,417.3,369.606Z" transform="translate(-321.037 -17.933)" fill="#173d7a"/>
                  <path id="Path_2805" data-name="Path 2805" d="M420.03,368,336.5,319.775c-3.248-1.875-5.881-6.906-5.881-11.236V96.189a6.793,6.793,0,0,1,.844-3.545c-2.1-.016-3.572,1.912-3.572,5.15V310.143c0,4.331,2.633,9.361,5.881,11.238L417.3,369.605c2.14,1.235,4.009.784,5.037-.9A4.737,4.737,0,0,1,420.03,368Z" transform="translate(-321.037 -17.932)" fill="#396caa"/>
                </g>
              </g>
            </g>
            <g id="Group_978" data-name="Group 978" transform="translate(15.704 83.958)">
              <g id="Group_977" data-name="Group 977" transform="translate(0)">
                <path id="Path_2806" data-name="Path 2806" d="M413.927,210.5l-31.045-17.924-49.515,28.588,86.441,49.906V221.74C419.808,217.409,417.175,212.377,413.927,210.5Z" transform="translate(-333.367 -40.28)" fill="#173d7a"/>
                <path id="Path_2807" data-name="Path 2807" d="M413.927,183.584,382.882,165.66l-49.515,28.588,86.441,49.906V194.822C419.808,190.491,417.175,185.459,413.927,183.584Z" transform="translate(-333.367 -56.876)" fill="#173d7a"/>
                <path id="Path_2808" data-name="Path 2808" d="M413.927,156.666l-31.045-17.925-49.515,28.588,86.441,49.908V167.9C419.808,163.572,417.175,158.542,413.927,156.666Z" transform="translate(-333.367 -73.471)" fill="#173d7a"/>
                <path id="Path_2809" data-name="Path 2809" d="M413.927,129.747l-31.045-17.924-49.515,28.588,86.441,49.908V140.986C419.808,136.654,417.175,131.622,413.927,129.747Z" transform="translate(-333.367 -90.066)" fill="#173d7a"/>
                <path id="Path_2810" data-name="Path 2810" d="M413.927,138.044,345.2,98.364l-11.83,6.83L419.808,155.1v-5.818C419.808,144.952,417.175,139.92,413.927,138.044Z" transform="translate(-333.367 -98.364)" fill="#173d7a"/>
              </g>
              <path id="Path_2811" data-name="Path 2811" d="M419.809,152.5l-86.442-49.908v27.5L419.809,180Z" transform="translate(-333.367 -95.759)" fill="#5793ce"/>
              <path id="Path_2812" data-name="Path 2812" d="M419.809,179.415l-86.442-49.908v27.5l86.442,49.907Z" transform="translate(-333.367 -79.164)" fill="#5793ce"/>
              <path id="Path_2813" data-name="Path 2813" d="M419.809,206.333l-86.442-49.908v27.5l86.442,49.907Z" transform="translate(-333.367 -62.568)" fill="#5793ce"/>
              <path id="Path_2814" data-name="Path 2814" d="M419.809,233.252l-86.442-49.908v27.5l86.442,49.907Z" transform="translate(-333.367 -45.973)" fill="#5793ce"/>
              <path id="Path_2815" data-name="Path 2815" d="M419.809,260.17l-86.442-49.908v27.5l86.442,49.907Z" transform="translate(-333.367 -29.378)" fill="#5793ce"/>
            </g>
            <g id="Group_979" data-name="Group 979" transform="translate(26.086 104.166)">
              <path id="Path_2816" data-name="Path 2816" d="M408.225,165.1l-65.108-37.592a7.971,7.971,0,0,1-3.328-6.359v-7.365c0-2.451,1.49-3.577,3.328-2.517l65.108,37.59a7.974,7.974,0,0,1,3.328,6.361v7.365C411.554,165.031,410.063,166.158,408.225,165.1Z" transform="translate(-339.789 -110.865)" fill="#173d7a"/>
              <path id="Path_2817" data-name="Path 2817" d="M346.407,126.1a7.973,7.973,0,0,1-3.328-6.359v-7.365a4.715,4.715,0,0,1,.123-1.059l-.084-.048c-1.838-1.06-3.328.065-3.328,2.517v7.365a7.971,7.971,0,0,0,3.328,6.359l65.108,37.59c1.545.892,2.831.226,3.207-1.458Z" transform="translate(-339.789 -110.865)" fill="#06033e" opacity="0.3"/>
              <path id="Path_2818" data-name="Path 2818" d="M384.875,141.8,345.7,119.177a2.806,2.806,0,0,1-1.172-2.237h0c0-.862.525-1.259,1.172-.886l39.179,22.621a2.8,2.8,0,0,1,1.17,2.237h0C386.046,141.774,385.522,142.17,384.875,141.8Z" transform="translate(-336.87 -107.753)" fill="#fff"/>
            </g>
            <g id="Group_980" data-name="Group 980" transform="translate(26.086 147.411)">
              <path id="Path_2819" data-name="Path 2819" d="M408.225,191.849l-65.108-37.592a7.971,7.971,0,0,1-3.328-6.359v-7.365c0-2.451,1.49-3.577,3.328-2.517l65.108,37.59a7.974,7.974,0,0,1,3.328,6.361v7.365C411.554,191.783,410.063,192.91,408.225,191.849Z" transform="translate(-339.789 -137.617)" fill="#173d7a"/>
              <path id="Path_2820" data-name="Path 2820" d="M346.407,152.848a7.973,7.973,0,0,1-3.328-6.359v-7.365a4.714,4.714,0,0,1,.123-1.059l-.084-.048c-1.838-1.06-3.328.066-3.328,2.517V147.9a7.968,7.968,0,0,0,3.328,6.359l65.108,37.592c1.545.891,2.831.225,3.207-1.46Z" transform="translate(-339.789 -137.617)" fill="#06033e" opacity="0.3"/>
              <path id="Path_2821" data-name="Path 2821" d="M384.875,168.548,345.7,145.929a2.806,2.806,0,0,1-1.172-2.237h0c0-.862.525-1.259,1.172-.886l39.179,22.621a2.8,2.8,0,0,1,1.17,2.237h0C386.046,168.526,385.522,168.922,384.875,168.548Z" transform="translate(-336.87 -134.505)" fill="#fff"/>
            </g>
            <g id="Group_981" data-name="Group 981" transform="translate(26.086 191.059)">
              <path id="Path_2822" data-name="Path 2822" d="M408.225,218.85l-65.108-37.59a7.974,7.974,0,0,1-3.328-6.361v-7.365c0-2.451,1.49-3.577,3.328-2.515l65.108,37.59a7.971,7.971,0,0,1,3.328,6.359v7.365C411.554,218.785,410.063,219.91,408.225,218.85Z" transform="translate(-339.789 -164.619)" fill="#173d7a"/>
              <path id="Path_2823" data-name="Path 2823" d="M346.407,179.848a7.968,7.968,0,0,1-3.328-6.359v-7.365a4.714,4.714,0,0,1,.123-1.059l-.084-.047c-1.838-1.062-3.328.065-3.328,2.515V174.9a7.974,7.974,0,0,0,3.328,6.361l65.108,37.59c1.545.891,2.831.225,3.207-1.458Z" transform="translate(-339.789 -164.619)" fill="#06033e" opacity="0.3"/>
              <path id="Path_2824" data-name="Path 2824" d="M384.875,195.55,345.7,172.929a2.8,2.8,0,0,1-1.172-2.237h0c0-.862.525-1.258,1.172-.884l39.179,22.62a2.8,2.8,0,0,1,1.17,2.237h0C386.046,195.528,385.522,195.924,384.875,195.55Z" transform="translate(-336.87 -161.506)" fill="#d4ecff"/>
            </g>
            <g id="Group_982" data-name="Group 982" transform="translate(26.086 235.11)">
              <path id="Path_2825" data-name="Path 2825" d="M408.225,246.1l-65.108-37.59a7.971,7.971,0,0,1-3.328-6.359v-7.365c0-2.452,1.49-3.577,3.328-2.517l65.108,37.59a7.974,7.974,0,0,1,3.328,6.361v7.365C411.554,246.035,410.063,247.162,408.225,246.1Z" transform="translate(-339.789 -191.869)" fill="#173d7a"/>
              <path id="Path_2826" data-name="Path 2826" d="M346.407,207.1a7.973,7.973,0,0,1-3.328-6.359v-7.366a4.711,4.711,0,0,1,.123-1.057l-.084-.049c-1.838-1.06-3.328.065-3.328,2.517v7.365a7.971,7.971,0,0,0,3.328,6.359l65.108,37.59c1.545.892,2.831.226,3.207-1.458Z" transform="translate(-339.789 -191.869)" fill="#06033e" opacity="0.3"/>
              <path id="Path_2827" data-name="Path 2827" d="M384.875,222.8,345.7,200.181a2.806,2.806,0,0,1-1.172-2.237h0c0-.863.525-1.259,1.172-.886l39.179,22.621a2.8,2.8,0,0,1,1.17,2.237h0C386.046,222.778,385.522,223.174,384.875,222.8Z" transform="translate(-336.87 -188.757)" fill="#ff2c9c"/>
            </g>
            <g id="Group_983" data-name="Group 983" transform="translate(26.086 278.288)">
              <path id="Path_2828" data-name="Path 2828" d="M408.225,272.811l-65.108-37.59a7.973,7.973,0,0,1-3.328-6.361v-7.365c0-2.451,1.49-3.577,3.328-2.515l65.108,37.59a7.971,7.971,0,0,1,3.328,6.359v7.365C411.554,272.746,410.063,273.873,408.225,272.811Z" transform="translate(-339.789 -218.58)" fill="#173d7a"/>
              <path id="Path_2829" data-name="Path 2829" d="M346.407,233.809a7.968,7.968,0,0,1-3.328-6.359v-7.365a4.714,4.714,0,0,1,.123-1.059l-.084-.047c-1.838-1.062-3.328.065-3.328,2.515v7.365a7.973,7.973,0,0,0,3.328,6.361l65.108,37.59c1.545.891,2.831.225,3.207-1.458Z" transform="translate(-339.789 -218.58)" fill="#06033e" opacity="0.3"/>
              <path id="Path_2830" data-name="Path 2830" d="M384.875,249.512,345.7,226.89a2.8,2.8,0,0,1-1.172-2.237h0c0-.862.525-1.258,1.172-.884l39.179,22.62a2.8,2.8,0,0,1,1.17,2.237h0C386.046,249.489,385.522,249.885,384.875,249.512Z" transform="translate(-336.87 -215.467)" fill="#d4ecff"/>
            </g>
            <path id="Path_2831" data-name="Path 2831" d="M333.367,102.589l6.807,3.93v27.5l-6.807-3.93Z" transform="translate(-317.663 -11.801)" fill="#173d7a" opacity="0.5"/>
            <path id="Path_2832" data-name="Path 2832" d="M333.367,129.508l6.807,3.93v27.5l-6.807-3.93Z" transform="translate(-317.663 4.794)" fill="#173d7a" opacity="0.5"/>
            <path id="Path_2833" data-name="Path 2833" d="M333.367,156.426l6.807,3.93v27.5l-6.807-3.93Z" transform="translate(-317.663 21.39)" fill="#173d7a" opacity="0.5"/>
            <path id="Path_2834" data-name="Path 2834" d="M333.367,183.344l6.807,3.93v27.5l-6.807-3.93Z" transform="translate(-317.663 37.985)" fill="#173d7a" opacity="0.5"/>
            <path id="Path_2835" data-name="Path 2835" d="M333.367,210.262l6.807,3.93v27.5l-6.807-3.93Z" transform="translate(-317.663 54.58)" fill="#173d7a" opacity="0.5"/>
          </g>
          <ellipse id="Ellipse_173" data-name="Ellipse 173" cx="1.125" cy="1.949" rx="1.125" ry="1.949" transform="matrix(0.866, -0.5, 0.5, 0.866, 78.483, 139.006)" fill="#d4ecff"/>
          <path id="Path_2836" data-name="Path 2836" d="M378.927,136.674c0,.879-.617,1.235-1.379.8a3.045,3.045,0,0,1-1.377-2.388c0-.879.616-1.235,1.377-.8A3.046,3.046,0,0,1,378.927,136.674Z" transform="translate(-291.274 7.625)" fill="#ff2c9c"/>
          <path id="Path_2837" data-name="Path 2837" d="M382.541,138.761c0,.879-.616,1.235-1.377.8a3.044,3.044,0,0,1-1.379-2.386c0-.879.618-1.235,1.379-.8A3.042,3.042,0,0,1,382.541,138.761Z" transform="translate(-289.046 8.912)" fill="#d4ecff"/>
          <path id="Path_2838" data-name="Path 2838" d="M375.312,161.492c0,.879-.618,1.235-1.377.8a3.047,3.047,0,0,1-1.379-2.386c0-.879.617-1.237,1.379-.8A3.049,3.049,0,0,1,375.312,161.492Z" transform="translate(-293.502 22.925)" fill="#ff2c9c"/>
          <path id="Path_2839" data-name="Path 2839" d="M378.927,163.579c0,.879-.617,1.235-1.379.8a3.045,3.045,0,0,1-1.377-2.388c0-.878.616-1.235,1.377-.8A3.047,3.047,0,0,1,378.927,163.579Z" transform="translate(-291.274 24.212)" fill="#d4ecff"/>
          <path id="Path_2840" data-name="Path 2840" d="M382.541,165.666c0,.878-.616,1.235-1.377.8a3.047,3.047,0,0,1-1.379-2.388c0-.878.618-1.235,1.379-.8A3.045,3.045,0,0,1,382.541,165.666Z" transform="translate(-289.046 25.499)" fill="#fff"/>
          <path id="Path_2841" data-name="Path 2841" d="M375.312,188.6c0,.879-.618,1.235-1.377.8a3.047,3.047,0,0,1-1.379-2.388c0-.878.617-1.235,1.379-.8A3.049,3.049,0,0,1,375.312,188.6Z" transform="translate(-293.502 39.638)" fill="#fff"/>
          <path id="Path_2842" data-name="Path 2842" d="M378.927,190.687c0,.878-.617,1.235-1.379.8a3.045,3.045,0,0,1-1.377-2.388c0-.878.616-1.235,1.377-.8A3.047,3.047,0,0,1,378.927,190.687Z" transform="translate(-291.274 40.924)" fill="#ff2c9c"/>
          <path id="Path_2843" data-name="Path 2843" d="M382.541,192.775c0,.878-.616,1.235-1.377.8a3.047,3.047,0,0,1-1.379-2.388c0-.879.618-1.235,1.379-.8A3.045,3.045,0,0,1,382.541,192.775Z" transform="translate(-289.046 42.211)" fill="#fff"/>
          <path id="Path_2844" data-name="Path 2844" d="M375.312,215.313c0,.878-.618,1.235-1.377.8a3.047,3.047,0,0,1-1.379-2.388c0-.878.617-1.235,1.379-.8A3.05,3.05,0,0,1,375.312,215.313Z" transform="translate(-293.502 56.106)" fill="#fff"/>
          <path id="Path_2845" data-name="Path 2845" d="M378.927,217.4c0,.878-.617,1.235-1.379.8a3.045,3.045,0,0,1-1.377-2.388c0-.878.616-1.235,1.377-.8A3.047,3.047,0,0,1,378.927,217.4Z" transform="translate(-291.274 57.393)" fill="#d4ecff"/>
          <path id="Path_2846" data-name="Path 2846" d="M382.541,219.488c0,.878-.616,1.235-1.377.8a3.047,3.047,0,0,1-1.379-2.388c0-.879.618-1.235,1.379-.8A3.045,3.045,0,0,1,382.541,219.488Z" transform="translate(-289.046 58.679)" fill="#d4ecff"/>
          <path id="Path_2847" data-name="Path 2847" d="M375.312,242.39c0,.879-.618,1.235-1.377.8a3.044,3.044,0,0,1-1.379-2.386c0-.879.617-1.235,1.379-.8A3.05,3.05,0,0,1,375.312,242.39Z" transform="translate(-293.502 72.8)" fill="#fff"/>
          <path id="Path_2848" data-name="Path 2848" d="M378.927,244.477c0,.879-.617,1.235-1.379.8a3.045,3.045,0,0,1-1.377-2.386c0-.879.616-1.235,1.377-.8A3.047,3.047,0,0,1,378.927,244.477Z" transform="translate(-291.274 74.086)" fill="#ff2c9c"/>
          <path id="Path_2849" data-name="Path 2849" d="M382.541,246.564c0,.879-.616,1.235-1.377.8a3.047,3.047,0,0,1-1.379-2.388c0-.878.618-1.235,1.379-.8A3.045,3.045,0,0,1,382.541,246.564Z" transform="translate(-289.046 75.373)" fill="#d4ecff"/>
          <g id="Group_985" data-name="Group 985" transform="translate(123.394 92.624)">
            <path id="Path_2850" data-name="Path 2850" d="M399.986,345.632v-194.7l.4-.231,81.369-46.979v194.7l-.4.231ZM401.6,151.866V342.839l78.548-45.35V106.517Z" transform="translate(-399.986 -103.725)" fill="#173d7a"/>
          </g>
          <g id="Group_988" data-name="Group 988" transform="translate(143.106 147.629)">
            <path id="Path_2851" data-name="Path 2851" d="M453.1,170.347l-36.485,21.065c-2.451,1.414-4.437-.087-4.437-3.356V167.827c0-3.267,1.987-7.062,4.437-8.479L453.1,138.284c2.452-1.414,4.439.087,4.439,3.356v20.229C457.541,165.136,455.554,168.931,453.1,170.347Z" transform="translate(-412.18 -137.752)" fill="#173d7a"/>
            <path id="Path_2852" data-name="Path 2852" d="M453.862,137.892a5.859,5.859,0,0,1,.33,2.029V160.15c0,3.267-1.987,7.064-4.439,8.479l-36.485,21.065a4.26,4.26,0,0,1-.884.391c.658,1.786,2.247,2.4,4.108,1.327l36.485-21.065c2.452-1.416,4.437-5.212,4.437-8.479V141.639C457.413,138.775,455.889,137.268,453.862,137.892Z" transform="translate(-412.054 -137.751)" fill="#5793ce"/>
            <g id="Group_987" data-name="Group 987" transform="translate(6.869 11.099)">
              <g id="Group_986" data-name="Group 986" transform="translate(0 9.146)">
                <path id="Path_2853" data-name="Path 2853" d="M433.839,150.443c.674-.39,1.22-.073,1.22.706v4.607a2.7,2.7,0,0,1-1.22,2.116c-.674.39-1.222.073-1.222-.706v-4.607A2.7,2.7,0,0,1,433.839,150.443Z" transform="translate(-406.449 -150.276)" fill="#fff"/>
                <path id="Path_2854" data-name="Path 2854" d="M430.6,152.669c.674-.39,1.222-.074,1.222.7v4.032a2.7,2.7,0,0,1-1.222,2.116c-.674.39-1.22.074-1.22-.7v-4.032A2.7,2.7,0,0,1,430.6,152.669Z" transform="translate(-408.445 -148.904)" fill="#d4ecff"/>
                <path id="Path_2855" data-name="Path 2855" d="M427.362,151.755c.676-.39,1.222-.073,1.222.706v8.53a2.7,2.7,0,0,1-1.222,2.114c-.674.39-1.22.074-1.22-.7v-8.53A2.7,2.7,0,0,1,427.362,151.755Z" transform="translate(-410.441 -149.467)" fill="#ff2c9c"/>
                <path id="Path_2856" data-name="Path 2856" d="M424.126,150.584c.674-.39,1.22-.074,1.22.7v13.446a2.7,2.7,0,0,1-1.22,2.116c-.676.39-1.222.073-1.222-.706V152.7A2.7,2.7,0,0,1,424.126,150.584Z" transform="translate(-412.437 -150.189)" fill="#d4ecff"/>
                <path id="Path_2857" data-name="Path 2857" d="M420.888,153.325c.674-.39,1.22-.073,1.22.706v12.035a2.7,2.7,0,0,1-1.22,2.116c-.676.39-1.222.074-1.222-.7V155.441A2.7,2.7,0,0,1,420.888,153.325Z" transform="translate(-414.433 -148.499)" fill="#d4ecff"/>
                <path id="Path_2858" data-name="Path 2858" d="M417.649,158.6c.676-.39,1.222-.074,1.222.7v6.537a2.7,2.7,0,0,1-1.222,2.114c-.674.39-1.22.074-1.22-.7v-6.537A2.7,2.7,0,0,1,417.649,158.6Z" transform="translate(-416.429 -145.249)" fill="#fff"/>
              </g>
              <path id="Path_2859" data-name="Path 2859" d="M432.63,149.795c0,.766.538,1.077,1.2.693a2.656,2.656,0,0,0,1.2-2.08c0-.765-.538-1.075-1.2-.693A2.659,2.659,0,0,0,432.63,149.795Z" transform="translate(-406.441 -142.809)" fill="#ff2c9c"/>
              <ellipse id="Ellipse_174" data-name="Ellipse 174" cx="1.699" cy="0.981" rx="1.699" ry="0.981" transform="matrix(0.5, -0.866, 0.866, 0.5, 25.691, 2.942)" fill="#fff"/>
            </g>
          </g>
        </g>
      </g>
    </g>
    <rect id="Rectangle_235" data-name="Rectangle 235" width="5.554" height="107.714" transform="translate(733.974 103.297)" fill="#1a375d"/>
    <g id="Group_994" data-name="Group 994" transform="translate(462.994 426.512)">
      <path id="Path_2860" data-name="Path 2860" d="M409.4,388.388l-55.789-32.209c-3.424-1.977-3-5.43.959-7.712l53.868-31.1c3.954-2.282,9.935-2.53,13.359-.554l55.789,32.211c3.424,1.977,3,5.43-.959,7.712l-53.868,31.1C418.809,390.118,412.828,390.365,409.4,388.388Z" transform="translate(-348.134 -258.633)" fill="#0b1829"/>
      <path id="Path_2861" data-name="Path 2861" d="M416.444,383.217a15,15,0,0,1-7.415-1.773h0L353.24,349.233a7.107,7.107,0,0,1-3.9-6.094c0-2.735,1.77-5.326,4.854-7.106l53.87-31.1c4.984-2.881,12.087-3.12,16.526-.555l55.792,32.211a7.1,7.1,0,0,1,3.894,6.091c0,2.735-1.77,5.326-4.856,7.108l-53.867,31.1A18.559,18.559,0,0,1,416.444,383.217Zm-4.248-7.261c2.464,1.419,7.221,1.161,10.19-.555l53.868-31.1c1.355-.781,1.68-1.489,1.688-1.621a2.047,2.047,0,0,0-.726-.6l-55.792-32.211c-2.457-1.419-7.218-1.161-10.189.554l-53.869,31.1c-1.355.782-1.678,1.489-1.686,1.621a2,2,0,0,0,.727.6L412.2,375.956Z" transform="translate(-349.343 -266.571)" fill="#1a375d"/>
      <path id="Path_2862" data-name="Path 2862" d="M479.881,326.331h0V307.081l-43.162-.024-14.92-8.614c-3.424-1.977-9.4-1.728-13.359.554l-13.918,8.036-43.2-.024v19.8a3.871,3.871,0,0,0,2.294,3.579L409.4,362.6c3.424,1.977,9.4,1.728,13.359-.554l53.869-31.1C478.909,329.624,480.008,327.918,479.881,326.331Z" transform="translate(-348.13 -269.958)" fill="#396caa"/>
      <path id="Path_2863" data-name="Path 2863" d="M415.6,297.115a15.393,15.393,0,0,0-7.161,1.878l-13.918,8.035-43.2-.024v19.8a3.871,3.871,0,0,0,2.294,3.579L409.4,362.592a12.1,12.1,0,0,0,6.2,1.324Z" transform="translate(-348.13 -269.954)" fill="url(#radial-gradient-10)"/>
      <path id="Path_2864" data-name="Path 2864" d="M356.208,303.236l-4.89,0v19.8a3.871,3.871,0,0,0,2.294,3.579l2.6,1.5Z" transform="translate(-348.13 -266.182)" fill="#d4ecff"/>
      <path id="Path_2865" data-name="Path 2865" d="M387.778,346.5a15.219,15.219,0,0,0,10.677-.121V323.9H387.778Z" transform="translate(-325.648 -253.441)" fill="#5793ce"/>
      <path id="Path_2866" data-name="Path 2866" d="M409.4,353.224l-55.789-32.209c-3.424-1.977-3-5.43.959-7.714l53.868-31.1c3.954-2.283,9.935-2.531,13.359-.555l55.789,32.211c3.424,1.977,3,5.43-.959,7.712l-53.868,31.1C418.809,354.954,412.828,355.2,409.4,353.224Z" transform="translate(-348.134 -280.313)" fill="url(#linear-gradient-8)"/>
      <path id="Path_2867" data-name="Path 2867" d="M476.632,304.41l-53.868,31.1c-3.954,2.283-9.935,2.532-13.359.554l-55.789-32.211a5.167,5.167,0,0,1-1.709-1.516c-1.177,1.893-.642,3.947,1.709,5.3L409.4,339.853c3.424,1.977,9.4,1.73,13.359-.555l53.868-31.1c3.071-1.773,4.006-4.251,2.667-6.2A7.454,7.454,0,0,1,476.632,304.41Z" transform="translate(-348.134 -266.942)" fill="#fff"/>
      <g id="Group_992" data-name="Group 992" transform="translate(106.723 51.472)">
        <path id="Path_2868" data-name="Path 2868" d="M419.871,318.941a4.983,4.983,0,0,1-2.253,3.9c-1.245.718-2.253.136-2.253-1.3a4.983,4.983,0,0,1,2.253-3.9C418.862,316.922,419.871,317.5,419.871,318.941Z" transform="translate(-415.364 -308.962)" fill="#d4ecff"/>
        <path id="Path_2869" data-name="Path 2869" d="M424.356,316.353a4.978,4.978,0,0,1-2.253,3.9c-1.245.719-2.253.136-2.253-1.3a4.98,4.98,0,0,1,2.253-3.9C423.347,314.334,424.356,314.916,424.356,316.353Z" transform="translate(-412.599 -310.558)" fill="#d4ecff"/>
        <path id="Path_2870" data-name="Path 2870" d="M428.841,313.762a4.983,4.983,0,0,1-2.254,3.9c-1.245.718-2.253.136-2.253-1.3a4.978,4.978,0,0,1,2.253-3.9C427.832,311.743,428.841,312.325,428.841,313.762Z" transform="translate(-409.834 -312.154)" fill="#d4ecff"/>
      </g>
      <g id="Group_993" data-name="Group 993" transform="translate(37.381 18.823)">
        <path id="Path_2871" data-name="Path 2871" d="M399.656,326.077,373.55,311c-1.6-.925-1.4-2.54.448-3.608l25.208-14.553a6.952,6.952,0,0,1,6.253-.26l26.105,15.072c1.6.926,1.4,2.541-.448,3.61l-25.208,14.553A6.949,6.949,0,0,1,399.656,326.077Z" transform="translate(-372.468 -291.957)" fill="#5793ce"/>
        <path id="Path_2872" data-name="Path 2872" d="M392.268,307.058l-3.613-2.087c-.221-.128-.194-.351.063-.5l3.487-2.014a.959.959,0,0,1,.865-.035l3.613,2.085c.221.128.194.351-.063.5l-3.487,2.012A.959.959,0,0,1,392.268,307.058Z" transform="translate(-362.581 -285.558)" fill="#d4ecff"/>
        <path id="Path_2873" data-name="Path 2873" d="M373.55,311l.073.044c.123-.087.234-.176.375-.259l25.208-14.553a6.946,6.946,0,0,1,6.253-.259L431.49,311c1.476-1.057,1.553-2.5.073-3.351l-26.105-15.072a6.952,6.952,0,0,0-6.253.26L374,307.395C372.148,308.463,371.948,310.078,373.55,311Z" transform="translate(-372.468 -291.957)" fill="#396caa"/>
      </g>
    </g>
    <g id="Group_997" data-name="Group 997" transform="translate(669.284 283.639)">
      <path id="Path_2874" data-name="Path 2874" d="M535.879,300.471,480.09,268.261c-3.424-1.977-3-5.43.959-7.712l53.868-31.1c3.954-2.282,9.935-2.53,13.359-.553L604.065,261.1c3.424,1.977,3,5.43-.959,7.712l-53.868,31.1C545.284,302.2,539.3,302.448,535.879,300.471Z" transform="translate(-474.61 -170.716)" fill="#0b1829"/>
      <path id="Path_2875" data-name="Path 2875" d="M542.918,295.3a14.993,14.993,0,0,1-7.415-1.773h0l-55.789-32.211a7.1,7.1,0,0,1-3.894-6.093c0-2.735,1.77-5.326,4.856-7.106l53.867-31.1c4.987-2.881,12.091-3.118,16.527-.554l55.791,32.21a7.1,7.1,0,0,1,3.894,6.093c0,2.735-1.77,5.326-4.856,7.108l-53.865,31.1A18.573,18.573,0,0,1,542.918,295.3Zm-4.248-7.261c2.462,1.418,7.221,1.159,10.194-.554l53.865-31.1c1.354-.782,1.68-1.489,1.687-1.621a2.04,2.04,0,0,0-.726-.6L547.9,221.946c-2.459-1.418-7.219-1.159-10.189.555l-53.868,31.1c-1.355.782-1.68,1.489-1.688,1.621a2.031,2.031,0,0,0,.726.6l55.79,32.21Z" transform="translate(-475.818 -178.653)" fill="#1a375d"/>
      <path id="Path_2876" data-name="Path 2876" d="M606.355,238.413h0V219.163l-43.162-.024-14.92-8.614c-3.424-1.975-9.4-1.728-13.359.554l-13.92,8.037-43.2-.024v19.8a3.87,3.87,0,0,0,2.294,3.577l55.789,32.211c3.424,1.977,9.405,1.728,13.359-.554l53.868-31.1C605.383,241.705,606.482,240,606.355,238.413Z" transform="translate(-474.606 -182.04)" fill="#396caa"/>
      <path id="Path_2877" data-name="Path 2877" d="M542.074,209.2a15.412,15.412,0,0,0-7.161,1.878l-13.92,8.037-43.2-.024v19.8a3.87,3.87,0,0,0,2.294,3.577l55.789,32.21a12.082,12.082,0,0,0,6.2,1.324Z" transform="translate(-474.606 -182.037)" fill="url(#radial-gradient-11)"/>
      <path id="Path_2878" data-name="Path 2878" d="M482.682,215.318l-4.89,0v19.8a3.87,3.87,0,0,0,2.294,3.577l2.6,1.5Z" transform="translate(-474.606 -178.264)" fill="#d4ecff"/>
      <path id="Path_2879" data-name="Path 2879" d="M514.252,258.581a15.219,15.219,0,0,0,10.677-.121V235.982H514.252Z" transform="translate(-452.123 -165.524)" fill="#5793ce"/>
      <path id="Path_2880" data-name="Path 2880" d="M535.879,265.306,480.09,233.1c-3.424-1.977-3-5.43.959-7.712l53.868-31.1c3.954-2.283,9.935-2.53,13.359-.553l55.789,32.209c3.424,1.977,3,5.43-.959,7.712l-53.868,31.1C545.284,267.036,539.3,267.283,535.879,265.306Z" transform="translate(-474.61 -192.395)" fill="url(#linear-gradient-8)"/>
      <path id="Path_2881" data-name="Path 2881" d="M603.106,216.493l-53.868,31.1c-3.954,2.282-9.935,2.531-13.359.554L480.09,215.937a5.164,5.164,0,0,1-1.709-1.515c-1.177,1.893-.643,3.946,1.709,5.3l55.789,32.209c3.424,1.977,9.405,1.73,13.359-.553l53.868-31.1c3.071-1.773,4.006-4.251,2.667-6.2A7.486,7.486,0,0,1,603.106,216.493Z" transform="translate(-474.61 -179.024)" fill="#fff"/>
      <g id="Group_995" data-name="Group 995" transform="translate(106.722 51.472)">
        <path id="Path_2882" data-name="Path 2882" d="M546.345,231.023a4.983,4.983,0,0,1-2.253,3.9c-1.245.718-2.253.136-2.253-1.3a4.978,4.978,0,0,1,2.253-3.9C545.336,229,546.345,229.588,546.345,231.023Z" transform="translate(-541.838 -221.044)" fill="#d4ecff"/>
        <path id="Path_2883" data-name="Path 2883" d="M550.83,228.435a4.978,4.978,0,0,1-2.253,3.9c-1.245.719-2.253.137-2.253-1.3a4.983,4.983,0,0,1,2.253-3.9C549.821,226.416,550.83,227,550.83,228.435Z" transform="translate(-539.073 -222.641)" fill="#d4ecff"/>
        <path id="Path_2884" data-name="Path 2884" d="M555.315,225.846a4.978,4.978,0,0,1-2.253,3.9c-1.245.719-2.254.136-2.254-1.3a4.978,4.978,0,0,1,2.254-3.9C554.306,223.827,555.315,224.408,555.315,225.846Z" transform="translate(-536.308 -224.237)" fill="#d4ecff"/>
      </g>
      <g id="Group_996" data-name="Group 996" transform="translate(37.38 18.823)">
        <path id="Path_2885" data-name="Path 2885" d="M526.13,238.159l-26.107-15.072c-1.6-.926-1.4-2.541.448-3.61l25.208-14.553a6.946,6.946,0,0,1,6.253-.259l26.1,15.072c1.6.925,1.4,2.541-.448,3.608L532.381,237.9A6.953,6.953,0,0,1,526.13,238.159Z" transform="translate(-498.942 -204.039)" fill="#5793ce"/>
        <path id="Path_2886" data-name="Path 2886" d="M518.742,219.139l-3.613-2.085c-.221-.128-.194-.352.063-.5l3.487-2.014a.964.964,0,0,1,.865-.036l3.613,2.085c.221.128.194.352-.063.5l-3.487,2.014A.964.964,0,0,1,518.742,219.139Z" transform="translate(-489.055 -197.64)" fill="#d4ecff"/>
        <path id="Path_2887" data-name="Path 2887" d="M500.024,223.086l.073.042a4.447,4.447,0,0,1,.375-.257l25.208-14.555a6.956,6.956,0,0,1,6.253-.259l26.032,15.03c1.476-1.057,1.554-2.5.073-3.351l-26.1-15.072a6.946,6.946,0,0,0-6.253.259l-25.208,14.553C498.622,220.545,498.422,222.16,500.024,223.086Z" transform="translate(-498.942 -204.039)" fill="#396caa"/>
      </g>
    </g>
    <g id="Group_1000" data-name="Group 1000" transform="translate(255.936 283.639)">
      <path id="Path_2888" data-name="Path 2888" d="M282.937,300.471l-55.789-32.211c-3.424-1.977-3-5.43.959-7.712l53.869-31.1c3.954-2.282,9.935-2.53,13.359-.553L351.122,261.1c3.424,1.977,2.994,5.43-.959,7.712l-53.869,31.1C292.341,302.2,286.36,302.448,282.937,300.471Z" transform="translate(-221.668 -170.716)" fill="#0b1829"/>
      <path id="Path_2889" data-name="Path 2889" d="M289.976,295.3a14.992,14.992,0,0,1-7.413-1.773h0L226.77,261.315a7.1,7.1,0,0,1-3.894-6.093c0-2.735,1.768-5.326,4.856-7.106l53.867-31.1c4.987-2.881,12.09-3.118,16.526-.554l55.791,32.21a7.1,7.1,0,0,1,3.9,6.093c0,2.735-1.768,5.326-4.854,7.108l-53.869,31.1A18.558,18.558,0,0,1,289.976,295.3Zm-4.247-7.261c2.459,1.418,7.216,1.159,10.19-.554l53.868-31.1c1.353-.781,1.678-1.489,1.686-1.621a2.039,2.039,0,0,0-.727-.6l-55.789-32.211c-2.459-1.418-7.219-1.159-10.189.555L230.9,253.6c-1.355.782-1.68,1.489-1.688,1.621a2.01,2.01,0,0,0,.726.6l55.792,32.21Z" transform="translate(-222.876 -178.653)" fill="#1a375d"/>
      <path id="Path_2890" data-name="Path 2890" d="M353.413,238.413h0V219.163l-43.164-.024-14.919-8.614c-3.424-1.975-9.4-1.728-13.359.554l-13.92,8.037-43.2-.024v19.8a3.87,3.87,0,0,0,2.294,3.577l55.789,32.211c3.424,1.977,9.4,1.728,13.359-.554l53.868-31.1C352.441,241.705,353.54,240,353.413,238.413Z" transform="translate(-221.664 -182.04)" fill="#396caa"/>
      <path id="Path_2891" data-name="Path 2891" d="M289.132,209.2a15.412,15.412,0,0,0-7.161,1.878l-13.92,8.037-43.2-.024v19.8a3.87,3.87,0,0,0,2.294,3.577l55.789,32.21a12.081,12.081,0,0,0,6.2,1.324Z" transform="translate(-221.664 -182.037)" fill="url(#radial-gradient-11)"/>
      <path id="Path_2892" data-name="Path 2892" d="M229.739,215.318l-4.888,0v19.8a3.87,3.87,0,0,0,2.294,3.577l2.594,1.5Z" transform="translate(-221.664 -178.264)" fill="#d4ecff"/>
      <path id="Path_2893" data-name="Path 2893" d="M261.31,258.581a15.219,15.219,0,0,0,10.677-.121V235.982H261.31Z" transform="translate(-199.181 -165.524)" fill="#5793ce"/>
      <path id="Path_2894" data-name="Path 2894" d="M282.937,265.306,227.148,233.1c-3.424-1.977-3-5.43.959-7.712l53.869-31.1c3.954-2.283,9.935-2.53,13.359-.553l55.789,32.209c3.424,1.977,2.994,5.43-.959,7.712l-53.869,31.1C292.341,267.036,286.36,267.283,282.937,265.306Z" transform="translate(-221.668 -192.395)" fill="url(#linear-gradient-8)"/>
      <path id="Path_2895" data-name="Path 2895" d="M350.164,216.493l-53.87,31.1c-3.952,2.282-9.933,2.531-13.357.554l-55.789-32.211a5.148,5.148,0,0,1-1.709-1.515c-1.177,1.893-.643,3.946,1.709,5.3l55.789,32.209c3.424,1.977,9.4,1.73,13.357-.553l53.87-31.1c3.071-1.773,4-4.251,2.667-6.2A7.484,7.484,0,0,1,350.164,216.493Z" transform="translate(-221.668 -179.024)" fill="#fff"/>
      <g id="Group_998" data-name="Group 998" transform="translate(106.722 51.472)">
        <path id="Path_2896" data-name="Path 2896" d="M293.4,231.023a4.983,4.983,0,0,1-2.253,3.9c-1.245.718-2.253.136-2.253-1.3a4.978,4.978,0,0,1,2.253-3.9C292.394,229,293.4,229.588,293.4,231.023Z" transform="translate(-288.896 -221.044)" fill="#d4ecff"/>
        <path id="Path_2897" data-name="Path 2897" d="M297.888,228.435a4.977,4.977,0,0,1-2.253,3.9c-1.245.719-2.253.137-2.253-1.3a4.983,4.983,0,0,1,2.253-3.9C296.879,226.416,297.888,227,297.888,228.435Z" transform="translate(-286.131 -222.641)" fill="#d4ecff"/>
        <path id="Path_2898" data-name="Path 2898" d="M302.373,225.846a4.978,4.978,0,0,1-2.253,3.9c-1.245.719-2.253.136-2.253-1.3a4.978,4.978,0,0,1,2.253-3.9C301.364,223.827,302.373,224.408,302.373,225.846Z" transform="translate(-283.366 -224.237)" fill="#d4ecff"/>
      </g>
      <g id="Group_999" data-name="Group 999" transform="translate(37.379 18.823)">
        <path id="Path_2899" data-name="Path 2899" d="M273.187,238.159l-26.105-15.072c-1.6-.926-1.4-2.541.448-3.61l25.208-14.553a6.943,6.943,0,0,1,6.251-.259L305.1,219.737c1.6.925,1.4,2.541-.448,3.608L279.438,237.9A6.953,6.953,0,0,1,273.187,238.159Z" transform="translate(-245.999 -204.039)" fill="#5793ce"/>
        <path id="Path_2900" data-name="Path 2900" d="M265.8,219.139l-3.613-2.085c-.221-.128-.194-.352.063-.5l3.487-2.014a.964.964,0,0,1,.865-.036l3.613,2.085c.221.128.192.352-.063.5l-3.487,2.014A.964.964,0,0,1,265.8,219.139Z" transform="translate(-236.112 -197.64)" fill="#d4ecff"/>
        <path id="Path_2901" data-name="Path 2901" d="M247.082,223.086l.073.042a4.221,4.221,0,0,1,.375-.257l25.208-14.555a6.953,6.953,0,0,1,6.251-.259l26.032,15.03c1.478-1.057,1.555-2.5.074-3.351l-26.107-15.072a6.943,6.943,0,0,0-6.251.259L247.53,219.477C245.68,220.545,245.478,222.16,247.082,223.086Z" transform="translate(-245.999 -204.039)" fill="#396caa"/>
      </g>
    </g>
    <path id="Path_2902" data-name="Path 2902" d="M233.85,249.024a17.115,17.115,0,0,0-2.756,2.019c-.382-12.4-9.34-17.334-20.363-10.97-8.978,5.184-16.585,16.282-19.311,27.159a12.178,12.178,0,0,0-7.617,1.893c-8.037,4.639-14.552,15.924-14.552,25.2s6.514,13.04,14.552,8.4l50.047-28.9c5.933-3.425,10.743-11.757,10.743-18.608S239.782,245.6,233.85,249.024Z" transform="translate(528.283 -181.127)" fill="#fff"/>
  </g>
</svg>
