<svg xmlns="http://www.w3.org/2000/svg" width="148.384" height="111.326" viewBox="0 0 148.384 111.326">
  <g id="cloud-icon" transform="translate(-861.112 -1685.724)">
    <path id="Path_95" data-name="Path 95" d="M141.98,121.394a32.631,32.631,0,0,0-13.564-10.545,29.107,29.107,0,0,0-28.108-24.007A44.514,44.514,0,0,0,17.89,99H13.042A13.056,13.056,0,0,0,0,112.043V140.68c0,.005,0,.011,0,.017s0,.015,0,.022v21.5a13.056,13.056,0,0,0,13.042,13.042h37.77a12.966,12.966,0,0,0,7.355-2.279H116.1a32.287,32.287,0,0,0,25.881-51.588ZM55.159,162.219a4.352,4.352,0,0,1-4.347,4.347H13.042a4.352,4.352,0,0,1-4.347-4.347V112.043a4.352,4.352,0,0,1,4.347-4.347h37.77a4.352,4.352,0,0,1,4.347,4.347Zm60.94,2.068H63.687a13.086,13.086,0,0,0,.166-2.068V112.043A13.056,13.056,0,0,0,50.812,99H26.839a35.82,35.82,0,0,1,66.934-5.865,4.346,4.346,0,0,0,4.286,2.472c.632-.052,1.189-.077,1.706-.077a20.486,20.486,0,0,1,20.341,18.827,4.347,4.347,0,0,0,3.038,3.817,23.595,23.595,0,0,1-7.045,46.112Z" transform="translate(861.112 1621.789)" fill="#fff"/>
    <path id="Path_96" data-name="Path 96" d="M79.057,250.06h-28.2a4.347,4.347,0,1,0,0,8.694h28.2a4.347,4.347,0,1,0,0-8.694Z" transform="translate(828.084 1489.606)" fill="#fff"/>
    <path id="Path_97" data-name="Path 97" d="M79.057,301.5h-28.2a4.347,4.347,0,1,0,0,8.694h28.2a4.347,4.347,0,1,0,0-8.694Z" transform="translate(828.084 1453.075)" fill="#fff"/>
    <path id="Path_98" data-name="Path 98" d="M79.057,352.936h-28.2a4.347,4.347,0,1,0,0,8.694h28.2a4.347,4.347,0,0,0,0-8.694Z" transform="translate(828.084 1416.545)" fill="#fff"/>
  </g>
</svg>
