<svg xmlns="http://www.w3.org/2000/svg" width="81.4" height="81.4" viewBox="0 0 81.4 81.4">
  <g id="Database" transform="translate(-2 -2)">
    <path id="Path_1405" data-name="Path 1405" d="M12.07,13a4.07,4.07,0,1,0,4.07,4.07A4.07,4.07,0,0,0,12.07,13Zm0,5.427a1.357,1.357,0,1,1,1.357-1.357A1.357,1.357,0,0,1,12.07,18.427Z" transform="translate(2.14 3.923)" fill="#fff"/>
    <path id="Path_1406" data-name="Path 1406" d="M32.07,21.14A4.07,4.07,0,1,0,28,17.07a4.07,4.07,0,0,0,4.07,4.07Zm0-5.427a1.357,1.357,0,1,1-1.357,1.357A1.357,1.357,0,0,1,32.07,15.713Z" transform="translate(9.273 3.923)" fill="#fff"/>
    <path id="Path_1407" data-name="Path 1407" d="M17,16.357a1.357,1.357,0,0,0,1.357,1.357H26.5A1.357,1.357,0,0,0,26.5,15h-8.14A1.357,1.357,0,0,0,17,16.357Z" transform="translate(5.35 4.637)" fill="#fff"/>
    <path id="Path_1408" data-name="Path 1408" d="M12.07,25a4.07,4.07,0,1,0,4.07,4.07A4.07,4.07,0,0,0,12.07,25Zm0,5.427a1.357,1.357,0,1,1,1.357-1.357A1.357,1.357,0,0,1,12.07,30.427Z" transform="translate(2.14 8.203)" fill="#fff"/>
    <path id="Path_1409" data-name="Path 1409" d="M26.5,27h-8.14a1.357,1.357,0,1,0,0,2.713H26.5A1.357,1.357,0,0,0,26.5,27Z" transform="translate(5.35 8.917)" fill="#fff"/>
    <path id="Path_1410" data-name="Path 1410" d="M12.07,37a4.07,4.07,0,1,0,4.07,4.07A4.07,4.07,0,0,0,12.07,37Zm0,5.427a1.357,1.357,0,1,1,1.357-1.357A1.357,1.357,0,0,1,12.07,42.427Z" transform="translate(2.14 12.483)" fill="#fff"/>
    <path id="Path_1411" data-name="Path 1411" d="M59.236,34.386a17.536,17.536,0,0,0-23.2,0,1.39,1.39,0,0,0-.183.136c-.016.018-.02.041-.035.06a17.551,17.551,0,0,0,0,26.1c.015.019.019.042.035.06a1.182,1.182,0,0,0,.182.136,17.534,17.534,0,0,0,23.233-.02,1.22,1.22,0,0,0,.159-.117c.016-.018.02-.041.035-.06a17.551,17.551,0,0,0,0-26.1c-.015-.019-.019-.042-.035-.06a1.242,1.242,0,0,0-.191-.134ZM47.635,62.56c-.8,0-2.035-1.773-2.934-5.13a14.64,14.64,0,0,1,5.869,0C49.67,60.786,48.434,62.56,47.635,62.56ZM53.161,58.2A14.7,14.7,0,0,1,56.2,59.846a14.813,14.813,0,0,1-4.442,2.129A18.869,18.869,0,0,0,53.161,58.2Zm-9.646,3.77a14.813,14.813,0,0,1-4.442-2.122A14.7,14.7,0,0,1,42.11,58.2,18.868,18.868,0,0,0,43.515,61.968Zm4.12-7.549a17.741,17.741,0,0,0-3.5.361,41.378,41.378,0,0,1-.543-5.788h8.094a41.38,41.38,0,0,1-.543,5.788,17.743,17.743,0,0,0-3.5-.361Zm-4.047-8.14a41.379,41.379,0,0,1,.543-5.788,17.194,17.194,0,0,0,7.009,0,41.38,41.38,0,0,1,.543,5.788Zm4.047-8.14a14.994,14.994,0,0,1-2.934-.3c.9-3.356,2.135-5.13,2.934-5.13s2.035,1.773,2.934,5.13A14.993,14.993,0,0,1,47.635,38.14ZM42.11,37.075a14.7,14.7,0,0,1-3.036-1.642A14.814,14.814,0,0,1,43.515,33.3a18.868,18.868,0,0,0-1.406,3.77Zm9.646-3.77A14.814,14.814,0,0,1,56.2,35.433a14.7,14.7,0,0,1-3.036,1.642,18.869,18.869,0,0,0-1.406-3.77Zm-14.8,3.934a17.5,17.5,0,0,0,4.561,2.517,44.735,44.735,0,0,0-.638,6.524H32.781a14.869,14.869,0,0,1,4.17-9.041Zm-4.17,11.754h8.094a44.737,44.737,0,0,0,.638,6.524,17.5,17.5,0,0,0-4.561,2.517,14.869,14.869,0,0,1-4.17-9.041Zm25.538,9.041a17.5,17.5,0,0,0-4.561-2.517,44.737,44.737,0,0,0,.638-6.524h8.094A14.869,14.869,0,0,1,58.319,58.034Zm4.17-11.754H54.4a44.736,44.736,0,0,0-.638-6.524,17.5,17.5,0,0,0,4.561-2.517A14.869,14.869,0,0,1,62.489,46.28Z" transform="translate(9.988 9.987)" fill="#fff"/>
    <path id="Path_1412" data-name="Path 1412" d="M73.9,14.21h8.14A1.357,1.357,0,0,0,83.4,12.853V4.713a1.357,1.357,0,0,0-1.357-1.357H73.9a1.357,1.357,0,0,0-1.357,1.357V7.427H57.623a1.357,1.357,0,0,0-1.357,1.357V31.916a25.483,25.483,0,0,0-2.713.285V8.783C53.553,3.429,37.351,2,27.777,2S2,3.429,2,8.783v48.84c0,5.355,16.2,6.783,25.777,6.783,1.42,0,2.766-.035,4.07-.087v12.3h-8.14V73.9a1.357,1.357,0,0,0-1.357-1.357H3.357A1.357,1.357,0,0,0,2,73.9v8.14A1.357,1.357,0,0,0,3.357,83.4H22.35a1.357,1.357,0,0,0,1.357-1.357V79.33h9.5a1.357,1.357,0,0,0,1.357-1.357V69.066a25.756,25.756,0,1,0,24.42-37.15V23.707H72.547V26.42A1.357,1.357,0,0,0,73.9,27.777h8.14A1.357,1.357,0,0,0,83.4,26.42V18.28a1.357,1.357,0,0,0-1.357-1.357H73.9a1.357,1.357,0,0,0-1.357,1.357v2.713H58.98V10.14H72.547v2.713A1.357,1.357,0,0,0,73.9,14.21ZM20.993,80.687H4.713V75.26h16.28ZM75.26,19.637h5.427v5.427H75.26ZM35.084,45.142c-2.338.171-4.782.271-7.307.271-14.362,0-22.633-2.655-23.063-4.086V28.4c5.02,2.648,15.9,3.449,23.063,3.449s18.044-.8,23.063-3.449v4.385A25.861,25.861,0,0,0,35.084,45.142Zm15.756-20.1c-.418,1.429-8.691,4.089-23.063,4.089S5.112,26.468,4.713,25.063V12.117c5.02,2.65,15.9,3.45,23.063,3.45s18.044-.8,23.063-3.449ZM27.777,4.713c14.359,0,22.627,2.652,23.063,4.061-.456,1.431-8.721,4.08-23.063,4.08S5.152,10.2,4.713,8.793C5.168,7.36,13.433,4.713,27.777,4.713ZM4.713,57.623V44.678c5.02,2.648,15.9,3.449,23.063,3.449,2.049,0,4.033-.075,5.969-.183A25.616,25.616,0,0,0,32.4,52.32a1.348,1.348,0,0,0-.549-.123h-8.14a1.357,1.357,0,1,0,0,2.713h8.14A1.409,1.409,0,0,0,32,54.88a24.078,24.078,0,0,0,.187,6.709c-1.4.062-2.858.1-4.408.1C13.387,61.693,5.111,59.029,4.713,57.623Zm75.973,0A23.063,23.063,0,1,1,57.623,34.56,23.063,23.063,0,0,1,80.687,57.623ZM75.26,6.07h5.427V11.5H75.26Z" fill="#fff"/>
  </g>
</svg>
