<svg xmlns="http://www.w3.org/2000/svg" width="181.42" height="57.563" viewBox="0 0 181.42 57.563">
  <g id="Group_112" data-name="Group 112" transform="translate(-870 -3588.001)" opacity="0.31">
    <g id="dgii_logo_light" transform="translate(870 3588)">
      <path id="Path_191" data-name="Path 191" d="M81.863,39.064H75.25V38.12h1.682V24.525H75.269V23.58h6.613v.945h-1.7V38.091h1.682Zm5.423-9.334a6.509,6.509,0,0,1,1.89-1.8,4.044,4.044,0,0,1,2.126-.6,3.07,3.07,0,0,1,1.984.6,3.033,3.033,0,0,1,.945,1.833,8.219,8.219,0,0,1,2.06-1.833,4.2,4.2,0,0,1,2.078-.6c2.041,0,3.042,1.105,3.042,3.3v7.5h1.682v.945H97.017V38.12h1.417v-6.8c0-1.408-.444-2.107-1.342-2.107a2.466,2.466,0,0,0-1.436.453,4.8,4.8,0,0,0-1.3,1.37V38.12h1.436v.945h-5.82V38.12h1.408V31.3a3.023,3.023,0,0,0-.312-1.6,1.162,1.162,0,0,0-1.02-.52,2.532,2.532,0,0,0-1.445.444,4.478,4.478,0,0,0-1.313,1.342v7.123h1.408v.945H82.647v-.945h1.682V28.53H82.647v-.945h4.639ZM108.118,37.9v4.327H109.8v.945h-6.453v-.945h1.672V28.53h-1.672v-.945h4.724v2.173a4.884,4.884,0,0,1,1.606-1.833,4.147,4.147,0,0,1,2.23-.6,3.675,3.675,0,0,1,3.155,1.549,6.8,6.8,0,0,1,1.162,4.176,7.294,7.294,0,0,1-1.313,4.582,4.176,4.176,0,0,1-3.486,1.719,4.393,4.393,0,0,1-1.757-.359,5.016,5.016,0,0,1-1.549-1.086Zm0-1.162a5.121,5.121,0,0,0,1.181.831,2.456,2.456,0,0,0,1.077.274,2.078,2.078,0,0,0,1.889-1.124,7.123,7.123,0,0,0,.633-3.373,6.424,6.424,0,0,0-.567-3.042A1.814,1.814,0,0,0,110.65,29.3a2.56,2.56,0,0,0-1.313.378,4.884,4.884,0,0,0-1.247,1.134Zm17.9,2.324V36.9a5.168,5.168,0,0,1-1.682,1.823,4.336,4.336,0,0,1-2.258.6,3.089,3.089,0,0,1-2.419-.945,3.779,3.779,0,0,1-.879-2.664V28.53H117.1v-.945h4.78V35.37a3.212,3.212,0,0,0,.312,1.672,1.294,1.294,0,0,0,1.124.453,2.645,2.645,0,0,0,1.417-.435,4.818,4.818,0,0,0,1.285-1.3V28.53h-1.682v-.945h4.78v10.5h1.625v.945Zm16.117-.444a12.178,12.178,0,0,1-4,.709,6.358,6.358,0,0,1-4.658-1.663,5.943,5.943,0,0,1-1.719-4.5,5.886,5.886,0,0,1,1.549-4.242,5.291,5.291,0,0,1,4.044-1.634q4.79,0,4.79,5.9v.236h-7.19a4.658,4.658,0,0,0,1.02,3.259,3.977,3.977,0,0,0,3.052,1.1,7.851,7.851,0,0,0,3.118-.765Zm-7.114-6.179h4.062v-.368a7.181,7.181,0,0,0-.416-2.938,1.483,1.483,0,0,0-1.445-.869,1.748,1.748,0,0,0-1.644,1.049,6.849,6.849,0,0,0-.557,3.127Zm9.306,6.1V35.578h1.417v1.71a4.582,4.582,0,0,0,2.948,1.03,1.89,1.89,0,0,0,1.351-.51,1.644,1.644,0,0,0,.548-1.266c0-.775-.642-1.427-1.956-1.889l-.945-.387q-3.316-1.3-3.316-3.524a2.929,2.929,0,0,1,1.285-2.5,5.669,5.669,0,0,1,3.429-.945,12.9,12.9,0,0,1,3.581.548V30.59h-1.427v-1.3c0-.661-1.039-1.02-1.889-1.02a2.012,2.012,0,0,0-1.417.539,1.729,1.729,0,0,0-.576,1.313,1.294,1.294,0,0,0,.387,1.02,6.613,6.613,0,0,0,1.748.869l.945.368c2.145.822,3.222,1.889,3.222,3.307a3.118,3.118,0,0,1-1.4,2.636,5.546,5.546,0,0,1-3.458,1.03,11.649,11.649,0,0,1-4.478-.8Zm17.893.425a5.574,5.574,0,0,1-1.889.359,3.949,3.949,0,0,1-2.9-.945,3.845,3.845,0,0,1-.945-2.834v-6.9h-1.427V27.614h1.427V25.621l3.1-.548v2.485h2.551V28.6h-2.551v6.972a4.279,4.279,0,0,0,.312,2.022,1.341,1.341,0,0,0,1.247.5,2.985,2.985,0,0,0,1.124-.246Zm7.2.359a5.924,5.924,0,0,1-4.393-1.606,6,6,0,0,1-1.6-4.412,6.037,6.037,0,0,1,1.6-4.44,6.783,6.783,0,0,1,8.767,0,6.037,6.037,0,0,1,1.6,4.412,6,6,0,0,1-1.6,4.412,5.924,5.924,0,0,1-4.374,1.634Zm0-1.115A2.012,2.012,0,0,0,171.312,37a8.154,8.154,0,0,0,.642-3.685,8.172,8.172,0,0,0-.642-3.694,2.031,2.031,0,0,0-1.889-1.219,2.06,2.06,0,0,0-1.89,1.219,8.323,8.323,0,0,0-.633,3.694A8.3,8.3,0,0,0,167.533,37,2.041,2.041,0,0,0,169.422,38.214Zm7.775.331V35.578h1.417v1.71a4.544,4.544,0,0,0,2.891,1.03,1.89,1.89,0,0,0,1.351-.51,1.644,1.644,0,0,0,.548-1.266c0-.775-.642-1.427-1.956-1.889l-.945-.387c-2.211-.869-3.307-2.041-3.307-3.524a2.948,2.948,0,0,1,1.275-2.5,5.669,5.669,0,0,1,3.429-.945,12.839,12.839,0,0,1,3.581.548V30.59h-1.427v-1.3c0-.661-1.039-1.02-1.889-1.02a2,2,0,0,0-1.408.539,1.719,1.719,0,0,0-.567,1.313,1.285,1.285,0,0,0,.416,1.02,6.613,6.613,0,0,0,1.748.869l.945.368c2.135.822,3.212,1.889,3.212,3.307a3.118,3.118,0,0,1-1.389,2.636,5.527,5.527,0,0,1-3.458,1.03,11.63,11.63,0,0,1-4.469-.8ZM87.428,54.18a5.338,5.338,0,0,1,1.748-1.833,4.308,4.308,0,0,1,2.249-.6,3.127,3.127,0,0,1,2.428.945,3.826,3.826,0,0,1,.869,2.674v7.171h1.7v.945H89.9v-.945h1.682v-6.8a3.344,3.344,0,0,0-.293-1.663,1.228,1.228,0,0,0-1.105-.435,2.589,2.589,0,0,0-1.389.425,5.206,5.206,0,0,0-1.37,1.266v7.2h1.691v.945H82.647v-.945h1.682V52.99H82.647v-.945h4.78Zm16.741,9.249a5.366,5.366,0,0,1-1.889.359,4.006,4.006,0,0,1-2.919-.945,3.883,3.883,0,0,1-.945-2.834v-6.9H97V52.074h1.417V50.184l3.108-.557v2.485h2.551v1.039h-2.617v6.9a4.44,4.44,0,0,0,.3,2.022,1.389,1.389,0,0,0,1.257.491,3,3,0,0,0,1.124-.236Zm11.583-.359a12.282,12.282,0,0,1-4.006.718,6.386,6.386,0,0,1-4.62-1.663,6.679,6.679,0,0,1-.17-8.748,5.319,5.319,0,0,1,4.034-1.634q4.8,0,4.8,5.9v.236H108.6a4.724,4.724,0,0,0,1.011,3.269,3.987,3.987,0,0,0,3.052,1.1,8.059,8.059,0,0,0,3.127-.765Zm-7.114-6.179h4.072v-.359a7.2,7.2,0,0,0-.425-2.948,1.512,1.512,0,0,0-1.455-.869,1.786,1.786,0,0,0-1.653,1.049,7.067,7.067,0,0,0-.539,3.127Zm13.255-1.568V62.57h1.946v.945h-6.727V62.57h1.672V52.99h-1.672v-.945h4.78v2.173a4.166,4.166,0,0,1,3.666-2.437,3.779,3.779,0,0,1,.614.085v3.675h-1.427v-1.5a1.257,1.257,0,0,0-.68-.189,2.456,2.456,0,0,0-2.173,1.474Zm25.508,8.5a6.027,6.027,0,1,1,4.374-10.392,6.7,6.7,0,0,1,.047,8.739,5.876,5.876,0,0,1-4.421,1.653Zm0-1.105a2.031,2.031,0,0,0,1.889-1.228,8.333,8.333,0,0,0,.633-3.685,8.267,8.267,0,0,0-.633-3.694,2.031,2.031,0,0,0-1.889-1.228,2.06,2.06,0,0,0-1.889,1.228,8.248,8.248,0,0,0-.642,3.694,8.313,8.313,0,0,0,.642,3.685,2.06,2.06,0,0,0,1.889,1.19Zm-65.537.8H75.25v-.945h1.682v-13.6H75.269V48.03h6.613v.945h-1.7V62.541h1.682Zm73.312-.529V60.047h1.417v1.71a4.563,4.563,0,0,0,2.9,1.068,1.89,1.89,0,0,0,1.351-.52,1.616,1.616,0,0,0,.548-1.266c0-.765-.652-1.417-1.956-1.937l-.945-.378c-2.211-.869-3.307-2.05-3.307-3.524a2.919,2.919,0,0,1,1.275-2.5,5.668,5.668,0,0,1,3.439-.945,12.867,12.867,0,0,1,3.581.538v2.759h-1.427V53.736c0-.661-1.039-1.02-1.889-1.02a2.041,2.041,0,0,0-1.4.539,1.7,1.7,0,0,0-.567,1.313,1.275,1.275,0,0,0,.416,1.02,6.67,6.67,0,0,0,1.748.879l.945.368q3.212,1.228,3.222,3.307a3.146,3.146,0,0,1-1.37,2.617,5.612,5.612,0,0,1-3.505,1.068,11.46,11.46,0,0,1-4.478-.831ZM131.821,54.18a5.234,5.234,0,0,1,1.691-1.833,4.308,4.308,0,0,1,2.249-.6,3.155,3.155,0,0,1,2.428.945,3.836,3.836,0,0,1,.879,2.674v7.171h1.682v.945h-6.472v-.945h1.682v-6.8a3.477,3.477,0,0,0-.283-1.663,1.228,1.228,0,0,0-1.105-.435,2.645,2.645,0,0,0-1.4.425,5.461,5.461,0,0,0-1.351,1.266v7.2h1.672v.945h-6.462v-.945h1.682V52.99h-1.682v-.945h4.79Z" transform="translate(-5.093 -8.861)" fill="#fff"/>
      <path id="Path_194" data-name="Path 194" d="M7.1,36.569A18.612,18.612,0,0,1,7.558,32.5H.3A28.89,28.89,0,0,0,0,36.569a29.391,29.391,0,0,0,.3,4.1H7.558a18.9,18.9,0,0,1-.453-4.1Zm5.668-17.875-4.4-2.541a29.646,29.646,0,0,0-4.591,6.122l4.582,2.655a20.51,20.51,0,0,1,4.431-6.235ZM11.214,45.94l-7.709,4.44a28.956,28.956,0,0,0,5.281,7.01l7.388-4.261a16.9,16.9,0,0,1-4.96-7.19ZM48.182,31.524l8.352-4.818a25.745,25.745,0,0,0-1.294-3.023l-8.6,4.96a11.894,11.894,0,0,1,1.54,2.881ZM24.9,10.569,23.43,7.99a28.843,28.843,0,0,0-6.358,2.05l1.568,2.711A22.919,22.919,0,0,1,24.9,10.569Zm13.7-.3V9.048A28.427,28.427,0,0,0,33.7,7.82V9.114c.831.113,1.663.265,2.485.453a25.075,25.075,0,0,1,2.419.7Zm3.779,42.041,4.3,7.454A30.685,30.685,0,0,0,50.4,56.4l-4.015-6.953A13.812,13.812,0,0,1,42.4,52.308Zm5.612-6.679,7.076,4.091a28.937,28.937,0,0,0,1.5-3.533l-6.831-3.949a12.962,12.962,0,0,1-1.729,3.392ZM58.159,34.953H49.75a13.01,13.01,0,0,1,.1,1.616,13.623,13.623,0,0,1-.094,1.653h8.408c0-.557.066-1.1.066-1.653s-.028-1.086-.057-1.616Zm-25,21.219v9.211a28.88,28.88,0,0,0,5.98-1.5v-8.5a14.813,14.813,0,0,1-2.957.7,15.5,15.5,0,0,1-3.023.094ZM16.637,62.861a29.061,29.061,0,0,0,7.426,2.371l4.412-7.671a16.061,16.061,0,0,1-7.1-2.938ZM50.015,16.323a28.929,28.929,0,0,0-2.834-2.617L40.624,25.071a11.148,11.148,0,0,1,3.231,2.022Z" transform="translate(0 -7.82)" fill="#fff"/>
    </g>
    <path id="Path_193" data-name="Path 193" d="M46.357,36.809a9.494,9.494,0,0,1-.151,1.644H48.7a11.935,11.935,0,0,0,.1-1.644,11.421,11.421,0,0,0-.132-1.625H46.206a9.2,9.2,0,0,1,.151,1.625Zm.945-4.176A11.063,11.063,0,0,0,45.724,29.8l-1.54.888a9.8,9.8,0,0,1,1.625,2.834ZM36.768,46.4a9.589,9.589,0,1,1,2.456-18.848V12.945a21.19,21.19,0,0,0-2.419-.642,22.722,22.722,0,0,0-2.485-.3V26.077L27,13.36a18.9,18.9,0,0,0-6.179,2.419L27.3,27l-10.94-6.33a17.005,17.005,0,0,0-4.346,6.292l10.071,5.81H11.808a15.57,15.57,0,0,0-.548,4.072,15.38,15.38,0,0,0,.557,4.091h9.173l-6.084,3.505a14.577,14.577,0,0,0,4.847,7.237l6.112-3.533-2.286,3.968a13.916,13.916,0,0,0,6.991,3.127l3.212-5.593v4.119a12.281,12.281,0,0,0,3,.057,12.943,12.943,0,0,0,2.976-.642V46.889l2.182,3.779A12.216,12.216,0,0,0,46.017,47.9l-2.494-4.308A9.589,9.589,0,0,1,36.768,46.4Zm9.088-6.538a9.627,9.627,0,0,1-1.889,3.288l3.108,1.8a11.441,11.441,0,0,0,1.8-3.363ZM43.532,28.873A9.948,9.948,0,0,0,40.3,26.927l-.463.794a9.6,9.6,0,0,1,3.307,1.889Z" transform="translate(869.378 3579.949)" fill="#fff"/>
  </g>
</svg>
