<svg id="Group_751" data-name="Group 751" xmlns="http://www.w3.org/2000/svg" width="104.503" height="104.63" viewBox="0 0 104.503 104.63">
  <path id="Path_2536" data-name="Path 2536" d="M93.825,56.836,142.656,39h.31c3,0,5.18,1.846,5.18,4.376v6.077h10.918a4.781,4.781,0,0,1,4.765,4.77V97.381l12.182,8.731V138.86a4.777,4.777,0,0,1-4.744,4.77h-76.1v-.021a4.449,4.449,0,0,1-2.756-.912,4.394,4.394,0,0,1-1.74-3.547V61.108A4.417,4.417,0,0,1,93.825,56.836Zm77.442,83.289a1.256,1.256,0,0,0,1.264-1.265V107.9l-12.182-8.71V54.223a1.274,1.274,0,0,0-1.284-1.265H148.146v68.461a4.509,4.509,0,0,1-.063.746A4.375,4.375,0,0,1,145,125.69l-39.342,14.435Zm-77.111-.975a.987.987,0,0,0,1.1,1l48.686-17.774a.96.96,0,0,0,.725-.954V43.376c0-.664-.953-.829-1.43-.871L94.882,60.154a.96.96,0,0,0-.726.954Z" transform="translate(-90.676 -39)" fill="#fff"/>
  <path id="Path_2537" data-name="Path 2537" d="M114.374,148.25h65.612a1.256,1.256,0,0,0,1.264-1.265V116.02l-12.182-8.71V62.347a1.274,1.274,0,0,0-1.284-1.265H156.866v68.461a4.507,4.507,0,0,1-.063.746,4.375,4.375,0,0,1-3.087,3.526Z" transform="translate(-99.395 -47.125)" fill="#0d4b84"/>
  <path id="Path_2538" data-name="Path 2538" d="M96.182,63.148v78.042a.987.987,0,0,0,1.1,1l48.686-17.774a.96.96,0,0,0,.725-.954V45.416c0-.664-.953-.829-1.43-.871L96.908,62.194A.96.96,0,0,0,96.182,63.148Z" transform="translate(-92.702 -41.04)" fill="#fff"/>
  <g id="Group_750" data-name="Group 750" transform="translate(56.273 24.887)">
    <g id="Path_2539" data-name="Path 2539" transform="translate(-185.966 -78.374)" fill="#0d4b84" stroke-miterlimit="10">
      <path d="M 208.8142700195312 109.0540771484375 C 206.9782257080078 109.0540771484375 205.1995544433594 108.6180648803711 203.5276184082031 107.7581634521484 C 201.9330596923828 106.9380569458008 200.5054321289062 105.769416809082 199.2843933105469 104.2847366333008 C 196.8140411376953 101.2809753417969 195.4535675048828 97.30231475830078 195.4535675048828 93.08165740966797 C 195.4535675048828 87.94181823730469 196.1887664794922 84.52134704589844 197.8374328613281 81.99101257324219 C 198.8721466064453 80.40296173095703 200.2870483398438 79.18812561035156 202.0428619384766 78.38026428222656 C 203.9026184082031 77.52457427978516 206.1175537109375 77.10861206054688 208.8142700195312 77.10861206054688 C 211.510986328125 77.10861206054688 213.7259674072266 77.52457427978516 215.5857849121094 78.38025665283203 C 217.3416442871094 79.18811798095703 218.7566375732422 80.40293121337891 219.7914276123047 81.99097442626953 C 221.4403076171875 84.52142333984375 222.1756134033203 87.94191741943359 222.1756134033203 93.08165740966797 C 222.1756134033203 97.3023681640625 220.8151092529297 101.2810363769531 218.3446960449219 104.2847518920898 C 217.1236267089844 105.7694473266602 215.6959228515625 106.9380722045898 214.1012725830078 107.758171081543 C 212.4292602539062 108.6180725097656 210.6504516601562 109.0540771484375 208.8142700195312 109.0540771484375 Z" stroke="none"/>
      <path d="M 208.8142700195312 107.7886810302734 C 215.4946441650391 107.7886810302734 220.9102325439453 101.2037658691406 220.9102325439453 93.08165740966797 C 220.9102325439453 84.95891571044922 219.131591796875 78.37400817871094 208.8142700195312 78.37400817871094 C 198.4969940185547 78.37400817871094 196.7189483642578 84.95891571044922 196.7189483642578 93.08165740966797 C 196.7189483642578 101.2037658691406 202.1345672607422 107.7886810302734 208.8142700195312 107.7886810302734 M 208.8142700195312 110.319465637207 C 206.7749633789062 110.319465637207 204.8015594482422 109.836311340332 202.9488677978516 108.8834457397461 C 201.2000274658203 107.9839859008789 199.6383056640625 106.7071838378906 198.3070678710938 105.0885009765625 C 195.6509552001953 101.8588714599609 194.1881713867188 97.59475708007812 194.1881713867188 93.08165740966797 C 194.1881713867188 89.44648742675781 194.4824523925781 84.82221221923828 196.7772216796875 81.30023193359375 C 197.9442596435547 79.50908660888672 199.5379180908203 78.13990783691406 201.5139465332031 77.230712890625 C 203.5431213378906 76.29707336425781 205.9310760498047 75.84322357177734 208.8142700195312 75.84322357177734 C 211.6974639892578 75.84322357177734 214.08544921875 76.29707336425781 216.1146850585938 77.23070526123047 C 218.0907440185547 78.13987731933594 219.6844635009766 79.509033203125 220.8515930175781 81.30014801025391 C 223.1466979980469 84.82230377197266 223.4410095214844 89.446533203125 223.4410095214844 93.08165740966797 C 223.4410095214844 97.59481811523438 221.9781951904297 101.8589477539062 219.3220062255859 105.0885314941406 C 217.9907379150391 106.7072219848633 216.4289245605469 107.9840240478516 214.6799926757812 108.8834762573242 C 212.8272247314453 109.8363265991211 210.8537139892578 110.319465637207 208.8142700195312 110.319465637207 Z" stroke="none" fill="#fff"/>
    </g>
    <g id="Path_2540" data-name="Path 2540" transform="translate(-206.305 -108.42)" fill="#ed6f55" stroke-miterlimit="10">
      <path d="M 253.2647552490234 160.3307800292969 L 250.734619140625 160.2859191894531 C 250.7349853515625 160.1879730224609 250.7353973388672 160.1222381591797 250.7357635498047 160.0809936523438 C 250.7433471679688 159.2299194335938 251.3938293457031 158.7706909179688 252.0020294189453 158.7706909179688 L 252.5379333496094 158.7706909179688 L 252.9108428955078 159.1555633544922 C 253.2895660400391 159.5464782714844 253.2763977050781 159.9631500244141 253.2647552490234 160.3307800292969 Z" stroke="none"/>
      <path d="M 252 160.2907562255859 C 252.0027313232422 160.2045593261719 252.0028076171875 160.0360717773438 252.0020294189453 160.0360717773438 C 252.0015411376953 160.0360717773438 252.000732421875 160.1009979248047 252 160.2907562255859 M 254.5295104980469 160.3708648681641 L 249.46923828125 160.2811584472656 C 249.4696197509766 160.1800689697266 249.4700469970703 160.1122436523438 249.4704284667969 160.0696868896484 C 249.4706878662109 160.0398101806641 249.4709777832031 160.0188140869141 249.4712066650391 160.0052795410156 L 249.4715576171875 159.9855499267578 L 249.4724273681641 159.9558715820312 L 249.5530853271484 157.5084533691406 L 252.0020294189453 157.5052947998047 L 253.0738677978516 157.5052947998047 L 253.8196716308594 158.2751007080078 C 254.5713195800781 159.0509185791016 254.5441284179688 159.9095764160156 254.5295104980469 160.3708648681641 Z" stroke="none" fill="#fff"/>
    </g>
    <g id="Path_2541" data-name="Path 2541" transform="translate(-179.706 -108.531)" fill="#ed6f55" stroke-miterlimit="10">
      <path d="M 178.4460906982422 160.8532409667969 C 178.4448547363281 160.8291168212891 178.4415435791016 160.7650299072266 178.4407958984375 160.5355377197266 C 178.4397888183594 160.2241058349609 178.4385223388672 159.8365020751953 178.7894744873047 159.4670104980469 L 179.1636505126953 159.0731048583984 L 179.7069549560547 159.0731048583984 C 180.3200836181641 159.0731048583984 180.9612121582031 159.5480499267578 180.9728546142578 160.3428497314453 C 180.9731292724609 160.3607025146484 180.9734191894531 160.3884429931641 180.9736938476562 160.4280548095703 C 180.9741973876953 160.4994964599609 180.9747314453125 160.6137084960938 180.9752044677734 160.7847747802734 L 178.4460906982422 160.8532409667969 Z" stroke="none"/>
      <path d="M 179.7098083496094 160.7882080078125 C 179.7088928222656 160.451416015625 179.7077484130859 160.3384857177734 179.7069549560547 160.3384857177734 C 179.70556640625 160.3384857177734 179.7053375244141 160.7013854980469 179.7098083496094 160.7882080078125 M 177.182373046875 160.9183349609375 C 177.1803894042969 160.8798217773438 177.17626953125 160.7996673583984 177.1754150390625 160.5396728515625 C 177.1741333007812 160.1480255126953 177.1714782714844 159.3330841064453 177.8719940185547 158.5955810546875 L 178.6203308105469 157.8077087402344 L 179.7069549560547 157.8077087402344 C 181.1055450439453 157.8077087402344 182.2173614501953 158.9130706787109 182.2381134033203 160.3241729736328 C 182.2384033203125 160.3440551757812 182.2387390136719 160.3749542236328 182.2390594482422 160.4190521240234 C 182.2395629882812 160.4916229248047 182.2401123046875 160.6076202392578 182.2405853271484 160.7813720703125 L 177.182373046875 160.9183349609375 Z" stroke="none" fill="#fff"/>
    </g>
    <g id="Path_2542" data-name="Path 2542" transform="translate(-179.709 -96.153)" fill="#0d4b84" stroke-miterlimit="10">
      <path d="M 202.5572967529297 157.5625152587891 C 198.0273742675781 157.5625152587891 193.9745941162109 157.1967620849609 190.5115356445312 156.4754333496094 C 187.6961364746094 155.8890075683594 185.2523345947266 155.0652770996094 183.2480163574219 154.0271606445312 C 179.7064056396484 152.1928100585938 178.6841278076172 150.2835540771484 178.5792236328125 150.0718841552734 L 178.4476165771484 149.8063354492188 L 178.4476165771484 149.5099639892578 C 178.4476165771484 149.0204772949219 178.4570770263672 148.4052734375 178.4701690673828 147.5538177490234 L 178.4723815917969 147.4103851318359 C 178.5374298095703 143.3088073730469 178.7342071533203 140.6022338867188 179.1303558349609 138.359619140625 C 179.6078186035156 135.6568145751953 180.3925170898438 133.6260986328125 181.5998840332031 131.9688262939453 C 182.8504486083984 130.2522583007812 184.6047668457031 128.9100799560547 186.9631042480469 127.8656311035156 C 189.134765625 126.9038391113281 191.9139862060547 126.1365051269531 195.70947265625 125.4507751464844 L 196.4791107177734 125.3117218017578 L 196.9268341064453 125.9106521606445 C 197.0514068603516 126.0589141845703 198.7310028076172 127.9671096801758 202.5572967529297 127.9671096801758 C 206.3840942382812 127.9671096801758 208.0643463134766 126.0589904785156 208.1891632080078 125.9105224609375 L 208.6542663574219 125.2891082763672 L 209.4064178466797 125.4507751464844 C 213.1604766845703 126.1290740966797 215.9154663085938 126.8858032226562 218.0765686035156 127.8322601318359 C 220.4229736328125 128.8598785400391 222.1744995117188 130.1757049560547 223.4312591552734 131.8549194335938 C 225.9368133544922 135.2027587890625 226.5030975341797 139.9236297607422 226.6345520019531 146.9466247558594 C 226.65478515625 148.0371246337891 226.6670074462891 148.6952056884766 226.6670074462891 149.5099639892578 L 226.6670074462891 149.8062438964844 L 226.5354766845703 150.0717163085938 C 226.4306030273438 150.2833862304688 225.4086303710938 152.1927490234375 221.8670806884766 154.0271453857422 C 219.8628540039062 155.0652770996094 217.4190673828125 155.8890075683594 214.6035919189453 156.4754333496094 C 211.1404571533203 157.1967620849609 207.0875091552734 157.5625152587891 202.5572967529297 157.5625152587891 Z" stroke="none"/>
      <path d="M 202.5572967529297 156.297119140625 C 222.0390014648438 156.297119140625 225.401611328125 149.5099639892578 225.401611328125 149.5099639892578 C 225.401611328125 148.7211456298828 225.3902587890625 148.0953826904297 225.369384765625 146.9703063964844 C 225.1114959716797 133.1924133300781 223.1533355712891 129.2204895019531 209.1814270019531 126.6959991455078 C 209.1814270019531 126.6959991455078 207.1922760009766 129.2324981689453 202.5572967529297 129.2324981689453 C 197.9229583740234 129.2324981689453 195.9344482421875 126.6959991455078 195.9344482421875 126.6959991455078 C 181.8076477050781 129.248291015625 179.9620208740234 133.2802734375 179.7376251220703 147.4298248291016 C 179.7237243652344 148.3349456787109 179.7129974365234 149.0030364990234 179.7129974365234 149.5099639892578 C 179.7129974365234 149.5099639892578 183.0768737792969 156.297119140625 202.5572967529297 156.297119140625 M 202.5572967529297 158.8278961181641 C 197.9408721923828 158.8278961181641 193.80126953125 158.4532165527344 190.2534942626953 157.7142333984375 C 187.3253936767578 157.1043090820312 184.7725982666016 156.2418518066406 182.6660461425781 155.1507873535156 C 178.8477478027344 153.1731262207031 177.6473083496094 151.0411224365234 177.4454345703125 150.6338195800781 L 177.1822204589844 150.1027221679688 L 177.1822204589844 149.5099639892578 C 177.1822204589844 149.0110015869141 177.1917419433594 148.3922119140625 177.2049255371094 147.5357818603516 L 177.2071533203125 147.3909454345703 C 177.2733306884766 143.2181091308594 177.4758148193359 140.4516906738281 177.8842620849609 138.1394958496094 C 178.3964691162109 135.2399749755859 179.2521514892578 133.0424499511719 180.5771179199219 131.2237243652344 C 181.9622039794922 129.322509765625 183.8834838867188 127.8455963134766 186.45068359375 126.708625793457 C 188.7168121337891 125.7050094604492 191.5873565673828 124.9096374511719 195.4844970703125 124.2055435180664 L 197.0697479248047 123.9191284179688 L 197.9105834960938 125.1125030517578 C 198.1062316894531 125.3223419189453 199.5088958740234 126.7017135620117 202.5572967529297 126.7017135620117 C 205.6081085205078 126.7017135620117 207.0112457275391 125.3206634521484 207.2058410644531 125.1118850708008 L 208.1205902099609 123.8197174072266 L 209.6314239501953 124.2055435180664 C 213.4853363037109 124.9018783569336 216.3301391601562 125.6859893798828 218.5841979980469 126.6731491088867 C 221.1362152099609 127.7908248901367 223.0530853271484 129.23779296875 224.4443359375 131.0967102050781 C 227.1543426513672 134.7177429199219 227.7634429931641 139.6416168212891 227.8997192382812 146.9229431152344 C 227.9201049804688 148.0210113525391 227.9323883056641 148.6835632324219 227.9323883056641 149.5099639892578 L 227.9323883056641 150.1025238037109 L 227.6693420410156 150.6334838867188 C 227.467529296875 151.0408172607422 226.2673797607422 153.1730041503906 222.4490814208984 155.1507568359375 C 220.3426055908203 156.2418518066406 217.7898254394531 157.1043090820312 214.8616333007812 157.7142333984375 C 211.3138122558594 158.4532165527344 207.1740264892578 158.8278961181641 202.5572967529297 158.8278961181641 Z" stroke="none" fill="#fff"/>
    </g>
  </g>
</svg>
