<svg xmlns="http://www.w3.org/2000/svg" width="198" height="198" viewBox="0 0 198 198">
  <g id="Group_763" data-name="Group 763" transform="translate(-651 -1119)">
    <g id="ui_1_" data-name="ui (1)" transform="translate(708 1172)">
      <g id="Group_325" data-name="Group 325" transform="translate(22.984 22.217)">
        <g id="Group_324" data-name="Group 324">
          <path id="Path_1354" data-name="Path 1354" d="M141.6,128a5.066,5.066,0,1,0,5.066,5.066A5.071,5.071,0,0,0,141.6,128Zm0,7.6a2.533,2.533,0,1,1,2.533-2.533A2.536,2.536,0,0,1,141.6,135.6Z" transform="translate(-136.534 -128)" fill="#3261a0"/>
        </g>
      </g>
      <g id="Group_327" data-name="Group 327" transform="translate(22.984 38.509)">
        <g id="Group_326" data-name="Group 326">
          <path id="Path_1355" data-name="Path 1355" d="M141.6,221.867a5.066,5.066,0,1,0,5.066,5.066A5.071,5.071,0,0,0,141.6,221.867Zm0,7.6a2.533,2.533,0,1,1,2.533-2.533A2.536,2.536,0,0,1,141.6,229.466Z" transform="translate(-136.534 -221.867)" fill="#3261a0"/>
        </g>
      </g>
      <g id="Group_329" data-name="Group 329" transform="translate(22.984 54.802)">
        <g id="Group_328" data-name="Group 328">
          <path id="Path_1356" data-name="Path 1356" d="M141.6,315.733a5.066,5.066,0,1,0,5.066,5.066A5.071,5.071,0,0,0,141.6,315.733Zm0,7.6a2.533,2.533,0,1,1,2.533-2.533A2.536,2.536,0,0,1,141.6,323.332Z" transform="translate(-136.534 -315.733)" fill="#3261a0"/>
        </g>
      </g>
      <g id="Group_331" data-name="Group 331" transform="translate(19.617 74.486)">
        <g id="Group_330" data-name="Group 330">
          <path id="Path_1357" data-name="Path 1357" d="M146.729,426.667H103.666a1.266,1.266,0,0,0-1.266,1.266v6a5.409,5.409,0,0,0,5.4,5.4h34.79a5.409,5.409,0,0,0,5.4-5.4v-6A1.266,1.266,0,0,0,146.729,426.667Zm-1.267,7.262a2.873,2.873,0,0,1-2.869,2.87H107.8a2.873,2.873,0,0,1-2.87-2.87V429.2h40.53Z" transform="translate(-102.4 -426.667)" fill="#3261a0"/>
        </g>
      </g>
      <g id="Group_333" data-name="Group 333" transform="translate(37.348 79.552)">
        <g id="Group_332" data-name="Group 332">
          <path id="Path_1358" data-name="Path 1358" d="M230.733,460.8h-7.6a1.267,1.267,0,1,0,0,2.533h7.6a1.267,1.267,0,0,0,0-2.533Z" transform="translate(-221.867 -460.8)" fill="#3261a0"/>
        </g>
      </g>
      <g id="Group_335" data-name="Group 335" transform="translate(52.917 79.552)">
        <g id="Group_334" data-name="Group 334">
          <path id="Path_1359" data-name="Path 1359" d="M322.067,460.8H317a1.267,1.267,0,1,0,0,2.533h5.066a1.267,1.267,0,1,0,0-2.533Z" transform="translate(-315.734 -460.8)" fill="#3261a0"/>
        </g>
      </g>
      <g id="Group_337" data-name="Group 337" transform="translate(24.313 79.552)">
        <g id="Group_336" data-name="Group 336">
          <path id="Path_1360" data-name="Path 1360" d="M151.4,460.8h-5.066a1.267,1.267,0,0,0,0,2.533H151.4a1.267,1.267,0,0,0,0-2.533Z" transform="translate(-145.067 -460.8)" fill="#3261a0"/>
        </g>
      </g>
      <g id="Group_339" data-name="Group 339" transform="translate(19.617)">
        <g id="Group_338" data-name="Group 338">
          <path id="Path_1361" data-name="Path 1361" d="M142.594,0H107.8a5.409,5.409,0,0,0-5.4,5.4v6a1.266,1.266,0,0,0,1.266,1.266h43.063A1.266,1.266,0,0,0,148,11.4v-6A5.408,5.408,0,0,0,142.594,0Zm2.869,10.132H104.933V5.4a2.873,2.873,0,0,1,2.87-2.87h34.79a2.873,2.873,0,0,1,2.87,2.87v4.729Z" transform="translate(-102.4)" fill="#3261a0"/>
        </g>
      </g>
      <g id="Group_341" data-name="Group 341" transform="translate(34.815 5.066)">
        <g id="Group_340" data-name="Group 340">
          <path id="Path_1362" data-name="Path 1362" d="M218.733,34.133H206.067a1.267,1.267,0,1,0,0,2.533h12.665a1.267,1.267,0,0,0,0-2.533Z" transform="translate(-204.801 -34.133)" fill="#3261a0"/>
        </g>
      </g>
      <g id="Group_343" data-name="Group 343" transform="translate(19.617 10.132)">
        <g id="Group_342" data-name="Group 342">
          <path id="Path_1363" data-name="Path 1363" d="M146.729,68.267H103.666a1.41,1.41,0,0,0-1.266,1.52v63.846a1.41,1.41,0,0,0,1.266,1.52h43.063a1.41,1.41,0,0,0,1.267-1.52V69.787A1.41,1.41,0,0,0,146.729,68.267Zm-1.267,63.846H104.933V71.307h40.53v60.806Z" transform="translate(-102.4 -68.267)" fill="#3261a0"/>
        </g>
      </g>
      <g id="Group_345" data-name="Group 345" transform="translate(73.421 33.446)">
        <g id="Group_344" data-name="Group 344">
          <path id="Path_1364" data-name="Path 1364" d="M437.633,188.646a1.267,1.267,0,0,0-2.433.707,30.608,30.608,0,0,1-.009,17.052,1.268,1.268,0,0,0,.861,1.57,1.287,1.287,0,0,0,.356.051,1.268,1.268,0,0,0,1.216-.911,33.133,33.133,0,0,0,.009-18.469Z" transform="translate(-435.141 -187.733)" fill="#3261a0"/>
        </g>
      </g>
      <g id="Group_347" data-name="Group 347" transform="translate(7.608 33.445)">
        <g id="Group_346" data-name="Group 346">
          <path id="Path_1365" data-name="Path 1365" d="M55.009,206.4A30.6,30.6,0,0,1,55,189.345a1.267,1.267,0,0,0-2.433-.707,33.134,33.134,0,0,0,.009,18.469,1.265,1.265,0,0,0,1.215.912,1.238,1.238,0,0,0,.356-.051A1.266,1.266,0,0,0,55.009,206.4Z" transform="translate(-51.26 -187.725)" fill="#3261a0"/>
        </g>
      </g>
      <g id="Group_349" data-name="Group 349" transform="translate(0 28.378)">
        <g id="Group_348" data-name="Group 348">
          <path id="Path_1366" data-name="Path 1366" d="M2.533,168.8a33.956,33.956,0,0,1,2.423-13.415,1.267,1.267,0,1,0-2.313-1.034,40.821,40.821,0,0,0,0,28.9A1.271,1.271,0,0,0,3.8,184a1.249,1.249,0,0,0,.517-.11,1.267,1.267,0,0,0,.64-1.673A33.956,33.956,0,0,1,2.533,168.8Z" transform="translate(0 -153.604)" fill="#3261a0"/>
        </g>
      </g>
      <g id="Group_351" data-name="Group 351" transform="translate(79.763 28.377)">
        <g id="Group_350" data-name="Group 350">
          <path id="Path_1367" data-name="Path 1367" d="M480.289,154.351a1.267,1.267,0,0,0-2.313,1.034,38.36,38.36,0,0,1,0,26.831,1.268,1.268,0,0,0,.64,1.673,1.243,1.243,0,0,0,.515.11,1.267,1.267,0,0,0,1.156-.75,40.811,40.811,0,0,0,0-28.9Z" transform="translate(-477.866 -153.601)" fill="#3261a0"/>
        </g>
      </g>
      <g id="Group_353" data-name="Group 353" transform="translate(37.033 23.343)">
        <g id="Group_352" data-name="Group 352">
          <path id="Path_1368" data-name="Path 1368" d="M225.667,136.533h-2.533a1.267,1.267,0,0,0,0,2.533h2.533a1.267,1.267,0,0,0,0-2.533Z" transform="translate(-221.867 -136.533)" fill="#3261a0"/>
        </g>
      </g>
      <g id="Group_355" data-name="Group 355" transform="translate(56.973 23.343)">
        <g id="Group_354" data-name="Group 354">
          <path id="Path_1369" data-name="Path 1369" d="M345.133,136.533H342.6a1.267,1.267,0,1,0,0,2.533h2.533a1.267,1.267,0,0,0,0-2.533Z" transform="translate(-341.333 -136.533)" fill="#3261a0"/>
        </g>
      </g>
      <g id="Group_357" data-name="Group 357" transform="translate(45.766 23.343)">
        <g id="Group_356" data-name="Group 356">
          <path id="Path_1370" data-name="Path 1370" d="M279.4,136.533h-5.066a1.267,1.267,0,1,0,0,2.533H279.4a1.267,1.267,0,1,0,0-2.533Z" transform="translate(-273.067 -136.533)" fill="#3261a0"/>
        </g>
      </g>
      <g id="Group_359" data-name="Group 359" transform="translate(37.033 29.179)">
        <g id="Group_358" data-name="Group 358">
          <path id="Path_1371" data-name="Path 1371" d="M225.667,170.667h-2.533a1.267,1.267,0,0,0,0,2.533h2.533a1.267,1.267,0,0,0,0-2.533Z" transform="translate(-221.867 -170.667)" fill="#3261a0"/>
        </g>
      </g>
      <g id="Group_361" data-name="Group 361" transform="translate(46.42 29.179)">
        <g id="Group_360" data-name="Group 360">
          <path id="Path_1372" data-name="Path 1372" d="M287,170.667H274.334a1.267,1.267,0,1,0,0,2.533H287a1.267,1.267,0,0,0,0-2.533Z" transform="translate(-273.067 -170.667)" fill="#3261a0"/>
        </g>
      </g>
      <g id="Group_363" data-name="Group 363" transform="translate(37.033 39.391)">
        <g id="Group_362" data-name="Group 362">
          <path id="Path_1373" data-name="Path 1373" d="M225.667,230.4h-2.533a1.267,1.267,0,0,0,0,2.533h2.533a1.267,1.267,0,0,0,0-2.533Z" transform="translate(-221.867 -230.4)" fill="#3261a0"/>
        </g>
      </g>
      <g id="Group_365" data-name="Group 365" transform="translate(56.973 39.391)">
        <g id="Group_364" data-name="Group 364">
          <path id="Path_1374" data-name="Path 1374" d="M345.133,230.4H342.6a1.267,1.267,0,1,0,0,2.533h2.533a1.267,1.267,0,0,0,0-2.533Z" transform="translate(-341.333 -230.4)" fill="#3261a0"/>
        </g>
      </g>
      <g id="Group_367" data-name="Group 367" transform="translate(45.766 39.391)">
        <g id="Group_366" data-name="Group 366">
          <path id="Path_1375" data-name="Path 1375" d="M279.4,230.4h-5.066a1.267,1.267,0,1,0,0,2.533H279.4a1.267,1.267,0,1,0,0-2.533Z" transform="translate(-273.067 -230.4)" fill="#3261a0"/>
        </g>
      </g>
      <g id="Group_369" data-name="Group 369" transform="translate(37.033 45.227)">
        <g id="Group_368" data-name="Group 368">
          <path id="Path_1376" data-name="Path 1376" d="M225.667,264.533h-2.533a1.266,1.266,0,1,0,0,2.533h2.533a1.266,1.266,0,1,0,0-2.533Z" transform="translate(-221.867 -264.533)" fill="#3261a0"/>
        </g>
      </g>
      <g id="Group_371" data-name="Group 371" transform="translate(46.42 45.227)">
        <g id="Group_370" data-name="Group 370">
          <path id="Path_1377" data-name="Path 1377" d="M287,264.533H274.334a1.266,1.266,0,1,0,0,2.533H287a1.266,1.266,0,0,0,0-2.533Z" transform="translate(-273.067 -264.533)" fill="#3261a0"/>
        </g>
      </g>
      <g id="Group_373" data-name="Group 373" transform="translate(37.033 55.439)">
        <g id="Group_372" data-name="Group 372">
          <path id="Path_1378" data-name="Path 1378" d="M225.667,324.267h-2.533a1.266,1.266,0,1,0,0,2.533h2.533a1.266,1.266,0,1,0,0-2.533Z" transform="translate(-221.867 -324.267)" fill="#3261a0"/>
        </g>
      </g>
      <g id="Group_375" data-name="Group 375" transform="translate(56.973 55.439)">
        <g id="Group_374" data-name="Group 374">
          <path id="Path_1379" data-name="Path 1379" d="M345.133,324.267H342.6a1.266,1.266,0,1,0,0,2.533h2.533a1.266,1.266,0,0,0,0-2.533Z" transform="translate(-341.333 -324.267)" fill="#3261a0"/>
        </g>
      </g>
      <g id="Group_377" data-name="Group 377" transform="translate(45.766 55.439)">
        <g id="Group_376" data-name="Group 376">
          <path id="Path_1380" data-name="Path 1380" d="M279.4,324.267h-5.066a1.266,1.266,0,1,0,0,2.533H279.4a1.266,1.266,0,1,0,0-2.533Z" transform="translate(-273.067 -324.267)" fill="#3261a0"/>
        </g>
      </g>
      <g id="Group_379" data-name="Group 379" transform="translate(37.033 61.275)">
        <g id="Group_378" data-name="Group 378">
          <path id="Path_1381" data-name="Path 1381" d="M225.667,358.4h-2.533a1.266,1.266,0,1,0,0,2.533h2.533a1.266,1.266,0,1,0,0-2.533Z" transform="translate(-221.867 -358.4)" fill="#3261a0"/>
        </g>
      </g>
      <g id="Group_381" data-name="Group 381" transform="translate(46.42 61.275)">
        <g id="Group_380" data-name="Group 380">
          <path id="Path_1382" data-name="Path 1382" d="M287,358.4H274.334a1.266,1.266,0,1,0,0,2.533H287a1.266,1.266,0,0,0,0-2.533Z" transform="translate(-273.067 -358.4)" fill="#3261a0"/>
        </g>
      </g>
    </g>
    <g id="Ellipse_86" data-name="Ellipse 86" transform="translate(651 1119)" fill="none" stroke="#3261a0" stroke-width="5">
      <circle cx="99" cy="99" r="99" stroke="none"/>
      <circle cx="99" cy="99" r="96.5" fill="none"/>
    </g>
  </g>
</svg>
