<svg xmlns="http://www.w3.org/2000/svg" width="198" height="198" viewBox="0 0 198 198">
  <g id="Group_764" data-name="Group 764" transform="translate(-1089 -1119)">
    <g id="Group_766" data-name="Group 766">
      <g id="bot_1_" data-name="bot (1)" transform="translate(1144 1183)">
        <path id="Path_1401" data-name="Path 1401" d="M88.964,8.115a8.115,8.115,0,1,0-9.41,8.01V31.976a14.8,14.8,0,0,0-4.228-1V29.594a7.783,7.783,0,0,0-7.774-7.774h-14.2V16.654A3.459,3.459,0,0,0,49.9,13.2H38.868V8.161a1.3,1.3,0,0,0-2.591,0V13.2H25.427a3.459,3.459,0,0,0-3.455,3.455v5.167H7.774A7.783,7.783,0,0,0,0,29.594V62.1a7.783,7.783,0,0,0,7.774,7.774H67.553A7.783,7.783,0,0,0,75.326,62.1V60.72a14.924,14.924,0,0,0,6.819-27.4v-17.2A8.126,8.126,0,0,0,88.964,8.115Zm-64.4,8.539a.865.865,0,0,1,.864-.864H49.9a.864.864,0,0,1,.864.864v5.167h-26.2ZM72.735,62.1a5.189,5.189,0,0,1-5.182,5.182H7.774A5.188,5.188,0,0,1,2.591,62.1v-32.5a5.188,5.188,0,0,1,5.182-5.182H67.553a5.189,5.189,0,0,1,5.182,5.182ZM86.373,45.846A12.359,12.359,0,0,1,75.326,58.121V33.571A12.36,12.36,0,0,1,86.373,45.846ZM75.326,8.115a5.523,5.523,0,1,1,5.523,5.523A5.523,5.523,0,0,1,75.326,8.115Zm0,0" transform="translate(0 0)" fill="#3261a0"/>
        <path id="Path_1402" data-name="Path 1402" d="M63.368,176.316a5.621,5.621,0,0,0-5.614,5.614v3.6a1.3,1.3,0,0,0,1.3,1.3h8.637a1.3,1.3,0,0,0,1.3-1.3v-3.6A5.621,5.621,0,0,0,63.368,176.316Zm3.023,7.918H60.345v-2.3a3.023,3.023,0,0,1,6.046,0Zm0,0" transform="translate(-45.283 -138.244)" fill="#3261a0"/>
        <path id="Path_1403" data-name="Path 1403" d="M244.7,176.316a5.621,5.621,0,0,0-5.614,5.614v3.6a1.3,1.3,0,0,0,1.3,1.3h8.637a1.3,1.3,0,0,0,1.3-1.3v-3.6A5.622,5.622,0,0,0,244.7,176.316Zm3.023,7.918h-6.046v-2.3a3.023,3.023,0,0,1,6.046,0Zm0,0" transform="translate(-187.463 -138.244)" fill="#3261a0"/>
        <path id="Path_1404" data-name="Path 1404" d="M146.992,244.914H129.717a1.3,1.3,0,0,0-1.3,1.3,9.933,9.933,0,0,0,19.866,0A1.3,1.3,0,0,0,146.992,244.914Zm-8.637,8.637a7.354,7.354,0,0,1-7.228-6.046h14.455A7.353,7.353,0,0,1,138.355,253.551Zm0,0" transform="translate(-100.692 -192.029)" fill="#3261a0"/>
      </g>
      <g id="Ellipse_87" data-name="Ellipse 87" transform="translate(1089 1119)" fill="none" stroke="#3261a0" stroke-width="5">
        <circle cx="99" cy="99" r="99" stroke="none"/>
        <circle cx="99" cy="99" r="96.5" fill="none"/>
      </g>
    </g>
  </g>
</svg>
