<svg xmlns="http://www.w3.org/2000/svg" width="198" height="198" viewBox="0 0 198 198">
  <g id="Group_762" data-name="Group 762" transform="translate(-216 -1119)">
    <g id="ui" transform="translate(268.921 1171.716)">
      <g id="Group_289" data-name="Group 289">
        <g id="Group_288" data-name="Group 288">
          <path id="Path_1336" data-name="Path 1336" d="M84.781,0H6.874A6.883,6.883,0,0,0,0,6.874V84.781a6.883,6.883,0,0,0,6.874,6.874H84.781a6.883,6.883,0,0,0,6.874-6.874V6.874A6.883,6.883,0,0,0,84.781,0ZM88.6,84.781A3.823,3.823,0,0,1,84.781,88.6H6.874a3.824,3.824,0,0,1-3.819-3.819V6.874A3.824,3.824,0,0,1,6.874,3.055H84.781A3.824,3.824,0,0,1,88.6,6.874Z" fill="#3261a0"/>
        </g>
      </g>
      <g id="Group_291" data-name="Group 291" transform="translate(6.11 6.11)">
        <g id="Group_290" data-name="Group 290">
          <path id="Path_1337" data-name="Path 1337" d="M41.772,34.133h-6.11a1.528,1.528,0,0,0-1.528,1.528v6.11A1.528,1.528,0,0,0,35.662,43.3h6.11A1.528,1.528,0,0,0,43.3,41.771v-6.11A1.528,1.528,0,0,0,41.772,34.133Zm-1.528,6.11H37.189V37.188h3.055Z" transform="translate(-34.134 -34.133)" fill="#3261a0"/>
        </g>
      </g>
      <g id="Group_293" data-name="Group 293" transform="translate(18.331 6.11)">
        <g id="Group_292" data-name="Group 292">
          <path id="Path_1338" data-name="Path 1338" d="M110.039,34.133h-6.11a1.528,1.528,0,0,0-1.528,1.528v6.11a1.528,1.528,0,0,0,1.528,1.528h6.11a1.528,1.528,0,0,0,1.528-1.528v-6.11A1.528,1.528,0,0,0,110.039,34.133Zm-1.528,6.11h-3.055V37.188h3.055Z" transform="translate(-102.401 -34.133)" fill="#3261a0"/>
        </g>
      </g>
      <g id="Group_295" data-name="Group 295" transform="translate(30.552 6.11)">
        <g id="Group_294" data-name="Group 294">
          <path id="Path_1339" data-name="Path 1339" d="M178.3,34.133h-6.11a1.528,1.528,0,0,0-1.528,1.528v6.11a1.528,1.528,0,0,0,1.528,1.528h6.11a1.528,1.528,0,0,0,1.528-1.528v-6.11A1.528,1.528,0,0,0,178.3,34.133Zm-1.528,6.11h-3.055V37.188h3.055Z" transform="translate(-170.667 -34.133)" fill="#3261a0"/>
        </g>
      </g>
      <g id="Group_297" data-name="Group 297">
        <g id="Group_296" data-name="Group 296">
          <path id="Path_1340" data-name="Path 1340" d="M84.781,0H6.874A6.883,6.883,0,0,0,0,6.874V19.859a1.528,1.528,0,0,0,1.528,1.528h88.6a1.528,1.528,0,0,0,1.528-1.528V6.874A6.882,6.882,0,0,0,84.781,0ZM88.6,18.331H3.055V6.874A3.824,3.824,0,0,1,6.874,3.055H84.781A3.824,3.824,0,0,1,88.6,6.874Z" fill="#3261a0"/>
        </g>
      </g>
      <g id="Group_299" data-name="Group 299" transform="translate(10.693 25.969)">
        <g id="Group_298" data-name="Group 298">
          <path id="Path_1341" data-name="Path 1341" d="M124.34,145.067H65.4a5.669,5.669,0,0,0-5.663,5.663v34.5a5.669,5.669,0,0,0,5.663,5.663h58.944A5.669,5.669,0,0,0,130,185.232v-34.5A5.669,5.669,0,0,0,124.34,145.067Zm2.608,40.165a2.611,2.611,0,0,1-2.608,2.608H65.4a2.611,2.611,0,0,1-2.608-2.608v-34.5a2.611,2.611,0,0,1,2.608-2.608h58.944a2.611,2.611,0,0,1,2.608,2.608v34.5Z" transform="translate(-59.733 -145.067)" fill="#3261a0"/>
        </g>
      </g>
      <g id="Group_301" data-name="Group 301" transform="translate(65.687 44.3)">
        <g id="Group_300" data-name="Group 300">
          <path id="Path_1342" data-name="Path 1342" d="M374.572,247.467h-6.11a1.528,1.528,0,0,0-1.528,1.528v6.11a1.528,1.528,0,0,0,1.528,1.528h6.11A1.528,1.528,0,0,0,376.1,255.1v-6.11A1.528,1.528,0,0,0,374.572,247.467Zm-1.528,6.11h-3.055v-3.055h3.055Z" transform="translate(-366.934 -247.467)" fill="#3261a0"/>
        </g>
      </g>
      <g id="Group_303" data-name="Group 303" transform="translate(16.804 32.079)">
        <g id="Group_302" data-name="Group 302">
          <path id="Path_1343" data-name="Path 1343" d="M138.167,179.2H95.395a1.528,1.528,0,0,0-1.528,1.528v30.552a1.528,1.528,0,0,0,1.528,1.528h42.773a1.528,1.528,0,0,0,1.527-1.528V180.728A1.528,1.528,0,0,0,138.167,179.2Zm-1.528,30.552H96.922v-27.5h39.717Z" transform="translate(-93.867 -179.2)" fill="#3261a0"/>
        </g>
      </g>
      <g id="Group_305" data-name="Group 305" transform="translate(36.662 80.962)">
        <g id="Group_304" data-name="Group 304">
          <path id="Path_1344" data-name="Path 1344" d="M223.131,452.267h-16.8a1.528,1.528,0,1,0,0,3.055h16.8a1.528,1.528,0,1,0,0-3.055Z" transform="translate(-204.8 -452.267)" fill="#3261a0"/>
        </g>
      </g>
      <g id="Group_307" data-name="Group 307" transform="translate(39.717 74.852)">
        <g id="Group_306" data-name="Group 306">
          <path id="Path_1345" data-name="Path 1345" d="M234.088,418.133H223.395a1.528,1.528,0,0,0,0,3.055h10.693a1.528,1.528,0,1,0,0-3.055Z" transform="translate(-221.867 -418.133)" fill="#3261a0"/>
        </g>
      </g>
      <g id="Group_309" data-name="Group 309" transform="translate(12.221 80.962)">
        <g id="Group_308" data-name="Group 308">
          <path id="Path_1346" data-name="Path 1346" d="M85.07,452.267H69.795a1.528,1.528,0,1,0,0,3.055H85.07a1.528,1.528,0,1,0,0-3.055Z" transform="translate(-68.267 -452.267)" fill="#3261a0"/>
        </g>
      </g>
      <g id="Group_311" data-name="Group 311" transform="translate(15.276 74.852)">
        <g id="Group_310" data-name="Group 310">
          <path id="Path_1347" data-name="Path 1347" d="M96.027,418.133H86.862a1.528,1.528,0,0,0,0,3.055h9.166a1.528,1.528,0,0,0,0-3.055Z" transform="translate(-85.334 -418.133)" fill="#3261a0"/>
        </g>
      </g>
      <g id="Group_313" data-name="Group 313" transform="translate(62.631 80.962)">
        <g id="Group_312" data-name="Group 312">
          <path id="Path_1348" data-name="Path 1348" d="M366.67,452.267H351.395a1.528,1.528,0,1,0,0,3.055H366.67a1.528,1.528,0,0,0,0-3.055Z" transform="translate(-349.867 -452.267)" fill="#3261a0"/>
        </g>
      </g>
      <g id="Group_315" data-name="Group 315" transform="translate(65.687 74.852)">
        <g id="Group_314" data-name="Group 314">
          <path id="Path_1349" data-name="Path 1349" d="M377.627,418.133h-9.166a1.528,1.528,0,0,0,0,3.055h9.166a1.528,1.528,0,1,0,0-3.055Z" transform="translate(-366.934 -418.133)" fill="#3261a0"/>
        </g>
      </g>
      <g id="Group_317" data-name="Group 317" transform="translate(24.441 44.3)">
        <g id="Group_316" data-name="Group 316">
          <path id="Path_1350" data-name="Path 1350" d="M146.776,247.912a1.526,1.526,0,0,0-2.16,0l-7.638,7.638a1.527,1.527,0,1,0,2.16,2.16l7.638-7.638A1.526,1.526,0,0,0,146.776,247.912Z" transform="translate(-136.53 -247.464)" fill="#3261a0"/>
        </g>
      </g>
      <g id="Group_319" data-name="Group 319" transform="translate(32.079 44.3)">
        <g id="Group_318" data-name="Group 318">
          <path id="Path_1351" data-name="Path 1351" d="M189.443,255.55l-7.638-7.638a1.527,1.527,0,0,0-2.16,2.16l7.638,7.638a1.527,1.527,0,1,0,2.16-2.16Z" transform="translate(-179.197 -247.464)" fill="#3261a0"/>
        </g>
      </g>
      <g id="Group_321" data-name="Group 321" transform="translate(36.662 41.244)">
        <g id="Group_320" data-name="Group 320">
          <path id="Path_1352" data-name="Path 1352" d="M215.043,230.845a1.526,1.526,0,0,0-2.16,0l-7.638,7.638a1.527,1.527,0,1,0,2.16,2.16l7.638-7.638A1.526,1.526,0,0,0,215.043,230.845Z" transform="translate(-204.797 -230.397)" fill="#3261a0"/>
        </g>
      </g>
      <g id="Group_323" data-name="Group 323" transform="translate(44.3 41.244)">
        <g id="Group_322" data-name="Group 322">
          <path id="Path_1353" data-name="Path 1353" d="M257.71,238.483l-7.638-7.638a1.527,1.527,0,1,0-2.16,2.16l7.638,7.638a1.527,1.527,0,1,0,2.16-2.16Z" transform="translate(-247.464 -230.397)" fill="#3261a0"/>
        </g>
      </g>
    </g>
    <g id="Ellipse_85" data-name="Ellipse 85" transform="translate(216 1119)" fill="none" stroke="#3261a0" stroke-width="5">
      <circle cx="99" cy="99" r="99" stroke="none"/>
      <circle cx="99" cy="99" r="96.5" fill="none"/>
    </g>
  </g>
</svg>
