<svg xmlns="http://www.w3.org/2000/svg" width="198" height="198" viewBox="0 0 198 198">
  <g id="Group_767" data-name="Group 767" transform="translate(-1507 -1119)">
    <g id="Group_765" data-name="Group 765">
      <g id="Ellipse_88" data-name="Ellipse 88" transform="translate(1507 1119)" fill="none" stroke="#3261a0" stroke-width="5">
        <circle cx="99" cy="99" r="99" stroke="none"/>
        <circle cx="99" cy="99" r="96.5" fill="none"/>
      </g>
    </g>
    <g id="data_2_" data-name="data (2)" transform="translate(1560.051 1172)">
      <path id="Path_2554" data-name="Path 2554" d="M6.759,20.584a22.974,22.974,0,0,1,.386-6.663,13.414,13.414,0,0,1,3.53-6.73c2.434-2.436,5.858-3.771,10.162-3.969a29.613,29.613,0,0,1,6.227.424L27.612.534A32.748,32.748,0,0,0,20.7.065C15.576.3,11.449,1.947,8.441,4.957a16.511,16.511,0,0,0-4.384,8.293l0,.019a26.081,26.081,0,0,0-.441,7.593Zm0,0" transform="translate(-2.998 -0.034)" fill="#3261a0"/>
      <path id="Path_2555" data-name="Path 2555" d="M38.72,232.824c-.951-1.736-1.824-3.481-2.594-5.187l-2.88,1.3c.8,1.78,1.713,3.6,2.7,5.407Zm0,0" transform="translate(-28.03 -191.632)" fill="#3261a0"/>
      <path id="Path_2556" data-name="Path 2556" d="M9.961,164.721a51.647,51.647,0,0,0,1.442,5.008l2.99-1.021a48.393,48.393,0,0,1-1.354-4.7Zm0,0" transform="translate(-8.428 -138.067)" fill="#3261a0"/>
      <path id="Path_2557" data-name="Path 2557" d="M130.968,367.921c-.138-.158-.275-.314-.411-.471l-2.384,2.072q.209.242.422.484c.8.913,1.637,1.834,2.481,2.737q.568.606,1.148,1.209l2.277-2.19q-.565-.587-1.117-1.177C132.56,369.7,131.748,368.808,130.968,367.921Zm0,0" transform="translate(-107.942 -309.33)" fill="#3261a0"/>
      <path id="Path_2558" data-name="Path 2558" d="M85.118,315.842l2.494-1.939q-.344-.443-.681-.887c-.962-1.265-1.893-2.55-2.767-3.817l-2.6,1.793c.9,1.308,1.862,2.632,2.853,3.935Q84.762,315.386,85.118,315.842Zm0,0" transform="translate(-68.705 -260.293)" fill="#3261a0"/>
      <path id="Path_2559" data-name="Path 2559" d="M170.773,413.627a115.017,115.017,0,0,0,9.408,8.232,96.412,96.412,0,0,0,14.2,9.278,70.325,70.325,0,0,0,9.051,4.028l-2.885.826.869,3.037,8.078-2.311a1.58,1.58,0,0,0,1.084-1.954l-2.105-7.357-3.038.869,1.338,4.674a63.955,63.955,0,0,1-10.91-4.6,93.2,93.2,0,0,1-13.732-8.972,112,112,0,0,1-9.153-8.007Zm0,0" transform="translate(-143.805 -346.302)" fill="#3261a0"/>
      <path id="Path_2560" data-name="Path 2560" d="M456.19,360.349a53.417,53.417,0,0,0-3.962-12.884l-2.893,1.27a50.292,50.292,0,0,1,3.734,12.113c1.131,7.064-.111,12.637-3.59,16.117a13.376,13.376,0,0,1-6.661,3.512,23.448,23.448,0,0,1-7.349.349c-.665-.064-1.351-.152-2.039-.261l-.493,3.12c.75.119,1.5.214,2.23.285q1.541.147,3,.148a24.381,24.381,0,0,0,5.343-.56,16.485,16.485,0,0,0,8.2-4.361C455.939,374.972,457.486,368.455,456.19,360.349Zm0,0" transform="translate(-364.503 -292.507)" fill="#3261a0"/>
      <path id="Path_2561" data-name="Path 2561" d="M516.924,301.215l-2.744,1.564c.761,1.335,1.478,2.679,2.132,4l2.83-1.4C518.461,304,517.716,302.6,516.924,301.215Zm0,0" transform="translate(-432.895 -253.572)" fill="#3261a0"/>
      <path id="Path_2562" data-name="Path 2562" d="M471.814,231.789l-2.51,1.919c1.178,1.54,2.327,3.131,3.417,4.731l2.611-1.779C474.21,235.013,473.026,233.374,471.814,231.789Zm0,0" transform="translate(-395.118 -195.127)" fill="#3261a0"/>
      <path id="Path_2563" data-name="Path 2563" d="M423.64,174.066l-2.284,2.181c1.337,1.4,2.654,2.858,3.913,4.331l2.4-2.053C426.372,177.009,425.017,175.509,423.64,174.066Zm0,0" transform="translate(-354.753 -146.535)" fill="#3261a0"/>
      <path id="Path_2564" data-name="Path 2564" d="M179.6,11.115l3.089-.66-1.02-4.772a63.377,63.377,0,0,1,8.439,3.7,92.36,92.36,0,0,1,13.567,8.759c2.007,1.549,4.03,3.23,6.01,5,1.1.981,2.2,2.007,3.286,3.053.469.453.948.924,1.425,1.4l2.234-2.234c-.489-.489-.981-.973-1.464-1.439-1.111-1.074-2.247-2.129-3.376-3.138-2.036-1.815-4.117-3.544-6.178-5.135q-3.012-2.342-6.22-4.44c1.212-.683,2.429-1.33,3.621-1.923L201.61,6.457c-1.417.7-2.864,1.478-4.3,2.3l1,1.751q-3.286-2.094-6.724-3.914a66.888,66.888,0,0,0-6.279-2.91l2.783-.594L187.434,0l-8.216,1.756A1.579,1.579,0,0,0,178,3.63Zm0,0" transform="translate(-149.863)" fill="#3261a0"/>
      <path id="Path_2565" data-name="Path 2565" d="M.485,430.484a32.706,32.706,0,0,0-.468,6.907c.235,5.129,1.881,9.255,4.891,12.264a16.512,16.512,0,0,0,8.293,4.382l.02,0a26.057,26.057,0,0,0,5.3.544q1.148,0,2.3-.1l-.277-3.148a22.888,22.888,0,0,1-6.663-.386,13.39,13.39,0,0,1-6.73-3.528c-2.436-2.436-3.771-5.86-3.969-10.163a29.545,29.545,0,0,1,.424-6.228Zm0,0" transform="translate(-0.036 -362.395)" fill="#3261a0"/>
      <path id="Path_2566" data-name="Path 2566" d="M228.885,523.992c1.781-.8,3.6-1.713,5.406-2.7l-1.517-2.77c-1.736.951-3.481,1.824-5.188,2.593Zm0,0" transform="translate(-191.632 -436.506)" fill="#3261a0"/>
      <path id="Path_2567" data-name="Path 2567" d="M164.67,552.819a51.556,51.556,0,0,0,5.008-1.442l-1.021-2.99a48.462,48.462,0,0,1-4.7,1.355Zm0,0" transform="translate(-138.067 -461.649)" fill="#3261a0"/>
      <path id="Path_2568" data-name="Path 2568" d="M367.4,422.134l2.07,2.386q.243-.209.485-.423c.914-.8,1.835-1.639,2.737-2.481q.606-.568,1.21-1.149l-2.191-2.276q-.587.566-1.178,1.117c-.878.821-1.774,1.634-2.664,2.415Q367.638,421.93,367.4,422.134Zm0,0" transform="translate(-309.333 -352.047)" fill="#3261a0"/>
      <path id="Path_2569" data-name="Path 2569" d="M309.152,470l1.793,2.6c1.308-.9,2.632-1.861,3.936-2.852q.458-.348.914-.7l-1.939-2.495q-.442.344-.887.682C311.7,468.2,310.421,469.129,309.152,470Zm0,0" transform="translate(-260.297 -392.76)" fill="#3261a0"/>
      <path id="Path_2570" data-name="Path 2570" d="M360.8,7.165c7.064-1.129,12.637.112,16.117,3.592a13.384,13.384,0,0,1,3.512,6.66,23.438,23.438,0,0,1,.348,7.35c-.063.664-.15,1.349-.26,2.038l3.12.494c.119-.753.214-1.5.285-2.23a26.587,26.587,0,0,0-.412-8.345,16.483,16.483,0,0,0-4.36-8.2C374.925,4.3,368.406,2.748,360.3,4.046a53.447,53.447,0,0,0-12.884,3.961l1.27,2.893A50.281,50.281,0,0,1,360.8,7.165Zm0,0" transform="translate(-292.51 -3.031)" fill="#3261a0"/>
      <path id="Path_2571" data-name="Path 2571" d="M180.523,127.5l-2.054-2.4c-1.516,1.3-3.015,2.652-4.458,4.028l2.182,2.285C177.595,130.073,179.052,128.757,180.523,127.5Zm0,0" transform="translate(-146.531 -105.311)" fill="#3261a0"/>
      <path id="Path_2572" data-name="Path 2572" d="M238.393,81.564l-1.78-2.611c-1.647,1.124-3.286,2.308-4.87,3.519l1.919,2.51C235.2,83.8,236.792,82.655,238.393,81.564Zm0,0" transform="translate(-195.131 -66.465)" fill="#3261a0"/>
      <path id="Path_2573" data-name="Path 2573" d="M436.663,164.692a1.579,1.579,0,0,0-1.953-1.084l-7.358,2.106.869,3.037,4.675-1.338a64.036,64.036,0,0,1-4.6,10.91,93.2,93.2,0,0,1-8.972,13.732,112,112,0,0,1-8.008,9.153l2.261,2.206a115.142,115.142,0,0,0,8.232-9.408,96.377,96.377,0,0,0,9.278-14.2,70.408,70.408,0,0,0,4.028-9.051l.826,2.885,3.037-.869Zm0,0" transform="translate(-346.298 -137.678)" fill="#3261a0"/>
      <path id="Path_2574" data-name="Path 2574" d="M3.25,202.614a1.54,1.54,0,0,0,.331-.036l7.483-1.6-.66-3.09L5.633,198.91a63.263,63.263,0,0,1,3.7-8.439A92.281,92.281,0,0,1,18.1,176.9c1.548-2.007,3.229-4.029,5-6.01.981-1.1,2.007-2.2,3.053-3.286.458-.474.929-.953,1.4-1.425l-2.234-2.234c-.484.484-.969.976-1.439,1.464-1.074,1.112-2.13,2.248-3.139,3.378-1.816,2.036-3.545,4.117-5.135,6.178a95.482,95.482,0,0,0-9.054,14.026,66.208,66.208,0,0,0-2.91,6.279l-.595-2.785-3.09.66,1.756,8.216A1.581,1.581,0,0,0,3.25,202.614Zm0,0" transform="translate(0 -138.018)" fill="#3261a0"/>
      <path id="Path_2575" data-name="Path 2575" d="M206.941,182.178v25.059c0,1.337.75,3.22,4.554,4.6a27.649,27.649,0,0,0,9.1,1.382h.122a32.514,32.514,0,0,0,5.889-.538c4.924-.945,7.779-2.927,7.779-5.44V182.178c0-1.338-.836-3.219-4.64-4.6a27.936,27.936,0,0,0-9.15-1.382,27.573,27.573,0,0,0-9.093,1.382C207.7,178.958,206.941,180.84,206.941,182.178Zm19.075,27.394a28.931,28.931,0,0,1-5.419.484,24.4,24.4,0,0,1-8.018-1.193c-2.08-.753-2.479-1.508-2.479-1.626v-4.409a10.444,10.444,0,0,0,1.394.613,27.645,27.645,0,0,0,9.108,1.382,27.953,27.953,0,0,0,9.157-1.382c.54-.2.875-.4,1.468-.614v4.41C231.228,207.532,229.949,208.817,226.016,209.571Zm5.212-10.727c0,.119-.475.873-2.555,1.626a24.736,24.736,0,0,1-8.076,1.193,24.367,24.367,0,0,1-8.018-1.193c-2.08-.753-2.479-1.508-2.479-1.626v-4.351a10.367,10.367,0,0,0,1.394.614,27.645,27.645,0,0,0,9.108,1.382,27.953,27.953,0,0,0,9.157-1.382c.54-.2.875-.4,1.468-.614Zm-2.555-6.708a24.736,24.736,0,0,1-8.076,1.193,24.367,24.367,0,0,1-8.018-1.193c-2.08-.753-2.479-1.508-2.479-1.625v-4.352a10.564,10.564,0,0,0,1.394.614,27.65,27.65,0,0,0,9.108,1.382,27.977,27.977,0,0,0,9.157-1.382c.54-.2.875-.4,1.468-.614v4.352C231.228,190.628,230.753,191.383,228.673,192.136Zm-16.151-11.584a27.782,27.782,0,0,1,16.112,0c2.079.753,2.517,1.508,2.517,1.626s-.438.871-2.517,1.624a27.782,27.782,0,0,1-16.112,0c-2.08-.753-2.518-1.508-2.518-1.624s.438-.872,2.518-1.626Zm0,0" transform="translate(-174.252 -148.33)" fill="#3261a0"/>
    </g>
  </g>
</svg>
