<svg xmlns="http://www.w3.org/2000/svg" width="118.345" height="104.422" viewBox="0 0 118.345 104.422">
  <g id="incident-managment" transform="translate(-1419.828 -1704.578)">
    <path id="Path_115" data-name="Path 115" d="M44.356,68.731a3.5,3.5,0,0,1-1.556-.365L14.955,54.443a3.484,3.484,0,0,1-1.925-3.115V23.482a3.48,3.48,0,0,1,5.036-3.115L45.912,34.29A3.484,3.484,0,0,1,47.836,37.4V65.25a3.477,3.477,0,0,1-3.481,3.481ZM19.991,49.176,40.875,59.618V39.556L19.991,29.114Z" transform="translate(1406.798 1698.502)" fill="#fff"/>
    <path id="Path_116" data-name="Path 116" d="M24.511,68.731A3.477,3.477,0,0,1,21.03,65.25V37.4a3.484,3.484,0,0,1,1.925-3.115L50.8,20.367a3.48,3.48,0,0,1,5.036,3.115V51.328a3.484,3.484,0,0,1-1.925,3.115L26.067,68.365A3.5,3.5,0,0,1,24.511,68.731Zm3.481-29.175V59.618L48.875,49.176V29.114Z" transform="translate(1426.643 1698.502)" fill="#fff"/>
    <path id="Path_117" data-name="Path 117" d="M44.356,50.808a3.486,3.486,0,0,1-1.556-.365L14.955,36.52a3.483,3.483,0,0,1,0-6.23L42.8,16.367a3.48,3.48,0,0,1,3.115,0L73.76,30.29a3.483,3.483,0,0,1,0,6.23L45.915,50.443A3.522,3.522,0,0,1,44.356,50.808Zm-20.062-17.4L44.356,43.436,64.418,33.405,44.356,23.374Z" transform="translate(1406.798 1688.579)" fill="#fff"/>
    <path id="Path_118" data-name="Path 118" d="M60.356,68.731a3.5,3.5,0,0,1-1.556-.365L30.955,54.443a3.484,3.484,0,0,1-1.925-3.115V23.482a3.48,3.48,0,0,1,5.036-3.115L61.912,34.29A3.484,3.484,0,0,1,63.836,37.4V65.25a3.477,3.477,0,0,1-3.481,3.481ZM35.991,49.176,56.875,59.618V39.556L35.991,29.114Z" transform="translate(1446.488 1698.502)" fill="#fff"/>
    <path id="Path_119" data-name="Path 119" d="M40.511,68.731A3.477,3.477,0,0,1,37.03,65.25V37.4a3.484,3.484,0,0,1,1.925-3.115L66.8,20.367a3.48,3.48,0,0,1,5.036,3.115V51.328a3.484,3.484,0,0,1-1.925,3.115L42.066,68.365A3.5,3.5,0,0,1,40.511,68.731Zm3.481-29.175V59.618L64.875,49.176V29.114Z" transform="translate(1466.334 1698.502)" fill="#fff"/>
    <path id="Path_120" data-name="Path 120" d="M60.356,50.808a3.486,3.486,0,0,1-1.556-.365L30.955,36.52a3.483,3.483,0,0,1,0-6.23L58.8,16.367a3.48,3.48,0,0,1,3.115,0L89.76,30.29a3.483,3.483,0,0,1,0,6.23L61.915,50.443A3.522,3.522,0,0,1,60.356,50.808Zm-20.062-17.4L60.356,43.436,80.418,33.405,60.356,23.374Z" transform="translate(1446.488 1688.579)" fill="#fff"/>
    <path id="Path_121" data-name="Path 121" d="M52.356,80.731a3.5,3.5,0,0,1-1.556-.365L22.955,66.443a3.484,3.484,0,0,1-1.925-3.115V35.482a3.48,3.48,0,0,1,5.037-3.115L53.912,46.29A3.484,3.484,0,0,1,55.836,49.4V77.25a3.477,3.477,0,0,1-3.481,3.481ZM27.991,61.176,48.875,71.618V51.556L27.991,41.114Z" transform="translate(1426.643 1728.269)" fill="#fff"/>
    <path id="Path_122" data-name="Path 122" d="M32.511,80.731A3.477,3.477,0,0,1,29.03,77.25V49.4a3.484,3.484,0,0,1,1.925-3.115L58.8,32.367a3.48,3.48,0,0,1,5.036,3.115V63.328a3.484,3.484,0,0,1-1.925,3.115L34.066,80.365a3.5,3.5,0,0,1-1.556.365Zm3.481-29.175V71.618L56.875,61.176V41.114Z" transform="translate(1446.488 1728.269)" fill="#fff"/>
    <path id="Path_123" data-name="Path 123" d="M52.356,62.808a3.486,3.486,0,0,1-1.556-.365L22.955,48.52a3.483,3.483,0,0,1,0-6.23L50.8,28.367a3.48,3.48,0,0,1,3.115,0L81.76,42.29a3.483,3.483,0,0,1,0,6.23L53.915,62.443A3.522,3.522,0,0,1,52.356,62.808Zm-20.062-17.4L52.356,55.436,72.418,45.405,52.356,35.374Z" transform="translate(1426.643 1718.347)" fill="#fff"/>
  </g>
</svg>
