<svg xmlns="http://www.w3.org/2000/svg" width="161.769" height="170.846" viewBox="0 0 161.769 170.846">
  <g id="Group_42" data-name="Group 42" transform="translate(-1079.371 -1773.154)">
    <g id="Group_39" data-name="Group 39">
      <path id="Path_131" data-name="Path 131" d="M172.034,261.89h-7.319V155.624a8.98,8.98,0,0,0-8.97-8.97H139.386a8.98,8.98,0,0,0-8.97,8.97V261.89H111.833V203.771a8.98,8.98,0,0,0-8.97-8.97H86.5a8.98,8.98,0,0,0-8.97,8.97V261.89H58.95v-30.1a8.98,8.98,0,0,0-8.97-8.97H33.621a8.98,8.98,0,0,0-8.97,8.97v30.1H16.938a3.337,3.337,0,1,0,0,6.674h155.1a3.337,3.337,0,1,0,0-6.674Zm-119.758,0H31.325v-30.1a2.3,2.3,0,0,1,2.3-2.3H49.98a2.3,2.3,0,0,1,2.3,2.3v30.1Zm52.883,0H84.207V203.771a2.3,2.3,0,0,1,2.3-2.3h16.359a2.3,2.3,0,0,1,2.3,2.3Zm52.883,0H137.09V155.624a2.3,2.3,0,0,1,2.3-2.3h16.359a2.3,2.3,0,0,1,2.3,2.3Z" transform="translate(1065.771 1675.436)" fill="#fff"/>
      <path id="Path_132" data-name="Path 132" d="M221.84,3.509a3.325,3.325,0,0,0-3.5-3.5c-.054,0-.107-.008-.162-.008H197.99a3.337,3.337,0,1,0,0,6.674h12.465L177.468,39.661l-12.44-12.44a3.337,3.337,0,0,0-4.719,0L100.324,87.208a3.337,3.337,0,0,0,4.719,4.719L162.669,34.3l12.44,12.44a3.337,3.337,0,0,0,4.719,0l35.346-35.346V22.675a3.337,3.337,0,0,0,6.674,0v-19C221.848,3.616,221.843,3.563,221.84,3.509Z" transform="translate(1008.637 1773.154)" fill="#fff"/>
    </g>
    <ellipse id="Ellipse_10" data-name="Ellipse 10" cx="3.337" cy="3.337" rx="3.337" ry="3.337" transform="translate(1096.736 1871.026)" fill="#fff"/>
  </g>
</svg>
