<svg xmlns="http://www.w3.org/2000/svg" width="46.787" height="46.787" viewBox="0 0 46.787 46.787">
  <g id="Group_20" data-name="Group 20" transform="translate(-654 -836)">
    <g id="Group_19" data-name="Group 19">
      <rect id="Rectangle_22" data-name="Rectangle 22" width="46.787" height="46.787" rx="22" transform="translate(654 836)" fill="#fff"/>
    </g>
    <path id="heart" d="M19.347,1.83A5.651,5.651,0,0,0,15.144,0a5.286,5.286,0,0,0-3.3,1.14,6.755,6.755,0,0,0-1.335,1.394A6.752,6.752,0,0,0,9.173,1.14,5.286,5.286,0,0,0,5.871,0a5.651,5.651,0,0,0-4.2,1.83A6.569,6.569,0,0,0,0,6.315a7.822,7.822,0,0,0,2.084,5.12,44.443,44.443,0,0,0,5.217,4.9c.723.616,1.542,1.314,2.393,2.058a1.234,1.234,0,0,0,1.624,0c.851-.744,1.671-1.443,2.394-2.059a44.419,44.419,0,0,0,5.217-4.9,7.821,7.821,0,0,0,2.084-5.12A6.568,6.568,0,0,0,19.347,1.83Zm0,0" transform="translate(667.148 851.353)" fill="#e24c29"/>
  </g>
</svg>
