<svg xmlns="http://www.w3.org/2000/svg" width="512" height="512" viewBox="0 0 512 512">
  <g id="Group_15" data-name="Group 15" transform="translate(-909 -1163)">
    <g id="Ellipse_6" data-name="Ellipse 6" transform="translate(953 1207)" fill="#fff" stroke="#707070" stroke-width="1">
      <circle cx="212" cy="212" r="212" stroke="none"/>
      <circle cx="212" cy="212" r="211.5" fill="none"/>
    </g>
    <g id="linkedin" transform="translate(909 1163)">
      <path id="Path_13" data-name="Path 13" d="M256,0C114.637,0,0,114.637,0,256S114.637,512,256,512,512,397.363,512,256,397.363,0,256,0ZM181.609,387H119.262V199.426h62.348ZM150.438,173.813h-.406c-20.922,0-34.453-14.4-34.453-32.4,0-18.406,13.945-32.41,35.273-32.41s34.453,14,34.859,32.41C185.711,159.41,172.18,173.813,150.438,173.813ZM406.422,387h-62.34V286.652c0-25.219-9.027-42.418-31.586-42.418-17.223,0-27.48,11.6-31.988,22.8-1.648,4.008-2.051,9.609-2.051,15.215V387H216.113s.816-169.977,0-187.574h62.344v26.559c8.285-12.781,23.109-30.961,56.188-30.961,41.02,0,71.777,26.809,71.777,84.422Zm0,0" fill="#dd3b30"/>
    </g>
  </g>
</svg>
