<svg xmlns="http://www.w3.org/2000/svg" width="128.617" height="56.546" viewBox="0 0 128.617 56.546">
  <g id="Logo-INTEC" opacity="0.31">
    <g id="Logo" transform="translate(0 0)">
      <path id="Fill-1" d="M5.136,150.465h.942v-6.556H5.136Zm1.82,0H7.9v-3.942l1.46,3.942h.887v-6.557H9.3v3.951l-1.442-3.951H6.956Zm7.188-5.13a1.539,1.539,0,0,0-1.571-1.483,1.6,1.6,0,0,0-1.617,1.8,1.546,1.546,0,0,0,1.025,1.685l.675.276c.462.185.545.295.545,1,0,.6-.047.976-.684.976a.62.62,0,0,1-.665-.672v-.295H10.91v.35a1.55,1.55,0,0,0,1.607,1.556c1.22,0,1.626-.82,1.626-1.925,0-.958-.157-1.483-.989-1.8l-.72-.285c-.489-.193-.536-.368-.536-.875,0-.433.121-.847.638-.847.48,0,.665.359.665.792v.212h.942Zm1.321,5.13h.943v-5.672H17.5v-.885H14.375v.885h1.09Zm2.476,0h.942v-6.556h-.942Zm2.475,0h.943v-5.672h1.09v-.885H19.326v.885h1.09Zm5.5-6.557h-.942V148.9c0,.461-.25.682-.582.682s-.583-.221-.583-.682v-4.992h-.942v5.084a1.524,1.524,0,1,0,3.049,0Zm1.506,6.557h.942v-5.672h1.09v-.885H26.329v.885H27.42Zm2.282-1.547a1.58,1.58,0,1,0,3.159,0v-3.463a1.58,1.58,0,1,0-3.159,0Zm.942-3.463a.638.638,0,1,1,1.275,0v3.463a.638.638,0,1,1-1.275,0Zm5.387,5.01h.942v-5.672h1.09v-.885H34.94v.885h1.091Zm2.447,0h2.81v-.94H39.421V147.6h1.626v-.883H39.421v-1.925h1.866v-.885h-2.81Zm6.412-1.87h-.942v.323a.581.581,0,0,1-.591.663c-.426,0-.574-.295-.574-.672v-3.352c0-.442.111-.764.582-.764a.617.617,0,0,1,.583.681v.313h.942v-.368a1.493,1.493,0,0,0-1.516-1.566,1.468,1.468,0,0,0-1.533,1.511v3.61a1.424,1.424,0,0,0,1.552,1.547A1.517,1.517,0,0,0,44.89,149Zm.73,1.87h.942v-3.942l1.46,3.942h.887v-6.557h-.943v3.951l-1.441-3.951H45.62Zm4.084-1.547a1.58,1.58,0,1,0,3.159,0v-3.463a1.58,1.58,0,1,0-3.159,0Zm.942-3.463a.638.638,0,1,1,1.275,0v3.463a.638.638,0,1,1-1.275,0Zm3.049,5.01H56.5v-.94H54.637v-5.617h-.942Zm3.363-1.547a1.58,1.58,0,1,0,3.159,0v-3.463a1.58,1.58,0,1,0-3.159,0ZM58,145.455a.638.638,0,1,1,1.275,0v3.463a.638.638,0,1,1-1.275,0Zm.036-1.842h.61l1.22-1.3h-1Zm2.957,5.305a1.58,1.58,0,1,0,3.159,0v-2.063H62.463v.828h.748v1.235a.638.638,0,1,1-1.275,0v-3.463a.638.638,0,1,1,1.275,0v.332h.942v-.332a1.58,1.58,0,1,0-3.159,0Zm4.018,1.547h.942v-6.556h-.942Zm4.851-1.87h-.942v.323a.581.581,0,0,1-.592.663c-.425,0-.573-.295-.573-.672v-3.352c0-.442.111-.764.582-.764a.617.617,0,0,1,.583.681v.313h.942v-.368a1.493,1.493,0,0,0-1.516-1.566,1.468,1.468,0,0,0-1.533,1.511v3.61a1.424,1.424,0,0,0,1.552,1.547,1.517,1.517,0,0,0,1.5-1.519Zm.711.323a1.58,1.58,0,1,0,3.16,0v-3.463a1.58,1.58,0,1,0-3.16,0Zm.943-3.463a.638.638,0,1,1,1.274,0v3.463a.638.638,0,1,1-1.274,0Zm4.767,5.01H77.6a1.574,1.574,0,0,0,1.736-1.8V145.6a1.527,1.527,0,0,0-1.654-1.694H76.283Zm.942-5.672h.435c.554,0,.73.295.73.809v3.159c0,.561-.2.82-.73.82h-.435Zm2.994,5.672h2.808v-.94H81.161V147.6h1.626v-.883H81.161v-1.925h1.866v-.885H80.219Zm8.186-5.13a1.539,1.539,0,0,0-1.571-1.483,1.6,1.6,0,0,0-1.617,1.8,1.546,1.546,0,0,0,1.025,1.685l.675.276c.461.185.544.295.544,1,0,.6-.046.976-.684.976a.62.62,0,0,1-.664-.672v-.295h-.943v.35a1.551,1.551,0,0,0,1.607,1.556c1.22,0,1.627-.82,1.627-1.925,0-.958-.157-1.483-.989-1.8l-.72-.285c-.49-.193-.536-.368-.536-.875,0-.433.12-.847.637-.847.481,0,.665.359.665.792v.212h.943Zm2.6,2.837h-.942l.462-2.376Zm-2.328,2.293h.942l.277-1.409h1.285l.277,1.409h.943l-1.47-6.557h-.785Zm4.148,0h.942v-3.942l1.459,3.942h.887v-6.557h-.942v3.951l-1.441-3.951H92.83Zm4.758,0h.942v-5.672h1.09v-.885H96.5v.885h1.091Zm2.282-1.547a1.58,1.58,0,1,0,3.159,0v-3.463a1.58,1.58,0,1,0-3.159,0Zm.942-3.463a.638.638,0,1,1,1.275,0v3.463a.638.638,0,1,1-1.275,0Zm4.768,5.01h1.312a1.575,1.575,0,0,0,1.737-1.8V145.6a1.528,1.528,0,0,0-1.654-1.694H105.58Zm.942-5.672h.434c.555,0,.73.295.73.809v3.159c0,.561-.2.82-.73.82h-.434Zm2.938,4.125a1.58,1.58,0,1,0,3.16,0v-3.463a1.58,1.58,0,1,0-3.16,0Zm.943-3.463a.638.638,0,1,1,1.274,0v3.463a.638.638,0,1,1-1.274,0Zm3.048,5.01h.943v-3.987l.942,2.818h.472l.933-2.818.019,3.987h.942v-6.557h-.915l-1.2,3.472-1.229-3.472h-.906Zm5.165,0h.942v-6.556h-.942Zm1.82,0h.942v-3.942l1.46,3.942h.887v-6.557h-.942v3.951l-1.442-3.951h-.906Zm4.084-1.547a1.58,1.58,0,1,0,3.16,0v-2.063h-1.692v.828h.748v1.235a.638.638,0,1,1-1.275,0v-3.463a.638.638,0,1,1,1.275,0v.332h.943v-.332a1.58,1.58,0,1,0-3.16,0Zm3.936,0a1.58,1.58,0,1,0,3.159,0v-3.463a1.58,1.58,0,1,0-3.159,0Zm.942-3.463a.638.638,0,1,1,1.275,0v3.463a.638.638,0,1,1-1.275,0Z" transform="translate(-3.391 -93.974)" fill="#fff" fill-rule="evenodd"/>
      <path id="Fill-3" d="M14.787,46.783V12.871h8.524V16.6h.134c2.89-3.886,5.714-4.959,10.487-4.959,7.058,0,11.764,4.49,11.764,11.727l.079,15.677a10.272,10.272,0,0,0,3.9,7.736H37.159V25.648c0-3.618-1.681-6.633-5.512-6.633-5.379,0-7.865,4.087-7.865,8.375V46.754l-.462.029Zm-13.313,0V13.117a8.579,8.579,0,0,0,10.2.121V46.754ZM0,6.488A6.561,6.561,0,0,1,6.633,0a6.561,6.561,0,0,1,6.633,6.487,6.561,6.561,0,0,1-6.633,6.487A6.561,6.561,0,0,1,0,6.488ZM128.617,15.6l-4.5,6.365c-2.218-1.341-4.638-2.547-7.261-2.547-6.319,0-11.024,4.155-11.024,10.32,0,5.9,5.378,10.318,9.814,10.318a13.039,13.039,0,0,0,8.2-2.614l4.705,6.1c-3.294,3.284-8.4,4.289-12.773,4.289-8.806,0-18.485-6.9-18.485-18.36,0-10.319,8.805-17.823,18.754-17.823A22.21,22.21,0,0,1,128.617,15.6ZM72.1,31.068l15.469-9.329A7.846,7.846,0,0,0,81.784,19.6a10.057,10.057,0,0,0-9.814,9.263,13,13,0,0,0,.129,2.2Zm20.473,5.247,3.51,7.062a24.653,24.653,0,0,1-13.845,4.341c-9.749,0-18.328-7.58-18.328-17.492a16.734,16.734,0,0,1,3.412-10.138H56.661V34.627c0,3.283,1.412,5.426,6.386,5.426l.451-.009a18.188,18.188,0,0,0,6.813,6.442,30.937,30.937,0,0,1-9.752,1.341c-7.192-.041-12.435-3.82-12.435-11.391V5.908l8.537-3.819V12.716h25.7a17.573,17.573,0,0,1,15.6,10.189L75.349,36.9c.65,1.36,2.47,3.3,6.435,3.3,4.223,0,7.343-1.619,10.788-3.887Z" transform="translate(0.001 -0.001)" fill="#fff" fill-rule="evenodd"/>
    </g>
  </g>
</svg>
