<svg xmlns="http://www.w3.org/2000/svg" width="26.604" height="20.902" viewBox="0 0 26.604 20.902">
  <g id="mail-float" transform="translate(-584.998 585)">
    <path id="Path_2" data-name="Path 2" d="M2.554,61.263q.5.356,3.043,2.115t3.89,2.709q.148.1.631.453t.8.564q.319.216.772.482a4.479,4.479,0,0,0,.854.4,2.352,2.352,0,0,0,.742.134h.03a2.354,2.354,0,0,0,.742-.134,4.484,4.484,0,0,0,.854-.4q.453-.267.772-.482t.8-.564q.482-.349.631-.453,1.365-.95,6.947-4.825a7.052,7.052,0,0,0,1.811-1.826A3.92,3.92,0,0,0,26.6,57.2a2.4,2.4,0,0,0-2.376-2.375H2.375a2.12,2.12,0,0,0-1.759.772A3,3,0,0,0,0,57.522a3.466,3.466,0,0,0,.817,2.026,7.369,7.369,0,0,0,1.737,1.715Z" transform="translate(584.998 -639.82)" fill="#fff"/>
    <path id="Path_3" data-name="Path 3" d="M25.116,185.728q-4.869,3.3-7.393,5.122-.846.623-1.373.972a8.474,8.474,0,0,1-1.4.712,4.271,4.271,0,0,1-1.633.364h-.03a4.273,4.273,0,0,1-1.633-.364,8.48,8.48,0,0,1-1.4-.712q-.527-.349-1.373-.972-2-1.47-7.378-5.122A7.863,7.863,0,0,1,0,184.437v11.787A2.287,2.287,0,0,0,.7,197.9a2.287,2.287,0,0,0,1.678.7H24.226a2.382,2.382,0,0,0,2.375-2.376V184.437A8.185,8.185,0,0,1,25.116,185.728Z" transform="translate(585 -762.697)" fill="#fff"/>
  </g>
</svg>
