<svg id="mini-solvex-cloud" xmlns="http://www.w3.org/2000/svg" width="64.094" height="48.087" viewBox="0 0 64.094 48.087">
  <path id="Path_95" data-name="Path 95" d="M61.328,88.754A14.1,14.1,0,0,0,55.469,84.2a12.573,12.573,0,0,0-12.141-10.37,19.227,19.227,0,0,0-35.6,5.252H5.633A5.64,5.64,0,0,0,0,84.715v12.37s0,0,0,.007,0,.006,0,.01v9.287a5.64,5.64,0,0,0,5.633,5.633H21.948a5.6,5.6,0,0,0,3.177-.984H50.149A13.946,13.946,0,0,0,61.328,88.754Zm-37.5,17.634a1.88,1.88,0,0,1-1.878,1.878H5.633a1.88,1.88,0,0,1-1.878-1.878V84.715a1.88,1.88,0,0,1,1.878-1.878H21.948a1.88,1.88,0,0,1,1.878,1.878Zm26.323.893H27.51a5.652,5.652,0,0,0,.072-.893V84.715a5.64,5.64,0,0,0-5.633-5.633H11.593A15.472,15.472,0,0,1,40.5,76.548a1.877,1.877,0,0,0,1.851,1.068c.273-.023.514-.033.737-.033a8.849,8.849,0,0,1,8.786,8.132,1.878,1.878,0,0,0,1.312,1.649,10.192,10.192,0,0,1-3.043,19.918Z" transform="translate(0 -63.935)" fill="#fff"/>
  <path id="Path_96" data-name="Path 96" d="M60.566,250.06H48.384a1.878,1.878,0,1,0,0,3.755H60.566a1.878,1.878,0,1,0,0-3.755Z" transform="translate(-40.684 -226.76)" fill="#fff"/>
  <path id="Path_97" data-name="Path 97" d="M60.566,301.5H48.384a1.878,1.878,0,1,0,0,3.755H60.566a1.878,1.878,0,1,0,0-3.755Z" transform="translate(-40.684 -271.759)" fill="#fff"/>
  <path id="Path_98" data-name="Path 98" d="M60.566,352.936H48.384a1.878,1.878,0,0,0,0,3.756H60.566a1.878,1.878,0,0,0,0-3.756Z" transform="translate(-40.684 -316.758)" fill="#fff"/>
</svg>
