<svg id="mini-solvex-assets" xmlns="http://www.w3.org/2000/svg" width="53.891" height="47.551" viewBox="0 0 53.891 47.551">
  <path id="Path_115" data-name="Path 115" d="M27.295,42.19a1.592,1.592,0,0,1-.708-.166l-12.68-6.34a1.587,1.587,0,0,1-.876-1.419V21.585a1.585,1.585,0,0,1,2.293-1.419L28,26.507a1.587,1.587,0,0,1,.876,1.419v12.68a1.583,1.583,0,0,1-1.585,1.585ZM16.2,33.286l9.51,4.755V28.9L16.2,24.15Z" transform="translate(-13.03 -13.659)" fill="#fff"/>
  <path id="Path_116" data-name="Path 116" d="M22.615,42.19a1.583,1.583,0,0,1-1.585-1.585V27.925a1.587,1.587,0,0,1,.876-1.419l12.68-6.34a1.585,1.585,0,0,1,2.293,1.419v12.68A1.587,1.587,0,0,1,36,35.684l-12.68,6.34A1.592,1.592,0,0,1,22.615,42.19ZM24.2,28.9v9.136l9.51-4.755V24.15Z" transform="translate(-8.35 -13.659)" fill="#fff"/>
  <path id="Path_117" data-name="Path 117" d="M27.295,31.85a1.587,1.587,0,0,1-.708-.166l-12.68-6.34a1.586,1.586,0,0,1,0-2.837l12.68-6.34a1.585,1.585,0,0,1,1.419,0l12.68,6.34a1.586,1.586,0,0,1,0,2.837L28,31.684A1.6,1.6,0,0,1,27.295,31.85Zm-9.136-7.925,9.136,4.568,9.136-4.568-9.136-4.568Z" transform="translate(-13.03 -15.999)" fill="#fff"/>
  <path id="Path_118" data-name="Path 118" d="M43.295,42.19a1.592,1.592,0,0,1-.708-.166l-12.68-6.34a1.587,1.587,0,0,1-.876-1.419V21.585a1.585,1.585,0,0,1,2.293-1.419L44,26.507a1.587,1.587,0,0,1,.876,1.419v12.68a1.583,1.583,0,0,1-1.585,1.585ZM32.2,33.286l9.51,4.755V28.9L32.2,24.15Z" transform="translate(-3.67 -13.659)" fill="#fff"/>
  <path id="Path_119" data-name="Path 119" d="M38.615,42.19a1.583,1.583,0,0,1-1.585-1.585V27.925a1.587,1.587,0,0,1,.877-1.419l12.68-6.34a1.585,1.585,0,0,1,2.293,1.419v12.68A1.587,1.587,0,0,1,52,35.684l-12.68,6.34A1.592,1.592,0,0,1,38.615,42.19ZM40.2,28.9v9.136l9.51-4.755V24.15Z" transform="translate(1.01 -13.659)" fill="#fff"/>
  <path id="Path_120" data-name="Path 120" d="M43.295,31.85a1.587,1.587,0,0,1-.708-.166l-12.68-6.34a1.586,1.586,0,0,1,0-2.837l12.68-6.34a1.585,1.585,0,0,1,1.419,0l12.68,6.34a1.586,1.586,0,0,1,0,2.837L44,31.684A1.6,1.6,0,0,1,43.295,31.85Zm-9.136-7.925,9.136,4.568,9.136-4.568-9.136-4.568Z" transform="translate(-3.67 -15.999)" fill="#fff"/>
  <path id="Path_121" data-name="Path 121" d="M35.295,54.19a1.592,1.592,0,0,1-.708-.166l-12.68-6.34a1.587,1.587,0,0,1-.876-1.419V33.585a1.585,1.585,0,0,1,2.293-1.419L36,38.507a1.587,1.587,0,0,1,.876,1.419v12.68a1.583,1.583,0,0,1-1.585,1.585ZM24.2,45.286l9.51,4.755V40.9L24.2,36.15Z" transform="translate(-8.35 -6.639)" fill="#fff"/>
  <path id="Path_122" data-name="Path 122" d="M30.615,54.19a1.583,1.583,0,0,1-1.585-1.585V39.925a1.587,1.587,0,0,1,.876-1.419l12.68-6.34a1.585,1.585,0,0,1,2.293,1.419v12.68A1.587,1.587,0,0,1,44,47.684l-12.68,6.34a1.592,1.592,0,0,1-.708.166ZM32.2,40.9v9.136l9.51-4.755V36.15Z" transform="translate(-3.67 -6.639)" fill="#fff"/>
  <path id="Path_123" data-name="Path 123" d="M35.295,43.85a1.587,1.587,0,0,1-.708-.166l-12.68-6.34a1.586,1.586,0,0,1,0-2.837l12.68-6.34a1.585,1.585,0,0,1,1.419,0l12.68,6.34a1.586,1.586,0,0,1,0,2.837L36,43.684A1.6,1.6,0,0,1,35.295,43.85Zm-9.136-7.925,9.136,4.568,9.136-4.568-9.136-4.568Z" transform="translate(-8.35 -8.979)" fill="#fff"/>
</svg>
