<svg xmlns="http://www.w3.org/2000/svg" width="260" height="55.445" viewBox="0 0 260 55.445">
  <g id="Group_58" data-name="Group 58" transform="translate(-320 -403.009)" opacity="0.312">
    <path id="Path_154" data-name="Path 154" d="M346.421,403.026c0,8.38-.023,16.761.012,25.141,0,.992-.3,1.235-1.259,1.23-7.913-.037-15.826-.021-23.738-.019-.473,0-.946.022-1.419.034q0-12.838-.017-25.676c0-.605.122-.729.728-.727Q333.575,403.046,346.421,403.026Z" transform="translate(0 0)" fill="#fff"/>
    <path id="Path_155" data-name="Path 155" d="M320.017,545.975l24.836.026c1.559,0,1.56,0,1.561,1.54q0,12.41.008,24.82-12.847,0-25.693.017c-.606,0-.73-.122-.728-.727Q320.037,558.813,320.017,545.975Z" transform="translate(0 -113.924)" fill="#fff"/>
    <path id="Path_156" data-name="Path 156" d="M489.468,403.093c.017.337.05.674.05,1.011,0,8.009-.013,16.019.022,24.028,0,.99-.227,1.343-1.29,1.337q-11.921-.065-23.842,0c-1.064.006-1.3-.355-1.293-1.34.033-7.874.02-15.748.015-23.623,0-.471-.044-.942-.067-1.414Z" transform="translate(-114.001 -0.067)" fill="#fff"/>
    <path id="Path_157" data-name="Path 157" d="M463.063,572.472c.019-1.284.054-2.568.055-3.852q.008-10.553,0-21.106c0-1.394.007-1.4,1.421-1.4q11.779,0,23.558,0c1.405,0,1.41,0,1.41,1.4q0,11.974,0,23.948c0,.338-.027.675-.042,1.013Z" transform="translate(-114.001 -114.034)" fill="#fff"/>
    <path id="Path_159" data-name="Path 159" d="M1596.815,597.145l.2-.213V601.6l-.209-.017c-.172-.112-.356-.25-.371-.452C1596.333,599.783,1596,598.408,1596.815,597.145Z" transform="translate(-1017.017 -154.529)" fill="#fff"/>
    <path id="Path_160" data-name="Path 160" d="M1597,508.474l-.1.017-.1-.008a1.1,1.1,0,0,1-.45-.869c.059-1.21-.445-2.491.444-3.6l.206-.008Z" transform="translate(-1017.003 -80.483)" fill="#fff"/>
    <path id="Path_161" data-name="Path 161" d="M680.482,468.157q-.009,10.7-.019,21.409c0,1.427,0,1.427-1.467,1.43q-1.269,0-2.538,0c-1.409,0-1.412,0-1.413-1.375q0-8.574,0-17.149c0-4.5.029-9-.022-13.5-.012-1,.3-1.265,1.265-1.232,1.995.069,3.994.05,5.99.006a1.144,1.144,0,0,1,1.269.862c3.061,7.915,6.4,15.719,9.313,23.693a2.982,2.982,0,0,0,.159.307c.409-.182.416-.586.532-.9,2.857-7.852,6.261-15.484,9.332-23.249a1.054,1.054,0,0,1,1.143-.76c2,.027,3.995.043,5.99-.005.842-.02,1.019.346,1.015,1.091-.022,4.025-.01,8.05-.01,12.075,0,6.257-.021,12.515.021,18.772.007.995-.3,1.3-1.269,1.235a24.526,24.526,0,0,0-3.348,0c-.911.062-1.148-.268-1.136-1.149.113-7.98-.173-15.964.2-23.942a7.514,7.514,0,0,0-.056-1.322,78.409,78.409,0,0,1-3.168,8.238c-2.272,5.683-4.605,11.341-6.866,17.028a1.512,1.512,0,0,1-1.677,1.179c-2.607-.067-2.608-.017-3.59-2.4q-4.273-10.363-8.541-20.727c-.334-.812-.6-1.651-.9-2.477-.264-.174-.276.063-.273.2A17.252,17.252,0,0,0,680.482,468.157Z" transform="translate(-282.902 -43.576)" fill="#fff"/>
    <path id="Path_162" data-name="Path 162" d="M1484.8,457.511q0,2.234.006,4.467c-1.519.016-3.037.061-4.555.036-.741-.012-1.008.246-1,1,.031,3.509-.019,7.018.034,10.526.05,3.336,2.093,4.58,5.147,3.208.123-.055.249-.1.373-.153l-.007,4.438a9.794,9.794,0,0,1-7.133.312c-2.425-.831-3.475-2.754-3.838-5.158a35.931,35.931,0,0,1-.158-5.167c-.016-2.638-.034-5.278.012-7.915.015-.856-.284-1.11-1.112-1.091-2.064.046-4.131.057-6.194,0-.933-.028-1.125.338-1.12,1.188.031,5.581.017,11.163.015,16.745,0,1.308,0,1.309-1.349,1.311-1.083,0-2.169-.051-3.249.016-.866.054-1.077-.277-1.073-1.1.031-5.581.017-11.163.016-16.745,0-1.428,0-1.428-1.429-1.431-2.469,0-2.484,0-2.465-2.439.018-2.408-.309-2.048,2.115-2.081,2.058-.028,1.783.187,1.77-1.8a11.656,11.656,0,0,1,.995-5.728,7.781,7.781,0,0,1,6.314-4.2,11.336,11.336,0,0,1,3.839.151c.552.12.819.372.805.959-.025,1.048-.019,2.1,0,3.146.011.613-.143.91-.824.628a4.677,4.677,0,0,0-1.082-.258c-2.651-.4-4.251.91-4.363,3.593-.036.878,0,1.759-.023,2.638-.017.573.15.88.8.874q3.4-.031,6.8,0c.638.006.814-.286.8-.866-.022-1.251.018-2.5-.013-3.755a.889.889,0,0,1,.757-1.007q2.052-.576,4.085-1.217c.628-.2.845-.051.832.627-.034,1.758.014,3.518-.022,5.277-.015.7.209.961.924.948C1481.75,457.454,1483.273,457.5,1484.8,457.511Z" transform="translate(-905.001 -33.977)" fill="#fff"/>
    <path id="Path_163" data-name="Path 163" d="M1242.42,521.958c0-.575.027-1.152-.006-1.725-.044-.776.13-.989.87-.513a11.272,11.272,0,0,0,4.941,1.721,6.251,6.251,0,0,0,2.8-.293,2.181,2.181,0,0,0,.765-3.747,8.15,8.15,0,0,0-2.36-1.365,28.141,28.141,0,0,1-4.175-2.076,6.7,6.7,0,0,1-.494-10.8,10.631,10.631,0,0,1,8.043-2.053,14.037,14.037,0,0,1,3.366.722c.436.151.679.361.67.862-.022,1.251-.018,2.5,0,3.755.009.685-.267.625-.727.35a10.294,10.294,0,0,0-4.154-1.23,4.915,4.915,0,0,0-2.683.367,2.3,2.3,0,0,0-.351,4.043,16.809,16.809,0,0,0,3.28,1.6,37.461,37.461,0,0,1,3.315,1.749c3.861,2.079,3.286,7.654,1.019,9.874-2.408,2.358-5.343,2.912-8.512,2.75a19.875,19.875,0,0,1-4.47-.891c-.851-.246-1.268-.653-1.15-1.572A12.122,12.122,0,0,0,1242.42,521.958Z" transform="translate(-734.916 -78.112)" fill="#fff"/>
    <path id="Path_164" data-name="Path 164" d="M944.374,504.938c-.091.682.383,1.839-.192,2.267-.53.393-1.357-.571-2.09-.866-5.452-2.2-10.4,1.045-10.49,6.922a11.018,11.018,0,0,0,.181,2.523,6.724,6.724,0,0,0,8.288,5.384,9.468,9.468,0,0,0,3.464-1.391c.575-.391.878-.469.849.406-.039,1.149-.022,2.3-.007,3.45a1.064,1.064,0,0,1-.6,1.062c-7.206,4.066-16.569-.231-17.885-8.372-1.023-6.33,1.481-12.42,7.915-14.62a14.849,14.849,0,0,1,9.284-.024c.959.288,1.449.747,1.293,1.79A10.91,10.91,0,0,0,944.374,504.938Z" transform="translate(-482.635 -78.042)" fill="#fff"/>
    <path id="Path_165" data-name="Path 165" d="M1043.908,505.786c.214-.373.421-.751.643-1.119a6.009,6.009,0,0,1,6.26-2.831c.741.13,1.122.441,1.082,1.273-.062,1.283-.021,2.57-.016,3.856,0,.431-.083.587-.592.438-4.522-1.325-7.429.755-7.55,5.5-.1,3.854-.032,7.712-.039,11.568,0,1.474,0,1.475-1.488,1.475-1.083,0-2.167-.027-3.249.009-.639.021-.906-.175-.9-.857q.025-11.01,0-22.021c0-.623.164-.937.854-.919,1.319.035,2.64.028,3.96,0,.613-.012.85.232.831.839-.028.909-.007,1.82-.007,2.73Z" transform="translate(-572.187 -78.675)" fill="#fff"/>
    <path id="Path_166" data-name="Path 166" d="M878.939,515.676c0-3.582.033-7.165-.022-10.747-.015-.962.312-1.228,1.217-1.179,1.18.064,2.367.042,3.55.007.667-.02.886.25.885.893q-.018,11,0,22c0,.727-.287.926-.965.905-1.25-.039-2.5-.044-3.753,0-.712.025-.932-.232-.927-.932C878.954,522.976,878.94,519.326,878.939,515.676Z" transform="translate(-445.378 -80.272)" fill="#fff"/>
    <path id="Path_167" data-name="Path 167" d="M876.682,457.5a3.293,3.293,0,0,1,3.292-3.272,3.341,3.341,0,0,1,3.381,3.31,3.248,3.248,0,0,1-3.32,3.136A3.187,3.187,0,0,1,876.682,457.5Z" transform="translate(-443.597 -40.816)" fill="#fff"/>
    <path id="Path_168" data-name="Path 168" d="M701.42,493.88a4.2,4.2,0,0,1-.118-.683,28.922,28.922,0,0,1,.1-3.223l.221,1.044C701.269,491.952,701.589,492.934,701.42,493.88Z" transform="translate(-303.841 -69.3)" fill="#fff"/>
    <path id="Path_169" data-name="Path 169" d="M1356.6,511.406a10.582,10.582,0,0,0-8.814-10,15.6,15.6,0,0,0-5.352-.091c-4.753.715-8.008,3.237-9.458,7.894a16.75,16.75,0,0,0-.523,6.925,10.8,10.8,0,0,0,7.9,9.441,15.822,15.822,0,0,0,5.128.484,11.237,11.237,0,0,0,10.647-8.22,15.772,15.772,0,0,0,.57-4.412C1356.665,512.756,1356.654,512.08,1356.6,511.406Zm-6.526,6.74a5.218,5.218,0,0,1-4.958,3.254,5.941,5.941,0,0,1-5.979-3.009,9,9,0,0,1-1.031-4.793,9.612,9.612,0,0,1,.774-4.25,5.78,5.78,0,0,1,5.819-3.587,5.533,5.533,0,0,1,5.523,3.682A11.542,11.542,0,0,1,1350.074,518.146Z" transform="translate(-806.673 -78.19)" fill="#fff"/>
    <path id="Path_170" data-name="Path 170" d="M1132.635,512.6c-.108-5.358-3.088-10.816-10.484-11.324-3.427-.235-6.7.26-9.5,2.446-3.3,2.577-4.283,6.181-4.38,10.484.032.411.076,1.154.148,1.893a10.781,10.781,0,0,0,7.894,9.55,15.81,15.81,0,0,0,5.128.488,11.242,11.242,0,0,0,10.655-8.213A17.68,17.68,0,0,0,1132.635,512.6Zm-6.151,4.479a5.413,5.413,0,0,1-5.06,4.38c-3.017.258-5.371-.886-6.455-3.365a10.565,10.565,0,0,1,.115-9.033c1.2-2.542,3.443-3.391,6.134-3.208a5.521,5.521,0,0,1,5.064,3.747,9.576,9.576,0,0,1,.64,3.913A12.7,12.7,0,0,1,1126.485,517.076Z" transform="translate(-628.14 -78.26)" fill="#fff"/>
  </g>
</svg>
