<svg xmlns="http://www.w3.org/2000/svg" width="208.538" height="231.728" viewBox="0 0 208.538 231.728">
  <path id="goal" d="M206.875,31.151l-9.9-8.72,9.9-8.718a4.888,4.888,0,0,0-3.23-8.557H162.667V3.4a3.4,3.4,0,0,0-6.792,0V49.2L127.982,64.346a10.745,10.745,0,0,0-1.1-3.568l-3.93-7.673a10.745,10.745,0,0,0-14.444-4.66L105.465,50a10.731,10.731,0,0,0-4.66,14.446l3.93,7.675a10.666,10.666,0,0,0,3.868,4.2c-2.086,2.809-3.076,6.264-4.095,9.853l-.732,2.592a3.4,3.4,0,0,0,2.344,4.192,3.344,3.344,0,0,0,.925.129,3.4,3.4,0,0,0,3.267-2.473l.732-2.587c1.489-5.249,2.4-8.06,5.313-9.641l5.217-2.834.644-.329c.214-.11.414-.233.617-.355l37.183-20.192a14.373,14.373,0,0,1-6.856,11.541l-24.18,14.692c-.028.016-.057.032-.083.05l-7.526,4.572a3.4,3.4,0,0,0,3.246,5.958l-5.71,17.262-4.174,1.711-11.35,4.651,3.271-11.562a3.4,3.4,0,1,0-6.538-1.849L94.949,119.98a3.261,3.261,0,0,0-.122.739l-1.352,24.843c-.041.948.161,2.739-.278,3.663l-15.02,31.6H67.262a11.608,11.608,0,0,0-11.6,11.594v9.8a11.5,11.5,0,0,0-4.8-1.045H23.144A11.606,11.606,0,0,0,11.55,212.772v12.163H3.4a3.4,3.4,0,1,0,0,6.792H203.641a3.4,3.4,0,1,0,0-6.792h-8.833V137.4A11.608,11.608,0,0,0,183.214,125.8H162.667V66.552A21.18,21.18,0,0,0,166.079,48.4a3.4,3.4,0,0,0-3.412-2.493v-6.2h40.976a4.889,4.889,0,0,0,3.232-8.557ZM106.607,58.346a3.912,3.912,0,0,1,1.954-2.3l3.039-1.556a3.94,3.94,0,0,1,5.3,1.71l3.932,7.675a3.946,3.946,0,0,1-1.308,5.063l-1.107.6-2.335,1.2a3.944,3.944,0,0,1-5.3-1.711l-3.932-7.673a3.915,3.915,0,0,1-.242-3.006ZM99.783,181.871a11.528,11.528,0,0,0-3.729-.994l3.729-4.952ZM115.908,154.5a12.8,12.8,0,0,0,2.449-6.085c.092-.438,1.768-9.593,1.768-9.593s1.586.988,1.752,1.059a.361.361,0,0,1,.209.3l1.848,18.781H112.551Zm20.084-18.746-2.868,23.188h-2.367l-1.911-19.43a7.155,7.155,0,0,0-4-5.742l-3.416-2.166L123.705,119s9.586,11.387,9.809,11.677c1.984,2.579,2.663,3.612,2.479,5.083ZM99.307,152.2a18.412,18.412,0,0,0,.951-6.3l1.234-22.658L117.2,116.8l-2.855,15.816c-.009.042-.018.087-.023.129l-2.362,13.077c-.308,1.354-.576,3.409-1.421,4.524l-22.95,30.483H85.7ZM18.342,212.771a4.806,4.806,0,0,1,4.8-4.8h27.72a4.807,4.807,0,0,1,4.8,4.8v12.165H18.342Zm44.116,0V192.42a4.808,4.808,0,0,1,4.8-4.8h27.72a4.806,4.806,0,0,1,4.8,4.8v32.516H62.46V212.771ZM188.016,137.4v87.54H150.693V204.573a3.4,3.4,0,0,0-6.794,0v20.363H106.575v-54.38a4.806,4.806,0,0,1,4.8-4.8H139.1a4.806,4.806,0,0,1,4.8,4.8v17.025a3.4,3.4,0,1,0,6.792,0V137.4a4.808,4.808,0,0,1,4.8-4.8h3.741l.035,0,.034,0h23.908a4.809,4.809,0,0,1,4.8,4.8ZM155.494,125.8A11.608,11.608,0,0,0,143.9,137.4v22.612A11.5,11.5,0,0,0,139.963,159l2.77-22.4c.545-4.367-1.683-7.261-3.836-10.061-.228-.3-13.429-15.972-13.429-15.972l8.1-24.486,22.308-13.553V125.8Zm7.173-92.888V11.952H198.6l-7.738,6.814a4.887,4.887,0,0,0,0,7.337l7.738,6.814h-35.93Zm0,0" transform="translate(0 0)" fill="rgba(255,255,255,0.56)"/>
</svg>
