<svg id="mni-solvex-serve" xmlns="http://www.w3.org/2000/svg" width="48.121" height="48.121" viewBox="0 0 48.121 48.121">
  <path id="Path_15" data-name="Path 15" d="M353.5,70.015a1.5,1.5,0,0,0,1.5-1.5V65.5a1.5,1.5,0,0,0-3.008,0v3.008A1.5,1.5,0,0,0,353.5,70.015Z" transform="translate(-318.917 -57.985)" fill="#fff"/>
  <path id="Path_16" data-name="Path 16" d="M161.5,83.008h12.03a1.5,1.5,0,0,0,0-3.008H161.5a1.5,1.5,0,1,0,0,3.008Z" transform="translate(-144.962 -72.481)" fill="#fff"/>
  <path id="Path_17" data-name="Path 17" d="M67.008,230.015A3.008,3.008,0,1,0,64,227.008,3.011,3.011,0,0,0,67.008,230.015Z" transform="translate(-57.985 -202.947)" fill="#fff"/>
  <path id="Path_18" data-name="Path 18" d="M67.008,384a3.008,3.008,0,1,0,3.008,3.008A3.011,3.011,0,0,0,67.008,384Z" transform="translate(-57.985 -347.909)" fill="#fff"/>
  <path id="Path_19" data-name="Path 19" d="M67.008,70.015A3.008,3.008,0,1,0,64,67.008,3.011,3.011,0,0,0,67.008,70.015Z" transform="translate(-57.985 -57.985)" fill="#fff"/>
  <path id="Path_21" data-name="Path 21" d="M353.5,230.015a1.5,1.5,0,0,0,1.5-1.5V225.5a1.5,1.5,0,0,0-3.008,0v3.008A1.5,1.5,0,0,0,353.5,230.015Z" transform="translate(-318.917 -202.947)" fill="#fff"/>
  <path id="Path_22" data-name="Path 22" d="M161.5,243.008h12.03a1.5,1.5,0,0,0,0-3.008H161.5a1.5,1.5,0,1,0,0,3.008Z" transform="translate(-144.962 -217.443)" fill="#fff"/>
  <path id="Path_24" data-name="Path 24" d="M353.5,384a1.5,1.5,0,0,0-1.5,1.5v3.008a1.5,1.5,0,1,0,3.008,0V385.5A1.5,1.5,0,0,0,353.5,384Z" transform="translate(-318.917 -347.909)" fill="#fff"/>
  <path id="Path_25" data-name="Path 25" d="M173.534,400H161.5a1.5,1.5,0,1,0,0,3.008h12.03a1.5,1.5,0,1,0,0-3.008Z" transform="translate(-144.962 -362.406)" fill="#fff"/>
  <path id="Path_14" data-name="Path 14" d="M417.5,70.015a1.5,1.5,0,0,0,1.5-1.5V65.5a1.5,1.5,0,1,0-3.008,0v3.008A1.5,1.5,0,0,0,417.5,70.015Z" transform="translate(-376.902 -57.985)" fill="#fff"/>
  <path id="Path_20" data-name="Path 20" d="M417.5,230.015a1.5,1.5,0,0,0,1.5-1.5V225.5a1.5,1.5,0,1,0-3.008,0v3.008A1.5,1.5,0,0,0,417.5,230.015Z" transform="translate(-376.902 -202.947)" fill="#fff"/>
  <path id="Path_23" data-name="Path 23" d="M417.5,384a1.5,1.5,0,0,0-1.5,1.5v3.008a1.5,1.5,0,1,0,3.008,0V385.5A1.5,1.5,0,0,0,417.5,384Z" transform="translate(-376.902 -347.909)" fill="#fff"/>
  <path id="Path_13" data-name="Path 13" d="M48.121,4.511A4.516,4.516,0,0,0,43.609,0H4.511A4.516,4.516,0,0,0,0,4.511v9.023a4.493,4.493,0,0,0,1.152,3.008A4.493,4.493,0,0,0,0,19.549v9.023a4.493,4.493,0,0,0,1.152,3.008A4.493,4.493,0,0,0,0,34.587v9.023a4.516,4.516,0,0,0,4.511,4.511h39.1a4.516,4.516,0,0,0,4.511-4.511V34.587a4.493,4.493,0,0,0-1.152-3.008,4.492,4.492,0,0,0,1.152-3.008V19.549a4.493,4.493,0,0,0-1.152-3.008,4.492,4.492,0,0,0,1.152-3.008Zm-45.113,0a1.506,1.506,0,0,1,1.5-1.5h39.1a1.506,1.506,0,0,1,1.5,1.5v9.023a1.506,1.506,0,0,1-1.5,1.5H4.511a1.506,1.506,0,0,1-1.5-1.5ZM45.113,19.549v9.023a1.506,1.506,0,0,1-1.5,1.5H4.511a1.506,1.506,0,0,1-1.5-1.5V19.549a1.506,1.506,0,0,1,1.5-1.5h39.1A1.506,1.506,0,0,1,45.113,19.549Zm0,24.06a1.506,1.506,0,0,1-1.5,1.5H4.511a1.506,1.506,0,0,1-1.5-1.5V34.587a1.506,1.506,0,0,1,1.5-1.5h39.1a1.506,1.506,0,0,1,1.5,1.5Z" transform="translate(0 0)" fill="#fff"/>
</svg>
