<svg xmlns="http://www.w3.org/2000/svg" width="369.622" height="72.938" viewBox="0 0 369.622 72.938">
  <g id="Group_395" data-name="Group 395" transform="translate(-0.3)">
    <g id="Group_391" data-name="Group 391" transform="translate(0.3)">
      <rect id="Rectangle_29" data-name="Rectangle 29" width="35.098" height="35.098" fill="#aaa"/>
      <rect id="Rectangle_30" data-name="Rectangle 30" width="35.098" height="35.098" transform="translate(38.388)" fill="#aaa"/>
      <rect id="Rectangle_31" data-name="Rectangle 31" width="35.098" height="35.098" transform="translate(0 37.84)" fill="#aaa"/>
      <rect id="Rectangle_32" data-name="Rectangle 32" width="35.098" height="35.098" transform="translate(38.388 37.84)" fill="#aaa"/>
      <g id="Group_390" data-name="Group 390" transform="translate(83.357 17.549)">
        <g id="Group_389" data-name="Group 389">
          <path id="Path_1452" data-name="Path 1452" d="M18.79,9.755V32.788H15.5V3.722h3.839a1.179,1.179,0,0,1,1.1,1.1c3.29,7.129,6.581,14.258,9.871,21.936l1.645-3.29c2.742-5.484,4.936-11.516,7.678-17,1.645-3.29,1.645-3.29,5.484-2.742V32.239h-3.29V8.109c-3.29,7.678-6.581,14.807-9.871,22.484,0,.548-.548,1.1-1.1,1.645-1.645,1.1-1.645,0-2.194-.548-3.29-7.678-6.581-14.807-9.871-21.936Z" transform="translate(-15.5 -2.077)" fill="#aaa"/>
          <path id="Path_1453" data-name="Path 1453" d="M46.768,5c6.032,0,9.871,3.839,9.871,10.42S52.8,26.388,46.22,26.388c-6.032,0-10.42-3.839-10.42-10.42C36.348,8.839,40.187,5,46.768,5Zm6.581,10.42V13.774a7.134,7.134,0,0,0-4.936-6.032,6.578,6.578,0,0,0-8.226,4.387c-1.645,4.936.548,9.323,3.839,10.968h.548C49.51,24.742,53.349,21.452,53.349,15.42Z" transform="translate(75.525 4.871)" fill="#aaa"/>
          <path id="Path_1454" data-name="Path 1454" d="M49.381,15.491c0,7.678-6.032,12.613-13.71,10.42a8.839,8.839,0,0,1-3.839-2.194c-3.29-3.29-3.839-9.871-1.1-14.258C32.929,5.619,37.865,3.974,42.8,5.619,46.639,6.716,49.381,10.007,49.381,15.491Zm-3.839,0V13.3c-.548-3.29-2.194-4.936-5.484-5.484-2.742-.548-5.484,1.1-7.129,3.29a8.416,8.416,0,0,0,0,8.774,7.716,7.716,0,0,0,3.839,3.29C42.252,24.813,45.542,21.523,45.542,15.491Z" transform="translate(44.944 4.8)" fill="#aaa"/>
          <path id="Path_1455" data-name="Path 1455" d="M51.316,13.071v2.742H49.671c-3.29,0-3.29,0-3.29,3.29V33.91H43.09V16.362H39.8V13.62h3.29V9.781A7.01,7.01,0,0,1,49.123,3.2c2.742,0,3.29,0,2.742,2.742-4.936,0-6.032,1.1-5.484,7.129Z" transform="translate(93.461 -3.2)" fill="#aaa"/>
          <path id="Path_1456" data-name="Path 1456" d="M45.613,9.287a10.167,10.167,0,0,0-3.839-1.1,3.467,3.467,0,0,0-4.387,2.194c-.548,1.645.548,2.742,2.194,3.839a11.023,11.023,0,0,1,4.387,2.194,5.636,5.636,0,0,1,0,9.323,9.422,9.422,0,0,1-9.323,0A18.256,18.256,0,0,1,33,22.449c2.194.548,3.839,1.1,6.032,1.645,1.645,0,3.29,0,3.839-2.194.548-1.1,0-2.194-1.1-3.29-1.645-.548-2.742-1.645-4.387-2.194q-4.113-2.468-3.29-6.581c.548-2.742,2.742-4.387,5.484-4.936h3.29C45.613,5.448,46.162,6,45.613,9.287Z" transform="translate(62.97 4.423)" fill="#aaa"/>
          <path id="Path_1457" data-name="Path 1457" d="M42.1,9.527h3.29c.548-2.194-1.1-6.032,3.29-5.484V9.527h4.936c.548,2.742.548,2.742-1.645,2.742H49.229V24.883c0,2.194,1.645,2.742,3.839,2.742h1.1c.548,2.742,0,2.742-2.194,3.29-3.839,0-6.032-1.645-6.032-5.484V12.818a6.956,6.956,0,0,1-3.29-.548C42.1,11.721,42.1,10.624,42.1,9.527Z" transform="translate(103.775 0.344)" fill="#aaa"/>
          <path id="Path_1458" data-name="Path 1458" d="M39.19,8.839c-5.484-1.645-8.226-1.645-10.42,1.645a9.072,9.072,0,0,0,0,10.42c2.194,2.742,4.936,3.29,10.42,1.1.548,2.742.548,3.29-2.194,3.839-4.387,1.1-8.226.548-10.968-2.742-3.29-3.839-3.29-8.226-1.645-12.613C26.029,6.645,29.319,5,33.706,5H35.9C39.19,5,39.19,5.548,39.19,8.839Z" transform="translate(19.488 4.871)" fill="#aaa"/>
          <path id="Path_1459" data-name="Path 1459" d="M29.742,8.986C32.484,5.147,34.129,4.6,37.42,5.147V7.889c-4.387-.548-7.129,1.1-7.129,6.032V25.986H27V5.7h3.29C29.742,6.244,29.742,7.341,29.742,8.986Z" transform="translate(36.066 4.724)" fill="#aaa"/>
          <path id="Path_1460" data-name="Path 1460" d="M25.29,25.391H22V5.1h3.29Z" transform="translate(13.646 5.32)" fill="#aaa"/>
          <circle id="Ellipse_69" data-name="Ellipse 69" cx="2.194" cy="2.194" r="2.194" transform="translate(35.098 0.548)" fill="#aaa"/>
          <path id="Path_1461" data-name="Path 1461" d="M48.79,21.6V32.565H45.5V3.5a80.992,80.992,0,0,1,11.516.548c3.839.548,6.032,3.29,6.032,7.678,0,3.839-1.645,7.678-5.484,8.774-1.645.548-2.742.548-4.387,1.1Zm0-2.742a26.7,26.7,0,0,0,6.581-.548c2.742-.548,3.839-2.742,3.839-5.484s-1.1-4.936-3.29-5.484-4.936-.548-7.678-1.1A97.081,97.081,0,0,1,48.79,18.855Z" transform="translate(119.02 -1.855)" fill="#aaa"/>
          <path id="Path_1462" data-name="Path 1462" d="M61.965,12.678q0-5.758-4.936-4.936c-1.1,0-2.194.548-3.29.548-1.1.548-1.645,1.1-2.742,1.645-.548-3.29-.548-3.29,2.194-4.387A20.562,20.562,0,0,1,59.223,5a5.181,5.181,0,0,1,5.484,5.484V25.839H61.965V23.1l-.548-.548c-.548.548-.548,1.1-1.1,1.645a7.449,7.449,0,0,1-8.774,1.1,6.537,6.537,0,0,1-2.194-7.678,7.287,7.287,0,0,1,5.484-4.387C57.029,13.226,59.223,12.678,61.965,12.678Zm0,2.742a27.785,27.785,0,0,0-7.129,1.1c-2.194.548-2.742,1.645-2.742,3.839,0,1.645,1.645,2.742,3.29,2.742C59.771,23.646,62.513,20.355,61.965,15.42Z" transform="translate(134.362 4.871)" fill="#aaa"/>
          <path id="Path_1463" data-name="Path 1463" d="M80.146,16.9H65.339c0,6.581,5.484,8.774,12.613,5.484.548,2.742.548,3.29-2.194,3.839-5.484,1.645-10.42.548-12.613-3.839C60.4,17.447,61.5,10.318,65.339,7.028c5.484-4.387,12.613-1.645,13.71,5.484C80.146,13.608,80.146,14.705,80.146,16.9Zm-3.839-3.29c0-3.839-1.645-6.032-4.936-6.032s-5.484,2.194-6.032,6.032Z" transform="translate(191.313 4.489)" fill="#aaa"/>
          <path id="Path_1464" data-name="Path 1464" d="M61.19,5.532V7.725c2.194-1.1,3.839-2.194,6.032-2.742,3.839-.548,7.129,1.1,7.678,5.484.548,4.936,0,10.42,0,15.355H72.158V12.112c-.548-3.29-1.645-4.387-4.387-4.936-2.742,0-5.484,1.645-6.032,4.387-.548,2.194,0,3.839-.548,6.032v7.678H57.9V4.983A6.955,6.955,0,0,0,61.19,5.532Z" transform="translate(174.622 4.34)" fill="#aaa"/>
          <path id="Path_1465" data-name="Path 1465" d="M58.39,9.932c.548-2.194-1.1-6.032,3.29-6.032V9.932h4.936v2.742H61.681V25.836q0,3.29,4.936,1.645c.548,2.742,0,3.29-2.194,3.29-3.839,0-5.484-1.645-6.032-5.484V12.126H55.1V9.384A6.956,6.956,0,0,0,58.39,9.932Z" transform="translate(162.067 -0.061)" fill="#aaa"/>
          <path id="Path_1466" data-name="Path 1466" d="M52.9,5h3.29V8.29c.548-.548.548-1.1,1.1-1.1.548-.548,1.1-1.645,2.194-1.645A6.956,6.956,0,0,1,62.771,5c.548,0,.548,1.645.548,2.742-2.194.548-3.839.548-4.936,1.1-1.645,1.1-2.194,3.29-2.194,5.484V25.839H52.9Z" transform="translate(152.202 4.871)" fill="#aaa"/>
          <path id="Path_1467" data-name="Path 1467" d="M65.7,5.336h3.29V9.175c.548-1.1,1.1-1.1,1.1-1.645l2.194-2.194a4.684,4.684,0,0,1,3.839,0c.548,0,.548,1.645.548,2.742-4.936-.548-7.129,1.1-7.678,5.484-.548,3.29,0,6.032,0,9.323v2.742H65.7C65.7,19.046,65.7,12.466,65.7,5.336Z" transform="translate(209.597 4.535)" fill="#aaa"/>
        </g>
      </g>
    </g>
  </g>
</svg>
