<svg xmlns="http://www.w3.org/2000/svg" width="906" height="318" viewBox="0 0 906 318">
  <g id="Group_111" data-name="Group 111" transform="translate(-507 -2622)">
    <g id="Group_106" data-name="Group 106" transform="translate(-214 -1989)">
      <g id="Group_105" data-name="Group 105" transform="translate(721 4611)">
        <g id="Group_103" data-name="Group 103" transform="translate(0)">
          <g id="Group_84" data-name="Group 84">
            <g id="Group_83" data-name="Group 83">
              <g id="Group_82" data-name="Group 82">
                <g id="Group_67" data-name="Group 67" transform="translate(79.388)">
                  <path id="Path_209" data-name="Path 209" d="M132.067,323.816a14.368,14.368,0,0,1-7.707-8.913,14.4,14.4,0,0,1,19.487,9.088A14.37,14.37,0,0,1,132.067,323.816Z" transform="translate(-123.167 -295.373)" fill="#727272"/>
                  <path id="Path_210" data-name="Path 210" d="M133.627,312.843a14.364,14.364,0,0,1-8.913,7.707,14.4,14.4,0,0,1,9.088-19.487A14.364,14.364,0,0,1,133.627,312.843Z" transform="translate(-123.537 -301.062)" fill="#727272"/>
                </g>
                <g id="Group_68" data-name="Group 68" transform="translate(61.413 7.991)">
                  <path id="Path_211" data-name="Path 211" d="M121.92,329.108a14.366,14.366,0,0,1-9.137-7.439,14.4,14.4,0,0,1,20.769,5.565A14.36,14.36,0,0,1,121.92,329.108Z" transform="translate(-110.392 -300.86)" fill="#727272"/>
                  <path id="Path_212" data-name="Path 212" d="M120.94,318.207a14.367,14.367,0,0,1-7.439,9.137,14.4,14.4,0,0,1,5.565-20.769A14.366,14.366,0,0,1,120.94,318.207Z" transform="translate(-111.133 -306.576)" fill="#727272"/>
                </g>
                <g id="Group_69" data-name="Group 69" transform="translate(44.929 19.406)">
                  <path id="Path_213" data-name="Path 213" d="M112.775,336.214a14.36,14.36,0,0,1-10.289-5.74,14.4,14.4,0,0,1,21.419,1.874A14.365,14.365,0,0,1,112.775,336.214Z" transform="translate(-98.534 -309.018)" fill="#727272"/>
                  <path id="Path_214" data-name="Path 214" d="M109.42,325.583a14.37,14.37,0,0,1-5.739,10.291,14.4,14.4,0,0,1,1.874-21.421A14.369,14.369,0,0,1,109.42,325.583Z" transform="translate(-99.759 -314.453)" fill="#727272"/>
                </g>
                <g id="Group_70" data-name="Group 70" transform="translate(30.435 33.901)">
                  <path id="Path_215" data-name="Path 215" d="M104.911,344.919a14.361,14.361,0,0,1-11.13-3.867,14.4,14.4,0,0,1,21.419-1.874A14.366,14.366,0,0,1,104.911,344.919Z" transform="translate(-87.95 -319.602)" fill="#727272"/>
                  <path id="Path_216" data-name="Path 216" d="M99.417,334.746a14.369,14.369,0,0,1-3.865,11.13,14.4,14.4,0,0,1-1.874-21.421A14.37,14.37,0,0,1,99.417,334.746Z" transform="translate(-89.757 -324.455)" fill="#727272"/>
                </g>
                <g id="Group_71" data-name="Group 71" transform="translate(18.369 51.035)">
                  <path id="Path_217" data-name="Path 217" d="M98.564,354.958a14.36,14.36,0,0,1-11.631-1.874,14.4,14.4,0,0,1,20.769-5.565A14.362,14.362,0,0,1,98.564,354.958Z" transform="translate(-78.959 -332.292)" fill="#727272"/>
                  <path id="Path_218" data-name="Path 218" d="M91.238,345.415a14.372,14.372,0,0,1-1.874,11.631A14.4,14.4,0,0,1,83.8,336.278,14.37,14.37,0,0,1,91.238,345.415Z" transform="translate(-81.431 -336.278)" fill="#727272"/>
                </g>
                <g id="Group_72" data-name="Group 72" transform="translate(9.103 70.286)">
                  <path id="Path_219" data-name="Path 219" d="M93.931,366.026a14.364,14.364,0,0,1-11.781.175,14.4,14.4,0,0,1,19.487-9.088A14.359,14.359,0,0,1,93.931,366.026Z" transform="translate(-71.843 -346.698)" fill="#727272"/>
                  <path id="Path_220" data-name="Path 220" d="M85.128,357.267a14.37,14.37,0,0,1,.174,11.781,14.4,14.4,0,0,1-9.087-19.486A14.373,14.373,0,0,1,85.128,357.267Z" transform="translate(-75.038 -349.562)" fill="#727272"/>
                </g>
                <g id="Group_73" data-name="Group 73" transform="translate(2.918 91.071)">
                  <path id="Path_221" data-name="Path 221" d="M91.149,377.788a14.371,14.371,0,0,1-11.57,2.217,14.4,14.4,0,0,1,17.612-12.333A14.367,14.367,0,0,1,91.149,377.788Z" transform="translate(-66.812 -362.385)" fill="#727272"/>
                  <path id="Path_222" data-name="Path 222" d="M81.271,369.944a14.371,14.371,0,0,1,2.219,11.572A14.4,14.4,0,0,1,71.157,363.9,14.365,14.365,0,0,1,81.271,369.944Z" transform="translate(-70.77 -363.904)" fill="#727272"/>
                </g>
                <g id="Group_74" data-name="Group 74" transform="translate(0 112.732)">
                  <path id="Path_223" data-name="Path 223" d="M90.314,389.885A14.37,14.37,0,0,1,79.3,394.078a14.4,14.4,0,0,1,15.2-15.2A14.37,14.37,0,0,1,90.314,389.885Z" transform="translate(-64.029 -378.851)" fill="#727272"/>
                  <path id="Path_224" data-name="Path 224" d="M79.79,383.067a14.371,14.371,0,0,1,4.194,11.011,14.4,14.4,0,0,1-15.205-15.2A14.37,14.37,0,0,1,79.79,383.067Z" transform="translate(-68.756 -378.851)" fill="#727272"/>
                </g>
                <g id="Group_75" data-name="Group 75" transform="translate(0.547 129.263)">
                  <path id="Path_225" data-name="Path 225" d="M91.553,401.83a14.366,14.366,0,0,1-10.114,6.042A14.4,14.4,0,0,1,93.77,390.258,14.363,14.363,0,0,1,91.553,401.83Z" transform="translate(-63.779 -390.258)" fill="#727272"/>
                  <path id="Path_226" data-name="Path 226" d="M80.7,396.245a14.369,14.369,0,0,1,6.042,10.115,14.4,14.4,0,0,1-17.614-12.333A14.363,14.363,0,0,1,80.7,396.245Z" transform="translate(-69.133 -388.738)" fill="#727272"/>
                </g>
                <g id="Group_76" data-name="Group 76" transform="translate(4.868 145.513)">
                  <path id="Path_227" data-name="Path 227" d="M94.87,413.252a14.368,14.368,0,0,1-8.913,7.707,14.4,14.4,0,0,1,9.088-19.487A14.364,14.364,0,0,1,94.87,413.252Z" transform="translate(-66.426 -401.471)" fill="#727272"/>
                  <path id="Path_228" data-name="Path 228" d="M83.9,409.2a14.362,14.362,0,0,1,7.705,8.913,14.4,14.4,0,0,1-19.487-9.088A14.368,14.368,0,0,1,83.9,409.2Z" transform="translate(-72.115 -398.607)" fill="#727272"/>
                </g>
                <g id="Group_77" data-name="Group 77" transform="translate(12.859 161.01)">
                  <path id="Path_229" data-name="Path 229" d="M100.161,423.8a14.362,14.362,0,0,1-7.439,9.137,14.4,14.4,0,0,1,5.565-20.769A14.361,14.361,0,0,1,100.161,423.8Z" transform="translate(-71.913 -412.164)" fill="#727272"/>
                  <path id="Path_230" data-name="Path 230" d="M89.262,421.531A14.368,14.368,0,0,1,98.4,428.97,14.4,14.4,0,0,1,77.629,423.4,14.375,14.375,0,0,1,89.262,421.531Z" transform="translate(-77.629 -408.178)" fill="#727272"/>
                </g>
                <g id="Group_78" data-name="Group 78" transform="translate(24.276 175.281)">
                  <path id="Path_231" data-name="Path 231" d="M107.267,433.142a14.37,14.37,0,0,1-5.739,10.291,14.4,14.4,0,0,1,1.874-21.421A14.37,14.37,0,0,1,107.267,433.142Z" transform="translate(-80.072 -422.012)" fill="#727272"/>
                  <path id="Path_232" data-name="Path 232" d="M96.637,432.87a14.366,14.366,0,0,1,10.289,5.74,14.4,14.4,0,0,1-21.419-1.875A14.366,14.366,0,0,1,96.637,432.87Z" transform="translate(-85.507 -417.159)" fill="#727272"/>
                </g>
                <g id="Group_79" data-name="Group 79" transform="translate(38.771 187.897)">
                  <path id="Path_233" data-name="Path 233" d="M115.972,441.006a14.371,14.371,0,0,1-3.865,11.131,14.4,14.4,0,0,1-1.874-21.421A14.369,14.369,0,0,1,115.972,441.006Z" transform="translate(-90.657 -430.717)" fill="#727272"/>
                  <path id="Path_234" data-name="Path 234" d="M105.8,442.872a14.369,14.369,0,0,1,11.13,3.865,14.4,14.4,0,0,1-21.419,1.875A14.36,14.36,0,0,1,105.8,442.872Z" transform="translate(-95.509 -425.282)" fill="#727272"/>
                </g>
                <g id="Group_80" data-name="Group 80" transform="translate(55.903 198.471)">
                  <path id="Path_235" data-name="Path 235" d="M126.012,447.151a14.372,14.372,0,0,1-1.874,11.631,14.395,14.395,0,0,1-5.565-20.769A14.37,14.37,0,0,1,126.012,447.151Z" transform="translate(-103.345 -438.014)" fill="#727272"/>
                  <path id="Path_236" data-name="Path 236" d="M116.468,451.233a14.372,14.372,0,0,1,11.631,1.874,14.4,14.4,0,0,1-20.769,5.565A14.37,14.37,0,0,1,116.468,451.233Z" transform="translate(-107.331 -432.298)" fill="#727272"/>
                </g>
                <g id="Group_81" data-name="Group 81" transform="translate(75.154 206.684)">
                  <path id="Path_237" data-name="Path 237" d="M137.079,451.388a14.364,14.364,0,0,1,.175,11.781,14.4,14.4,0,0,1-9.087-19.487A14.365,14.365,0,0,1,137.079,451.388Z" transform="translate(-117.751 -443.681)" fill="#727272"/>
                  <path id="Path_238" data-name="Path 238" d="M128.322,457.7a14.364,14.364,0,0,1,11.781-.175,14.4,14.4,0,0,1-19.487,9.088A14.364,14.364,0,0,1,128.322,457.7Z" transform="translate(-120.615 -437.992)" fill="#727272"/>
                </g>
              </g>
              <path id="Path_239" data-name="Path 239" d="M147.308,313.989a14.366,14.366,0,0,1-11.752-.852,14.4,14.4,0,0,1,20.2-7.355A14.363,14.363,0,0,1,147.308,313.989Z" transform="translate(-38.749 -299.716)" fill="#727272"/>
            </g>
            <path id="Path_240" data-name="Path 240" d="M210.169,556.86c-19.644-19.435-37.9-27.1-51.41-31.677-1.3-.441-2.51-.851-3.609-1.235-45.917-16.072-76.767-58.571-76.767-105.754,0-53.095,39.023-99.411,92.788-110.129l.341,1.712c-52.951,10.556-91.384,56.152-91.384,108.418,0,46.443,30.381,88.28,75.6,104.107,1.1.383,2.3.791,3.594,1.23,13.649,4.626,37.943,12.37,57.874,32.088Z" transform="translate(-64.431 -297.916)" fill="#727272"/>
          </g>
          <g id="Group_102" data-name="Group 102" transform="translate(106.628)">
            <g id="Group_101" data-name="Group 101" transform="translate(35.75)">
              <g id="Group_100" data-name="Group 100" transform="translate(16.943)">
                <g id="Group_85" data-name="Group 85">
                  <path id="Path_241" data-name="Path 241" d="M190.474,323.816a14.362,14.362,0,0,0,7.705-8.913,14.4,14.4,0,0,0-19.486,9.088A14.37,14.37,0,0,0,190.474,323.816Z" transform="translate(-178.693 -295.373)" fill="#727272"/>
                  <path id="Path_242" data-name="Path 242" d="M186.42,312.843a14.365,14.365,0,0,0,8.911,7.707,14.4,14.4,0,0,0-9.086-19.487A14.364,14.364,0,0,0,186.42,312.843Z" transform="translate(-175.829 -301.062)" fill="#727272"/>
                </g>
                <g id="Group_86" data-name="Group 86" transform="translate(15.496 7.991)">
                  <path id="Path_243" data-name="Path 243" d="M201.017,329.108a14.366,14.366,0,0,0,9.137-7.439,14.4,14.4,0,0,0-20.769,5.565A14.36,14.36,0,0,0,201.017,329.108Z" transform="translate(-189.386 -300.86)" fill="#727272"/>
                  <path id="Path_244" data-name="Path 244" d="M198.753,318.207a14.362,14.362,0,0,0,7.439,9.137,14.4,14.4,0,0,0-5.565-20.769A14.366,14.366,0,0,0,198.753,318.207Z" transform="translate(-185.4 -306.576)" fill="#727272"/>
                </g>
                <g id="Group_87" data-name="Group 87" transform="translate(29.768 19.406)">
                  <path id="Path_245" data-name="Path 245" d="M210.364,336.214a14.36,14.36,0,0,0,10.289-5.74,14.4,14.4,0,0,0-21.419,1.874A14.363,14.363,0,0,0,210.364,336.214Z" transform="translate(-199.234 -309.018)" fill="#727272"/>
                  <path id="Path_246" data-name="Path 246" d="M210.092,325.583a14.37,14.37,0,0,0,5.739,10.291,14.4,14.4,0,0,0-1.874-21.421A14.369,14.369,0,0,0,210.092,325.583Z" transform="translate(-194.381 -314.453)" fill="#727272"/>
                </g>
                <g id="Group_88" data-name="Group 88" transform="translate(42.383 33.901)">
                  <path id="Path_247" data-name="Path 247" d="M218.228,344.919a14.361,14.361,0,0,0,11.13-3.867,14.4,14.4,0,0,0-21.419-1.874A14.366,14.366,0,0,0,218.228,344.919Z" transform="translate(-207.939 -319.602)" fill="#727272"/>
                  <path id="Path_248" data-name="Path 248" d="M220.094,334.746a14.369,14.369,0,0,0,3.865,11.13,14.4,14.4,0,0,0,1.874-21.421A14.37,14.37,0,0,0,220.094,334.746Z" transform="translate(-202.504 -324.455)" fill="#727272"/>
                </g>
                <g id="Group_89" data-name="Group 89" transform="translate(52.958 51.035)">
                  <path id="Path_249" data-name="Path 249" d="M224.373,354.958A14.36,14.36,0,0,0,236,353.084a14.4,14.4,0,0,0-20.769-5.565A14.362,14.362,0,0,0,224.373,354.958Z" transform="translate(-215.236 -332.292)" fill="#727272"/>
                  <path id="Path_250" data-name="Path 250" d="M228.455,345.415a14.366,14.366,0,0,0,1.874,11.631,14.4,14.4,0,0,0,5.565-20.769A14.366,14.366,0,0,0,228.455,345.415Z" transform="translate(-209.52 -336.278)" fill="#727272"/>
                </g>
                <g id="Group_90" data-name="Group 90" transform="translate(61.171 70.286)">
                  <path id="Path_251" data-name="Path 251" d="M228.608,366.026a14.367,14.367,0,0,0,11.782.175,14.4,14.4,0,0,0-19.487-9.088A14.361,14.361,0,0,0,228.608,366.026Z" transform="translate(-220.903 -346.698)" fill="#727272"/>
                  <path id="Path_252" data-name="Path 252" d="M234.919,357.267a14.369,14.369,0,0,0-.174,11.781,14.4,14.4,0,0,0,9.086-19.486A14.373,14.373,0,0,0,234.919,357.267Z" transform="translate(-215.214 -349.562)" fill="#727272"/>
                </g>
                <g id="Group_91" data-name="Group 91" transform="translate(66.772 91.071)">
                  <path id="Path_253" data-name="Path 253" d="M230.81,377.788a14.371,14.371,0,0,0,11.57,2.217,14.4,14.4,0,0,0-17.612-12.333A14.367,14.367,0,0,0,230.81,377.788Z" transform="translate(-224.768 -362.385)" fill="#727272"/>
                  <path id="Path_254" data-name="Path 254" d="M239.29,369.944a14.376,14.376,0,0,0-2.217,11.572A14.4,14.4,0,0,0,249.406,363.9,14.37,14.37,0,0,0,239.29,369.944Z" transform="translate(-219.414 -363.904)" fill="#727272"/>
                </g>
                <g id="Group_92" data-name="Group 92" transform="translate(69.567 112.732)">
                  <path id="Path_255" data-name="Path 255" d="M230.913,389.885a14.37,14.37,0,0,0,11.011,4.193,14.4,14.4,0,0,0-15.2-15.2A14.37,14.37,0,0,0,230.913,389.885Z" transform="translate(-226.697 -378.851)" fill="#727272"/>
                  <path id="Path_256" data-name="Path 256" d="M241.437,383.067a14.371,14.371,0,0,0-4.194,11.011,14.4,14.4,0,0,0,15.205-15.2A14.366,14.366,0,0,0,241.437,383.067Z" transform="translate(-221.97 -378.851)" fill="#727272"/>
                </g>
                <g id="Group_93" data-name="Group 93" transform="translate(69.143 129.263)">
                  <path id="Path_257" data-name="Path 257" d="M229.01,401.83a14.366,14.366,0,0,0,10.114,6.042,14.4,14.4,0,0,0-12.333-17.614A14.369,14.369,0,0,0,229.01,401.83Z" transform="translate(-226.404 -390.258)" fill="#727272"/>
                  <path id="Path_258" data-name="Path 258" d="M241.255,396.245a14.369,14.369,0,0,0-6.042,10.115,14.4,14.4,0,0,0,17.614-12.333A14.363,14.363,0,0,0,241.255,396.245Z" transform="translate(-222.447 -388.738)" fill="#727272"/>
                </g>
                <g id="Group_94" data-name="Group 94" transform="translate(65.405 145.513)">
                  <path id="Path_259" data-name="Path 259" d="M225.177,413.252a14.369,14.369,0,0,0,8.911,7.707A14.4,14.4,0,0,0,225,401.471,14.364,14.364,0,0,0,225.177,413.252Z" transform="translate(-223.825 -401.471)" fill="#727272"/>
                  <path id="Path_260" data-name="Path 260" d="M238.643,409.2a14.361,14.361,0,0,0-7.705,8.913,14.4,14.4,0,0,0,19.487-9.088A14.368,14.368,0,0,0,238.643,409.2Z" transform="translate(-220.629 -398.607)" fill="#727272"/>
                </g>
                <g id="Group_95" data-name="Group 95" transform="translate(58.467 161.01)">
                  <path id="Path_261" data-name="Path 261" d="M219.531,423.8a14.369,14.369,0,0,0,7.44,9.137,14.4,14.4,0,0,0-5.565-20.769A14.367,14.367,0,0,0,219.531,423.8Z" transform="translate(-219.037 -412.164)" fill="#727272"/>
                  <path id="Path_262" data-name="Path 262" d="M233.676,421.531a14.368,14.368,0,0,0-9.136,7.439,14.4,14.4,0,0,0,20.769-5.565A14.376,14.376,0,0,0,233.676,421.531Z" transform="translate(-216.566 -408.178)" fill="#727272"/>
                </g>
                <g id="Group_96" data-name="Group 96" transform="translate(48.543 175.281)">
                  <path id="Path_263" data-name="Path 263" d="M212.245,433.142a14.37,14.37,0,0,0,5.739,10.291,14.4,14.4,0,0,0-1.874-21.421A14.369,14.369,0,0,0,212.245,433.142Z" transform="translate(-212.19 -422.012)" fill="#727272"/>
                  <path id="Path_264" data-name="Path 264" d="M226.5,432.87a14.366,14.366,0,0,0-10.289,5.74,14.4,14.4,0,0,0,21.419-1.875A14.366,14.366,0,0,0,226.5,432.87Z" transform="translate(-210.382 -417.159)" fill="#727272"/>
                </g>
                <g id="Group_97" data-name="Group 97" transform="translate(35.928 187.897)">
                  <path id="Path_265" data-name="Path 265" d="M203.54,441.006a14.371,14.371,0,0,0,3.865,11.131,14.4,14.4,0,0,0,1.874-21.421A14.369,14.369,0,0,0,203.54,441.006Z" transform="translate(-203.485 -430.717)" fill="#727272"/>
                  <path id="Path_266" data-name="Path 266" d="M217.341,442.872a14.367,14.367,0,0,0-11.13,3.865,14.4,14.4,0,0,0,21.419,1.875A14.36,14.36,0,0,0,217.341,442.872Z" transform="translate(-202.26 -425.282)" fill="#727272"/>
                </g>
                <g id="Group_98" data-name="Group 98" transform="translate(21.005 198.471)">
                  <path id="Path_267" data-name="Path 267" d="M193.681,447.151a14.372,14.372,0,0,0,1.874,11.631,14.4,14.4,0,0,0,5.565-20.769A14.37,14.37,0,0,0,193.681,447.151Z" transform="translate(-193.187 -438.014)" fill="#727272"/>
                  <path id="Path_268" data-name="Path 268" d="M206.469,451.233a14.372,14.372,0,0,0-11.631,1.874,14.4,14.4,0,0,0,20.769,5.565A14.374,14.374,0,0,0,206.469,451.233Z" transform="translate(-192.446 -432.298)" fill="#727272"/>
                </g>
                <g id="Group_99" data-name="Group 99" transform="translate(4.234 206.684)">
                  <path id="Path_269" data-name="Path 269" d="M182.966,451.388a14.369,14.369,0,0,0-.174,11.781,14.4,14.4,0,0,0,9.087-19.487A14.371,14.371,0,0,0,182.966,451.388Z" transform="translate(-181.615 -443.681)" fill="#727272"/>
                  <path id="Path_270" data-name="Path 270" d="M194.219,457.7a14.364,14.364,0,0,0-11.781-.175,14.4,14.4,0,0,0,19.487,9.088A14.364,14.364,0,0,0,194.219,457.7Z" transform="translate(-181.245 -437.992)" fill="#727272"/>
                </g>
              </g>
              <path id="Path_271" data-name="Path 271" d="M175.455,313.989a14.366,14.366,0,0,0,11.752-.852,14.4,14.4,0,0,0-20.2-7.355A14.359,14.359,0,0,0,175.455,313.989Z" transform="translate(-167.002 -299.716)" fill="#727272"/>
            </g>
            <path id="Path_272" data-name="Path 272" d="M149.357,556.86l-7.024-1.241c19.929-19.718,44.224-27.462,57.874-32.088,1.294-.439,2.5-.848,3.593-1.23,45.218-15.827,75.6-57.664,75.6-104.107,0-52.264-38.431-97.862-91.384-108.418l.341-1.712c53.765,10.718,92.79,57.035,92.79,110.129,0,47.183-30.852,89.683-76.77,105.754-1.1.384-2.306.794-3.607,1.235C187.26,529.763,169,537.425,149.357,556.86Z" transform="translate(-142.333 -297.916)" fill="#727272"/>
          </g>
        </g>
      </g>
      <text id="_2" data-name="2" transform="translate(808 4788)" fill="#727272" font-size="182" font-family="CoolveticaRg-Regular, Coolvetica"><tspan x="0" y="0">2</tspan></text>
    </g>
    <g id="Group_107" data-name="Group 107" transform="translate(679 -1993)">
      <text id="Microsoft" transform="translate(148 4707)" fill="#727272" font-size="74" font-family="CoolveticaRg-Regular, Coolvetica"><tspan x="0" y="0">Microsoft</tspan></text>
      <text id="partner" transform="translate(148 4768)" fill="#727272" font-size="74" font-family="CoolveticaRg-Regular, Coolvetica"><tspan x="0" y="0">partner</tspan></text>
      <text id="of_the_year" data-name="of the year" transform="translate(397 4768)" fill="#727272" font-size="74" font-family="CoolveticaRg-Regular, Coolvetica"><tspan x="0" y="0">of the year</tspan></text>
      <text id="award_winner" data-name="award winner" transform="translate(148 4837)" fill="#727272" font-size="74" font-family="CoolveticaRg-Regular, Coolvetica"><tspan x="0" y="0">award winner</tspan></text>
    </g>
    <line id="Line_11" data-name="Line 11" y2="227" transform="translate(792.5 2642.5)" fill="none" stroke="#707070" stroke-width="1"/>
    <text id="_2015_2018" data-name="2015 &amp; 2018" transform="translate(554 2931)" fill="#727272" font-size="37" font-family="CoolveticaRg-Regular, Coolvetica"><tspan x="0" y="0">2015 &amp; 2018</tspan></text>
  </g>
</svg>
