<svg xmlns="http://www.w3.org/2000/svg" width="23.119" height="23.119" viewBox="0 0 23.119 23.119">
  <g id="phone" transform="translate(0)">
    <g id="Group_1551" data-name="Group 1551" transform="translate(0 0)">
      <g id="Group_1550" data-name="Group 1550" transform="translate(0 0)">
        <path id="Path_3415" data-name="Path 3415" d="M22.67,18.383l-2.563-1.709-2.278-1.519a1.009,1.009,0,0,0-1.355.22l-1.41,1.812a1,1,0,0,1-1.282.266A16.415,16.415,0,0,1,9.2,13.922,16.532,16.532,0,0,1,5.665,9.338a1,1,0,0,1,.266-1.282l1.812-1.41a1.009,1.009,0,0,0,.22-1.355L6.492,3.083,4.736.45A1.009,1.009,0,0,0,3.377.144L1.353,1.358A2.473,2.473,0,0,0,.23,2.812C-.324,4.83-.436,9.283,6.7,16.419s11.588,7.024,13.607,6.47a2.473,2.473,0,0,0,1.454-1.123l1.215-2.024A1.009,1.009,0,0,0,22.67,18.383Z" transform="translate(0 0)" fill="#fff"/>
        <path id="Path_3416" data-name="Path 3416" d="M282.881,62.589a6.784,6.784,0,0,1,6.776,6.776.4.4,0,1,0,.8,0,7.582,7.582,0,0,0-7.573-7.573.4.4,0,0,0,0,.8Z" transform="translate(-269.727 -59.002)" fill="#fff"/>
        <path id="Path_3417" data-name="Path 3417" d="M282.88,115.553a4.39,4.39,0,0,1,4.385,4.385.4.4,0,1,0,.8,0,5.188,5.188,0,0,0-5.182-5.182.4.4,0,1,0,0,.8Z" transform="translate(-269.726 -109.574)" fill="#fff"/>
        <path id="Path_3418" data-name="Path 3418" d="M282.881,168.52a2,2,0,0,1,1.993,1.993.4.4,0,0,0,.8,0,2.793,2.793,0,0,0-2.79-2.79.4.4,0,0,0,0,.8Z" transform="translate(-269.727 -160.15)" fill="#fff"/>
      </g>
    </g>
  </g>
</svg>
