<svg xmlns="http://www.w3.org/2000/svg" width="675.497" height="412.491" viewBox="0 0 675.497 412.491">
  <g id="Group_838" data-name="Group 838" transform="translate(-1060.315 -135.791)">
    <g id="Group_812" data-name="Group 812" transform="translate(1603.495 270.539)">
      <path id="Path_2678" data-name="Path 2678" d="M1073.275,121.33H973.952a12.94,12.94,0,0,0-12.939,12.939v60.954a12.939,12.939,0,0,0,12.939,12.939h44.613l-7.116,26.253h7.116l28.38-26.253h26.33a12.939,12.939,0,0,0,12.939-12.939V134.269A12.94,12.94,0,0,0,1073.275,121.33Z" transform="translate(-953.897 -121.33)" fill="#a9acd8"/>
      <path id="Path_2679" data-name="Path 2679" d="M1067.671,121.33H968.349a12.939,12.939,0,0,0-12.939,12.939v60.954a12.939,12.939,0,0,0,12.939,12.939h44.613v26.253l28.38-26.253h26.329a12.938,12.938,0,0,0,12.939-12.939V134.269A12.939,12.939,0,0,0,1067.671,121.33Z" transform="translate(-955.41 -121.33)" fill="#fff"/>
      <g id="Group_811" data-name="Group 811" transform="translate(20.689 29.017)">
        <path id="Path_2680" data-name="Path 2680" d="M985.32,150.437a4.869,4.869,0,0,0-4.251,2.231,10.776,10.776,0,0,0-1.526,6.153q0,8.152,6.2,8.152a12.691,12.691,0,0,0,3.632-.522,36.162,36.162,0,0,0,3.536-1.256v6.453a19.576,19.576,0,0,1-8,1.565q-6.393,0-9.8-3.71t-3.41-10.721a17.1,17.1,0,0,1,1.652-7.708,11.815,11.815,0,0,1,4.753-5.109,14.347,14.347,0,0,1,7.292-1.787,20.078,20.078,0,0,1,8.751,1.99l-2.337,6.007a26.281,26.281,0,0,0-3.129-1.236A10.93,10.93,0,0,0,985.32,150.437Z" transform="translate(-971.7 -144.178)" fill="#888cf0"/>
        <path id="Path_2681" data-name="Path 2681" d="M1005.042,172.741,999.266,152.4h-.174q.406,5.195.406,8.075v12.267h-6.762V144.5H1002.9l5.892,20.052h.155l5.776-20.052h10.18v28.244h-7.013V160.357q0-.966.029-2.144t.262-5.776h-.174l-5.7,20.3Z" transform="translate(-966.02 -144.092)" fill="#888cf0"/>
        <path id="Path_2682" data-name="Path 2682" d="M1041.6,164.249a8.324,8.324,0,0,1-1.333,4.665,8.717,8.717,0,0,1-3.844,3.169,14.251,14.251,0,0,1-5.892,1.13,23.837,23.837,0,0,1-4.734-.4,17.547,17.547,0,0,1-3.979-1.382v-6.8a22.757,22.757,0,0,0,4.54,1.749,16.938,16.938,0,0,0,4.327.627,4.2,4.2,0,0,0,2.492-.589,1.81,1.81,0,0,0,.792-1.516,1.669,1.669,0,0,0-.319-1.013,3.691,3.691,0,0,0-1.025-.879q-.7-.446-3.757-1.816a18,18,0,0,1-4.144-2.435,7.467,7.467,0,0,1-2.047-2.7,8.976,8.976,0,0,1-.667-3.613,7.238,7.238,0,0,1,2.84-6.085q2.84-2.183,7.8-2.183a21.9,21.9,0,0,1,8.945,2.028l-2.338,5.892a16.93,16.93,0,0,0-6.838-1.815,3.564,3.564,0,0,0-2.164.521,1.578,1.578,0,0,0-.676,1.294,1.869,1.869,0,0,0,.86,1.488,32.873,32.873,0,0,0,4.665,2.4,12.9,12.9,0,0,1,5.071,3.526A7.658,7.658,0,0,1,1041.6,164.249Z" transform="translate(-958.167 -144.178)" fill="#888cf0"/>
      </g>
    </g>
    <g id="Group_814" data-name="Group 814" transform="translate(1285.433 348.115)">
      <path id="Path_2683" data-name="Path 2683" d="M884.816,209.971H796.961a11.446,11.446,0,0,0-11.446,11.445v53.917a11.438,11.438,0,0,0,10.718,11.409l-6.3,21.471h6.3l23.173-21.435h65.41a11.444,11.444,0,0,0,11.445-11.444V221.416A11.446,11.446,0,0,0,884.816,209.971Z" transform="translate(-779.222 -209.971)" fill="#a9acd8"/>
      <path id="Path_2684" data-name="Path 2684" d="M879.86,209.971H792a11.445,11.445,0,0,0-11.444,11.445v53.917a11.438,11.438,0,0,0,10.716,11.409v21.471l23.173-21.435H879.86A11.443,11.443,0,0,0,891.3,275.334V221.416A11.445,11.445,0,0,0,879.86,209.971Z" transform="translate(-780.56 -209.971)" fill="#fff"/>
      <g id="Group_813" data-name="Group 813" transform="translate(16.81 18.025)">
        <path id="Path_2685" data-name="Path 2685" d="M810.622,231.9a6.013,6.013,0,0,0-5.25,2.757,13.309,13.309,0,0,0-1.886,7.6q0,10.072,7.662,10.073a15.7,15.7,0,0,0,4.487-.645A44.876,44.876,0,0,0,820,250.132V258.1a24.168,24.168,0,0,1-9.881,1.934q-7.9,0-12.114-4.583T793.8,242.207a21.138,21.138,0,0,1,2.041-9.523,14.589,14.589,0,0,1,5.871-6.312,17.732,17.732,0,0,1,9.01-2.209,24.806,24.806,0,0,1,10.812,2.459l-2.888,7.422a32.228,32.228,0,0,0-3.866-1.527A13.5,13.5,0,0,0,810.622,231.9Z" transform="translate(-793.796 -224.164)" fill="#888cf0"/>
        <path id="Path_2686" data-name="Path 2686" d="M827.049,244.206H818.17v-6.4h8.879V229.05h6.421v8.759h8.877v6.4H833.47v8.616h-6.421Z" transform="translate(-787.215 -222.845)" fill="#888cf0"/>
        <path id="Path_2687" data-name="Path 2687" d="M848.83,244.206h-8.879v-6.4h8.879V229.05h6.42v8.759h8.879v6.4H855.25v8.616h-6.42Z" transform="translate(-781.334 -222.845)" fill="#888cf0"/>
      </g>
    </g>
    <g id="Group_817" data-name="Group 817" transform="translate(1548.571 135.791)">
      <circle id="Ellipse_166" data-name="Ellipse 166" cx="35.215" cy="35.215" r="35.215" transform="translate(7.521)" fill="#7178c6"/>
      <circle id="Ellipse_167" data-name="Ellipse 167" cx="35.215" cy="35.215" r="35.215" fill="#888cf0"/>
      <g id="Group_816" data-name="Group 816" transform="translate(7.072 23.389)">
        <path id="Path_2688" data-name="Path 2688" d="M898.2,182.875a4,4,0,0,0-3.489,1.831,8.847,8.847,0,0,0-1.252,5.05q0,6.69,5.089,6.69a10.4,10.4,0,0,0,2.981-.428,29.645,29.645,0,0,0,2.9-1.031v5.3a16.06,16.06,0,0,1-6.563,1.284q-5.248,0-8.047-3.044t-2.8-8.8a14.051,14.051,0,0,1,1.355-6.326,9.706,9.706,0,0,1,3.9-4.194,11.78,11.78,0,0,1,5.986-1.466,16.493,16.493,0,0,1,7.182,1.632l-1.919,4.931a21.335,21.335,0,0,0-2.568-1.015A8.952,8.952,0,0,0,898.2,182.875Z" transform="translate(-887.023 -177.739)" fill="#fff"/>
        <path id="Path_2689" data-name="Path 2689" d="M919.674,194.211a6.836,6.836,0,0,1-1.095,3.828,7.163,7.163,0,0,1-3.155,2.6,11.691,11.691,0,0,1-4.835.927,19.523,19.523,0,0,1-3.885-.325,14.385,14.385,0,0,1-3.265-1.133v-5.582a18.578,18.578,0,0,0,3.725,1.435,13.855,13.855,0,0,0,3.551.516,3.449,3.449,0,0,0,2.046-.484,1.487,1.487,0,0,0,.65-1.245,1.373,1.373,0,0,0-.262-.832,3.053,3.053,0,0,0-.841-.721q-.579-.366-3.084-1.491a14.782,14.782,0,0,1-3.4-2,6.127,6.127,0,0,1-1.68-2.219,7.375,7.375,0,0,1-.547-2.965,5.943,5.943,0,0,1,2.331-4.994,10.28,10.28,0,0,1,6.406-1.791,17.974,17.974,0,0,1,7.341,1.664l-1.919,4.836a13.888,13.888,0,0,0-5.612-1.491,2.929,2.929,0,0,0-1.775.428,1.3,1.3,0,0,0-.555,1.063,1.534,1.534,0,0,0,.7,1.22,26.981,26.981,0,0,0,3.829,1.966,10.6,10.6,0,0,1,4.162,2.893A6.281,6.281,0,0,1,919.674,194.211Z" transform="translate(-882.591 -177.739)" fill="#fff"/>
        <path id="Path_2690" data-name="Path 2690" d="M934.429,194.211a6.827,6.827,0,0,1-1.095,3.828,7.164,7.164,0,0,1-3.155,2.6,11.691,11.691,0,0,1-4.835.927,19.534,19.534,0,0,1-3.885-.325,14.41,14.41,0,0,1-3.265-1.133v-5.582a18.574,18.574,0,0,0,3.725,1.435,13.862,13.862,0,0,0,3.552.516,3.447,3.447,0,0,0,2.045-.484,1.487,1.487,0,0,0,.65-1.245,1.371,1.371,0,0,0-.262-.832,3.037,3.037,0,0,0-.841-.721q-.577-.366-3.083-1.491a14.777,14.777,0,0,1-3.4-2,6.144,6.144,0,0,1-1.681-2.219,7.373,7.373,0,0,1-.546-2.965,5.94,5.94,0,0,1,2.331-4.994,10.274,10.274,0,0,1,6.4-1.791,17.97,17.97,0,0,1,7.341,1.664l-1.919,4.836a13.888,13.888,0,0,0-5.612-1.491,2.93,2.93,0,0,0-1.776.428,1.3,1.3,0,0,0-.555,1.063,1.531,1.531,0,0,0,.706,1.22,26.848,26.848,0,0,0,3.828,1.966,10.584,10.584,0,0,1,4.162,2.893A6.28,6.28,0,0,1,934.429,194.211Z" transform="translate(-878.606 -177.739)" fill="#fff"/>
      </g>
    </g>
    <g id="Group_820" data-name="Group 820" transform="translate(1060.315 303.213)">
      <g id="Group_818" data-name="Group 818">
        <path id="Path_2691" data-name="Path 2691" d="M763.426,252.76a47.419,47.419,0,1,0-29.279,43.829l5.785,13.653H747.8v-22.3A47.315,47.315,0,0,0,763.426,252.76Z" transform="translate(-660.685 -205.324)" fill="#7178c6"/>
        <path id="Path_2692" data-name="Path 2692" d="M757.231,252.76a47.419,47.419,0,1,0-29.279,43.829L741.6,310.243v-22.3A47.311,47.311,0,0,0,757.231,252.76Z" transform="translate(-662.358 -205.324)" fill="#888cf0"/>
      </g>
      <g id="Group_819" data-name="Group 819" transform="translate(25.391 20.987)">
        <path id="Path_2693" data-name="Path 2693" d="M687.619,271.225a24.866,24.866,0,0,1-5.268-.54v-7.891q.821.154,1.747.347a9.847,9.847,0,0,0,2,.193,4.112,4.112,0,0,0,3.6-1.516q1.078-1.516,1.079-5.192V221.849h10.2v33.9q0,7.635-3.341,11.555T687.619,271.225Z" transform="translate(-682.351 -221.849)" fill="#fff"/>
        <path id="Path_2694" data-name="Path 2694" d="M725.531,248.794a8.279,8.279,0,0,1-3.186,7.068q-3.187,2.391-9.15,2.39a39.8,39.8,0,0,1-5.63-.347,23.9,23.9,0,0,1-4.883-1.273v-8.044a30.242,30.242,0,0,0,5.128,1.7,21.6,21.6,0,0,0,4.973.669q3.263,0,3.264-1.491a1.685,1.685,0,0,0-.912-1.375,41.733,41.733,0,0,0-5.309-2.352,13.226,13.226,0,0,1-5.6-3.74,8.517,8.517,0,0,1-1.593-5.307,7.349,7.349,0,0,1,3.136-6.322q3.136-2.263,8.867-2.262a22.4,22.4,0,0,1,5.41.629,32.231,32.231,0,0,1,5.256,1.838l-2.724,6.478a30.608,30.608,0,0,0-4.242-1.53,14.121,14.121,0,0,0-3.65-.629q-2.467,0-2.466,1.208a1.507,1.507,0,0,0,.861,1.273,46.591,46.591,0,0,0,4.973,2.145,19.155,19.155,0,0,1,4.562,2.468,7.4,7.4,0,0,1,2.211,2.841A9.982,9.982,0,0,1,725.531,248.794Z" transform="translate(-676.875 -220.16)" fill="#fff"/>
      </g>
    </g>
    <g id="Group_824" data-name="Group 824" transform="translate(1169.365 183.088)">
      <g id="Group_822" data-name="Group 822">
        <path id="Path_2695" data-name="Path 2695" d="M794.615,109.164H724.657a9.92,9.92,0,0,0-9.92,9.92v69.958a9.92,9.92,0,0,0,9.92,9.92H765.79l16.092,19.416h6.472V198.962h6.26a9.92,9.92,0,0,0,9.92-9.92V119.084A9.92,9.92,0,0,0,794.615,109.164Z" transform="translate(-708.265 -109.164)" fill="#2e2e59"/>
        <path id="Path_2696" data-name="Path 2696" d="M789.519,109.164H719.561a9.92,9.92,0,0,0-9.92,9.92v69.958a9.92,9.92,0,0,0,9.92,9.92h41.133l22.564,19.416V198.962h6.26a9.92,9.92,0,0,0,9.92-9.92V119.084A9.92,9.92,0,0,0,789.519,109.164Z" transform="translate(-709.641 -109.164)" fill="#414074"/>
      </g>
      <g id="Group_823" data-name="Group 823" transform="translate(12.304 26.305)">
        <path id="Path_2697" data-name="Path 2697" d="M742.545,158.974l-23.216-10.311v-3.95l23.216-11.619v6.82l-14.238,6.5,14.238,5.787Z" transform="translate(-719.329 -129.007)" fill="#fff"/>
        <path id="Path_2698" data-name="Path 2698" d="M759.624,129.876,747.109,164.39h-7.945l12.515-34.514Z" transform="translate(-713.973 -129.876)" fill="#fff"/>
        <path id="Path_2699" data-name="Path 2699" d="M756.648,152.2l14.238-5.787-14.238-6.5v-6.82l23.216,11.619v3.95l-23.216,10.311Z" transform="translate(-709.252 -129.007)" fill="#fff"/>
      </g>
    </g>
    <g id="Group_827" data-name="Group 827" transform="translate(1635.553 476.478)">
      <g id="Group_825" data-name="Group 825">
        <path id="Path_2700" data-name="Path 2700" d="M1072.02,269.312h-61.677a8.746,8.746,0,0,0-8.746,8.747v36.932a8.746,8.746,0,0,0,8.746,8.745l-3.759,17.379h6.6l18.787-17.379h40.05a8.746,8.746,0,0,0,8.747-8.745V278.059A8.746,8.746,0,0,0,1072.02,269.312Z" transform="translate(-994.997 -269.312)" fill="#2e2e59"/>
        <path id="Path_2701" data-name="Path 2701" d="M1066.825,269.312h-61.678a8.747,8.747,0,0,0-8.746,8.747v36.932a8.746,8.746,0,0,0,8.746,8.745h2.84v17.379l18.787-17.379h40.051a8.745,8.745,0,0,0,8.745-8.745V278.059A8.746,8.746,0,0,0,1066.825,269.312Z" transform="translate(-996.4 -269.312)" fill="#414074"/>
      </g>
      <g id="Group_826" data-name="Group 826" transform="translate(12.545 20.201)">
        <path id="Path_2702" data-name="Path 2702" d="M1019.506,301.991h-2.753v-7.56h-7.733v7.56h-2.742V285.218h2.742v6.861h7.733v-6.861h2.753Z" transform="translate(-1006.278 -285.218)" fill="#fff"/>
        <path id="Path_2703" data-name="Path 2703" d="M1026.366,301.991h-2.742V287.57h-4.933v-2.352H1031.3v2.352h-4.934Z" transform="translate(-1002.926 -285.218)" fill="#fff"/>
        <path id="Path_2704" data-name="Path 2704" d="M1037.894,301.991l-4.864-14.008h-.093q.2,3.12.2,5.851v8.157h-2.489V285.218h3.866l4.658,13.343h.069l4.8-13.343h3.879v16.773h-2.639V293.7q0-1.252.064-3.259t.109-2.432h-.093l-5.037,13.985Z" transform="translate(-999.699 -285.218)" fill="#fff"/>
        <path id="Path_2705" data-name="Path 2705" d="M1047.717,301.991V285.218h2.742v14.421h7.1v2.352Z" transform="translate(-995.089 -285.218)" fill="#fff"/>
      </g>
    </g>
    <g id="Group_830" data-name="Group 830" transform="translate(1188.572 490.737)">
      <circle id="Ellipse_168" data-name="Ellipse 168" cx="23.669" cy="23.669" r="23.669" transform="translate(4.304 11.292) rotate(-13.801)" fill="#d8a159"/>
      <circle id="Ellipse_169" data-name="Ellipse 169" cx="23.669" cy="23.669" r="23.669" transform="matrix(0.973, -0.232, 0.232, 0.973, 0, 11.088)" fill="#ffc979"/>
      <g id="Group_829" data-name="Group 829" transform="translate(21.512 13.378)">
        <path id="Path_2706" data-name="Path 2706" d="M693.672,323.908a25.325,25.325,0,0,1,1.266-8.107,20.133,20.133,0,0,1,3.653-6.618h3.35a23.388,23.388,0,0,0-3.481,6.889,25.668,25.668,0,0,0-1.209,7.8,24.969,24.969,0,0,0,1.209,7.729,23.342,23.342,0,0,0,3.448,6.767h-3.317a19.26,19.26,0,0,1-3.66-6.489A24.647,24.647,0,0,1,693.672,323.908Z" transform="translate(-693.672 -309.183)" fill="#414074"/>
        <path id="Path_2707" data-name="Path 2707" d="M702.68,315.923a2.159,2.159,0,0,1,2.418-2.468,2.377,2.377,0,0,1,1.83.654,2.571,2.571,0,0,1,.6,1.814,2.6,2.6,0,0,1-.629,1.839,2.744,2.744,0,0,1-3.6.008A2.6,2.6,0,0,1,702.68,315.923Zm0,13.956a2.509,2.509,0,0,1,.621-1.83,2.833,2.833,0,0,1,3.611.024,2.536,2.536,0,0,1,.621,1.806,2.6,2.6,0,0,1-.629,1.839,2.744,2.744,0,0,1-3.6.008A2.6,2.6,0,0,1,702.68,329.879Z" transform="translate(-691.24 -308.03)" fill="#414074"/>
      </g>
    </g>
    <g id="Group_832" data-name="Group 832" transform="translate(1473.984 385.65)">
      <path id="Path_2708" data-name="Path 2708" d="M995.771,260.738a37.749,37.749,0,1,0-42.562,37.432l5.07,16.118h5.889l5.08-17.5A37.764,37.764,0,0,0,995.771,260.738Z" transform="translate(-914.386 -222.991)" fill="#d8a159"/>
      <path id="Path_2709" data-name="Path 2709" d="M991.134,260.738a37.748,37.748,0,1,0-42.562,37.432l10.959,16.118,5.08-17.5A37.764,37.764,0,0,0,991.134,260.738Z" transform="translate(-915.638 -222.991)" fill="#ffc979"/>
      <g id="Group_831" data-name="Group 831" transform="translate(13.804 26.503)">
        <path id="Path_2710" data-name="Path 2710" d="M940.882,250.16a6.631,6.631,0,0,1-1.958,5.128,7.893,7.893,0,0,1-5.561,1.809h-1.5v6.572h-5.352v-19.81h6.855q3.753,0,5.636,1.64A5.847,5.847,0,0,1,940.882,250.16Zm-9.024,2.574h.975a2.665,2.665,0,0,0,1.916-.677,2.458,2.458,0,0,0,.711-1.871q0-2-2.221-2.005h-1.382Z" transform="translate(-926.507 -243.859)" fill="#414074"/>
        <path id="Path_2711" data-name="Path 2711" d="M957.288,263.669H951.91v-8.076H945.69v8.076h-5.378v-19.81h5.378V251.2h6.219v-7.343h5.379Z" transform="translate(-922.779 -243.859)" fill="#414074"/>
        <path id="Path_2712" data-name="Path 2712" d="M971.426,250.16a6.631,6.631,0,0,1-1.958,5.128,7.892,7.892,0,0,1-5.561,1.809h-1.5v6.572h-5.352v-19.81h6.856q3.753,0,5.636,1.64A5.847,5.847,0,0,1,971.426,250.16Zm-9.023,2.574h.975a2.665,2.665,0,0,0,1.916-.677,2.458,2.458,0,0,0,.711-1.871q0-2-2.221-2.005H962.4Z" transform="translate(-918.26 -243.859)" fill="#414074"/>
      </g>
    </g>
    <g id="Group_837" data-name="Group 837" transform="translate(1361.494 191.008)">
      <path id="Path_2713" data-name="Path 2713" d="M855.692,135.872H812.818a6.079,6.079,0,0,0-6.08,6.08v42.874a6.08,6.08,0,0,0,6.08,6.08h21.41l11.7,15.544h6.188V190.906h3.575a6.081,6.081,0,0,0,6.08-6.08V141.952A6.08,6.08,0,0,0,855.692,135.872Z" transform="translate(-800.552 -135.872)" fill="#d8a159"/>
      <path id="Path_2714" data-name="Path 2714" d="M850.82,135.872H807.947a6.079,6.079,0,0,0-6.08,6.08v42.874a6.08,6.08,0,0,0,6.08,6.08h21.41l17.888,15.544V190.906h3.575a6.081,6.081,0,0,0,6.081-6.08V141.952A6.08,6.08,0,0,0,850.82,135.872Z" transform="translate(-801.867 -135.872)" fill="#ffc979"/>
      <g id="Group_836" data-name="Group 836" transform="translate(8.259 8.29)">
        <g id="Group_833" data-name="Group 833" transform="translate(23.977 23.977)">
          <path id="Path_2715" data-name="Path 2715" d="M841.962,171.359a3.274,3.274,0,0,1,0,4.633h0a3.277,3.277,0,0,1-4.633,0l-9.12-9.12a3.277,3.277,0,0,1,0-4.633h0a3.274,3.274,0,0,1,4.633,0Z" transform="translate(-827.25 -161.279)" fill="#414074"/>
        </g>
        <g id="Group_834" data-name="Group 834">
          <path id="Path_2716" data-name="Path 2716" d="M830.241,164.27a12.815,12.815,0,1,1,0-18.123A12.829,12.829,0,0,1,830.241,164.27Zm-16.08-16.078a9.924,9.924,0,1,0,14.035,0A9.935,9.935,0,0,0,814.161,148.191Z" transform="translate(-808.37 -142.4)" fill="#414074"/>
        </g>
        <g id="Group_835" data-name="Group 835" transform="translate(19.827 19.827)">
          <rect id="Rectangle_168" data-name="Rectangle 168" width="2.891" height="14.055" transform="translate(0 2.044) rotate(-45)" fill="#414074"/>
        </g>
      </g>
    </g>
  </g>
</svg>
