<svg xmlns="http://www.w3.org/2000/svg" width="114.304" height="204.103" viewBox="0 0 114.304 204.103">
  <g id="Group_41" data-name="Group 41" transform="translate(-703 -1739.896)">
    <path id="Path_125" data-name="Path 125" d="M54.69,177.122a35.1,35.1,0,0,0,3.655,49.485c23.865,20.584,60.7,1.486,57.854-29.755a2.716,2.716,0,0,0-5.409.493,29.629,29.629,0,0,1-7.679,22.736,21.93,21.93,0,0,0-7.622-17.461,17.82,17.82,0,1,0-28.455,0,21.718,21.718,0,0,0-7.625,16.549v.916C42.15,201.355,55.3,170.384,81.274,170.384a29.683,29.683,0,0,1,26.99,17.382,2.716,2.716,0,1,0,4.946-2.243c-10.463-23.067-41.675-27.929-58.52-8.4Zm16.473,29.137a4.41,4.41,0,0,0,.674-6.327,12.386,12.386,0,1,1,18.85-.006,4.407,4.407,0,0,0,.667,6.325,16.337,16.337,0,0,1,6.327,12.921v5.555a29.663,29.663,0,0,1-32.84,0c.416-2.764-1.988-11.948,6.322-18.472Zm0,0" transform="translate(678.892 1645.213)" fill="#fff"/>
    <path id="Path_126" data-name="Path 126" d="M117.065,417.376a2.715,2.715,0,0,0-2.716-2.716H51.5a2.716,2.716,0,1,0,0,5.431h62.852A2.715,2.715,0,0,0,117.065,417.376Zm0,0" transform="translate(677.23 1485.646)" fill="#fff"/>
    <path id="Path_127" data-name="Path 127" d="M80.147,453.785a2.716,2.716,0,1,0,0,5.431h42.168a2.716,2.716,0,0,0,0-5.431Zm0,0" transform="translate(658.922 1460.644)" fill="#fff"/>
    <path id="Path_128" data-name="Path 128" d="M114.35,375.2H51.5a2.716,2.716,0,0,0,0,5.433H114.35a2.716,2.716,0,0,0,0-5.433Zm0,0" transform="translate(677.23 1510.864)" fill="#fff"/>
    <path id="Path_129" data-name="Path 129" d="M95.084,30.8H71.217V24.636a3,3,0,1,0-6,0V30.8H49.088V6H65.219v6.64a3,3,0,1,0,6,0V3.832A3.837,3.837,0,0,0,67.385,0H46.922a3.837,3.837,0,0,0-3.832,3.832V30.8H19.221A19.242,19.242,0,0,0,0,50.02V184.872a19.228,19.228,0,0,0,4.323,12.115,3,3,0,0,0,4.65-3.79A13.229,13.229,0,0,1,6,184.872V50.02A13.237,13.237,0,0,1,19.221,36.8H95.084A13.237,13.237,0,0,1,108.306,50.02V184.872a13.236,13.236,0,0,1-13.222,13.221c-80.257-.05-76.033.123-77.816-.143a3,3,0,1,0-.888,5.931c2.557.383-1.229.139,78.7.212a19.242,19.242,0,0,0,19.22-19.22V50.02A19.242,19.242,0,0,0,95.084,30.8Zm0,0" transform="translate(703 1739.896)" fill="#fff"/>
    <path id="Path_130" data-name="Path 130" d="M135.509,111.188a10.2,10.2,0,1,0-10.2,10.2A10.211,10.211,0,0,0,135.509,111.188Zm-14.967,0a4.768,4.768,0,1,1,4.767,4.769A4.772,4.772,0,0,1,120.542,111.188Zm0,0" transform="translate(634.843 1686.097)" fill="#fff"/>
  </g>
</svg>
