<svg xmlns="http://www.w3.org/2000/svg" xmlns:xlink="http://www.w3.org/1999/xlink" width="336.415" height="314.981" viewBox="0 0 336.415 314.981">
  <defs>
    <radialGradient id="radial-gradient" cx="-0.095" cy="0.312" r="0.861" gradientTransform="translate(-0.366) scale(1.732 1)" gradientUnits="objectBoundingBox">
      <stop offset="0" stop-color="#274f89"/>
      <stop offset="1" stop-color="#173d7a"/>
    </radialGradient>
    <linearGradient id="linear-gradient" y1="0.5" x2="1.319" y2="0.5" gradientUnits="objectBoundingBox">
      <stop offset="0" stop-color="#d4ecff"/>
      <stop offset="0.239" stop-color="#d0e9fd"/>
      <stop offset="0.46" stop-color="#c5e2f9"/>
      <stop offset="0.675" stop-color="#b2d5f1"/>
      <stop offset="0.884" stop-color="#98c4e7"/>
      <stop offset="1" stop-color="#86b8e0"/>
    </linearGradient>
    <radialGradient id="radial-gradient-2" cx="-1.237" cy="-0.578" r="1.555" gradientTransform="translate(-0.366) scale(1.732 1)" gradientUnits="objectBoundingBox">
      <stop offset="0" stop-color="#699dd1"/>
      <stop offset="0.266" stop-color="#6296cb"/>
      <stop offset="0.641" stop-color="#5084bd"/>
      <stop offset="1" stop-color="#396caa"/>
    </radialGradient>
    <radialGradient id="radial-gradient-3" cx="-0.095" cy="0.312" r="0.861" xlink:href="#radial-gradient"/>
    <radialGradient id="radial-gradient-4" cx="-1.237" cy="-0.578" r="1.555" xlink:href="#radial-gradient-2"/>
    <radialGradient id="radial-gradient-5" cx="-0.095" cy="0.312" r="0.861" xlink:href="#radial-gradient"/>
    <radialGradient id="radial-gradient-6" cx="-1.237" cy="-0.578" r="1.555" xlink:href="#radial-gradient-2"/>
    <radialGradient id="radial-gradient-7" cx="-0.095" cy="0.312" r="0.861" xlink:href="#radial-gradient"/>
    <radialGradient id="radial-gradient-8" cx="-1.237" cy="-0.578" r="1.555" xlink:href="#radial-gradient-2"/>
    <radialGradient id="radial-gradient-9" cx="0.234" cy="0.38" r="0.644" gradientTransform="translate(-0.287) scale(1.574 1)" gradientUnits="objectBoundingBox">
      <stop offset="0" stop-color="#396caa"/>
      <stop offset="1" stop-color="#274f89"/>
    </radialGradient>
    <linearGradient id="linear-gradient-5" x1="0.029" y1="0.235" x2="0.883" y2="0.916" xlink:href="#linear-gradient"/>
    <linearGradient id="linear-gradient-6" x1="-5.118" y1="7.146" x2="-3.992" y2="7.058" gradientUnits="objectBoundingBox">
      <stop offset="0" stop-color="#3919bb"/>
      <stop offset="1" stop-color="#6507fa"/>
    </linearGradient>
    <radialGradient id="radial-gradient-10" cx="0.055" cy="0.064" r="1.056" gradientTransform="translate(-0.02) scale(1.039 1)" xlink:href="#radial-gradient-2"/>
    <linearGradient id="linear-gradient-8" x1="0.131" y1="0.119" x2="0.99" y2="1.006" gradientUnits="objectBoundingBox">
      <stop offset="0" stop-color="#d4ecff"/>
      <stop offset="0.201" stop-color="#d0e9fd"/>
      <stop offset="0.387" stop-color="#c5e2f9"/>
      <stop offset="0.568" stop-color="#b2d5f1"/>
      <stop offset="0.744" stop-color="#98c4e7"/>
      <stop offset="0.842" stop-color="#86b8e0"/>
    </linearGradient>
    <radialGradient id="radial-gradient-11" cx="0.055" cy="0.064" r="1.056" gradientTransform="translate(-0.02) scale(1.039 1)" xlink:href="#radial-gradient-2"/>
  </defs>
  <g id="Group_52" data-name="Group 52" transform="translate(-222.876 -46.426)">
    <g id="Group_18" data-name="Group 18">
      <g id="Group_17" data-name="Group 17">
        <path id="Path_21" data-name="Path 21" d="M264.613,347.848l-22.591-13.043,22.59-13.042L287.2,334.806Z" fill="#7dc3ea"/>
        <path id="Path_22" data-name="Path 22" d="M264.613,339.772a1.714,1.714,0,0,1-.858-.23L241.164,326.5a1.717,1.717,0,0,1,0-2.975l22.59-13.042a1.714,1.714,0,0,1,1.716,0l22.591,13.042a1.716,1.716,0,0,1,0,2.975l-22.59,13.043A1.714,1.714,0,0,1,264.613,339.772Zm-19.156-14.761,19.156,11.06,19.155-11.06-19.156-11.058Z" fill="#fff"/>
        <path id="Path_23" data-name="Path 23" d="M287.2,314.82l-22.59,13.042V301.779l22.59-13.042Z" fill="url(#radial-gradient)"/>
        <path id="Path_24" data-name="Path 24" d="M264.613,301.779l-22.59-13.042,22.589-13.042,22.59,13.042Z" fill="url(#linear-gradient)"/>
        <path id="Path_25" data-name="Path 25" d="M264.613,327.863l-22.59-13.042V288.737l22.59,13.042Z" fill="url(#radial-gradient-2)"/>
      </g>
      <path id="Path_26" data-name="Path 26" d="M256.477,313.771l-6.318-3.648v-7.3l6.318,3.648Z" fill="#fff"/>
    </g>
    <g id="Group_20" data-name="Group 20">
      <g id="Group_19" data-name="Group 19">
        <path id="Path_27" data-name="Path 27" d="M517.555,207.352l-22.591-13.043,22.59-13.042,22.591,13.043Z" fill="#7dc3ea"/>
        <path id="Path_28" data-name="Path 28" d="M517.555,199.275a1.721,1.721,0,0,1-.859-.23L494.105,186a1.717,1.717,0,0,1,0-2.975l22.59-13.042a1.716,1.716,0,0,1,1.717,0L541,183.028A1.717,1.717,0,0,1,541,186l-22.59,13.042A1.72,1.72,0,0,1,517.555,199.275ZM498.4,184.515l19.156,11.059,19.154-11.059-19.155-11.058Z" fill="#fff"/>
        <path id="Path_29" data-name="Path 29" d="M540.145,174.324l-22.59,13.042V161.283l22.59-13.042Z" fill="url(#radial-gradient-3)"/>
        <path id="Path_30" data-name="Path 30" d="M517.555,161.283l-22.59-13.042L517.554,135.2l22.59,13.042Z" fill="url(#linear-gradient)"/>
        <path id="Path_31" data-name="Path 31" d="M517.555,187.367l-22.59-13.042V148.24l22.59,13.042Z" fill="url(#radial-gradient-4)"/>
      </g>
      <path id="Path_32" data-name="Path 32" d="M509.419,173.275l-6.318-3.648v-7.3l6.318,3.648Z" fill="#fff"/>
      <path id="Path_33" data-name="Path 33" d="M511.237,148.316l6.274-3.723,6.361,3.572-6.274,3.723Z" fill="#fff"/>
    </g>
    <g id="Group_22" data-name="Group 22">
      <g id="Group_21" data-name="Group 21">
        <path id="Path_34" data-name="Path 34" d="M517.554,347.848l-22.591-13.043,22.59-13.042,22.591,13.043Z" fill="#7dc3ea"/>
        <path id="Path_35" data-name="Path 35" d="M517.555,339.772a1.721,1.721,0,0,1-.859-.23L494.105,326.5a1.717,1.717,0,0,1,0-2.975l22.59-13.042a1.716,1.716,0,0,1,1.717,0L541,323.524a1.717,1.717,0,0,1,0,2.975l-22.59,13.043A1.72,1.72,0,0,1,517.555,339.772ZM498.4,325.011l19.157,11.06,19.155-11.06-19.156-11.058Z" fill="#fff"/>
        <path id="Path_36" data-name="Path 36" d="M540.144,314.82l-22.59,13.042V301.779l22.59-13.042Z" fill="url(#radial-gradient-5)"/>
        <path id="Path_37" data-name="Path 37" d="M517.554,301.779l-22.59-13.042,22.589-13.042,22.59,13.042Z" fill="url(#linear-gradient)"/>
        <path id="Path_38" data-name="Path 38" d="M517.554,327.863l-22.59-13.042V288.737l22.59,13.042Z" fill="url(#radial-gradient-6)"/>
      </g>
      <path id="Path_39" data-name="Path 39" d="M509.418,313.771l-6.318-3.648v-7.3l6.318,3.648Z" fill="#fff"/>
    </g>
    <g id="Group_24" data-name="Group 24">
      <g id="Group_23" data-name="Group 23">
        <path id="Path_40" data-name="Path 40" d="M264.613,207.352l-22.591-13.043,22.59-13.042L287.2,194.31Z" fill="#7dc3ea"/>
        <path id="Path_41" data-name="Path 41" d="M264.613,199.275a1.714,1.714,0,0,1-.858-.23L241.164,186a1.717,1.717,0,0,1,0-2.975l22.59-13.042a1.714,1.714,0,0,1,1.716,0l22.591,13.042a1.716,1.716,0,0,1,0,2.975l-22.59,13.042A1.715,1.715,0,0,1,264.613,199.275Zm-19.155-14.76,19.155,11.059,19.154-11.059-19.155-11.058Z" fill="#fff"/>
        <path id="Path_42" data-name="Path 42" d="M287.2,174.324l-22.59,13.042V161.283L287.2,148.24Z" fill="url(#radial-gradient-7)"/>
        <path id="Path_43" data-name="Path 43" d="M264.613,161.283l-22.59-13.042L264.612,135.2l22.59,13.042Z" fill="url(#linear-gradient)"/>
        <path id="Path_44" data-name="Path 44" d="M264.613,187.367l-22.59-13.042V148.24l22.59,13.042Z" fill="url(#radial-gradient-8)"/>
      </g>
      <path id="Path_45" data-name="Path 45" d="M256.477,173.275l-6.318-3.648v-7.3l6.318,3.648Z" fill="#fff"/>
    </g>
    <g id="Group_42" data-name="Group 42">
      <path id="Path_46" data-name="Path 46" d="M385.752,299.475l-57.936-33.449c-2.123-1.226-1.856-3.367.6-4.782L389.817,225.7c2.452-1.416,6.161-1.569,8.284-.344l57.936,33.45c2.123,1.226,1.857,3.367-.6,4.782l-61.406,35.545C391.584,300.547,387.876,300.7,385.752,299.475Z" fill="#7dc3ea"/>
      <path id="Path_47" data-name="Path 47" d="M389.358,288.485a9.07,9.07,0,0,1-4.464-1.05l-57.936-33.449a4.167,4.167,0,0,1-2.292-3.565,5.057,5.057,0,0,1,2.885-4.193l61.406-35.543c2.972-1.717,7.364-1.868,10-.345l57.936,33.45a4.162,4.162,0,0,1,2.292,3.564,5.049,5.049,0,0,1-2.886,4.192L394.9,287.09A11.316,11.316,0,0,1,389.358,288.485Zm-2.747-4.024c1.591.918,4.659.757,6.566-.344l61.4-35.544c.859-.5,1.171-1,1.171-1.219,0-.129-.178-.36-.574-.59l-57.937-33.449c-1.591-.919-4.659-.758-6.566.344l-61.4,35.543c-.859.5-1.171,1-1.171,1.219,0,.128.178.361.576.59Z" fill="#fff"/>
      <g id="Group_41" data-name="Group 41">
        <g id="Group_40" data-name="Group 40">
          <g id="Group_35" data-name="Group 35">
            <g id="Group_27" data-name="Group 27">
              <g id="Group_26" data-name="Group 26">
                <g id="Group_25" data-name="Group 25">
                  <path id="Path_48" data-name="Path 48" d="M389.934,123.408s-31.808,3.03-50.965,4.5l50.812,144.713,67.211-38.765.032-.019.12-.069,0-.005a3.744,3.744,0,0,0,1.373-3.318V89a10.251,10.251,0,0,0-1.167-4.515Z" fill="url(#radial-gradient-9)"/>
                  <path id="Path_49" data-name="Path 49" d="M454.353,81.049,395.245,46.923a2.672,2.672,0,0,0-2.692-.232h0L325.072,85.621l3.179,11.766,16.92,48.188,3.185,1.838,109-62.928A8.331,8.331,0,0,0,454.353,81.049Z" fill="url(#linear-gradient-5)"/>
                  <path id="Path_50" data-name="Path 50" d="M386.921,272.492l-59.107-34.126c-2.3-1.327-4.162-4.887-4.162-7.952V88.968c0-3.064,1.863-4.473,4.162-3.146l59.107,34.126c2.3,1.327,4.162,4.887,4.162,7.952V269.345C391.083,272.41,389.22,273.819,386.921,272.492Z" fill="#5793ce"/>
                  <path id="Path_51" data-name="Path 51" d="M388.188,119.237,329.081,85.111a2.457,2.457,0,0,0-3.274.241,3.078,3.078,0,0,1,2.007.47l59.107,34.126c2.3,1.327,4.162,4.887,4.162,7.952V269.345a4.319,4.319,0,0,1-.888,2.906c1.285-.2,2.155-1.522,2.155-3.616V127.189C392.35,124.124,390.487,120.564,388.188,119.237Z" fill="#fff"/>
                  <path id="Path_52" data-name="Path 52" d="M383.2,263.977l-51.671-29.832c-2.009-1.161-3.638-4.273-3.638-6.952V95.83c0-2.679,1.629-3.911,3.638-2.751L383.2,122.911c2.009,1.161,3.638,4.273,3.638,6.952V261.226C386.841,263.9,385.212,265.137,383.2,263.977Z" fill="url(#linear-gradient-6)"/>
                  <path id="Path_53" data-name="Path 53" d="M383.2,263.977l-51.671-29.832c-2.009-1.161-3.638-4.273-3.638-6.952V95.83c0-2.679,1.629-3.911,3.638-2.751L383.2,122.911c2.009,1.161,3.638,4.273,3.638,6.952V261.226C386.841,263.9,385.212,265.137,383.2,263.977Z" fill="url(#linear-gradient-6)"/>
                  <path id="Path_54" data-name="Path 54" d="M383.2,263.977l-51.671-29.832c-2.009-1.161-3.638-4.273-3.638-6.952V95.83c0-2.679,1.629-3.911,3.638-2.751L383.2,122.911c2.009,1.161,3.638,4.273,3.638,6.952V261.226C386.841,263.9,385.212,265.137,383.2,263.977Z" fill="#173d7a"/>
                  <path id="Path_55" data-name="Path 55" d="M384.891,262.984,333.22,233.151c-2.009-1.16-3.638-4.272-3.638-6.951V94.837a4.2,4.2,0,0,1,.522-2.193c-1.3-.01-2.21,1.183-2.21,3.186V227.193c0,2.679,1.629,5.791,3.638,6.952L383.2,263.977c1.324.764,2.48.485,3.116-.558A2.93,2.93,0,0,1,384.891,262.984Z" fill="#396caa"/>
                </g>
              </g>
            </g>
            <g id="Group_29" data-name="Group 29">
              <g id="Group_28" data-name="Group 28">
                <path id="Path_56" data-name="Path 56" d="M383.2,203.666,364,192.578l-30.631,17.685,53.474,30.873V210.618C386.841,207.939,385.212,204.826,383.2,203.666Z" fill="#173d7a"/>
                <path id="Path_57" data-name="Path 57" d="M383.2,176.748,364,165.66l-30.631,17.685,53.474,30.873V183.7C386.841,181.021,385.212,177.908,383.2,176.748Z" fill="#173d7a"/>
                <path id="Path_58" data-name="Path 58" d="M383.2,149.83,364,138.741l-30.631,17.685L386.841,187.3V156.782C386.841,154.1,385.212,150.99,383.2,149.83Z" fill="#173d7a"/>
                <path id="Path_59" data-name="Path 59" d="M383.2,122.911,364,111.823l-30.631,17.685,53.474,30.874V129.864C386.841,127.184,385.212,124.071,383.2,122.911Z" fill="#173d7a"/>
                <path id="Path_60" data-name="Path 60" d="M383.2,122.911,340.685,98.364l-7.318,4.225,53.474,30.874v-3.6C386.841,127.184,385.212,124.071,383.2,122.911Z" fill="#173d7a"/>
              </g>
              <path id="Path_61" data-name="Path 61" d="M386.841,133.463l-53.475-30.874V119.6l53.475,30.873Z" fill="#5793ce"/>
              <path id="Path_62" data-name="Path 62" d="M386.841,160.381l-53.475-30.874v17.014l53.475,30.874Z" fill="#5793ce"/>
              <path id="Path_63" data-name="Path 63" d="M386.841,187.3l-53.475-30.874V173.44l53.475,30.873Z" fill="#5793ce"/>
              <path id="Path_64" data-name="Path 64" d="M386.841,214.218l-53.475-30.874v17.014l53.475,30.873Z" fill="#5793ce"/>
              <path id="Path_65" data-name="Path 65" d="M386.841,241.136l-53.475-30.874v17.014l53.475,30.874Z" fill="#5793ce"/>
            </g>
            <g id="Group_30" data-name="Group 30">
              <path id="Path_66" data-name="Path 66" d="M382.125,144.414l-40.277-23.255a4.931,4.931,0,0,1-2.059-3.934v-4.556c0-1.516.922-2.213,2.059-1.557l40.277,23.254a4.933,4.933,0,0,1,2.059,3.935v4.556C384.184,144.373,383.262,145.07,382.125,144.414Z" fill="#173d7a"/>
              <path id="Path_67" data-name="Path 67" d="M343.883,120.287a4.932,4.932,0,0,1-2.059-3.934V111.8a2.917,2.917,0,0,1,.076-.655l-.052-.03c-1.137-.656-2.059.04-2.059,1.557v4.556a4.931,4.931,0,0,0,2.059,3.934l40.277,23.254a1.233,1.233,0,0,0,1.984-.9Z" fill="#06033e" opacity="0.3"/>
              <path id="Path_68" data-name="Path 68" d="M369.486,131.925l-24.237-13.993a1.736,1.736,0,0,1-.725-1.384h0c0-.533.325-.779.725-.548l24.237,13.994a1.734,1.734,0,0,1,.724,1.384h0C370.21,131.911,369.886,132.156,369.486,131.925Z" fill="#fff"/>
            </g>
            <g id="Group_31" data-name="Group 31">
              <path id="Path_69" data-name="Path 69" d="M382.125,171.166l-40.277-23.255a4.931,4.931,0,0,1-2.059-3.934v-4.556c0-1.516.922-2.213,2.059-1.557l40.277,23.254a4.933,4.933,0,0,1,2.059,3.935v4.556C384.184,171.125,383.262,171.822,382.125,171.166Z" fill="#173d7a"/>
              <path id="Path_70" data-name="Path 70" d="M343.883,147.039a4.932,4.932,0,0,1-2.059-3.934v-4.556a2.917,2.917,0,0,1,.076-.655l-.052-.03c-1.137-.656-2.059.041-2.059,1.557v4.556a4.929,4.929,0,0,0,2.059,3.934l40.277,23.255a1.233,1.233,0,0,0,1.984-.9Z" fill="#06033e" opacity="0.3"/>
              <path id="Path_71" data-name="Path 71" d="M369.486,158.677l-24.237-13.993a1.736,1.736,0,0,1-.725-1.384h0c0-.533.325-.779.725-.548l24.237,13.994a1.735,1.735,0,0,1,.724,1.384h0C370.21,158.663,369.886,158.908,369.486,158.677Z" fill="#fff"/>
            </g>
            <g id="Group_32" data-name="Group 32">
              <path id="Path_72" data-name="Path 72" d="M382.125,198.167l-40.277-23.254a4.933,4.933,0,0,1-2.059-3.935v-4.556c0-1.516.922-2.213,2.059-1.556l40.277,23.254a4.931,4.931,0,0,1,2.059,3.934v4.556C384.184,198.127,383.262,198.823,382.125,198.167Z" fill="#173d7a"/>
              <path id="Path_73" data-name="Path 73" d="M343.883,174.04a4.929,4.929,0,0,1-2.059-3.934V165.55a2.917,2.917,0,0,1,.076-.655l-.052-.029c-1.137-.657-2.059.04-2.059,1.556v4.556a4.933,4.933,0,0,0,2.059,3.935l40.277,23.254a1.233,1.233,0,0,0,1.984-.9Z" fill="#06033e" opacity="0.3"/>
              <path id="Path_74" data-name="Path 74" d="M369.486,185.679l-24.237-13.994a1.735,1.735,0,0,1-.725-1.384h0c0-.533.325-.778.725-.547l24.237,13.993a1.735,1.735,0,0,1,.724,1.384h0C370.21,185.665,369.886,185.91,369.486,185.679Z" fill="#d4ecff"/>
            </g>
            <g id="Group_33" data-name="Group 33">
              <path id="Path_75" data-name="Path 75" d="M382.125,225.417l-40.277-23.254a4.931,4.931,0,0,1-2.059-3.934v-4.556c0-1.517.922-2.213,2.059-1.557l40.277,23.254a4.933,4.933,0,0,1,2.059,3.935v4.556C384.184,225.377,383.262,226.074,382.125,225.417Z" fill="#173d7a"/>
              <path id="Path_76" data-name="Path 76" d="M343.883,201.291a4.932,4.932,0,0,1-2.059-3.934V192.8a2.915,2.915,0,0,1,.076-.654l-.052-.03c-1.137-.656-2.059.04-2.059,1.557v4.556a4.931,4.931,0,0,0,2.059,3.934l40.277,23.254a1.233,1.233,0,0,0,1.984-.9Z" fill="#06033e" opacity="0.3"/>
              <path id="Path_77" data-name="Path 77" d="M369.486,212.929l-24.237-13.993a1.736,1.736,0,0,1-.725-1.384h0c0-.534.325-.779.725-.548L369.486,211a1.734,1.734,0,0,1,.724,1.384h0C370.21,212.915,369.886,213.16,369.486,212.929Z" fill="#ff2c9c"/>
            </g>
            <g id="Group_34" data-name="Group 34">
              <path id="Path_78" data-name="Path 78" d="M382.125,252.128l-40.277-23.254a4.933,4.933,0,0,1-2.059-3.935v-4.556c0-1.516.922-2.213,2.059-1.556l40.277,23.254a4.931,4.931,0,0,1,2.059,3.934v4.556C384.184,252.088,383.262,252.785,382.125,252.128Z" fill="#173d7a"/>
              <path id="Path_79" data-name="Path 79" d="M343.883,228a4.929,4.929,0,0,1-2.059-3.934v-4.556a2.917,2.917,0,0,1,.076-.655l-.052-.029c-1.137-.657-2.059.04-2.059,1.556v4.556a4.933,4.933,0,0,0,2.059,3.935l40.277,23.254a1.233,1.233,0,0,0,1.984-.9Z" fill="#06033e" opacity="0.3"/>
              <path id="Path_80" data-name="Path 80" d="M369.486,239.64l-24.237-13.994a1.735,1.735,0,0,1-.725-1.384h0c0-.533.325-.778.725-.547l24.237,13.993a1.735,1.735,0,0,1,.724,1.384h0C370.21,239.626,369.886,239.871,369.486,239.64Z" fill="#d4ecff"/>
            </g>
            <path id="Path_81" data-name="Path 81" d="M333.367,102.589l4.211,2.431v17.014l-4.211-2.431Z" fill="#173d7a" opacity="0.5"/>
            <path id="Path_82" data-name="Path 82" d="M333.367,129.508l4.211,2.431v17.014l-4.211-2.431Z" fill="#173d7a" opacity="0.5"/>
            <path id="Path_83" data-name="Path 83" d="M333.367,156.426l4.211,2.431v17.014l-4.211-2.431Z" fill="#173d7a" opacity="0.5"/>
            <path id="Path_84" data-name="Path 84" d="M333.367,183.344l4.211,2.431v17.014l-4.211-2.431Z" fill="#173d7a" opacity="0.5"/>
            <path id="Path_85" data-name="Path 85" d="M333.367,210.262l4.211,2.431v17.014l-4.211-2.431Z" fill="#173d7a" opacity="0.5"/>
          </g>
          <ellipse id="Ellipse_6" data-name="Ellipse 6" cx="0.696" cy="1.206" rx="0.696" ry="1.206" transform="matrix(0.866, -0.5, 0.5, 0.866, 372.203, 132.417)" fill="#d4ecff"/>
          <path id="Path_86" data-name="Path 86" d="M377.876,135.692c0,.544-.382.764-.853.493a1.884,1.884,0,0,1-.852-1.477c0-.544.381-.764.852-.492A1.885,1.885,0,0,1,377.876,135.692Z" fill="#ff2c9c"/>
          <path id="Path_87" data-name="Path 87" d="M381.49,137.779c0,.544-.381.764-.852.492a1.883,1.883,0,0,1-.853-1.476c0-.544.382-.764.853-.492A1.882,1.882,0,0,1,381.49,137.779Z" fill="#d4ecff"/>
          <path id="Path_88" data-name="Path 88" d="M374.261,160.51c0,.544-.382.764-.852.492a1.885,1.885,0,0,1-.853-1.476c0-.544.382-.765.853-.493A1.886,1.886,0,0,1,374.261,160.51Z" fill="#ff2c9c"/>
          <path id="Path_89" data-name="Path 89" d="M377.876,162.6c0,.544-.382.764-.853.492a1.884,1.884,0,0,1-.852-1.477c0-.543.381-.764.852-.492A1.885,1.885,0,0,1,377.876,162.6Z" fill="#d4ecff"/>
          <path id="Path_90" data-name="Path 90" d="M381.49,164.684c0,.543-.381.764-.852.492a1.885,1.885,0,0,1-.853-1.477c0-.543.382-.764.853-.492A1.884,1.884,0,0,1,381.49,164.684Z" fill="#fff"/>
          <path id="Path_91" data-name="Path 91" d="M374.261,187.618c0,.544-.382.764-.852.492a1.885,1.885,0,0,1-.853-1.477c0-.543.382-.764.853-.492A1.886,1.886,0,0,1,374.261,187.618Z" fill="#fff"/>
          <path id="Path_92" data-name="Path 92" d="M377.876,189.705c0,.543-.382.764-.853.492a1.884,1.884,0,0,1-.852-1.477c0-.543.381-.764.852-.492A1.885,1.885,0,0,1,377.876,189.705Z" fill="#ff2c9c"/>
          <path id="Path_93" data-name="Path 93" d="M381.49,191.792c0,.543-.381.764-.852.492a1.885,1.885,0,0,1-.853-1.477c0-.544.382-.764.853-.492A1.884,1.884,0,0,1,381.49,191.792Z" fill="#fff"/>
          <path id="Path_94" data-name="Path 94" d="M374.261,214.331c0,.543-.382.764-.852.492a1.885,1.885,0,0,1-.853-1.477c0-.543.382-.764.853-.492A1.886,1.886,0,0,1,374.261,214.331Z" fill="#fff"/>
          <path id="Path_95" data-name="Path 95" d="M377.876,216.418c0,.543-.382.764-.853.492a1.884,1.884,0,0,1-.852-1.477c0-.543.381-.764.852-.492A1.885,1.885,0,0,1,377.876,216.418Z" fill="#d4ecff"/>
          <path id="Path_96" data-name="Path 96" d="M381.49,218.505c0,.543-.381.764-.852.492a1.885,1.885,0,0,1-.853-1.477c0-.544.382-.764.853-.492A1.884,1.884,0,0,1,381.49,218.505Z" fill="#d4ecff"/>
          <path id="Path_97" data-name="Path 97" d="M374.261,241.408c0,.544-.382.764-.852.492a1.883,1.883,0,0,1-.853-1.476c0-.544.382-.764.853-.493A1.887,1.887,0,0,1,374.261,241.408Z" fill="#fff"/>
          <path id="Path_98" data-name="Path 98" d="M377.876,243.495c0,.544-.382.764-.853.492a1.884,1.884,0,0,1-.852-1.476c0-.544.381-.764.852-.493A1.885,1.885,0,0,1,377.876,243.495Z" fill="#ff2c9c"/>
          <path id="Path_99" data-name="Path 99" d="M381.49,245.582c0,.544-.381.764-.852.492a1.885,1.885,0,0,1-.853-1.477c0-.543.382-.764.853-.492A1.884,1.884,0,0,1,381.49,245.582Z" fill="#d4ecff"/>
          <g id="Group_36" data-name="Group 36">
            <path id="Path_100" data-name="Path 100" d="M399.986,253.373V132.93l.249-.143,50.336-29.062V224.167l-.249.143Zm1-119.867V251.645l48.591-28.054V105.452Z" fill="#173d7a"/>
          </g>
          <g id="Group_39" data-name="Group 39">
            <path id="Path_101" data-name="Path 101" d="M437.495,157.916l-22.57,13.031c-1.516.875-2.745-.054-2.745-2.076V156.357a6.576,6.576,0,0,1,2.745-5.245l22.57-13.031c1.517-.875,2.746.054,2.746,2.076v12.514A6.574,6.574,0,0,1,437.495,157.916Z" fill="#173d7a"/>
            <path id="Path_102" data-name="Path 102" d="M438.043,137.839a3.625,3.625,0,0,1,.2,1.255v12.514a6.573,6.573,0,0,1-2.746,5.245l-22.57,13.031a2.635,2.635,0,0,1-.547.242,1.6,1.6,0,0,0,2.541.821l22.57-13.031a6.573,6.573,0,0,0,2.745-5.245V140.157C440.24,138.385,439.3,137.453,438.043,137.839Z" fill="#5793ce"/>
            <g id="Group_38" data-name="Group 38">
              <g id="Group_37" data-name="Group 37">
                <path id="Path_103" data-name="Path 103" d="M433.373,150.379c.417-.241.755-.045.755.437v2.85a1.671,1.671,0,0,1-.755,1.309c-.417.241-.756.045-.756-.437v-2.85A1.672,1.672,0,0,1,433.373,150.379Z" fill="#fff"/>
                <path id="Path_104" data-name="Path 104" d="M430.135,152.6c.417-.241.756-.046.756.436v2.494a1.672,1.672,0,0,1-.756,1.309c-.417.241-.755.046-.755-.436v-2.494A1.671,1.671,0,0,1,430.135,152.6Z" fill="#d4ecff"/>
                <path id="Path_105" data-name="Path 105" d="M426.9,151.691c.418-.241.756-.045.756.437V157.4a1.667,1.667,0,0,1-.756,1.308c-.417.241-.755.046-.755-.436V153A1.671,1.671,0,0,1,426.9,151.691Z" fill="#ff2c9c"/>
                <path id="Path_106" data-name="Path 106" d="M423.66,150.52c.417-.241.755-.046.755.436v8.318a1.671,1.671,0,0,1-.755,1.309c-.418.241-.756.045-.756-.437v-8.318A1.669,1.669,0,0,1,423.66,150.52Z" fill="#d4ecff"/>
                <path id="Path_107" data-name="Path 107" d="M420.422,153.261c.417-.241.755-.045.755.437v7.445a1.671,1.671,0,0,1-.755,1.309c-.418.241-.756.046-.756-.436V154.57A1.669,1.669,0,0,1,420.422,153.261Z" fill="#d4ecff"/>
                <path id="Path_108" data-name="Path 108" d="M417.184,158.533c.418-.241.756-.046.756.436v4.044a1.667,1.667,0,0,1-.756,1.308c-.417.241-.755.046-.755-.436v-4.044A1.669,1.669,0,0,1,417.184,158.533Z" fill="#fff"/>
              </g>
              <path id="Path_109" data-name="Path 109" d="M432.63,148.939c0,.474.333.666.743.429a1.643,1.643,0,0,0,.743-1.287c0-.473-.333-.665-.743-.429A1.645,1.645,0,0,0,432.63,148.939Z" fill="#ff2c9c"/>
              <ellipse id="Ellipse_7" data-name="Ellipse 7" cx="1.051" cy="0.607" rx="1.051" ry="0.607" transform="matrix(0.5, -0.866, 0.866, 0.5, 432.322, 146.438)" fill="#fff"/>
            </g>
          </g>
        </g>
      </g>
    </g>
    <g id="Group_45" data-name="Group 45">
      <path id="Path_110" data-name="Path 110" d="M387.246,360.581l-34.512-19.925c-2.118-1.223-1.853-3.359.593-4.771l33.324-19.24c2.446-1.412,6.146-1.565,8.264-.343l34.512,19.926c2.118,1.223,1.853,3.359-.593,4.771l-33.324,19.24C393.064,361.651,389.364,361.8,387.246,360.581Z" fill="#7dc3ea"/>
      <path id="Path_111" data-name="Path 111" d="M390.853,352.472a9.281,9.281,0,0,1-4.587-1.1h0l-34.511-19.926a4.4,4.4,0,0,1-2.411-3.77,5.278,5.278,0,0,1,3-4.4l33.325-19.239c3.083-1.782,7.477-1.93,10.223-.343l34.514,19.926a4.391,4.391,0,0,1,2.409,3.768,5.28,5.28,0,0,1-3,4.4l-33.323,19.24A11.481,11.481,0,0,1,390.853,352.472Zm-2.628-4.492c1.524.878,4.467.718,6.3-.343l33.324-19.24c.838-.483,1.039-.921,1.044-1a1.266,1.266,0,0,0-.449-.373L393.934,307.1c-1.52-.878-4.465-.718-6.3.343l-33.324,19.239c-.838.484-1.038.921-1.043,1a1.238,1.238,0,0,0,.45.374l34.512,19.926Z" fill="#fff"/>
      <path id="Path_112" data-name="Path 112" d="M430.846,315.186h0V303.278l-26.7-.015-9.23-5.329c-2.118-1.223-5.818-1.069-8.264.343l-8.61,4.971-26.726-.015V315.48a2.394,2.394,0,0,0,1.419,2.214l34.512,19.926c2.118,1.223,5.818,1.069,8.264-.343l33.324-19.24C430.245,317.223,430.925,316.168,430.846,315.186Z" fill="#396caa"/>
      <path id="Path_113" data-name="Path 113" d="M391.081,297.115a9.523,9.523,0,0,0-4.43,1.162l-8.61,4.971-26.726-.015V315.48a2.394,2.394,0,0,0,1.419,2.214l34.512,19.926a7.484,7.484,0,0,0,3.835.819Z" fill="url(#radial-gradient-10)"/>
      <path id="Path_114" data-name="Path 114" d="M354.34,303.235l-3.025,0V315.48a2.394,2.394,0,0,0,1.419,2.214l1.606.927Z" fill="#d4ecff"/>
      <path id="Path_115" data-name="Path 115" d="M387.778,337.88a9.415,9.415,0,0,0,6.6-.075V323.9h-6.6Z" fill="#5793ce"/>
      <path id="Path_116" data-name="Path 116" d="M387.246,325.417l-34.512-19.925c-2.118-1.223-1.853-3.359.593-4.772l33.324-19.239c2.446-1.412,6.146-1.566,8.264-.343l34.512,19.926c2.118,1.223,1.853,3.359-.593,4.771L395.51,325.074C393.064,326.487,389.364,326.64,387.246,325.417Z" fill="url(#linear-gradient-8)"/>
      <path id="Path_117" data-name="Path 117" d="M428.834,303.491l-33.324,19.24c-2.446,1.412-6.146,1.566-8.264.343l-34.512-19.926a3.2,3.2,0,0,1-1.057-.938c-.728,1.171-.4,2.442,1.057,3.281l34.512,19.926c2.118,1.223,5.818,1.07,8.264-.343l33.324-19.239c1.9-1.1,2.478-2.63,1.65-3.834A4.611,4.611,0,0,1,428.834,303.491Z" fill="#fff"/>
      <g id="Group_43" data-name="Group 43">
        <path id="Path_118" data-name="Path 118" d="M418.152,318.328a3.083,3.083,0,0,1-1.394,2.415c-.77.444-1.394.084-1.394-.805a3.083,3.083,0,0,1,1.394-2.415C417.528,317.079,418.152,317.439,418.152,318.328Z" fill="#d4ecff"/>
        <path id="Path_119" data-name="Path 119" d="M422.637,315.739a3.079,3.079,0,0,1-1.394,2.414c-.77.445-1.394.084-1.394-.805a3.081,3.081,0,0,1,1.394-2.414C422.013,314.49,422.637,314.85,422.637,315.739Z" fill="#d4ecff"/>
        <path id="Path_120" data-name="Path 120" d="M427.122,313.149a3.083,3.083,0,0,1-1.394,2.415c-.77.444-1.394.084-1.394-.8a3.079,3.079,0,0,1,1.394-2.414C426.5,311.9,427.122,312.26,427.122,313.149Z" fill="#d4ecff"/>
      </g>
      <g id="Group_44" data-name="Group 44">
        <path id="Path_121" data-name="Path 121" d="M389.287,313.064l-16.15-9.325c-.991-.572-.867-1.571.277-2.232l15.594-9a4.3,4.3,0,0,1,3.868-.161l16.149,9.324c.992.573.867,1.572-.277,2.233l-15.594,9A4.3,4.3,0,0,1,389.287,313.064Z" fill="#5793ce"/>
        <path id="Path_122" data-name="Path 122" d="M390.833,305.257l-2.235-1.291c-.137-.079-.12-.217.039-.308l2.157-1.246a.593.593,0,0,1,.535-.022l2.235,1.29c.137.079.12.217-.039.309l-2.157,1.245A.594.594,0,0,1,390.833,305.257Z" fill="#d4ecff"/>
        <path id="Path_123" data-name="Path 123" d="M373.137,303.739l.045.027c.076-.054.145-.109.232-.16l15.594-9a4.3,4.3,0,0,1,3.868-.16l16.1,9.3c.913-.654.961-1.544.045-2.073l-16.149-9.324a4.3,4.3,0,0,0-3.868.161l-15.594,9C372.27,302.168,372.146,303.167,373.137,303.739Z" fill="#396caa"/>
      </g>
    </g>
    <g id="Group_48" data-name="Group 48">
      <path id="Path_124" data-name="Path 124" d="M513.72,272.664l-34.512-19.926c-2.118-1.223-1.853-3.359.593-4.771l33.324-19.24c2.446-1.412,6.146-1.565,8.264-.342L555.9,248.31c2.118,1.223,1.853,3.359-.593,4.771l-33.324,19.24C519.538,273.733,515.838,273.887,513.72,272.664Z" fill="#7dc3ea"/>
      <path id="Path_125" data-name="Path 125" d="M517.327,264.554a9.276,9.276,0,0,1-4.587-1.1h0l-34.512-19.926a4.394,4.394,0,0,1-2.409-3.769,5.277,5.277,0,0,1,3-4.4l33.323-19.24c3.085-1.782,7.48-1.929,10.224-.343l34.513,19.926a4.392,4.392,0,0,1,2.409,3.769,5.28,5.28,0,0,1-3,4.4l-33.322,19.239A11.49,11.49,0,0,1,517.327,264.554Zm-2.628-4.492c1.523.877,4.467.717,6.306-.343l33.322-19.239c.838-.484,1.039-.921,1.044-1a1.262,1.262,0,0,0-.449-.374l-34.513-19.926c-1.521-.877-4.466-.717-6.3.343l-33.324,19.24c-.838.484-1.039.921-1.044,1a1.255,1.255,0,0,0,.449.373L514.7,260.062Z" fill="#fff"/>
      <path id="Path_126" data-name="Path 126" d="M557.32,227.268h0V215.36l-26.7-.015-9.23-5.329c-2.118-1.222-5.818-1.069-8.264.343l-8.611,4.972-26.725-.015v12.247a2.394,2.394,0,0,0,1.419,2.213L513.72,249.7c2.118,1.223,5.818,1.069,8.264-.343l33.324-19.239C556.719,229.3,557.4,228.25,557.32,227.268Z" fill="#396caa"/>
      <path id="Path_127" data-name="Path 127" d="M517.555,209.2a9.535,9.535,0,0,0-4.43,1.162l-8.611,4.972-26.725-.015v12.247a2.394,2.394,0,0,0,1.419,2.213L513.72,249.7a7.474,7.474,0,0,0,3.835.819Z" fill="url(#radial-gradient-11)"/>
      <path id="Path_128" data-name="Path 128" d="M480.814,215.317h-3.025v12.247a2.394,2.394,0,0,0,1.419,2.213l1.606.927Z" fill="#d4ecff"/>
      <path id="Path_129" data-name="Path 129" d="M514.252,249.962a9.415,9.415,0,0,0,6.6-.075v-13.9h-6.6Z" fill="#5793ce"/>
      <path id="Path_130" data-name="Path 130" d="M513.72,237.5l-34.512-19.925c-2.118-1.223-1.853-3.359.593-4.771l33.324-19.24c2.446-1.412,6.146-1.565,8.264-.342L555.9,213.146c2.118,1.223,1.853,3.359-.593,4.771l-33.324,19.24C519.538,238.569,515.838,238.722,513.72,237.5Z" fill="url(#linear-gradient-8)"/>
      <path id="Path_131" data-name="Path 131" d="M555.308,215.574l-33.324,19.239c-2.446,1.412-6.146,1.566-8.264.343L479.208,215.23a3.2,3.2,0,0,1-1.057-.937c-.728,1.171-.4,2.441,1.057,3.281L513.72,237.5c2.118,1.223,5.818,1.07,8.264-.342l33.324-19.24c1.9-1.1,2.478-2.63,1.65-3.833A4.63,4.63,0,0,1,555.308,215.574Z" fill="#fff"/>
      <g id="Group_46" data-name="Group 46">
        <path id="Path_132" data-name="Path 132" d="M544.626,230.41a3.083,3.083,0,0,1-1.394,2.415c-.77.444-1.394.084-1.394-.8a3.079,3.079,0,0,1,1.394-2.414C544,229.161,544.626,229.522,544.626,230.41Z" fill="#d4ecff"/>
        <path id="Path_133" data-name="Path 133" d="M549.111,227.821a3.079,3.079,0,0,1-1.394,2.414c-.77.445-1.394.085-1.394-.8a3.083,3.083,0,0,1,1.394-2.415C548.487,226.572,549.111,226.932,549.111,227.821Z" fill="#d4ecff"/>
        <path id="Path_134" data-name="Path 134" d="M553.6,225.232a3.079,3.079,0,0,1-1.394,2.414c-.77.445-1.394.084-1.394-.8a3.079,3.079,0,0,1,1.394-2.414C552.972,223.983,553.6,224.343,553.6,225.232Z" fill="#d4ecff"/>
      </g>
      <g id="Group_47" data-name="Group 47">
        <path id="Path_135" data-name="Path 135" d="M515.761,225.146l-16.15-9.324c-.991-.573-.867-1.572.277-2.233l15.594-9a4.3,4.3,0,0,1,3.868-.16L535.5,213.75c.992.572.867,1.572-.277,2.232l-15.594,9A4.3,4.3,0,0,1,515.761,225.146Z" fill="#5793ce"/>
        <path id="Path_136" data-name="Path 136" d="M517.307,217.339l-2.235-1.29c-.137-.079-.12-.218.039-.309l2.157-1.246a.6.6,0,0,1,.535-.022l2.235,1.29c.137.079.12.218-.039.309l-2.157,1.246A.6.6,0,0,1,517.307,217.339Z" fill="#d4ecff"/>
        <path id="Path_137" data-name="Path 137" d="M499.611,215.822l.045.026a2.769,2.769,0,0,1,.232-.159l15.594-9a4.3,4.3,0,0,1,3.868-.16l16.1,9.3c.913-.654.961-1.545.045-2.073l-16.149-9.324a4.3,4.3,0,0,0-3.868.16l-15.594,9C498.744,214.25,498.62,215.249,499.611,215.822Z" fill="#396caa"/>
      </g>
    </g>
    <g id="Group_51" data-name="Group 51">
      <path id="Path_138" data-name="Path 138" d="M260.778,272.664l-34.512-19.926c-2.118-1.223-1.853-3.359.593-4.771l33.324-19.24c2.446-1.412,6.146-1.565,8.264-.342l34.512,19.925c2.118,1.223,1.852,3.359-.593,4.771l-33.324,19.24C266.6,273.733,262.9,273.887,260.778,272.664Z" fill="#7dc3ea"/>
      <path id="Path_139" data-name="Path 139" d="M264.385,264.554a9.275,9.275,0,0,1-4.586-1.1h0l-34.513-19.926a4.394,4.394,0,0,1-2.409-3.769,5.275,5.275,0,0,1,3-4.4l33.323-19.24c3.085-1.782,7.479-1.929,10.223-.343l34.513,19.926a4.395,4.395,0,0,1,2.41,3.769,5.279,5.279,0,0,1-3,4.4l-33.324,19.239A11.481,11.481,0,0,1,264.385,264.554Zm-2.627-4.492c1.521.877,4.464.717,6.3-.343l33.324-19.239c.837-.483,1.038-.921,1.043-1a1.261,1.261,0,0,0-.45-.374l-34.512-19.926c-1.521-.877-4.466-.717-6.3.343L227.84,238.76c-.838.484-1.039.921-1.044,1a1.243,1.243,0,0,0,.449.373l34.514,19.926Z" fill="#fff"/>
      <path id="Path_140" data-name="Path 140" d="M304.378,227.268h0V215.36l-26.7-.015-9.229-5.329c-2.118-1.222-5.818-1.069-8.264.343l-8.611,4.972-26.725-.015v12.247a2.394,2.394,0,0,0,1.419,2.213L260.778,249.7c2.118,1.223,5.818,1.069,8.264-.343l33.324-19.239C303.777,229.3,304.457,228.25,304.378,227.268Z" fill="#396caa"/>
      <path id="Path_141" data-name="Path 141" d="M264.613,209.2a9.535,9.535,0,0,0-4.43,1.162l-8.611,4.972-26.725-.015v12.247a2.394,2.394,0,0,0,1.419,2.213L260.778,249.7a7.474,7.474,0,0,0,3.835.819Z" fill="url(#radial-gradient-11)"/>
      <path id="Path_142" data-name="Path 142" d="M227.871,215.317h-3.024v12.247a2.394,2.394,0,0,0,1.419,2.213l1.6.927Z" fill="#d4ecff"/>
      <path id="Path_143" data-name="Path 143" d="M261.31,249.962a9.415,9.415,0,0,0,6.605-.075v-13.9H261.31Z" fill="#5793ce"/>
      <path id="Path_144" data-name="Path 144" d="M260.778,237.5l-34.512-19.925c-2.118-1.223-1.853-3.359.593-4.771l33.324-19.24c2.446-1.412,6.146-1.565,8.264-.342l34.512,19.925c2.118,1.223,1.852,3.359-.593,4.771l-33.324,19.24C266.6,238.569,262.9,238.722,260.778,237.5Z" fill="url(#linear-gradient-8)"/>
      <path id="Path_145" data-name="Path 145" d="M302.366,215.574l-33.325,19.239c-2.445,1.412-6.145,1.566-8.263.343L226.266,215.23a3.185,3.185,0,0,1-1.057-.937c-.728,1.171-.4,2.441,1.057,3.281L260.778,237.5c2.118,1.223,5.818,1.07,8.263-.342l33.325-19.24c1.9-1.1,2.477-2.63,1.65-3.833A4.63,4.63,0,0,1,302.366,215.574Z" fill="#fff"/>
      <g id="Group_49" data-name="Group 49">
        <path id="Path_146" data-name="Path 146" d="M291.684,230.41a3.083,3.083,0,0,1-1.394,2.415c-.77.444-1.394.084-1.394-.8a3.079,3.079,0,0,1,1.394-2.414C291.06,229.161,291.684,229.522,291.684,230.41Z" fill="#d4ecff"/>
        <path id="Path_147" data-name="Path 147" d="M296.169,227.821a3.079,3.079,0,0,1-1.394,2.414c-.77.445-1.394.085-1.394-.8a3.083,3.083,0,0,1,1.394-2.415C295.545,226.572,296.169,226.932,296.169,227.821Z" fill="#d4ecff"/>
        <path id="Path_148" data-name="Path 148" d="M300.654,225.232a3.079,3.079,0,0,1-1.394,2.414c-.77.445-1.394.084-1.394-.8a3.079,3.079,0,0,1,1.394-2.414C300.03,223.983,300.654,224.343,300.654,225.232Z" fill="#d4ecff"/>
      </g>
      <g id="Group_50" data-name="Group 50">
        <path id="Path_149" data-name="Path 149" d="M262.818,225.146l-16.149-9.324c-.992-.573-.867-1.572.277-2.233l15.594-9a4.3,4.3,0,0,1,3.867-.16l16.15,9.324c.991.572.867,1.572-.277,2.232l-15.6,9A4.3,4.3,0,0,1,262.818,225.146Z" fill="#5793ce"/>
        <path id="Path_150" data-name="Path 150" d="M264.365,217.339l-2.235-1.29c-.137-.079-.12-.218.039-.309l2.157-1.246a.6.6,0,0,1,.535-.022l2.235,1.29c.137.079.119.218-.039.309l-2.157,1.246A.6.6,0,0,1,264.365,217.339Z" fill="#d4ecff"/>
        <path id="Path_151" data-name="Path 151" d="M246.669,215.822l.045.026a2.615,2.615,0,0,1,.232-.159l15.594-9a4.3,4.3,0,0,1,3.867-.16l16.1,9.3c.914-.654.962-1.545.046-2.073l-16.15-9.324a4.3,4.3,0,0,0-3.867.16l-15.594,9C245.8,214.25,245.677,215.249,246.669,215.822Z" fill="#396caa"/>
      </g>
    </g>
  </g>
</svg>
