<svg xmlns="http://www.w3.org/2000/svg" width="91.329" height="91.329" viewBox="0 0 91.329 91.329">
  <g id="Group_25" data-name="Group 25" transform="translate(-800.272 -1756.272)">
    <path id="Path_15" data-name="Path 15" d="M354.854,75.416a2.854,2.854,0,0,0,2.854-2.854V66.854a2.854,2.854,0,0,0-5.708,0v5.708A2.854,2.854,0,0,0,354.854,75.416Z" transform="translate(511.061 1703.688)" fill="#fff"/>
    <path id="Path_16" data-name="Path 16" d="M162.854,85.708h22.832a2.854,2.854,0,0,0,0-5.708H162.854a2.854,2.854,0,0,0,0,5.708Z" transform="translate(668.812 1690.542)" fill="#fff"/>
    <path id="Path_17" data-name="Path 17" d="M69.708,235.416A5.708,5.708,0,1,0,64,229.708,5.715,5.715,0,0,0,69.708,235.416Z" transform="translate(747.688 1572.228)" fill="#fff"/>
    <path id="Path_18" data-name="Path 18" d="M69.708,384a5.708,5.708,0,1,0,5.708,5.708A5.714,5.714,0,0,0,69.708,384Z" transform="translate(747.688 1440.769)" fill="#fff"/>
    <path id="Path_19" data-name="Path 19" d="M69.708,75.416A5.708,5.708,0,1,0,64,69.708,5.714,5.714,0,0,0,69.708,75.416Z" transform="translate(747.688 1703.688)" fill="#fff"/>
    <path id="Path_21" data-name="Path 21" d="M354.854,235.416a2.854,2.854,0,0,0,2.854-2.854v-5.708a2.854,2.854,0,0,0-5.708,0v5.708A2.854,2.854,0,0,0,354.854,235.416Z" transform="translate(511.061 1572.228)" fill="#fff"/>
    <path id="Path_22" data-name="Path 22" d="M162.854,245.708h22.832a2.854,2.854,0,0,0,0-5.708H162.854a2.854,2.854,0,0,0,0,5.708Z" transform="translate(668.812 1559.082)" fill="#fff"/>
    <path id="Path_24" data-name="Path 24" d="M354.854,384A2.854,2.854,0,0,0,352,386.854v5.708a2.854,2.854,0,1,0,5.708,0v-5.708A2.854,2.854,0,0,0,354.854,384Z" transform="translate(511.061 1440.769)" fill="#fff"/>
    <path id="Path_25" data-name="Path 25" d="M185.686,400H162.854a2.854,2.854,0,0,0,0,5.708h22.832a2.854,2.854,0,0,0,0-5.708Z" transform="translate(668.812 1427.623)" fill="#fff"/>
    <path id="Path_14" data-name="Path 14" d="M418.854,75.416a2.854,2.854,0,0,0,2.854-2.854V66.854a2.854,2.854,0,1,0-5.708,0v5.708A2.854,2.854,0,0,0,418.854,75.416Z" transform="translate(458.477 1703.688)" fill="#fff"/>
    <path id="Path_20" data-name="Path 20" d="M418.854,235.416a2.854,2.854,0,0,0,2.854-2.854v-5.708a2.854,2.854,0,1,0-5.708,0v5.708A2.854,2.854,0,0,0,418.854,235.416Z" transform="translate(458.477 1572.228)" fill="#fff"/>
    <path id="Path_23" data-name="Path 23" d="M418.854,384A2.854,2.854,0,0,0,416,386.854v5.708a2.854,2.854,0,1,0,5.708,0v-5.708A2.854,2.854,0,0,0,418.854,384Z" transform="translate(458.477 1440.769)" fill="#fff"/>
    <path id="Path_13" data-name="Path 13" d="M91.329,8.562A8.572,8.572,0,0,0,82.767,0H8.562A8.572,8.572,0,0,0,0,8.562V25.686a8.527,8.527,0,0,0,2.187,5.708A8.527,8.527,0,0,0,0,37.1V54.227a8.527,8.527,0,0,0,2.187,5.708A8.527,8.527,0,0,0,0,65.643V82.767a8.572,8.572,0,0,0,8.562,8.562h74.2a8.572,8.572,0,0,0,8.562-8.562V65.643a8.527,8.527,0,0,0-2.187-5.708,8.526,8.526,0,0,0,2.187-5.708V37.1a8.527,8.527,0,0,0-2.187-5.708,8.526,8.526,0,0,0,2.187-5.708Zm-85.621,0A2.857,2.857,0,0,1,8.562,5.708h74.2a2.857,2.857,0,0,1,2.854,2.854V25.686a2.857,2.857,0,0,1-2.854,2.854H8.562a2.857,2.857,0,0,1-2.854-2.854ZM85.621,37.1V54.227a2.857,2.857,0,0,1-2.854,2.854H8.562a2.857,2.857,0,0,1-2.854-2.854V37.1a2.857,2.857,0,0,1,2.854-2.854h74.2A2.857,2.857,0,0,1,85.621,37.1Zm0,45.665a2.857,2.857,0,0,1-2.854,2.854H8.562a2.857,2.857,0,0,1-2.854-2.854V65.643a2.857,2.857,0,0,1,2.854-2.854h74.2a2.857,2.857,0,0,1,2.854,2.854Z" transform="translate(800.272 1756.272)" fill="#fff"/>
  </g>
</svg>
