<svg xmlns="http://www.w3.org/2000/svg" width="86.918" height="86.676" viewBox="0 0 86.918 86.676">
  <g id="logo-icon" transform="translate(-0.199)">
    <path id="Path_1" data-name="Path 1" d="M279.085,120.113A43.214,43.214,0,0,0,274.74,101.2l-10.253,18.889.024.048L253.2,139.726l21.47-.555A43.226,43.226,0,0,0,279.085,120.113Z" transform="translate(-191.968 -76.787)" fill="#fff"/>
    <path id="Path_2" data-name="Path 2" d="M120.135,137.394,131.5,117.708,120.135,98H97.386L86,117.709,97.386,137.4Z" transform="translate(-65.102 -74.359)" fill="#fff"/>
    <path id="Path_3" data-name="Path 3" d="M4.59,98.979A43.353,43.353,0,0,0,4.542,136.9l10.252-18.865-.024-.048L26.084,98.4Z" transform="translate(0 -74.662)" fill="#fff"/>
    <path id="Path_4" data-name="Path 4" d="M52.946,18.358l.024-.048H75.55L64.356,0A43.389,43.389,0,0,0,31.5,18.913Z" transform="translate(-23.749)" fill="#fff"/>
    <path id="Path_5" data-name="Path 5" d="M204.793,18.31h.048L216.156,37.9l10.252-18.865A43.563,43.563,0,0,0,193.6,0Z" transform="translate(-146.745)" fill="#fff"/>
    <path id="Path_6" data-name="Path 6" d="M169.128,281.455l-.024.048H146.5l11.217,18.31A43.389,43.389,0,0,0,190.574,280.9Z" transform="translate(-111.008 -213.136)" fill="#fff"/>
    <path id="Path_7" data-name="Path 7" d="M52.617,221.788h-.048L41.252,202.2,31,221.065a43.468,43.468,0,0,0,32.808,19.01Z" transform="translate(-23.37 -153.422)" fill="#fff"/>
  </g>
</svg>
