<svg xmlns="http://www.w3.org/2000/svg" width="752.183" height="404.645" viewBox="0 0 752.183 404.645">
  <g id="Group_904" data-name="Group 904" transform="translate(-280.471 -249.482)">
    <g id="Group_839" data-name="Group 839" transform="translate(306.093 291.166)">
      <rect id="Rectangle_169" data-name="Rectangle 169" width="510.104" height="350.016" rx="7.633" fill="#162539"/>
    </g>
    <g id="Group_840" data-name="Group 840" transform="translate(323.369 303.02)">
      <rect id="Rectangle_170" data-name="Rectangle 170" width="475.553" height="326.308" rx="7.633" fill="#2f518e"/>
    </g>
    <g id="Group_895" data-name="Group 895" transform="translate(351.541 336.012)">
      <g id="Group_841" data-name="Group 841" transform="translate(46.039)">
        <rect id="Rectangle_171" data-name="Rectangle 171" width="62.495" height="6.932" fill="#fdfefe"/>
      </g>
      <g id="Group_842" data-name="Group 842" transform="translate(46.039 15.529)">
        <rect id="Rectangle_172" data-name="Rectangle 172" width="39.82" height="6.932" fill="#fdfefe"/>
      </g>
      <g id="Group_843" data-name="Group 843" transform="translate(108.155 15.529)">
        <rect id="Rectangle_173" data-name="Rectangle 173" width="160.129" height="6.932" fill="#fdfefe"/>
      </g>
      <g id="Group_844" data-name="Group 844" transform="translate(283.814 15.529)">
        <rect id="Rectangle_174" data-name="Rectangle 174" width="83.857" height="6.932" fill="#fc6454"/>
      </g>
      <g id="Group_845" data-name="Group 845" transform="translate(61.568 31.058)">
        <rect id="Rectangle_175" data-name="Rectangle 175" width="101.119" height="6.932" fill="#58d05b"/>
      </g>
      <g id="Group_846" data-name="Group 846" transform="translate(193.745 31.058)">
        <rect id="Rectangle_176" data-name="Rectangle 176" width="150.661" height="6.932" fill="#fdfefe"/>
      </g>
      <g id="Group_847" data-name="Group 847" transform="translate(46.039 46.587)">
        <rect id="Rectangle_177" data-name="Rectangle 177" width="142.181" height="6.932" fill="#fc6454"/>
      </g>
      <g id="Group_848" data-name="Group 848" transform="translate(201.33 46.587)">
        <rect id="Rectangle_178" data-name="Rectangle 178" width="101.119" height="6.932" fill="#78d5e4"/>
      </g>
      <g id="Group_849" data-name="Group 849" transform="translate(61.568 62.116)">
        <rect id="Rectangle_179" data-name="Rectangle 179" width="101.119" height="6.932" fill="#fdfefe"/>
      </g>
      <g id="Group_850" data-name="Group 850" transform="translate(46.039 77.645)">
        <rect id="Rectangle_180" data-name="Rectangle 180" width="147.706" height="6.932" fill="#fdfefe"/>
      </g>
      <g id="Group_851" data-name="Group 851" transform="translate(46.039 93.174)">
        <rect id="Rectangle_181" data-name="Rectangle 181" width="101.119" height="6.932" fill="#fdfefe"/>
      </g>
      <g id="Group_852" data-name="Group 852" transform="translate(77.097 108.703)">
        <rect id="Rectangle_182" data-name="Rectangle 182" width="168.673" height="6.932" fill="#fc6454"/>
      </g>
      <g id="Group_853" data-name="Group 853" transform="translate(263.446 108.703)">
        <rect id="Rectangle_183" data-name="Rectangle 183" width="54.532" height="6.932" fill="#fdfefe"/>
      </g>
      <g id="Group_854" data-name="Group 854" transform="translate(341.091 108.703)">
        <rect id="Rectangle_184" data-name="Rectangle 184" width="54.532" height="6.932" fill="#fdfefe"/>
      </g>
      <g id="Group_855" data-name="Group 855" transform="translate(92.626 124.232)">
        <rect id="Rectangle_185" data-name="Rectangle 185" width="68.807" height="6.932" fill="#fdfefe"/>
      </g>
      <g id="Group_856" data-name="Group 856" transform="translate(92.626 139.762)">
        <rect id="Rectangle_186" data-name="Rectangle 186" width="91.791" height="6.932" fill="#fc6454"/>
      </g>
      <g id="Group_857" data-name="Group 857" transform="translate(216.859 139.762)">
        <rect id="Rectangle_187" data-name="Rectangle 187" width="101.119" height="6.932" fill="#fdfefe"/>
      </g>
      <g id="Group_858" data-name="Group 858" transform="translate(341.091 139.762)">
        <rect id="Rectangle_188" data-name="Rectangle 188" width="42.108" height="6.932" fill="#fc6454"/>
      </g>
      <g id="Group_859" data-name="Group 859" transform="translate(46.039 155.291)">
        <rect id="Rectangle_189" data-name="Rectangle 189" width="62.116" height="6.932" fill="#fdfefe"/>
      </g>
      <g id="Group_860" data-name="Group 860" transform="translate(46.039 170.82)">
        <rect id="Rectangle_190" data-name="Rectangle 190" width="101.119" height="6.932" fill="#fdfefe"/>
      </g>
      <g id="Group_861" data-name="Group 861" transform="translate(92.626 186.349)">
        <rect id="Rectangle_191" data-name="Rectangle 191" width="183.423" height="6.932" fill="#fdfefe"/>
      </g>
      <g id="Group_862" data-name="Group 862" transform="translate(294.504 186.349)">
        <rect id="Rectangle_192" data-name="Rectangle 192" width="113.542" height="6.932" fill="#78d5e4"/>
      </g>
      <g id="Group_863" data-name="Group 863" transform="translate(92.626 201.878)">
        <rect id="Rectangle_193" data-name="Rectangle 193" width="62.296" height="6.932" fill="#fdfefe"/>
      </g>
      <g id="Group_864" data-name="Group 864" transform="translate(170.271 201.878)">
        <rect id="Rectangle_194" data-name="Rectangle 194" width="62.296" height="6.932" fill="#58d05b"/>
      </g>
      <g id="Group_865" data-name="Group 865" transform="translate(247.917 201.878)">
        <rect id="Rectangle_195" data-name="Rectangle 195" width="62.296" height="6.932" fill="#fdfefe"/>
      </g>
      <g id="Group_866" data-name="Group 866" transform="translate(46.039 217.407)">
        <rect id="Rectangle_196" data-name="Rectangle 196" width="101.119" height="6.932" fill="#fdfefe"/>
      </g>
      <g id="Group_867" data-name="Group 867" transform="translate(77.097 232.936)">
        <rect id="Rectangle_197" data-name="Rectangle 197" width="101.119" height="6.932" fill="#58d05b"/>
      </g>
      <g id="Group_868" data-name="Group 868" transform="translate(197.357 232.936)">
        <rect id="Rectangle_198" data-name="Rectangle 198" width="101.119" height="6.932" fill="#58d05b"/>
      </g>
      <g id="Group_869" data-name="Group 869" transform="translate(195.211 263.994)">
        <rect id="Rectangle_199" data-name="Rectangle 199" width="56.678" height="6.932" fill="#fdfefe"/>
      </g>
      <g id="Group_870" data-name="Group 870" transform="translate(77.097 248.465)">
        <rect id="Rectangle_200" data-name="Rectangle 200" width="149.987" height="6.932" fill="#fdfefe"/>
      </g>
      <g id="Group_889" data-name="Group 889">
        <g id="Group_871" data-name="Group 871">
          <rect id="Rectangle_201" data-name="Rectangle 201" width="6.932" height="6.932" fill="#7194bf"/>
        </g>
        <g id="Group_872" data-name="Group 872" transform="translate(0 15.529)">
          <rect id="Rectangle_202" data-name="Rectangle 202" width="6.932" height="6.932" fill="#7194bf"/>
        </g>
        <g id="Group_873" data-name="Group 873" transform="translate(0 31.058)">
          <rect id="Rectangle_203" data-name="Rectangle 203" width="6.932" height="6.932" fill="#7194bf"/>
        </g>
        <g id="Group_874" data-name="Group 874" transform="translate(0 46.587)">
          <rect id="Rectangle_204" data-name="Rectangle 204" width="6.932" height="6.932" fill="#7194bf"/>
        </g>
        <g id="Group_875" data-name="Group 875" transform="translate(0 62.116)">
          <rect id="Rectangle_205" data-name="Rectangle 205" width="6.932" height="6.932" fill="#7194bf"/>
        </g>
        <g id="Group_876" data-name="Group 876" transform="translate(0 77.645)">
          <rect id="Rectangle_206" data-name="Rectangle 206" width="6.932" height="6.932" fill="#7194bf"/>
        </g>
        <g id="Group_877" data-name="Group 877" transform="translate(0 93.174)">
          <rect id="Rectangle_207" data-name="Rectangle 207" width="6.932" height="6.932" fill="#7194bf"/>
        </g>
        <g id="Group_878" data-name="Group 878" transform="translate(0 108.703)">
          <rect id="Rectangle_208" data-name="Rectangle 208" width="6.932" height="6.932" fill="#7194bf"/>
        </g>
        <g id="Group_879" data-name="Group 879" transform="translate(0 124.232)">
          <rect id="Rectangle_209" data-name="Rectangle 209" width="6.932" height="6.932" fill="#7194bf"/>
        </g>
        <g id="Group_880" data-name="Group 880" transform="translate(0 139.762)">
          <rect id="Rectangle_210" data-name="Rectangle 210" width="6.932" height="6.932" fill="#7194bf"/>
        </g>
        <g id="Group_881" data-name="Group 881" transform="translate(0 155.291)">
          <rect id="Rectangle_211" data-name="Rectangle 211" width="6.932" height="6.932" fill="#7194bf"/>
        </g>
        <g id="Group_882" data-name="Group 882" transform="translate(0 170.82)">
          <rect id="Rectangle_212" data-name="Rectangle 212" width="6.932" height="6.932" fill="#7194bf"/>
        </g>
        <g id="Group_883" data-name="Group 883" transform="translate(0 186.349)">
          <rect id="Rectangle_213" data-name="Rectangle 213" width="6.932" height="6.932" fill="#7194bf"/>
        </g>
        <g id="Group_884" data-name="Group 884" transform="translate(0 201.878)">
          <rect id="Rectangle_214" data-name="Rectangle 214" width="6.932" height="6.932" fill="#7194bf"/>
        </g>
        <g id="Group_885" data-name="Group 885" transform="translate(0 217.407)">
          <rect id="Rectangle_215" data-name="Rectangle 215" width="6.932" height="6.932" fill="#7194bf"/>
        </g>
        <g id="Group_886" data-name="Group 886" transform="translate(0 232.936)">
          <rect id="Rectangle_216" data-name="Rectangle 216" width="6.932" height="6.932" fill="#7194bf"/>
        </g>
        <g id="Group_887" data-name="Group 887" transform="translate(0 248.465)">
          <rect id="Rectangle_217" data-name="Rectangle 217" width="6.932" height="6.932" fill="#7194bf"/>
        </g>
        <g id="Group_888" data-name="Group 888" transform="translate(0 263.994)">
          <rect id="Rectangle_218" data-name="Rectangle 218" width="6.932" height="6.932" fill="#7194bf"/>
        </g>
      </g>
      <g id="Group_890" data-name="Group 890" transform="translate(77.097 263.994)">
        <rect id="Rectangle_219" data-name="Rectangle 219" width="74.994" height="6.932" fill="#fdfefe"/>
      </g>
      <g id="Group_894" data-name="Group 894" transform="translate(341.611 233.105)">
        <g id="Group_891" data-name="Group 891" transform="translate(0 7.513)">
          <path id="Path_2717" data-name="Path 2717" d="M575.718,505.159l-29.5-12.529v-5.109l29.5-12.529v5.443l-23.416,9.64,23.416,9.64Z" transform="translate(-546.219 -474.992)" fill="#fdfefe"/>
        </g>
        <g id="Group_892" data-name="Group 892" transform="translate(32.936)">
          <path id="Path_2718" data-name="Path 2718" d="M584.734,470.154l-12.9,44.584h-4.41l12.9-44.584Z" transform="translate(-567.428 -470.154)" fill="#fdfefe"/>
        </g>
        <g id="Group_893" data-name="Group 893" transform="translate(53.676 7.513)">
          <path id="Path_2719" data-name="Path 2719" d="M610.283,492.63l-29.5,12.529v-5.443l23.418-9.64-23.418-9.64v-5.443l29.5,12.529Z" transform="translate(-580.784 -474.992)" fill="#fdfefe"/>
        </g>
      </g>
    </g>
    <g id="Group_896" data-name="Group 896" transform="translate(280.471 623.073)">
      <path id="Path_2720" data-name="Path 2720" d="M803.779,535.952H311.524A31.054,31.054,0,0,1,280.471,504.9H834.832A31.054,31.054,0,0,1,803.779,535.952Z" transform="translate(-280.471 -504.899)" fill="#05090d"/>
    </g>
    <g id="Group_900" data-name="Group 900" transform="translate(323.368 303.02)" opacity="0.1" style="mix-blend-mode: overlay;isolation: isolate">
      <g id="Group_897" data-name="Group 897" transform="translate(114.032)">
        <path id="Path_2721" data-name="Path 2721" d="M425.551,625.108,541.437,298.8H497.413L381.527,625.108Z" transform="translate(-381.527 -298.8)" fill="#fff"/>
      </g>
      <g id="Group_898" data-name="Group 898" transform="translate(0 0)">
        <path id="Path_2722" data-name="Path 2722" d="M319.948,625.107h20.683L456.519,298.8H319.948a11.888,11.888,0,0,0-11.853,11.853v302.6A11.888,11.888,0,0,0,319.948,625.107Z" transform="translate(-308.095 -298.8)" fill="#fff"/>
      </g>
      <g id="Group_899" data-name="Group 899" transform="translate(403.65 123.845)">
        <path id="Path_2723" data-name="Path 2723" d="M568.027,581.013h60.049a11.889,11.889,0,0,0,11.855-11.853V378.55Z" transform="translate(-568.027 -378.55)" fill="#fff"/>
      </g>
    </g>
    <g id="Group_902" data-name="Group 902" transform="translate(566.648 303.02)" opacity="0.1" style="mix-blend-mode: overlay;isolation: isolate">
      <g id="Group_901" data-name="Group 901">
        <path id="Path_2724" data-name="Path 2724" d="M464.755,625.108h80.6L661.238,298.8h-80.6Z" transform="translate(-464.755 -298.8)" fill="#fff"/>
      </g>
    </g>
    <g id="Group_903" data-name="Group 903" transform="translate(280.471 623.073)">
      <path id="Path_2725" data-name="Path 2725" d="M830.644,520.425a30.864,30.864,0,0,0,4.188-15.526H280.471a30.865,30.865,0,0,0,4.188,15.526Z" transform="translate(-280.471 -504.899)" fill="#162539"/>
    </g>
    <g id="Group_962" data-name="Group 962" transform="translate(146.166 107.952)">
      <g id="Group_961" data-name="Group 961" transform="translate(629.689 141.529)">
        <g id="Group_905" data-name="Group 905" transform="translate(11.784 4.824)">
          <path id="Path_2726" data-name="Path 2726" d="M833.343,173.589V486.676a27.885,27.885,0,0,1-27.89,27.891H667.765a27.885,27.885,0,0,1-27.89-27.891V173.589a27.9,27.9,0,0,1,27.89-27.89H805.453A27.894,27.894,0,0,1,833.343,173.589Z" transform="translate(-639.875 -145.699)" fill="#6fa0fd" fill-rule="evenodd"/>
        </g>
        <g id="Group_906" data-name="Group 906" transform="translate(19.35 12.389)">
          <path id="Rectangle_220" data-name="Rectangle 220" d="M17.569,0h143.2a17.569,17.569,0,0,1,17.569,17.569v318.6a17.569,17.569,0,0,1-17.569,17.569H17.568A17.568,17.568,0,0,1,0,336.17V17.569A17.569,17.569,0,0,1,17.569,0Z" fill="#162539"/>
        </g>
        <g id="Group_907" data-name="Group 907" transform="translate(52.899 296.772)">
          <ellipse id="Ellipse_170" data-name="Ellipse 170" cx="54.165" cy="9.533" rx="54.165" ry="9.533" fill="#aabeeb"/>
        </g>
        <g id="Group_908" data-name="Group 908" transform="translate(205.252 61.878)">
          <path id="Path_2727" data-name="Path 2727" d="M808.724,268.886H807.1V195.015h1.622a3.656,3.656,0,0,1,3.655,3.657v66.557A3.656,3.656,0,0,1,808.724,268.886Z" transform="translate(-807.102 -195.015)" fill="#407adb" fill-rule="evenodd"/>
        </g>
        <g id="Group_909" data-name="Group 909" transform="translate(6.88 60.622)">
          <path id="Path_2728" data-name="Path 2728" d="M640.54,229.859h-1.505a3.4,3.4,0,0,1-3.4-3.4V197.328a3.4,3.4,0,0,1,3.4-3.4h1.505Z" transform="translate(-635.636 -193.929)" fill="#407adb" fill-rule="evenodd"/>
        </g>
        <g id="Group_910" data-name="Group 910" transform="translate(7.508 113.639)">
          <path id="Path_2729" data-name="Path 2729" d="M640.455,261.866h-1.313a2.963,2.963,0,0,1-2.963-2.963V242.719a2.964,2.964,0,0,1,2.963-2.964h1.313Z" transform="translate(-636.179 -239.755)" fill="#407adb" fill-rule="evenodd"/>
        </g>
        <g id="Group_911" data-name="Group 911" transform="translate(62.857 4.823)">
          <path id="Path_2730" data-name="Path 2730" d="M684.021,145.7h91.448V158.83a13.168,13.168,0,0,1-13.13,13.13H697.152a13.169,13.169,0,0,1-13.131-13.13Z" transform="translate(-684.021 -145.698)" fill="#6fa0fd" fill-rule="evenodd"/>
        </g>
        <g id="Group_914" data-name="Group 914" transform="translate(82.711 14.778)">
          <g id="Group_912" data-name="Group 912">
            <path id="Path_2731" data-name="Path 2731" d="M707.533,157.48a3.176,3.176,0,1,1-3.175-3.177A3.175,3.175,0,0,1,707.533,157.48Z" transform="translate(-701.182 -154.303)" fill="#424b96" fill-rule="evenodd"/>
          </g>
          <g id="Group_913" data-name="Group 913" transform="translate(9.16 0.847)">
            <rect id="Rectangle_221" data-name="Rectangle 221" width="42.58" height="4.658" rx="1.395" fill="#424b96"/>
          </g>
        </g>
        <g id="Group_937" data-name="Group 937" transform="translate(0 115.174)">
          <g id="Group_923" data-name="Group 923">
            <g id="Group_915" data-name="Group 915" transform="translate(0 11.396)">
              <path id="Path_2732" data-name="Path 2732" d="M632.591,251.339c3.2-1.592,7.771,1.629,10.253,7.208,1.826.4,3.073,3.11,2.839,6.369-.193,2.7-1.346,4.986-2.8,5.874a4.194,4.194,0,0,1-1.359,1.1c-3.236,1.608-7.857-1.688-10.322-7.361S629.355,252.948,632.591,251.339Z" transform="translate(-629.689 -250.932)" fill="#fdceae" fill-rule="evenodd"/>
            </g>
            <g id="Group_916" data-name="Group 916" transform="translate(185.659 52.166)">
              <path id="Path_2733" data-name="Path 2733" d="M803.287,286.58c-3.2-1.593-7.771,1.629-10.253,7.206-1.827.4-3.073,3.11-2.839,6.37.192,2.7,1.346,4.985,2.8,5.872a4.187,4.187,0,0,0,1.361,1.1c3.235,1.607,7.855-1.689,10.322-7.363S806.522,288.188,803.287,286.58Z" transform="translate(-790.167 -286.173)" fill="#fdceae" fill-rule="evenodd"/>
            </g>
            <g id="Group_917" data-name="Group 917" transform="translate(5.967 28.308)">
              <path id="Path_2734" data-name="Path 2734" d="M727.8,306.718l-23.2,3.294c-29.447,4.18-50.206-14.315-59.942-44.46a11.648,11.648,0,0,1-9.809,3.173c4.68,38.238,26.674,60.23,65.2,68.464.96,29.953,2.58,62.336,1.852,91.772a169.039,169.039,0,0,0,65.08,1.606c-2.5-29.905-1.9-56.1.865-85.074,9.931,9.966,28.191,21.922,34.621,20.745,11.362-2.082,17.446-30.62,21.023-56.379a10.277,10.277,0,0,1-8.923-6.466c-4.418,14.387-9.555,26.372-15.16,39.867-20.572-13.483-28.255-25.7-51.639-37.651Z" transform="translate(-634.847 -265.551)" fill="#407adb" fill-rule="evenodd"/>
            </g>
            <g id="Group_918" data-name="Group 918" transform="translate(98.595 58.018)">
              <path id="Path_2735" data-name="Path 2735" d="M714.911,291.231H735.2V301.58c5.64,5.519,2.684,9.756-5.367,9.336-6.857-.359-14.927-2.741-14.927-10.866Z" transform="translate(-714.911 -291.231)" fill="#fdceae" fill-rule="evenodd"/>
            </g>
            <g id="Group_919" data-name="Group 919" transform="translate(98.595 58.018)">
              <path id="Path_2736" data-name="Path 2736" d="M714.911,291.231H735.2v5.175l-17.157,10.755a8.94,8.94,0,0,1-3.136-7.11Z" transform="translate(-714.911 -291.231)" fill="#f3b898" fill-rule="evenodd"/>
            </g>
            <g id="Group_920" data-name="Group 920" transform="translate(77.428)">
              <path id="Path_2737" data-name="Path 2737" d="M746.151,259.432,717.782,299.1l.257,4.378c-7.859-10.971-16.011-13.184-19.55-24.911-4.661-15.441-.732-28.69,12.967-33.628,4.05-1.46,8.852,1.422,12.7-.642,9.892-5.308,14.191-3.247,15.061.464,1.445,6.164,11.692-2.646,14.716,3.2C756.917,253.729,753.319,258.4,746.151,259.432Z" transform="translate(-696.615 -241.082)" fill="#424b96" fill-rule="evenodd"/>
            </g>
            <g id="Group_921" data-name="Group 921" transform="translate(87.102 18.349)">
              <path id="Path_2738" data-name="Path 2738" d="M725.546,259.516a35.307,35.307,0,0,0,19.293-2.573c9.976,16.773,10.334,40.342-7.38,44.863-9.8,2.5-22.981-1.252-24.56-13.137-6.975-.7-10.054-12.019-6.32-14.96,3.922-3.091,6.616,2.7,7.239,6.043l1.712-.5-.916-9.014A21.838,21.838,0,0,0,725.546,259.516Z" transform="translate(-704.977 -256.943)" fill="#fdceae" fill-rule="evenodd"/>
            </g>
            <g id="Group_922" data-name="Group 922" transform="translate(87.102 18.349)">
              <path id="Path_2739" data-name="Path 2739" d="M725.546,259.516a35.307,35.307,0,0,0,19.293-2.573,29.419,29.419,0,0,1-18.638,8.988c-8.275,13.833-4.209,30.258,14.2,34.881a20.117,20.117,0,0,1-2.941.994c-9.8,2.5-22.981-1.252-24.56-13.137-6.975-.7-10.054-12.019-6.32-14.96,3.922-3.091,6.616,2.7,7.239,6.043l1.712-.5-.916-9.014A21.838,21.838,0,0,0,725.546,259.516Z" transform="translate(-704.977 -256.943)" fill="#f3b898" fill-rule="evenodd"/>
            </g>
          </g>
        </g>
        <g id="Group_948" data-name="Group 948" transform="translate(182.64)">
          <g id="Group_946" data-name="Group 946">
            <circle id="Ellipse_172" data-name="Ellipse 172" cx="29.706" cy="29.706" r="29.706" transform="translate(0 17.331) rotate(-16.96)" fill="#b7cdfe"/>
          </g>
          <g id="Group_947" data-name="Group 947" transform="translate(20.097 21.11)">
            <path id="Path_2756" data-name="Path 2756" d="M827.542,165.712l-13.226,6.015c-.2-.108-.421-.31-.625-.443a5.665,5.665,0,1,0-1.488,10.172,5.856,5.856,0,0,0,1.437-.659,5.2,5.2,0,0,0,.6-.444,5.66,5.66,0,0,1,.592-.523,12.721,12.721,0,0,1,1.219.657c3.59,2.01,7.366,4.01,10.956,5.987.823.453.5.193.754,1.108a5.7,5.7,0,1,0,1.551-5.623,8.364,8.364,0,0,0-.871,1.034c-.251-.046-8.53-4.626-9.129-4.961l-3.054-1.658-.067-1.416c2.121-.967,4.212-1.93,6.37-2.9.392-.176,6.141-2.831,6.4-2.869A5.749,5.749,0,0,0,832.156,171a5.672,5.672,0,0,0,6.364-3.542,5.8,5.8,0,0,0-.091-4.267,5.674,5.674,0,0,0-10.8,1.315C827.548,164.938,827.593,165.3,827.542,165.712Z" transform="translate(-804.929 -159.776)" fill="#fff" fill-rule="evenodd"/>
          </g>
        </g>
        <g id="Group_955" data-name="Group 955" transform="translate(36.309 65.806)">
          <g id="Group_949" data-name="Group 949" transform="translate(12.217)">
            <rect id="Rectangle_224" data-name="Rectangle 224" width="132.202" height="5.697" rx="2.462" fill="#cfd8fc"/>
          </g>
          <g id="Group_950" data-name="Group 950" transform="translate(12.217 15.95)">
            <path id="Rectangle_225" data-name="Rectangle 225" d="M2.461,0H129.74A2.462,2.462,0,0,1,132.2,2.462v.773A2.462,2.462,0,0,1,129.741,5.7H2.462A2.462,2.462,0,0,1,0,3.235V2.461A2.461,2.461,0,0,1,2.461,0Z" fill="#cfd8fc"/>
          </g>
          <g id="Group_951" data-name="Group 951" transform="translate(12.217 31.899)">
            <rect id="Rectangle_226" data-name="Rectangle 226" width="132.202" height="5.697" rx="2.462" fill="#cfd8fc"/>
          </g>
          <g id="Group_952" data-name="Group 952">
            <rect id="Rectangle_227" data-name="Rectangle 227" width="7.225" height="5.697" rx="2.462" fill="#407adb"/>
          </g>
          <g id="Group_953" data-name="Group 953" transform="translate(0 15.95)">
            <rect id="Rectangle_228" data-name="Rectangle 228" width="7.225" height="5.697" rx="2.462" fill="#407adb"/>
          </g>
          <g id="Group_954" data-name="Group 954" transform="translate(0 31.899)">
            <rect id="Rectangle_229" data-name="Rectangle 229" width="7.225" height="5.697" rx="2.462" fill="#407adb"/>
          </g>
        </g>
        <g id="Group_960" data-name="Group 960" transform="translate(36.309 328.04)">
          <g id="Group_956" data-name="Group 956" transform="translate(12.217)">
            <path id="Rectangle_230" data-name="Rectangle 230" d="M2.462,0H129.741A2.461,2.461,0,0,1,132.2,2.461v.773A2.462,2.462,0,0,1,129.74,5.7H2.461A2.461,2.461,0,0,1,0,3.235V2.462A2.462,2.462,0,0,1,2.462,0Z" fill="#cfd8fc"/>
          </g>
          <g id="Group_957" data-name="Group 957" transform="translate(12.217 15.949)">
            <rect id="Rectangle_231" data-name="Rectangle 231" width="132.202" height="5.697" rx="2.462" fill="#cfd8fc"/>
          </g>
          <g id="Group_958" data-name="Group 958">
            <rect id="Rectangle_232" data-name="Rectangle 232" width="7.225" height="5.697" rx="2.462" fill="#407adb"/>
          </g>
          <g id="Group_959" data-name="Group 959" transform="translate(0 15.949)">
            <rect id="Rectangle_233" data-name="Rectangle 233" width="7.225" height="5.697" rx="2.462" fill="#407adb"/>
          </g>
        </g>
      </g>
    </g>
  </g>
</svg>
