<svg xmlns="http://www.w3.org/2000/svg" xmlns:xlink="http://www.w3.org/1999/xlink" width="540.822" height="458.942" viewBox="0 0 540.822 458.942">
  <defs>
    <clipPath id="clip-path">
      <path id="Path_291" data-name="Path 291" d="M172.38,82.814,155.737,92.42a2.009,2.009,0,0,0-1.006,1.741v19.226a2.008,2.008,0,0,0,1.006,1.74l16.645,9.614a2.014,2.014,0,0,0,2.011,0l16.642-9.614a2.013,2.013,0,0,0,1-1.74V94.161a2.009,2.009,0,0,0-1.007-1.741l-16.64-9.606a2.023,2.023,0,0,0-2.015,0" transform="translate(-154.731 -82.545)" fill="#00a313"/>
    </clipPath>
  </defs>
  <g id="tools-full-color" transform="translate(-1165.999 -3013)">
    <g id="Group_771" data-name="Group 771" transform="translate(1165.999 3013)">
      <g id="Group_115" data-name="Group 115" transform="translate(0.001 164.939)">
        <path id="Path_274" data-name="Path 274" d="M-426.861,39.4H-546.087V-79.826h119.226Zm-48.23-20.9c.1.207.171.37.256.526a19.806,19.806,0,0,0,8.016,8.1A24.767,24.767,0,0,0-454.567,30a23.553,23.553,0,0,0,9.417-1.793,14.146,14.146,0,0,0,8.214-8.509,17.135,17.135,0,0,0,.773-7.233,14.469,14.469,0,0,0-3.182-8.174A18.925,18.925,0,0,0-445.5-.56c-2.957-1.494-6-2.819-9.012-4.207a20.444,20.444,0,0,1-4.384-2.481c-2.38-1.913-2.416-6.261.455-7.92a6.827,6.827,0,0,1,4.754-.659,6.957,6.957,0,0,1,4.553,3.084c.351.5.668,1.014,1.031,1.568l8.745-5.615a17.689,17.689,0,0,0-5.864-6.466,16.672,16.672,0,0,0-7.413-2.409,21.072,21.072,0,0,0-9.239.92,14.07,14.07,0,0,0-8.921,8.426,15.757,15.757,0,0,0-.873,7.212,14.66,14.66,0,0,0,3.591,8.674,18.416,18.416,0,0,0,5.64,4.317c2.748,1.363,5.566,2.584,8.359,3.856a23.044,23.044,0,0,1,4.519,2.451,5.057,5.057,0,0,1,2.134,5.018,4.952,4.952,0,0,1-3.142,3.914,11.335,11.335,0,0,1-6.892.648,11.388,11.388,0,0,1-7.181-4.658c-.457-.6-.874-1.235-1.343-1.9Zm-5.969-43.624h-11.281v.8q0,18.336-.011,36.672a19.965,19.965,0,0,1-.269,3.4,4.45,4.45,0,0,1-3.1,3.829,8.22,8.22,0,0,1-1.6.314,6.292,6.292,0,0,1-5.953-2.322c-.594-.747-1.092-1.572-1.623-2.369-.216-.325-.4-.67-.617-1.03l-9.159,5.546a16.864,16.864,0,0,0,9.648,9.065,21.632,21.632,0,0,0,13.4.371,13.278,13.278,0,0,0,8.963-7.647,20.927,20.927,0,0,0,1.6-8.652q.014-18.683,0-37.367Z" transform="translate(546.087 79.826)" fill="#ead801" opacity="0.31"/>
      </g>
      <g id="Group_117" data-name="Group 117" transform="translate(0.001 343.072)" opacity="0.31">
        <path id="Path_279" data-name="Path 279" d="M-334.348,42.261q-2.578,4.489-5.156,8.977-16.868,29.227-33.742,58.451c-.17.294-.346.584-.57.961-.157-.252-.264-.413-.361-.58q-19.4-33.612-38.807-67.226c-.109-.189-.2-.387-.3-.581h24.23c.1.172.208.343.308.517l14.581,25.256c.1.166.2.33.336.566.146-.228.248-.371.336-.523q3.776-6.538,7.549-13.077,3.681-6.371,7.369-12.738Z" transform="translate(439.71 -42.261)" fill="#00a313"/>
        <path id="Path_280" data-name="Path 280" d="M-588.249,172.336-654.087,58.217h26.472l39.366,68.293,39.3-68.293h26.542Z" transform="translate(654.087 -56.466)" fill="#00a313"/>
      </g>
      <g id="Group_118" data-name="Group 118" transform="translate(0 0)" opacity="0.31">
        <path id="Path_281" data-name="Path 281" d="M2233.435-421.768h3.405c.212.034.423.084.636.1,1.081.074,2.164.122,3.244.211a55.174,55.174,0,0,1,9.635,1.677,58.944,58.944,0,0,1,28.844,17.33,59.237,59.237,0,0,1,15.992,39.729,57.73,57.73,0,0,1-.561,9.28,57.55,57.55,0,0,1-3.152,12.622,59.511,59.511,0,0,1-23.7,29.544,59.053,59.053,0,0,1-29.3,9.571,59.11,59.11,0,0,1-9.84-.271,57.465,57.465,0,0,1-9.739-1.869,59.265,59.265,0,0,1-31.346-21.223,58.738,58.738,0,0,1-12.411-34.557c-.011-.313-.073-.624-.111-.936v-2.2c.034-.212.085-.422.1-.635.079-1.23.133-2.462.224-3.691a53.043,53.043,0,0,1,1.415-8.707,59.614,59.614,0,0,1,17.051-29.447,58.893,58.893,0,0,1,22.745-13.552,58.274,58.274,0,0,1,14.28-2.766C2231.714-421.621,2232.574-421.7,2233.435-421.768Zm-30.764,40.417c.4.692.831,1.5,1.324,2.27q3.656,5.709,7.34,11.4,4.838,7.508,9.666,15.021a.867.867,0,0,0,.85.453c1.235-.024,2.471-.009,3.706-.009.781,0,.782,0,.781-.793q-.012-16.427-.026-32.854c0-.133,0-.268-.009-.4a1.432,1.432,0,0,0-.061-.239h-4.058c.1,9.615-.147,19.19.11,28.712-1.779-2.792-3.587-5.633-5.4-8.472q-6.3-9.87-12.6-19.744a1.047,1.047,0,0,0-1.041-.561c-1.351.037-2.7.012-4.057.014-.175,0-.351.018-.561.029v33.606a1.943,1.943,0,0,1,0,.25c-.046.348.1.464.45.458,1.085-.019,2.17-.006,3.255-.009a2.27,2.27,0,0,0,.326-.047Zm49.83-5.156h-17.355v34.292h.638q4.932,0,9.865,0c2.42,0,4.841-.016,7.261-.006.372,0,.493-.109.485-.483-.021-.984,0-1.97-.006-2.955a3.8,3.8,0,0,0-.05-.417h-.677c-4.273,0-8.546-.015-12.819,0-.419,0-.576-.077-.573-.542.017-3.572,0-7.145,0-10.717,0-.16.016-.321.028-.538h12.343c0-1.058-.028-2.057.012-3.054.021-.52-.159-.642-.654-.639-3.672.019-7.345.011-11.017.008-.226,0-.452-.025-.684-.039V-382.86h13.2Zm13.716,3.645v30.634h3.372c.725,0,.725,0,.725-.729q0-14.62,0-29.24v-.675h9.892v-3.669h-1.126q-11.064,0-22.129-.005c-.378,0-.625.012-.6.516.043.882.034,1.769,0,2.653-.015.433.145.525.547.523,2.87-.015,5.74-.008,8.611-.008Zm-9.823,51.919a6.817,6.817,0,0,1-2.993,1.274,3.456,3.456,0,0,1-4.114-3.142c-.029-.443.074-.62.56-.609,1.334.031,2.669.011,4,.011.935,0,1.87-.019,2.8.008.444.012.6-.144.559-.58-.033-.364.016-.735-.013-1.1a5.27,5.27,0,0,0-1.679-3.829,4.99,4.99,0,0,0-7.261,1.243,7.07,7.07,0,0,0-.965,5.084,5.356,5.356,0,0,0,1.8,3.467c1.883,1.623,5.218,1.318,7.052.129a.532.532,0,0,0,.232-.346C2256.409-329.813,2256.393-330.294,2256.393-330.943Zm-32.2-10.807c0-.553-.013-1.046.005-1.539a.523.523,0,0,0-.431-.57,10.389,10.389,0,0,0-3.74-.513,7.587,7.587,0,0,0-6.041,3.024,8.926,8.926,0,0,0-1.544,7.444,6.841,6.841,0,0,0,2.882,4.581c2.748,1.855,5.649,1.651,8.581.474a.411.411,0,0,0,.23-.28c.023-.522.011-1.046.011-1.631a3.753,3.753,0,0,0-.357.135,7.953,7.953,0,0,1-4.1.882,5.146,5.146,0,0,1-4.264-2.31,7.057,7.057,0,0,1-1.09-4.578,6.36,6.36,0,0,1,2.272-4.723c1.8-1.495,3.866-1.537,6.008-.979C2223.121-342.2,2223.6-341.97,2224.194-341.749Zm13.274,7.481c-.023-.26-.033-.678-.1-1.087a5.118,5.118,0,0,0-3.633-4.453,6.235,6.235,0,0,0-3.258-.046,5.167,5.167,0,0,0-3.671,2.97,7.15,7.15,0,0,0-.528,3.9,5.534,5.534,0,0,0,8.587,4.1C2236.742-330.09,2237.419-331.958,2237.468-334.268Zm4.714-3.549c0-.483-.012-.96,0-1.437.011-.305-.109-.421-.41-.407a6.264,6.264,0,0,1-1,0c-.48-.055-.577.153-.574.594.016,3.4.008,6.807.01,10.211,0,.178.016.355.028.586.473,0,.906-.03,1.332.008.474.042.631-.11.623-.6-.028-1.868-.02-3.737-.008-5.606a4.662,4.662,0,0,1,.83-2.628,1.815,1.815,0,0,1,1.335-.882,14.81,14.81,0,0,1,1.837.075c0-.456.017-1-.014-1.548-.007-.107-.187-.263-.314-.3a2.691,2.691,0,0,0-2.678.684A12.145,12.145,0,0,0,2242.181-337.817Zm-53.275-19.377a2.711,2.711,0,0,0-2.681,2.716,2.764,2.764,0,0,0,2.723,2.751,2.812,2.812,0,0,0,2.732-2.766A2.78,2.78,0,0,0,2188.906-357.194Z" transform="translate(-2175.038 421.768)" fill="#fff"/>
        <path id="Path_282" data-name="Path 282" d="M2921.47,414.374h-5.963a3.64,3.64,0,0,1,1.689-2.731,2.721,2.721,0,0,1,3.028.013A3.184,3.184,0,0,1,2921.47,414.374Z" transform="translate(-2841.279 -327.689)" fill="#fff"/>
        <path id="Path_283" data-name="Path 283" d="M2705.582,415.369a4.694,4.694,0,0,1,.491-2.453,3.378,3.378,0,0,1,3.485-1.935,3.113,3.113,0,0,1,2.9,2.174,5.949,5.949,0,0,1-.073,4.526,2.989,2.989,0,0,1-2.587,1.928,3.445,3.445,0,0,1-3.489-1.473A4.289,4.289,0,0,1,2705.582,415.369Z" transform="translate(-2652.385 -327.493)" fill="#fff"/>
      </g>
    </g>
    <g id="Group_770" data-name="Group 770" transform="translate(1532.001 3013.001)">
      <g id="Group_119" data-name="Group 119" transform="translate(54.98 170.436)" opacity="0.31">
        <path id="Path_284" data-name="Path 284" d="M2394.2-141.619a21.191,21.191,0,0,0-6.469-6.742,56.8,56.8,0,0,0-16.268-7.67c-.632-.2-.907-.385-.734-1.184a62.394,62.394,0,0,0,1.617-14.054,28.9,28.9,0,0,0-1.718-10.669c-1.882-5.109-5.942-7.913-11.233-7.648a22.608,22.608,0,0,0-8.36,2.313,58.194,58.194,0,0,0-14.623,10.195c-.466.425-.733.516-1.24.048a65.1,65.1,0,0,0-7.466-6c-4.366-2.981-8.927-5.55-14.278-6.291-5.085-.7-9.318,1.048-11.8,5.783a25.348,25.348,0,0,0-2.5,11.341,59.658,59.658,0,0,0,1.591,14.664c.27,1.209.283,1.215-.861,1.578a64.234,64.234,0,0,0-11.664,4.906,29.856,29.856,0,0,0-9.783,7.905c-3.064,4.057-3.351,8.427-.729,12.763a21.716,21.716,0,0,0,6.2,6.3,56.547,56.547,0,0,0,16.271,7.669c.74.231.9.519.73,1.272a63.413,63.413,0,0,0-1.634,13.118,39.144,39.144,0,0,0,.367,6.142,19.988,19.988,0,0,0,2.5,7.671,10.171,10.171,0,0,0,9.08,5.3c4.448.046,8.372-1.579,12.149-3.657a61.056,61.056,0,0,0,12.131-9.022c.321-.3.5-.305.827-.008a70.336,70.336,0,0,0,7.734,6.215c4.5,3.038,9.179,5.615,14.711,6.323a10.682,10.682,0,0,0,10.954-5.24A23.544,23.544,0,0,0,2372.49-99.2a60.575,60.575,0,0,0-1.6-16.033c-.15-.688-.014-.95.644-1.155a62.5,62.5,0,0,0,12.727-5.446,28.09,28.09,0,0,0,8.95-7.451C2396.075-133.186,2396.646-137.289,2394.2-141.619Zm-54.09-31.494a57.891,57.891,0,0,1,11.209-8.24,21.678,21.678,0,0,1,7.436-2.677c.422-.057.848-.087,1.273-.129,2.828.045,4.471,1.293,5.594,4.313a22.434,22.434,0,0,1,1.24,6.432,56.636,56.636,0,0,1-1.376,14.916c-.1.513-.282.679-.8.548a117.547,117.547,0,0,0-14.374-2.481,1.1,1.1,0,0,1-.831-.489c-2.531-3.452-5.247-6.753-8.1-9.939-.4-.446-.807-.89-1.246-1.3C2339.768-172.5,2339.695-172.733,2340.114-173.113ZM2307.8-120.327a95.842,95.842,0,0,1,3.169-9.24,132.081,132.081,0,0,0,6.631,11.441,11.444,11.444,0,0,1-2.671-.321c-2.248-.362-4.478-.818-6.693-1.353C2307.94-119.872,2307.68-119.886,2307.8-120.327Zm.554-32.352c3.016-.7,6.054-1.271,9.266-1.737-2.361,3.78-4.576,7.512-6.623,11.612a50.715,50.715,0,0,1-1.832-4.844c-.454-1.379-.864-2.773-1.356-4.138C2307.588-152.4,2307.809-152.552,2308.356-152.679Zm5.774,17.176a1.292,1.292,0,0,1-.038-1.271,136.528,136.528,0,0,1,10.282-17.875,1.316,1.316,0,0,1,1.09-.668c4.988-.4,9.985-.413,14.981-.316,1.965.038,3.927.222,5.892.324a.918.918,0,0,1,.76.467,137.148,137.148,0,0,1,7.268,11.809c1.134,2.081,2.242,4.175,3.215,6.339a1.03,1.03,0,0,1-.007.964,133.316,133.316,0,0,1-10.4,18.1,1.144,1.144,0,0,1-.976.555c-3.476.2-6.95.46-10.4.342-3.493.107-6.938-.138-10.387-.335a1.056,1.056,0,0,1-.894-.527,126.038,126.038,0,0,1-6.736-10.828C2316.484-130.743,2315.295-133.116,2314.131-135.5Zm46.511,5.831c.61,1.612,1.192,3.056,1.7,4.525.524,1.505.971,3.037,1.469,4.551.123.373.183.655-.315.773-2.962.7-5.945,1.286-8.957,1.723a3.349,3.349,0,0,1-.518-.023C2356.415-121.865,2358.579-125.634,2360.642-129.671Zm3.16-22.4c-.9,3.009-1.9,5.977-3.058,8.9-.018.045-.086.069-.183.144-2-3.857-4.178-7.6-6.609-11.361,2.173.221,4.155.647,6.143,1.032,1.118.216,2.221.508,3.336.744C2363.76-152.545,2363.927-152.49,2363.8-152.071Zm-28.437-16.394c.218-.248.377-.391.671-.074,2.208,2.383,4.381,4.795,6.443,7.5-4.521-.16-8.894-.169-13.448,0,.922-1.141,1.73-2.192,2.592-3.2C2332.852-165.663,2334.123-167.051,2335.366-168.464Zm-29.429-11.392c.754-1.973,1.842-3.689,4.118-4.055a11.01,11.01,0,0,1,4.9.419,35.78,35.78,0,0,1,10.341,5.42,77.606,77.606,0,0,1,6.179,5.008c.327.285.392.477.059.818a102.771,102.771,0,0,0-9.4,11.313,1.269,1.269,0,0,1-1,.514,117.173,117.173,0,0,0-14.288,2.5c-.439.111-.64.005-.749-.5A61.508,61.508,0,0,1,2304.569-171,25.456,25.456,0,0,1,2305.937-179.857Zm-3.3,57.733c-.171.6-.382.726-1,.523a55.966,55.966,0,0,1-13-5.853,20.589,20.589,0,0,1-6.11-5.41,6.732,6.732,0,0,1-1.26-3.436,7.96,7.96,0,0,1,2.389-4.686,30.523,30.523,0,0,1,8.938-6.238,68.177,68.177,0,0,1,8.967-3.6c.61-.2.8-.081.989.533a105.426,105.426,0,0,0,4.721,12.834,2.749,2.749,0,0,1,.047,2.48A95.811,95.811,0,0,0,2302.639-122.123Zm28.824,22.858c-4.665,4.156-9.536,7.991-15.516,10.134a14.478,14.478,0,0,1-4,.842,5.233,5.233,0,0,1-5.421-3.1,18.68,18.68,0,0,1-1.6-5.646,32.179,32.179,0,0,1-.2-4.525,55.976,55.976,0,0,1,1.39-12.281c.12-.59.315-.78.954-.624a101.983,101.983,0,0,0,13.954,2.386,1.568,1.568,0,0,1,1.2.679,120.147,120.147,0,0,0,9.285,11.179C2331.9-99.814,2331.834-99.6,2331.463-99.265Zm4.81-4.8c-.2.223-.386.529-.746.136-2.175-2.377-4.345-4.756-6.43-7.493a110.056,110.056,0,0,0,13.235-.015l.114.2c-.851,1.058-1.674,2.141-2.562,3.167C2338.708-106.714,2337.483-105.4,2336.273-104.07Zm29.37,11.637c-1.156,2.983-2.752,4.071-5.927,3.994a13.874,13.874,0,0,1-4.482-1.008,42.109,42.109,0,0,1-11.4-6.84c-1.25-.992-2.425-2.079-3.65-3.1-.373-.312-.363-.514-.023-.87a107.766,107.766,0,0,0,9.324-11.26,1.278,1.278,0,0,1,.991-.566,98.88,98.88,0,0,0,14.041-2.4c.624-.155.9-.137,1.057.626a61.817,61.817,0,0,1,1.462,12.189A25.194,25.194,0,0,1,2365.643-92.433Zm23.446-40.446a22.829,22.829,0,0,1-7.562,6.315,59.284,59.284,0,0,1-11.542,4.956c-.616.2-.76.017-.919-.517a114.978,114.978,0,0,0-5.092-13.706.993.993,0,0,1,0-.886,112.585,112.585,0,0,0,5-13.556c.111-.377.1-.851.812-.622a54.621,54.621,0,0,1,14.173,6.546,17.936,17.936,0,0,1,5.532,5.4,6.146,6.146,0,0,1,.863,2.645A6.609,6.609,0,0,1,2389.089-132.879Z" transform="translate(-2275.899 189.602)" fill="#3888f4"/>
        <path id="Path_285" data-name="Path 285" d="M2570.856,78.534a11.14,11.14,0,1,1,11.133-11.143A11.1,11.1,0,0,1,2570.856,78.534Z" transform="translate(-2510.939 -14.037)" fill="#3888f4"/>
      </g>
      <g id="Group_123" data-name="Group 123" transform="translate(0 334.277)" opacity="0.31">
        <path id="Path_286" data-name="Path 286" d="M246.141,258.945a3.321,3.321,0,0,1-1.655-.442l-5.269-3.119c-.787-.44-.4-.6-.143-.685a10.63,10.63,0,0,0,2.382-1.087.4.4,0,0,1,.392.028l4.048,2.4a.533.533,0,0,0,.489,0l15.782-9.11a.5.5,0,0,0,.241-.427V228.292a.507.507,0,0,0-.244-.435l-15.776-9.1a.486.486,0,0,0-.486,0l-15.773,9.1a.5.5,0,0,0-.25.431V246.5a.486.486,0,0,0,.245.423l4.322,2.5c2.347,1.173,3.781-.209,3.781-1.6V229.845a.45.45,0,0,1,.458-.454h2a.452.452,0,0,1,.454.454v17.983c0,3.129-1.707,4.926-4.673,4.926a6.764,6.764,0,0,1-3.638-.988l-4.14-2.386a3.337,3.337,0,0,1-1.655-2.88V228.288a3.316,3.316,0,0,1,1.655-2.876l15.8-9.114a3.46,3.46,0,0,1,3.318,0l15.779,9.118a3.33,3.33,0,0,1,1.655,2.876V246.5a3.339,3.339,0,0,1-1.655,2.876L247.8,258.494a3.315,3.315,0,0,1-1.663.442" transform="translate(-159.764 -151.914)" fill="#00a313"/>
        <path id="Path_287" data-name="Path 287" d="M288.143,266.338c-6.906,0-8.353-3.17-8.353-5.829a.454.454,0,0,1,.457-.454h2.039a.457.457,0,0,1,.45.386c.308,2.077,1.225,3.125,5.4,3.125,3.326,0,4.741-.751,4.741-2.515,0-1.015-.4-1.77-5.57-2.276-4.322-.427-6.992-1.379-6.992-4.835,0-3.184,2.686-5.08,7.186-5.08,5.053,0,7.557,1.754,7.873,5.523a.46.46,0,0,1-.122.352.47.47,0,0,1-.336.146h-2.05a.453.453,0,0,1-.443-.356c-.494-2.185-1.687-2.884-4.93-2.884-3.631,0-4.053,1.264-4.053,2.212,0,1.15.5,1.485,5.4,2.133,4.851.644,7.154,1.553,7.154,4.962,0,3.437-2.868,5.408-7.869,5.408m19.223-19.314h.529a.46.46,0,0,0,.518-.482c0-.466-.32-.466-.5-.466h-.545Zm-.644-1.493h1.173c.4,0,1.193,0,1.193.9a.784.784,0,0,1-.644.838c.47.031.5.34.565.774a3.332,3.332,0,0,0,.178.9h-.723c-.02-.158-.13-1.027-.13-1.075-.047-.194-.115-.288-.356-.288h-.6v1.367h-.66Zm-1.41,1.7a2.55,2.55,0,1,0,2.54-2.544,2.553,2.553,0,0,0-2.54,2.544m5.594.012a3.042,3.042,0,1,1-3.042-3.042,3.051,3.051,0,0,1,3.042,3.042" transform="translate(-196.892 -171.856)" fill="#00a313"/>
        <path id="Path_288" data-name="Path 288" d="M37.506,35.772a2.021,2.021,0,0,0-1.011-1.756L19.762,24.389a1.955,1.955,0,0,0-.92-.265H18.67a1.987,1.987,0,0,0-.924.265L1.013,34.016A2.036,2.036,0,0,0,0,35.774L.038,61.706a1,1,0,0,0,.5.873.956.956,0,0,0,1,0l9.947-5.7A2.04,2.04,0,0,0,12.5,55.128V43.014a2.016,2.016,0,0,1,1.009-1.75l4.235-2.439a2.011,2.011,0,0,1,1.012-.272,1.973,1.973,0,0,1,1.005.271L24,41.262a2.016,2.016,0,0,1,1.012,1.75V55.126A2.046,2.046,0,0,0,26.02,56.88l9.941,5.693a.988.988,0,0,0,1.012,0,1.015,1.015,0,0,0,.5-.873Zm78.958,13.5a.5.5,0,0,1-.253.437l-5.747,3.313a.506.506,0,0,1-.5,0l-5.748-3.313a.5.5,0,0,1-.253-.437V42.638a.509.509,0,0,1,.249-.439l5.744-3.318a.511.511,0,0,1,.51,0l5.748,3.318a.5.5,0,0,1,.253.439ZM118.016.128a1.01,1.01,0,0,0-1.5.884V26.69a.707.707,0,0,1-1.06.612l-4.192-2.414a2.017,2.017,0,0,0-2.02,0L92.5,34.549a2.016,2.016,0,0,0-1.011,1.746V55.621a2.022,2.022,0,0,0,1.011,1.75l16.738,9.667a2.03,2.03,0,0,0,2.022,0L128,57.367a2.026,2.026,0,0,0,1.011-1.75V7.452a2.025,2.025,0,0,0-1.039-1.766Zm55.739,42.335a2.021,2.021,0,0,0,1-1.747V36.033a2.022,2.022,0,0,0-1.006-1.748L157.122,24.63a2.019,2.019,0,0,0-2.027,0l-16.734,9.659a2.018,2.018,0,0,0-1.011,1.75V55.357a2.028,2.028,0,0,0,1.019,1.758L155,66.592a2.015,2.015,0,0,0,1.983.012l10.058-5.59a1.009,1.009,0,0,0,.008-1.758l-16.837-9.663a1,1,0,0,1-.51-.873V42.66a1,1,0,0,1,.505-.876l5.238-3.022a1,1,0,0,1,1.007,0l5.243,3.022a1.007,1.007,0,0,1,.505.873v4.764a1.008,1.008,0,0,0,1.517.873Z" transform="translate(-0.001 -0.001)" fill="#00a313" fill-rule="evenodd"/>
        <path id="Path_289" data-name="Path 289" d="M517.957,140.141a.384.384,0,0,1,.387,0l3.212,1.853a.388.388,0,0,1,.193.336v3.71a.388.388,0,0,1-.193.336l-3.212,1.853a.384.384,0,0,1-.387,0l-3.21-1.853a.386.386,0,0,1-.2-.336v-3.71a.382.382,0,0,1,.194-.336Z" transform="translate(-362.095 -98.582)" fill="#00a313" fill-rule="evenodd"/>
        <g id="Group_122" data-name="Group 122" transform="translate(45.845 24.457)">
          <g id="Group_121" data-name="Group 121" clip-path="url(#clip-path)">
            <g id="Group_120" data-name="Group 120" transform="translate(-16.82 -14.744)">
              <path id="Path_290" data-name="Path 290" d="M168.908,55.771l-46.9-22.988L97.963,81.838l46.9,22.989Z" transform="translate(-97.963 -32.783)" fill="#00a313"/>
            </g>
          </g>
        </g>
      </g>
      <g id="Group_129" data-name="Group 129" transform="translate(58.279 0)" opacity="0.31">
        <path id="Path_302" data-name="Path 302" d="M-607.028,50.634c.008,9.425.8,18.947-.337,28.234-.544,4.437-4.112,11.23-7.45,11.991-5.593,1.273-12.116-1.333-18.186-2.6-.6-.126-1.137-2.345-.99-3.5.091-.7,1.486-1.422,2.429-1.765a5.709,5.709,0,0,1,2.459.144c15.027,1.941,15.1,1.945,15.245-13.5.139-14.7-.1-29.4.241-44.086.134-5.9-1.839-9.132-7.706-10.835-26.943-7.825-53.779-16.019-80.7-23.938-8.2-2.41-10.537-.5-10.609,8.247-.09,11.091.174,22.191-.208,33.269-.07,2.053-2.474,4.027-3.8,6.035-.948-2.013-2.673-4.011-2.717-6.045-.26-11.919-.313-23.849-.069-35.768.208-10.153,6.914-15.614,16.649-12.815C-673.94-8.01-645.252.778-616.515,9.4q9.59,2.877,9.5,12.954C-607.094,31.783-607.038,41.208-607.028,50.634Z" transform="translate(723.027 17.033)" fill="#ead801"/>
        <path id="Path_303" data-name="Path 303" d="M-667.19,47.05c0,9.711-.07,19.424.033,29.137.057,5.348-1.552,9.706-7.457,10.066-6.676.407-8.433-4.542-8.447-9.969-.05-19.977.084-39.956.231-59.933.037-5.043,2.234-9.023,7.718-8.934,5.839.094,7.943,4.224,7.926,9.661C-667.216,27.07-667.195,37.059-667.19,47.05Z" transform="translate(747.668 33.534)" fill="#ead801"/>
        <path id="Path_304" data-name="Path 304" d="M-695.673,43.293c0-7.5.052-14.991-.017-22.484-.048-5.358,2.717-9.356,7.762-8.393,2.91.554,7.023,5.176,7.159,8.125.712,15.513.7,31.093-.015,46.607-.129,2.822-4.325,7.152-7.288,7.783-5.4,1.151-7.647-3.04-7.589-8.319.085-7.772.022-15.545.022-23.318Z" transform="translate(739.151 36.812)" fill="#ead801"/>
        <path id="Path_305" data-name="Path 305" d="M-693.318,40.677c-.008,4.985.077,9.971-.032,14.952-.109,4.913-2.839,8.735-7.586,7.551-2.981-.744-6.938-4.911-7.2-7.835a166.31,166.31,0,0,1-.017-29.844c.271-3.03,4.13-7.562,7.006-8.139,5.145-1.03,7.745,3.206,7.825,8.363C-693.247,30.708-693.308,35.692-693.318,40.677Z" transform="translate(730.29 40.142)" fill="#ead801"/>
        <path id="Path_306" data-name="Path 306" d="M-721.32,36.851c0-2.75-.816-5.861.208-8.159,1.253-2.812,4.169-7,6.143-6.887,2.951.176,7.7,3.229,8.157,5.7a59.013,59.013,0,0,1,.052,19.649c-.382,2.39-4.807,5.775-7.324,5.723-2.444-.052-5.765-3.519-6.941-6.241-1.2-2.785-.266-6.487-.266-9.787Z" transform="translate(721.638 43.244)" fill="#ead801"/>
      </g>
    </g>
    <g id="Group_772" data-name="Group 772" transform="translate(1343 3017.399)">
      <g id="Group_116" data-name="Group 116" transform="translate(15.396 160.539)" opacity="0.31">
        <path id="Path_277" data-name="Path 277" d="M-249.659,128.944c2.027-.726,4.014-1.441,6-2.15q24.62-8.778,49.246-17.542a1.6,1.6,0,0,1,1-.014q27.294,9.708,54.581,19.439c.5.177.625.377.553.929-.35,2.673-.627,5.356-.935,8.034-.313,2.72-.637,5.438-.95,8.158-.269,2.328-.529,4.658-.8,6.986q-.46,4.018-.926,8.036-.41,3.554-.821,7.108-.409,3.523-.822,7.045c-.269,2.328-.53,4.657-.8,6.985q-.406,3.523-.818,7.046-.4,3.492-.8,6.985c-.244,2.1-.478,4.2-.762,6.3-.032.234-.326.5-.564.629q-8.372,4.661-16.761,9.292-14.669,8.124-29.333,16.258a.95.95,0,0,1-1.065.023q-22.983-12.756-45.985-25.475a1.388,1.388,0,0,1-.844-1.207c-.491-4.6-1.04-9.2-1.573-13.8q-.782-6.745-1.569-13.49c-.436-3.775-.861-7.552-1.3-11.327-.438-3.8-.887-7.59-1.324-11.386q-.717-6.22-1.423-12.441C-248.846,135.921-249.249,132.477-249.659,128.944Zm90.469,71.486-34.762-78.213L-228.819,200.4c.328.015.549.035.769.035,3.845,0,7.69-.014,11.534.017a.929.929,0,0,0,1.023-.722c2.14-5.4,4.316-10.778,6.453-16.175a.854.854,0,0,1,.956-.628q14.059.019,28.119-.007a.889.889,0,0,1,1,.66c2.144,5.415,4.324,10.816,6.474,16.229a.863.863,0,0,0,.957.634c3.865-.022,7.731-.012,11.6-.012Z" transform="translate(249.659 -109.166)" fill="red"/>
        <path id="Path_278" data-name="Path 278" d="M125.652,418.009l10.128,24.366H115.526Z" transform="translate(-69.941 -379.457)" fill="#ff0026"/>
      </g>
      <g id="Group_769" data-name="Group 769" transform="translate(0 0)" opacity="0.31">
        <path id="Path_2576" data-name="Path 2576" d="M-22834.373-21532.432h31.211l45.385-100.291-40.982,32.816Z" transform="translate(22834.373 21632.723)" fill="#3888f4" stroke="#707070" stroke-width="1"/>
        <path id="Path_2577" data-name="Path 2577" d="M-22806.758-21522.84h104.486l-57.166-105.051-20.209,48.971,35.063,42.129" transform="translate(22845.057 21634.596)" fill="#3888f4" stroke="#707070" stroke-width="1"/>
      </g>
      <path id="Path_2578" data-name="Path 2578" d="M-435.718-33.84c-12.243,2.98-23.652,5.528-34.868,8.752-1.6.459-3.146,4.179-3.189,6.419-.28,14.993-.146,29.992-.146,45.549l-18.84,7.312c0-20.373-.078-39.749.156-59.121.017-1.456,1.97-3.619,3.505-4.213q24.915-9.652,50.039-18.763c2.249-.812,5.1-.457,7.574-.033a76.374,76.374,0,0,1,9.5,2.622c5.571,1.721,13.371,1.928,16.068,5.717,2.931,4.115,1.3,11.595,1.32,17.609.085,22.727.034,45.455.034,68.745-10.007,2.744-19.886,5.494-29.8,8.112a6.154,6.154,0,0,1-3.378-.416c-16.046-5.747-32.073-11.551-47.918-17.943l49.944,6.809Z" transform="translate(520.263 377.168)" fill="#dd3b30" opacity="0.32"/>
    </g>
  </g>
</svg>
