<svg xmlns="http://www.w3.org/2000/svg" width="77.363" height="76.197" viewBox="0 0 77.363 76.197">
  <g id="Group_114" data-name="Group 114" transform="translate(-1680 -3586)" opacity="0.31">
    <path id="Path_203" data-name="Path 203" d="M820.366,779.429c-1.047.2-2.024.32-2.967.572-1.89.5-2.339,1.1-2.347,3.024q-.042,9.728-.054,19.456c0,.524,0,1.048,0,1.739l-4.675-.3c0-1.3-.005-2.5,0-3.7.028-5.546.069-11.091.083-16.637,0-1.479-.726-2.12-2.063-1.913-1.139.176-1.374.946-1.374,1.951,0,5.725-.022,11.45-.036,17.175,0,1.023,0,2.047,0,3.246l-4.459.217c0-.641,0-1.157,0-1.673q.049-9.459.1-18.918c.007-1.039-.174-1.885-1.428-2.02-1.35-.146-1.994.459-2,1.982q-.038,9.661-.047,19.322c0,.533,0,1.065,0,1.716l-4.469.842c0-.623,0-1.174,0-1.724q.045-10.063.1-20.126c.006-1.022-.121-1.9-1.4-2.027-1.365-.138-2.013.462-2.016,1.964q-.023,10.466-.028,20.933c0,.53,0,1.061,0,1.689l-4.477.8c0-.615,0-1.085,0-1.555q.031-11,.058-22.006c0-1.457-.571-1.961-1.952-1.837-1.169.105-1.434.842-1.433,1.864.008,5.725-.008,11.45-.014,17.176,0,2.235,0,4.469,0,6.873l-4.868.593c0-.645,0-1.162,0-1.679q.032-11.54.064-23.079c.006-2.569-.477-3.151-3.059-3.669-.735-.147-1.481-.239-2.217-.355.175-2.089.229-2.149,2.185-2.141q21.342.087,42.685.18C820.1,777.4,820.1,777.408,820.366,779.429Z" transform="translate(926.557 2833.848)" fill="#fff"/>
    <path id="Path_204" data-name="Path 204" d="M699.355,885.033c7.951,3.636,16.241,4.382,24.617,3.684,7.177-.6,14.288-1.942,21.441-2.861a121.326,121.326,0,0,1,25.5-.884c-.623,1.115-1.119,2.092-1.716,3-.141.215-.623.3-.944.291-10.24-.3-20.138,1.741-29.992,4.2-7.315,1.825-14.737,2.754-22.257,1.507a27.287,27.287,0,0,1-14.253-6.443C700.9,886.758,700.152,885.869,699.355,885.033Z" transform="translate(980.645 2755.356)" fill="#fff"/>
    <path id="Path_205" data-name="Path 205" d="M816.146,911.225c12.132-3.5,23.991-6.725,36.771-6.472-1.29,1.513-2.038,3.006-4.239,3.431-6.051,1.169-12.064,2.567-18.034,4.1A22.527,22.527,0,0,1,816.146,911.225Z" transform="translate(895.317 2740.677)" fill="#fff"/>
    <circle id="Ellipse_32" data-name="Ellipse 32" cx="36.099" cy="36.099" r="36.099" transform="translate(1683.166 3588)" fill="none" stroke="#fff" stroke-miterlimit="10" stroke-width="4"/>
  </g>
</svg>
