<svg xmlns="http://www.w3.org/2000/svg" width="208.538" height="199.852" viewBox="0 0 208.538 199.852">
  <g id="diamond" transform="translate(0 -0.5)">
    <path id="Path_3190" data-name="Path 3190" d="M208.044,151.51c.04-.06.076-.124.111-.189s.075-.138.108-.21c.013-.029.03-.054.041-.083s.024-.076.038-.113c.027-.075.052-.148.075-.224s.037-.14.053-.21.029-.146.038-.221.017-.146.022-.22.006-.148.006-.221,0-.148-.01-.221-.014-.146-.025-.22-.025-.146-.043-.22-.035-.14-.056-.21-.049-.148-.078-.221c-.013-.033-.021-.068-.035-.1s-.033-.062-.049-.094c-.033-.07-.07-.138-.108-.207s-.076-.127-.118-.189-.083-.119-.129-.177-.1-.123-.153-.181c-.025-.027-.046-.057-.072-.084L164.1,103.46a3.208,3.208,0,0,0-.27-.24l-.083-.062c-.072-.053-.146-.105-.223-.151-.032-.019-.062-.038-.094-.056a3.072,3.072,0,0,0-.3-.151.207.207,0,0,1-.027-.013,3.618,3.618,0,0,0-.342-.119c-.033-.01-.067-.016-.1-.025-.087-.022-.177-.04-.267-.054-.037-.006-.072-.013-.108-.016a2.859,2.859,0,0,0-.369-.025H81.488a3.064,3.064,0,1,0,0,6.129H98.469L74.225,144.234,52.137,108.675H67.6a3.064,3.064,0,1,0,0-6.129H46.626c-.029,0-.056,0-.084,0-.056,0-.11,0-.164.008s-.089.008-.134.014-.111.014-.167.025-.086.016-.129.025-.11.027-.165.043-.086.025-.127.04-.1.035-.154.056l-.135.057c-.046.022-.092.043-.138.067s-.092.049-.138.076c-.027.016-.054.029-.081.045s-.03.022-.048.033c-.043.027-.084.057-.126.088s-.088.062-.129.1-.067.056-.1.084-.091.081-.134.124c-.01.01-.021.018-.03.027L.875,147.693c-.025.025-.045.056-.07.083-.054.059-.107.121-.156.185s-.086.115-.126.173-.083.127-.121.194-.073.132-.105.2c-.016.033-.037.064-.051.1s-.022.072-.037.107c-.029.07-.053.142-.075.215s-.041.142-.059.215-.029.142-.04.215-.021.15-.027.224-.008.143-.01.216,0,.151.006.226.011.142.022.213.022.151.038.228.032.137.053.205.048.153.075.228c.014.038.022.075.038.111s.029.054.041.083c.033.072.07.143.108.213s.072.126.11.186.084.123.13.181.094.122.145.18c.021.024.037.048.056.07l56.833,60.6a3.065,3.065,0,0,0,4.471-4.194L10.134,152.909H71.78l26.172,93.646-26.136-27.87a3.064,3.064,0,1,0-4.471,4.192l34.687,36.99s.008.008.013.011.019.017.027.027a3.068,3.068,0,0,0,.3.272l.07.054a3.232,3.232,0,0,0,.361.232l.067.032a3.189,3.189,0,0,0,.355.154c.025.01.049.019.075.027a2.911,2.911,0,0,0,.417.107l.1.014a2.684,2.684,0,0,0,.9,0l.1-.016a2.833,2.833,0,0,0,.415-.105c.025-.008.051-.019.075-.027a3.065,3.065,0,0,0,.355-.154l.067-.032a3.093,3.093,0,0,0,.361-.232l.07-.054a3.265,3.265,0,0,0,.3-.27.229.229,0,0,1,.029-.027s.008-.008.011-.013L207.715,151.941c.019-.022.035-.046.056-.068.051-.059.1-.121.146-.183s.088-.118.127-.18ZM79.908,146.78l24.36-35.729,24.36,35.729Zm118.25,0H139.945l22.514-36.245Zm-41.759-38.1-22.088,35.559-24.244-35.559Zm-110.322,1.86L68.592,146.78H10.378Zm84.314,42.378-26.123,93.47-26.123-93.47Zm-19.807,93.639,26.172-93.644H198.4Zm0,0" transform="translate(0 -60.483)" fill="#8f99a5"/>
    <path id="Path_3191" data-name="Path 3191" d="M251.541,18.343a3.064,3.064,0,0,0,3.064-3.064V3.564a3.064,3.064,0,1,0-6.129,0V15.279A3.065,3.065,0,0,0,251.541,18.343Zm0,0" transform="translate(-147.272 0)" fill="#8f99a5"/>
    <path id="Path_3192" data-name="Path 3192" d="M160.59,32.606a3.065,3.065,0,1,0,4.334-4.336l-8.283-8.283a3.065,3.065,0,0,0-4.334,4.334Zm0,0" transform="translate(-89.741 -11.018)" fill="#8f99a5"/>
    <path id="Path_3193" data-name="Path 3193" d="M328.271,33.5a3.055,3.055,0,0,0,2.167-.9l8.283-8.283a3.065,3.065,0,0,0-4.334-4.336L326.1,28.272a3.064,3.064,0,0,0,2.167,5.231Zm0,0" transform="translate(-192.75 -11.018)" fill="#8f99a5"/>
  </g>
</svg>
