<svg xmlns="http://www.w3.org/2000/svg" width="211.938" height="510.772" viewBox="0 0 211.938 510.772">
  <path id="Path_135" data-name="Path 135" d="M968.353,781.937c5.485,15-11.438,29.713-24.479,35.069-12.9,5.3-23.292,2.254-31.819-10.786q-73.95-113.089-149.217-225.315c-7.229-10.824-7.056-19.8-.036-30.7,48.427-75.173,96.342-150.676,144.607-225.953,11.343-17.693,23.5-19.909,41.438-8.548,17.462,11.059,20.715,23.669,9.852,40.787-41.213,64.945-82.365,129.932-124.139,194.518-6.611,10.222-7.187,17.317-.093,27.835,42.641,63.231,84.448,127.025,126.488,190.661C964.526,774.914,967.775,780.1,968.353,781.937Z" transform="translate(-757.476 -308.707)" fill="#dd3b30"/>
</svg>
