<svg xmlns="http://www.w3.org/2000/svg" width="905.823" height="815.454" viewBox="0 0 905.823 815.454">
  <g id="Group_16" data-name="Group 16" transform="translate(-1126.024 -2548.182)">
    <path id="Path_7" data-name="Path 7" d="M22.577,134.759Q1.84,114.022,1.84,90.235q0-23.177,20.737-43.914L186.645-117.137q20.127-20.127,44.524-20.127a57.014,57.014,0,0,1,24.092,5.184,68.99,68.99,0,0,1,20.127,14.028,68.991,68.991,0,0,1,14.028,20.127A57.015,57.015,0,0,1,294.6-73.833q0,25.617-18.907,44.524L156.149,90.235,275.693,210.388Q294.6,229.3,294.6,254.912A57.015,57.015,0,0,1,289.416,279a68.99,68.99,0,0,1-14.028,20.127,64.392,64.392,0,0,1-20.127,13.723,60.042,60.042,0,0,1-24.092,4.879q-25.617,0-44.524-18.907Z" transform="matrix(0.358, -0.934, 0.934, 0.358, 1629.641, 2872.406)" fill="#ee7b73"/>
    <path id="Path_8" data-name="Path 8" d="M32.1,259.712Q1.84,229.449,1.84,194.736q0-33.823,30.263-64.086L271.534-107.891q29.373-29.373,64.976-29.373a83.2,83.2,0,0,1,35.158,7.566,100.681,100.681,0,0,1,29.373,20.472,100.681,100.681,0,0,1,20.472,29.373A83.205,83.205,0,0,1,429.078-44.7q0,37.383-27.593,64.976L227.03,194.736,401.486,370.082q27.592,27.592,27.593,64.976a83.205,83.205,0,0,1-7.566,35.158,100.68,100.68,0,0,1-20.472,29.373,93.972,93.972,0,0,1-29.373,20.027,87.622,87.622,0,0,1-35.158,7.121q-37.383,0-64.976-27.592Z" transform="matrix(-0.259, 0.966, -0.966, -0.259, 1745.865, 2913.652)" fill="#dd3b30"/>
  </g>
</svg>
