<svg xmlns="http://www.w3.org/2000/svg" width="232.811" height="231.555" viewBox="0 0 232.811 231.555">
  <g id="telescope" transform="translate(-0.001 -1.381)">
    <path id="Path_3189" data-name="Path 3189" d="M232.179,55.4l-21.8-49.276a7.962,7.962,0,0,0-10.5-4.059L164.008,17.936a8.027,8.027,0,0,0-4.117,10.506L84.474,61.813a8.029,8.029,0,0,0-4.088,10.579l.856,1.933L61.194,83.2a3.412,3.412,0,0,0-1.74,4.5c1.263,1.371,1.464,2.547,4.5,1.74L84,80.566l8.1,18.3-8.959,3.964c-.227-.1-.457-.2-.689-.286a15.731,15.731,0,0,0-20.6,9.707L15.056,132.953a.228.228,0,0,1-.3-.116L6.844,114.957a.228.228,0,0,1,.116-.3l42.555-18.83a3.412,3.412,0,0,0-2.761-6.24l-7.774,3.44-11.5-25.987a7.059,7.059,0,0,0-9.3-3.595L6.291,68.7a7.06,7.06,0,0,0-3.595,9.3l11.5,25.987-10,4.424a7.059,7.059,0,0,0-3.594,9.3L8.516,135.6a7.126,7.126,0,0,0,9.3,3.595l43.457-19.229a15.74,15.74,0,1,0,27.959-12.371l5.627-2.49.856,1.933a8.234,8.234,0,0,0,7.337,4.779,7.938,7.938,0,0,0,1.62-.169L50.715,217.633a10.456,10.456,0,0,0-.629,8.03,10.67,10.67,0,0,0,9.99,7.268,10.536,10.536,0,0,0,9.4-5.748l42.061-82.62v77.845a10.524,10.524,0,1,0,21.049,0v-12.5a3.412,3.412,0,0,0-6.824,0v12.5a3.7,3.7,0,1,1-7.4,0V105.787l7.4-3.275v92.363a3.412,3.412,0,0,0,6.824,0V144.562l42.061,82.62a10.483,10.483,0,0,0,9.385,5.751c3.82.112,8.712-2.844,10-7.27a10.453,10.453,0,0,0-.629-8.03L133.134,99.249l48.574-21.493A7.961,7.961,0,0,0,192.2,81.8L228.12,65.9a8.106,8.106,0,0,0,4.059-10.5ZM8.937,75.245a.227.227,0,0,1,.116-.3l11.887-5.26a.228.228,0,0,1,.3.116l11.5,25.987-12.3,5.444Zm71.447,50.137a8.919,8.919,0,0,1-7.218-16.312c3.738-1.827,9.824-.128,11.765,4.547a8.93,8.93,0,0,1-4.547,11.765Zm22.234-20.475a1.193,1.193,0,0,1-.663-.631L86.626,69.631a1.2,1.2,0,0,1,.609-1.577l75.414-33.37,16.3,36.831-75.414,33.369a1.188,1.188,0,0,1-.914.022Zm8.726,24.988L63.392,224.086a3.7,3.7,0,0,1-6.6-3.357l54.738-107.521v16.361a3.436,3.436,0,0,0-.191.326Zm76.2,93.657a3.7,3.7,0,0,1-6.817.534l-47.943-94.172a3.431,3.431,0,0,0-.2-.339V113.208l54.738,107.521A3.676,3.676,0,0,1,187.543,223.552ZM225.959,59.033a1.132,1.132,0,0,1-.6.63L189.441,75.556a1.139,1.139,0,0,1-1.5-.58L166.16,25.753a1.2,1.2,0,0,1,.61-1.577L202.634,8.306a1.138,1.138,0,0,1,1.5.58l21.8,49.276a1.134,1.134,0,0,1,.02.871Z" fill="#8f99a5"/>
  </g>
</svg>
