<svg xmlns="http://www.w3.org/2000/svg" width="378" height="134.455" viewBox="0 0 378 134.455">
  <g id="Mobile---about-Copy" transform="translate(-57 -81)">
    <g id="Page-1" transform="translate(57 81)">
      <path id="Fill-1" d="M121.652,9.89,113,16.587s22.487-2.658,42.063-1.454c17.191,1.068,27.189,5.417,27.189,5.417l18.592-5.2s-11.583-5.88-31.209-7.036c-21.12-1.24-47.983,1.575-47.983,1.575" transform="translate(89.579 6.342)" fill="#fff" fill-rule="evenodd"/>
      <path id="Fill-3" d="M103.143,77.548a1.383,1.383,0,0,1-.515-.1L92.861,73.5a1.379,1.379,0,0,1-.314-2.378l7.741-5.845a1.379,1.379,0,0,1,2.064,1.715,6.7,6.7,0,0,0,1.535,8,1.379,1.379,0,0,1-.715,2.557.151.151,0,0,1-.029,0" transform="translate(72.932 51.528)" fill="#fff" fill-rule="evenodd"/>
      <path id="Fill-5" d="M168.838,12.363C83.077,30.811,8.391,64.765.659,89.79c-2.033,6.567.7,11.92,7.419,15.982l8.489-2.94c-3.86-3.322-5.269-7.411-3.853-12.22C19.382,67.9,87,37.014,164.856,20.3c78.715-16.894,144.6-14.323,146.476,7.013a14.833,14.833,0,0,1-2.58,9.019c6.124-.37,10.791.039,13.675,1.217,6.547-6.446,9.789-12.545,9.151-17.987-2.721-23.336-75.943-25.879-162.74-7.2" transform="translate(0 0)" fill="#fff" fill-rule="evenodd"/>
      <g id="Group-9" transform="translate(46.899 11.192)">
        <path id="Fill-7" d="M323.9,5.047a22.254,22.254,0,0,0-3.384-2.2l1.375-2.6a25.231,25.231,0,0,1,3.828,2.5Zm4.315,6.352a9.982,9.982,0,0,0-1.569-3.484l2.391-1.7a12.922,12.922,0,0,1,2.028,4.517Zm-5.911,20.186-2.139-2.01c4.265-4.61,6.918-8.9,7.888-12.739a14.024,14.024,0,0,0,.306-1.572l2.9.393a17.01,17.01,0,0,1-.37,1.906C329.8,21.89,326.913,26.609,322.308,31.585Zm-6.466,6.209-1.908-2.234c1.131-.98,2.209-1.961,3.2-2.914l2.015,2.137C318.123,35.77,317.009,36.783,315.842,37.794Zm-6.948,5.575L307.151,41q1.788-1.337,3.443-2.661l1.82,2.307Q310.724,42,308.894,43.369Zm-18.5,12.163-1.475-2.546c5.378-3.166,10.328-6.337,14.709-9.425l1.677,2.415C300.854,49.112,295.838,52.327,290.391,55.532Zm-7.686,4.362-1.4-2.589q1.943-1.065,3.821-2.132l1.435,2.569Q284.669,58.818,282.705,59.895Zm-7.8,4.143-1.331-2.625q1.966-1.015,3.879-2.029l1.363,2.608Q276.891,63.015,274.907,64.038Zm-19.87,9.555L253.843,70.9c5.482-2.467,10.807-4.991,15.829-7.505l1.3,2.64C265.914,68.567,260.553,71.11,255.037,73.593Zm-41.156,16.49L212.9,87.3c5.555-1.982,11.08-4.045,16.42-6.129l1.057,2.748C225.012,86.018,219.461,88.091,213.881,90.083Zm-8.314,2.9-.938-2.792q2.082-.71,4.142-1.429l.957,2.785Q207.659,92.272,205.566,92.984Zm-8.349,2.786-.9-2.8q2.089-.682,4.161-1.373l.919,2.8Q199.317,95.085,197.217,95.77Zm-21.03,6.473-.808-2.833c5.583-1.618,11.226-3.333,16.768-5.1l.881,2.811C187.462,98.9,181.8,100.619,176.187,102.243Zm-8.469,2.392-.772-2.843q2.115-.582,4.221-1.176l.789,2.839Q169.844,104.05,167.718,104.635Zm-8.5,2.279-.733-2.854q2.112-.551,4.234-1.12l.751,2.849Q161.339,106.361,159.217,106.914Zm-21.374,5.191-.636-2.877c5.608-1.259,11.341-2.63,17.036-4.076l.715,2.858C149.236,109.462,143.478,110.841,137.842,112.106ZM13.056,118.371C5.435,115.329,1.1,110.986.161,105.465l2.883-.5c.752,4.437,4.483,8.025,11.088,10.662Zm92.1.08-.464-2.911q2.144-.347,4.316-.719l.489,2.906Q107.311,118.1,105.153,118.451Zm-8.7,1.33-.411-2.919q2.147-.308,4.327-.642l.439,2.915Q98.61,119.472,96.449,119.781Zm-74.766,1.174c-1.517-.336-2.981-.711-4.348-1.114l.821-2.83c1.3.385,2.7.742,4.155,1.065Zm52.9,1.384-.256-2.937c5.565-.491,11.413-1.143,17.381-1.938l.383,2.921C86.079,121.187,80.189,121.844,74.582,122.339Zm-44.11.1q-2.281-.28-4.406-.634l.477-2.91q2.066.345,4.282.617ZM65.791,123l-.177-2.942q2.153-.132,4.357-.3l.219,2.939Q67.964,122.866,65.791,123Zm-8.812.4-.086-2.946q2.148-.064,4.361-.166l.134,2.945Q59.15,123.336,56.979,123.4Zm-6.969.106c-5.412,0-10.5-.2-15.122-.609l.252-2.937c5.247.458,11.1.648,17.394.583l.03,2.948Q51.275,123.506,50.01,123.506Z" transform="translate(-0.161 -0.243)" fill="#fff" fill-rule="evenodd"/>
      </g>
      <path id="Fill-10" d="M170.756,53.964,160,53.576,165.39,45a7.722,7.722,0,0,0,1.1,5.3,7.392,7.392,0,0,0,4.268,3.663" transform="translate(126.838 35.673)" fill="#fff" fill-rule="evenodd"/>
      <path id="Fill-12" d="M171.829,56.549h-.052l-11.343-.409a1.481,1.481,0,0,1-1.266-.825,1.581,1.581,0,0,1,.071-1.545l5.685-9.068a1.46,1.46,0,0,1,1.746-.61,1.541,1.541,0,0,1,.975,1.619,6.632,6.632,0,0,0,.96,4.649,6.252,6.252,0,0,0,3.6,3.162,1.525,1.525,0,0,1,1.136,1.493,1.507,1.507,0,0,1-1.5,1.535Z" transform="translate(126.045 34.88)" fill="#fff" fill-rule="evenodd"/>
      <path id="Fill-14" d="M62.224,64.855c-.23-.026-.6-.072-1.113-.136a9.683,9.683,0,0,0-1.167-.1,10.594,10.594,0,0,0-2.281.235q-2.949-8.337-6.476-17.563T44,29q3.183.334,4.484.335,1.325,0,4.465-.335,1.188,4.052,2.579,8.043t3.3,9.158q1.917,5.161,3.241,8.9Q68,40.367,71.633,29c.152.038.267.069.343.089a1.542,1.542,0,0,1,.212.068A38.3,38.3,0,0,0,76.269,29q-2.012,4.9-4.877,11.92T66.238,53.89q-2.292,5.95-4.014,10.964" transform="translate(34.88 22.989)" fill="#fff" fill-rule="evenodd"/>
      <path id="Fill-16" d="M96.959,31.531c-.05.661-.1,1.359-.134,2.1S96.764,35,96.75,35.519s-.063,1.214-.113,2.077c0,.549-.015,1.4-.037,2.569s-.038,2.022-.038,2.585c0,.639-.028,1.6-.077,2.879s-.077,2.242-.077,2.882a43.49,43.49,0,0,1-1,9.318,10.415,10.415,0,0,1-4.357,5.79A15.667,15.667,0,0,1,81.5,66.343a23.263,23.263,0,0,1-6.221-.814,12.939,12.939,0,0,1-5.172-2.762,10.381,10.381,0,0,1-3.118-5.184,12.526,12.526,0,0,1-.452-2.8,29.9,29.9,0,0,1-.15-3.6q0-1.587-.04-3.468c-.036-1.241-.056-2.227-.056-2.959V38.165q0-.961-.038-2.979t-.041-2.959c0-.235-.011-.6-.036-1.1s-.038-.882-.038-1.157q2.979.334,4.188.333a38.264,38.264,0,0,0,4.034-.333c0,.262-.032.679-.1,1.256s-.1,1.01-.13,1.312q-.379,6.818-.38,12.207,0,7.133.3,9.876a19.942,19.942,0,0,0,.956,3.537,7.021,7.021,0,0,0,1.752,2.4,7.885,7.885,0,0,0,5.761,2.253A9.522,9.522,0,0,0,88.1,61.346a10.327,10.327,0,0,0,3.421-4.8q.851-2.334.85-10.838,0-10.5-.4-15.735a16.607,16.607,0,0,0,2.557.333,16.629,16.629,0,0,0,2.577-.333Q97.034,30.542,96.959,31.531ZM62,67.44h39.44V28H62Z" transform="translate(49.15 22.197)" fill="#fff" fill-rule="evenodd"/>
      <path id="Fill-18" d="M116.171,58.384l-1.1,4.358a21.732,21.732,0,0,1-10.053,2.113,37.621,37.621,0,0,1-6.624-.7,18.57,18.57,0,0,1-5.538-2.493,15.536,15.536,0,0,1-3.657-3.6A16.262,16.262,0,0,1,86,48.012a22.9,22.9,0,0,1,1.322-8.126,15.77,15.77,0,0,1,4.52-6.3Q97.191,29,106.18,29a21.677,21.677,0,0,1,10.3,2.415q-.231.858-.551,2.351t-.609,2.788h-.7a10.41,10.41,0,0,0-3.7-3.236A9.992,9.992,0,0,0,106.18,32.1a10.164,10.164,0,0,0-6.656,2.188,12.777,12.777,0,0,0-3.933,5.663,21.474,21.474,0,0,0-1.252,7.354,16.914,16.914,0,0,0,2.968,10.3,10.751,10.751,0,0,0,4.075,3.169,12.1,12.1,0,0,0,5.043,1.113,12.651,12.651,0,0,0,4.844-1.055,14.145,14.145,0,0,0,4.275-2.676Z" transform="translate(68.175 22.989)" fill="#fff" fill-rule="evenodd"/>
      <path id="Fill-20" d="M106.176,29q1.372.042,3.874.187t4.16.148q2.577,0,6.109-.119,3.527-.1,5.4-.136c-.05.865-.079,2.156-.079,3.874a2.1,2.1,0,0,1,.079.649q-7.444-.651-11.586-.649-.079,1.849-.077,5.487c0,.643-.015,1.607-.038,2.891s-.039,2.249-.039,2.892l11.569-.394a14.149,14.149,0,0,0-.3,2.42,9.335,9.335,0,0,0,.3,2q-5.059-.392-9.067-.394-.385,0-1.223-.036c-.562-.028-.985-.04-1.279-.04V61.058q4.7,0,11.74-.706c-.05.852-.079,2.137-.079,3.855a2.208,2.208,0,0,1,.079.647q-1.53-.038-4.581-.175t-4.581-.14q-1.012,0-3.035.08c-1.35.052-2.34.078-2.98.078q-1.409,0-4.543.158c.042-.326.07-.832.1-1.514s.048-1.161.076-1.476q.036-1.493.132-4.818t.1-5q0-1.277.039-3.933t.038-3.974V38.028q0-1.361-.133-4.151t-.171-4.15Z" transform="translate(84.03 22.989)" fill="#fff" fill-rule="evenodd"/>
      <path id="Fill-22" d="M128,38.185V42.3c0,1.666-.029,2.932-.078,3.8q4.2,0,6.11-1.848t1.909-5.645a13.306,13.306,0,0,0-.231-2.655,5.286,5.286,0,0,0-1.056-2.371,3.764,3.764,0,0,0-1.723-1.152,8.668,8.668,0,0,0-2.335-.352q-1.337-.041-2.6-.08ZM130,51.324q-1.2-2.182-1.513-2.655c-.126-.224-.264-.335-.405-.335s-.234.111-.234.335q0,1.513.08,4.622c.049,2.072.078,3.618.078,4.643v1.434q.076,2.1.405,5.487c-.476-.025-1.18-.072-2.111-.136s-1.626-.1-2.091-.1-1.156.032-2.114.1-1.652.111-2.094.136l.081-.963c.011-.406.031-.836.057-1.288s.05-.8.069-1.052.054-.623.108-1.12q.231-3.384.231-10.328c0-1.036-.016-2.616-.038-4.74s-.038-3.71-.038-4.758q0-3.7-.311-11.605l3.565.157q1.219,0,3.679-.078t3.7-.08q6.182,0,8.33,1.063a8.4,8.4,0,0,1,4.535,7.651,8.955,8.955,0,0,1-2.151,6.164,10.658,10.658,0,0,1-5.869,3.256q1.975,3.618,9.123,14.732l1.823,2.989c-.5-.025-1.286-.072-2.344-.136s-1.842-.1-2.344-.1q-2.288,0-4.668.235l-5.947-10.719Z" transform="translate(95.128 22.989)" fill="#fff" fill-rule="evenodd"/>
      <path id="Fill-24" d="M149.99,61.787a17.464,17.464,0,0,0,6.32-.964,9.874,9.874,0,0,0,4.394-3.776q2.886-4.266,2.886-11.133a19.714,19.714,0,0,0-.853-5.664,12.249,12.249,0,0,0-2.527-4.721,9.216,9.216,0,0,0-4.223-2.822,19.987,19.987,0,0,0-5.761-.718q-.591,0-1.807.1t-1.887.136q-.314,8.793-.314,26.179v3.3q1.277.079,3.774.079m-5.545-32.63q.867,0,2.695-.078c1.22-.052,2.141-.08,2.772-.08q3.792,0,5.718.157a26.389,26.389,0,0,1,7.253,1.456,11.683,11.683,0,0,1,4.891,3.464,17.119,17.119,0,0,1,4.288,11.936,19.88,19.88,0,0,1-1.487,7.907,18.432,18.432,0,0,1-4.8,6.433,16.187,16.187,0,0,1-5.983,3.519,25.124,25.124,0,0,1-7.46.984q-5.639,0-8.45-.078a7.657,7.657,0,0,0-1.3-.08q-1.516,0-4.58.158.469-9.164.473-18.291v-5.31q0-1.279-.1-3.8t-.14-3.855q-.058-1.159-.117-2.312T138,29q4.323.159,6.445.157" transform="translate(109.398 22.989)" fill="#fff" fill-rule="evenodd"/>
    </g>
  </g>
</svg>
