<svg id="ui" xmlns="http://www.w3.org/2000/svg" width="84.409" height="84.409" viewBox="0 0 84.409 84.409">
  <g id="Group_289" data-name="Group 289">
    <g id="Group_288" data-name="Group 288">
      <path id="Path_1336" data-name="Path 1336" d="M78.078,0H6.331A6.338,6.338,0,0,0,0,6.331V78.078a6.338,6.338,0,0,0,6.331,6.331H78.078a6.338,6.338,0,0,0,6.331-6.331V6.331A6.338,6.338,0,0,0,78.078,0ZM81.6,78.078A3.521,3.521,0,0,1,78.078,81.6H6.331a3.522,3.522,0,0,1-3.517-3.517V6.331A3.522,3.522,0,0,1,6.331,2.814H78.078A3.522,3.522,0,0,1,81.6,6.331Z" fill="#fff"/>
    </g>
  </g>
  <g id="Group_291" data-name="Group 291" transform="translate(5.627 5.627)">
    <g id="Group_290" data-name="Group 290">
      <path id="Path_1337" data-name="Path 1337" d="M41.168,34.133H35.541a1.407,1.407,0,0,0-1.407,1.407v5.627a1.407,1.407,0,0,0,1.407,1.407h5.627a1.407,1.407,0,0,0,1.407-1.407V35.54A1.407,1.407,0,0,0,41.168,34.133ZM39.761,39.76H36.948V36.947h2.814Z" transform="translate(-34.134 -34.133)" fill="#fff"/>
    </g>
  </g>
  <g id="Group_293" data-name="Group 293" transform="translate(16.882 5.627)">
    <g id="Group_292" data-name="Group 292">
      <path id="Path_1338" data-name="Path 1338" d="M109.435,34.133h-5.627A1.407,1.407,0,0,0,102.4,35.54v5.627a1.407,1.407,0,0,0,1.407,1.407h5.627a1.407,1.407,0,0,0,1.407-1.407V35.54A1.407,1.407,0,0,0,109.435,34.133Zm-1.407,5.627h-2.814V36.947h2.814Z" transform="translate(-102.401 -34.133)" fill="#fff"/>
    </g>
  </g>
  <g id="Group_295" data-name="Group 295" transform="translate(28.136 5.627)">
    <g id="Group_294" data-name="Group 294">
      <path id="Path_1339" data-name="Path 1339" d="M177.7,34.133h-5.627a1.407,1.407,0,0,0-1.407,1.407v5.627a1.407,1.407,0,0,0,1.407,1.407H177.7a1.407,1.407,0,0,0,1.407-1.407V35.54A1.407,1.407,0,0,0,177.7,34.133Zm-1.407,5.627H173.48V36.947h2.814Z" transform="translate(-170.667 -34.133)" fill="#fff"/>
    </g>
  </g>
  <g id="Group_297" data-name="Group 297">
    <g id="Group_296" data-name="Group 296">
      <path id="Path_1340" data-name="Path 1340" d="M78.078,0H6.331A6.338,6.338,0,0,0,0,6.331V18.288A1.407,1.407,0,0,0,1.407,19.7H83a1.407,1.407,0,0,0,1.407-1.407V6.331A6.338,6.338,0,0,0,78.078,0ZM81.6,16.882H2.814V6.331A3.522,3.522,0,0,1,6.331,2.814H78.078A3.522,3.522,0,0,1,81.6,6.331Z" fill="#fff"/>
    </g>
  </g>
  <g id="Group_299" data-name="Group 299" transform="translate(9.848 23.916)">
    <g id="Group_298" data-name="Group 298">
      <path id="Path_1341" data-name="Path 1341" d="M119.231,145.067H64.948a5.221,5.221,0,0,0-5.215,5.215v31.774a5.221,5.221,0,0,0,5.215,5.215h54.283a5.221,5.221,0,0,0,5.215-5.215V150.282A5.221,5.221,0,0,0,119.231,145.067Zm2.4,36.989a2.4,2.4,0,0,1-2.4,2.4H64.948a2.4,2.4,0,0,1-2.4-2.4V150.282a2.4,2.4,0,0,1,2.4-2.4h54.283a2.4,2.4,0,0,1,2.4,2.4v31.774Z" transform="translate(-59.733 -145.067)" fill="#fff"/>
    </g>
  </g>
  <g id="Group_301" data-name="Group 301" transform="translate(60.493 40.798)">
    <g id="Group_300" data-name="Group 300">
      <path id="Path_1342" data-name="Path 1342" d="M373.968,247.467h-5.627a1.407,1.407,0,0,0-1.407,1.407V254.5a1.407,1.407,0,0,0,1.407,1.407h5.627a1.407,1.407,0,0,0,1.407-1.407v-5.627A1.407,1.407,0,0,0,373.968,247.467Zm-1.407,5.627h-2.814v-2.814h2.814Z" transform="translate(-366.934 -247.467)" fill="#fff"/>
    </g>
  </g>
  <g id="Group_303" data-name="Group 303" transform="translate(15.475 29.543)">
    <g id="Group_302" data-name="Group 302">
      <path id="Path_1343" data-name="Path 1343" d="M134.664,179.2H95.274a1.407,1.407,0,0,0-1.407,1.407v28.136a1.407,1.407,0,0,0,1.407,1.407h39.391a1.407,1.407,0,0,0,1.407-1.407V180.607A1.407,1.407,0,0,0,134.664,179.2Zm-1.407,28.136H96.681V182.014h36.577Z" transform="translate(-93.867 -179.2)" fill="#fff"/>
    </g>
  </g>
  <g id="Group_305" data-name="Group 305" transform="translate(33.763 74.561)">
    <g id="Group_304" data-name="Group 304">
      <path id="Path_1344" data-name="Path 1344" d="M221.682,452.267H206.207a1.407,1.407,0,0,0,0,2.814h15.475a1.407,1.407,0,0,0,0-2.814Z" transform="translate(-204.8 -452.267)" fill="#fff"/>
    </g>
  </g>
  <g id="Group_307" data-name="Group 307" transform="translate(36.577 68.934)">
    <g id="Group_306" data-name="Group 306">
      <path id="Path_1345" data-name="Path 1345" d="M233.121,418.133h-9.848a1.407,1.407,0,1,0,0,2.814h9.848a1.407,1.407,0,1,0,0-2.814Z" transform="translate(-221.867 -418.133)" fill="#fff"/>
    </g>
  </g>
  <g id="Group_309" data-name="Group 309" transform="translate(11.255 74.561)">
    <g id="Group_308" data-name="Group 308">
      <path id="Path_1346" data-name="Path 1346" d="M83.742,452.267H69.674a1.407,1.407,0,1,0,0,2.814H83.742a1.407,1.407,0,1,0,0-2.814Z" transform="translate(-68.267 -452.267)" fill="#fff"/>
    </g>
  </g>
  <g id="Group_311" data-name="Group 311" transform="translate(14.068 68.934)">
    <g id="Group_310" data-name="Group 310">
      <path id="Path_1347" data-name="Path 1347" d="M95.182,418.133H86.741a1.407,1.407,0,1,0,0,2.814h8.441a1.407,1.407,0,1,0,0-2.814Z" transform="translate(-85.334 -418.133)" fill="#fff"/>
    </g>
  </g>
  <g id="Group_313" data-name="Group 313" transform="translate(57.679 74.561)">
    <g id="Group_312" data-name="Group 312">
      <path id="Path_1348" data-name="Path 1348" d="M365.342,452.267H351.274a1.407,1.407,0,0,0,0,2.814h14.068a1.407,1.407,0,0,0,0-2.814Z" transform="translate(-349.867 -452.267)" fill="#fff"/>
    </g>
  </g>
  <g id="Group_315" data-name="Group 315" transform="translate(60.493 68.934)">
    <g id="Group_314" data-name="Group 314">
      <path id="Path_1349" data-name="Path 1349" d="M376.782,418.133h-8.441a1.407,1.407,0,0,0,0,2.814h8.441a1.407,1.407,0,1,0,0-2.814Z" transform="translate(-366.934 -418.133)" fill="#fff"/>
    </g>
  </g>
  <g id="Group_317" data-name="Group 317" transform="translate(22.508 40.797)">
    <g id="Group_316" data-name="Group 316">
      <path id="Path_1350" data-name="Path 1350" d="M145.966,247.877a1.405,1.405,0,0,0-1.989,0l-7.034,7.034a1.407,1.407,0,1,0,1.989,1.989l7.034-7.034A1.405,1.405,0,0,0,145.966,247.877Z" transform="translate(-136.53 -247.464)" fill="#fff"/>
    </g>
  </g>
  <g id="Group_319" data-name="Group 319" transform="translate(29.543 40.797)">
    <g id="Group_318" data-name="Group 318">
      <path id="Path_1351" data-name="Path 1351" d="M188.633,254.911l-7.034-7.034a1.407,1.407,0,0,0-1.989,1.989l7.034,7.034a1.407,1.407,0,0,0,1.989-1.989Z" transform="translate(-179.197 -247.464)" fill="#fff"/>
    </g>
  </g>
  <g id="Group_321" data-name="Group 321" transform="translate(33.763 37.983)">
    <g id="Group_320" data-name="Group 320">
      <path id="Path_1352" data-name="Path 1352" d="M214.233,230.81a1.405,1.405,0,0,0-1.989,0l-7.034,7.034a1.407,1.407,0,1,0,1.989,1.989l7.034-7.034A1.405,1.405,0,0,0,214.233,230.81Z" transform="translate(-204.797 -230.397)" fill="#fff"/>
    </g>
  </g>
  <g id="Group_323" data-name="Group 323" transform="translate(40.797 37.983)">
    <g id="Group_322" data-name="Group 322">
      <path id="Path_1353" data-name="Path 1353" d="M256.9,237.844l-7.034-7.034a1.407,1.407,0,0,0-1.989,1.989l7.034,7.034a1.407,1.407,0,1,0,1.989-1.989Z" transform="translate(-247.464 -230.397)" fill="#fff"/>
    </g>
  </g>
</svg>
