<svg xmlns="http://www.w3.org/2000/svg" width="171.956" height="171.957" viewBox="0 0 171.956 171.957">
  <path id="Path_133" data-name="Path 133" d="M171.671,104.854l.026-.009-28.232-61.6,6.847-3.408-2.562-5.13-6.675,3.324-.9-1.969a2.866,2.866,0,0,0-5.21,0l-.805,1.76a36.866,36.866,0,0,0-15.5-3.431H94.578V28.66h5.732V22.928H95.383l2.061-8.245a11.816,11.816,0,1,0-22.927,0l2.061,8.245H71.65V28.66h5.732v5.732H53.323A36.867,36.867,0,0,0,37.8,37.831L37,36.071a2.866,2.866,0,0,0-5.21,0l-.9,1.969L24.21,34.7l-2.562,5.136,6.847,3.422L.263,104.845A2.8,2.8,0,0,0,0,106.04,20.084,20.084,0,0,0,20.063,126.1H48.723A20.084,20.084,0,0,0,68.784,106.04a2.8,2.8,0,0,0-.287-1.187L40.188,43.021a31.173,31.173,0,0,1,13.135-2.9H77.382V144.977L67.6,154.761H57.32a14.347,14.347,0,0,0-14.33,14.33,2.866,2.866,0,0,0,2.866,2.866H126.1a2.866,2.866,0,0,0,2.866-2.866,14.347,14.347,0,0,0-14.33-14.33H104.362l-9.784-9.784V40.124h24.074a31.173,31.173,0,0,1,13.135,2.9l-28.35,61.824a2.8,2.8,0,0,0-.261,1.2A20.084,20.084,0,0,0,123.237,126.1H151.9a20.084,20.084,0,0,0,20.061-20.061A2.791,2.791,0,0,0,171.671,104.854ZM48.723,120.37H20.063A14.353,14.353,0,0,1,6.02,108.906H62.766A14.352,14.352,0,0,1,48.723,120.37Zm12.73-17.2H7.333L33.659,45.738a2.831,2.831,0,0,0,1.467,0Zm19.732-95.1a6.271,6.271,0,0,1,9.589,0,6.05,6.05,0,0,1,1.109,5.222l-2.41,9.635H82.486l-2.41-9.635A6.051,6.051,0,0,1,81.185,8.071Zm1.929,26.321V28.66h5.732v5.732Zm5.732,5.732V143.3H83.114V40.124Zm25.793,120.369a8.615,8.615,0,0,1,8.108,5.732H49.213a8.615,8.615,0,0,1,8.108-5.732Zm-18.382-5.732H75.7l5.732-5.732h9.091Zm40.57-109.014a1.957,1.957,0,0,0,1.45-.06l26.349,57.488h-54.12ZM151.9,120.37H123.237a14.353,14.353,0,0,1-14.043-11.464h56.745A14.352,14.352,0,0,1,151.9,120.37Z" transform="translate(-0.002 0.001)" fill="#fff"/>
</svg>
